<?xml version="1.0" encoding="UTF-8" standalone="no"?>
<!DOCTYPE svg PUBLIC "-//W3C//DTD SVG 1.1//EN"
 "http://www.w3.org/Graphics/SVG/1.1/DTD/svg11.dtd">
<!-- Generated by graphviz version 2.38.0 (20140413.2041)
 -->
<!-- Title: snakemake_dag Pages: 1 -->
<svg width="435pt" height="980pt"
 viewBox="0.00 0.00 434.78 980.00" xmlns="http://www.w3.org/2000/svg" xmlns:xlink="http://www.w3.org/1999/xlink">
<g id="graph0" class="graph" transform="scale(1 1) rotate(0) translate(4 976)">
<title>snakemake_dag</title>
<polygon fill="white" stroke="none" points="-4,4 -4,-976 430.779,-976 430.779,4 -4,4"/>
<!-- 0 -->
<g id="node1" class="node"><title>0</title>
<path fill="none" stroke="#d87556" stroke-width="2" d="M291.279,-828C291.279,-828 145.279,-828 145.279,-828 139.279,-828 133.279,-822 133.279,-816 133.279,-816 133.279,-804 133.279,-804 133.279,-798 139.279,-792 145.279,-792 145.279,-792 291.279,-792 291.279,-792 297.279,-792 303.279,-798 303.279,-804 303.279,-804 303.279,-816 303.279,-816 303.279,-822 297.279,-828 291.279,-828"/>
<text text-anchor="middle" x="218.279" y="-807.5" font-family="sans" font-size="10.00">error_correction_spades_paired</text>
</g>
<!-- 11 -->
<g id="node12" class="node"><title>11</title>
<path fill="none" stroke="#56d86b" stroke-width="2" d="M253.779,-756C253.779,-756 190.779,-756 190.779,-756 184.779,-756 178.779,-750 178.779,-744 178.779,-744 178.779,-732 178.779,-732 178.779,-726 184.779,-720 190.779,-720 190.779,-720 253.779,-720 253.779,-720 259.779,-720 265.779,-726 265.779,-732 265.779,-732 265.779,-744 265.779,-744 265.779,-750 259.779,-756 253.779,-756"/>
<text text-anchor="middle" x="222.279" y="-735.5" font-family="sans" font-size="10.00">spades_paired</text>
</g>
<!-- 0&#45;&gt;11 -->
<g id="edge17" class="edge"><title>0&#45;&gt;11</title>
<path fill="none" stroke="grey" stroke-width="2" d="M219.267,-791.697C219.708,-783.983 220.238,-774.712 220.729,-766.112"/>
<polygon fill="grey" stroke="grey" stroke-width="2" points="224.225,-766.288 221.301,-756.104 217.236,-765.888 224.225,-766.288"/>
</g>
<!-- 1 -->
<g id="node2" class="node"><title>1</title>
<path fill="none" stroke="#d89556" stroke-width="2" d="M182.279,-900C182.279,-900 108.279,-900 108.279,-900 102.279,-900 96.2787,-894 96.2787,-888 96.2787,-888 96.2787,-876 96.2787,-876 96.2787,-870 102.279,-864 108.279,-864 108.279,-864 182.279,-864 182.279,-864 188.279,-864 194.279,-870 194.279,-876 194.279,-876 194.279,-888 194.279,-888 194.279,-894 188.279,-900 182.279,-900"/>
<text text-anchor="middle" x="145.279" y="-879.5" font-family="sans" font-size="10.00">trimmomatic_PE</text>
</g>
<!-- 1&#45;&gt;0 -->
<g id="edge1" class="edge"><title>1&#45;&gt;0</title>
<path fill="none" stroke="grey" stroke-width="2" d="M163.324,-863.697C172.341,-855.05 183.397,-844.449 193.222,-835.027"/>
<polygon fill="grey" stroke="grey" stroke-width="2" points="195.646,-837.552 200.441,-828.104 190.801,-832.499 195.646,-837.552"/>
</g>
<!-- 7 -->
<g id="node8" class="node"><title>7</title>
<path fill="none" stroke="#56d863" stroke-width="2" d="M206.779,-108C206.779,-108 75.7787,-108 75.7787,-108 69.7787,-108 63.7787,-102 63.7787,-96 63.7787,-96 63.7787,-84 63.7787,-84 63.7787,-78 69.7787,-72 75.7787,-72 75.7787,-72 206.779,-72 206.779,-72 212.779,-72 218.779,-78 218.779,-84 218.779,-84 218.779,-96 218.779,-96 218.779,-102 212.779,-108 206.779,-108"/>
<text text-anchor="middle" x="141.279" y="-87.5" font-family="sans" font-size="10.00">get_files_for_multiqc_paired</text>
</g>
<!-- 1&#45;&gt;7 -->
<g id="edge8" class="edge"><title>1&#45;&gt;7</title>
<path fill="none" stroke="grey" stroke-width="2" d="M95.9812,-870.972C70.48,-863.324 40.88,-850.182 22.2787,-828 -3.83598,-796.859 1.27866,-779.642 1.27866,-739 1.27866,-739 1.27866,-739 1.27866,-233 1.27866,-178.009 55.1793,-136.589 96.0912,-113.072"/>
<polygon fill="grey" stroke="grey" stroke-width="2" points="97.8286,-116.11 104.861,-108.186 94.4216,-109.995 97.8286,-116.11"/>
</g>
<!-- 14 -->
<g id="node15" class="node"><title>14</title>
<path fill="none" stroke="#5692d8" stroke-width="2" d="M102.779,-828C102.779,-828 43.7787,-828 43.7787,-828 37.7787,-828 31.7787,-822 31.7787,-816 31.7787,-816 31.7787,-804 31.7787,-804 31.7787,-798 37.7787,-792 43.7787,-792 43.7787,-792 102.779,-792 102.779,-792 108.779,-792 114.779,-798 114.779,-804 114.779,-804 114.779,-816 114.779,-816 114.779,-822 108.779,-828 102.779,-828"/>
<text text-anchor="middle" x="73.2787" y="-807.5" font-family="sans" font-size="10.00">fastqc_paired</text>
</g>
<!-- 1&#45;&gt;14 -->
<g id="edge20" class="edge"><title>1&#45;&gt;14</title>
<path fill="none" stroke="grey" stroke-width="2" d="M127.481,-863.697C118.675,-855.135 107.897,-844.656 98.2776,-835.304"/>
<polygon fill="grey" stroke="grey" stroke-width="2" points="100.481,-832.566 90.8717,-828.104 95.6019,-837.585 100.481,-832.566"/>
</g>
<!-- 2 -->
<g id="node3" class="node"><title>2</title>
<path fill="none" stroke="#d88556" stroke-width="2" d="M207.279,-252C207.279,-252 177.279,-252 177.279,-252 171.279,-252 165.279,-246 165.279,-240 165.279,-240 165.279,-228 165.279,-228 165.279,-222 171.279,-216 177.279,-216 177.279,-216 207.279,-216 207.279,-216 213.279,-216 219.279,-222 219.279,-228 219.279,-228 219.279,-240 219.279,-240 219.279,-246 213.279,-252 207.279,-252"/>
<text text-anchor="middle" x="192.279" y="-231.5" font-family="sans" font-size="10.00">prokka</text>
</g>
<!-- 2&#45;&gt;7 -->
<g id="edge10" class="edge"><title>2&#45;&gt;7</title>
<path fill="none" stroke="grey" stroke-width="2" d="M191.546,-215.681C190.274,-197.302 186.795,-167.702 177.279,-144 173.403,-134.347 167.555,-124.674 161.693,-116.284"/>
<polygon fill="grey" stroke="grey" stroke-width="2" points="164.397,-114.053 155.66,-108.059 158.752,-118.193 164.397,-114.053"/>
</g>
<!-- 13 -->
<g id="node14" class="node"><title>13</title>
<path fill="none" stroke="#569ad8" stroke-width="2" d="M156.279,-180C156.279,-180 126.279,-180 126.279,-180 120.279,-180 114.279,-174 114.279,-168 114.279,-168 114.279,-156 114.279,-156 114.279,-150 120.279,-144 126.279,-144 126.279,-144 156.279,-144 156.279,-144 162.279,-144 168.279,-150 168.279,-156 168.279,-156 168.279,-168 168.279,-168 168.279,-174 162.279,-180 156.279,-180"/>
<text text-anchor="middle" x="141.279" y="-159.5" font-family="sans" font-size="10.00">quast</text>
</g>
<!-- 2&#45;&gt;13 -->
<g id="edge19" class="edge"><title>2&#45;&gt;13</title>
<path fill="none" stroke="grey" stroke-width="2" d="M179.672,-215.697C173.681,-207.474 166.402,-197.483 159.799,-188.421"/>
<polygon fill="grey" stroke="grey" stroke-width="2" points="162.458,-186.126 153.74,-180.104 156.8,-190.248 162.458,-186.126"/>
</g>
<!-- 3 -->
<g id="node4" class="node"><title>3</title>
<path fill="none" stroke="#d88d56" stroke-width="2" d="M308.779,-396C308.779,-396 195.779,-396 195.779,-396 189.779,-396 183.779,-390 183.779,-384 183.779,-384 183.779,-372 183.779,-372 183.779,-366 189.779,-360 195.779,-360 195.779,-360 308.779,-360 308.779,-360 314.779,-360 320.779,-366 320.779,-372 320.779,-372 320.779,-384 320.779,-384 320.779,-390 314.779,-396 308.779,-396"/>
<text text-anchor="middle" x="252.279" y="-375.5" font-family="sans" font-size="10.00">extract_contig_coverage</text>
</g>
<!-- 5 -->
<g id="node6" class="node"><title>5</title>
<path fill="none" stroke="#d85e56" stroke-width="2" d="M254.279,-324C254.279,-324 130.279,-324 130.279,-324 124.279,-324 118.279,-318 118.279,-312 118.279,-312 118.279,-300 118.279,-300 118.279,-294 124.279,-288 130.279,-288 130.279,-288 254.279,-288 254.279,-288 260.279,-288 266.279,-294 266.279,-300 266.279,-300 266.279,-312 266.279,-312 266.279,-318 260.279,-324 254.279,-324"/>
<text text-anchor="middle" x="192.279" y="-303.5" font-family="sans" font-size="10.00">filter_contigs_on_coverage</text>
</g>
<!-- 3&#45;&gt;5 -->
<g id="edge6" class="edge"><title>3&#45;&gt;5</title>
<path fill="none" stroke="grey" stroke-width="2" d="M237.447,-359.697C230.254,-351.305 221.482,-341.07 213.588,-331.861"/>
<polygon fill="grey" stroke="grey" stroke-width="2" points="216.105,-329.419 206.94,-324.104 210.79,-333.975 216.105,-329.419"/>
</g>
<!-- 4 -->
<g id="node5" class="node"><title>4</title>
<path fill="none" stroke="#56d85b" stroke-width="2" d="M305.279,-972C305.279,-972 171.279,-972 171.279,-972 165.279,-972 159.279,-966 159.279,-960 159.279,-960 159.279,-948 159.279,-948 159.279,-942 165.279,-936 171.279,-936 171.279,-936 305.279,-936 305.279,-936 311.279,-936 317.279,-942 317.279,-948 317.279,-948 317.279,-960 317.279,-960 317.279,-966 311.279,-972 305.279,-972"/>
<text text-anchor="middle" x="238.279" y="-957" font-family="sans" font-size="10.00">copy_fastq_paired_from_link</text>
<text text-anchor="middle" x="238.279" y="-946" font-family="sans" font-size="10.00">sample: 1712113810&#45;strain</text>
</g>
<!-- 4&#45;&gt;1 -->
<g id="edge2" class="edge"><title>4&#45;&gt;1</title>
<path fill="none" stroke="grey" stroke-width="2" d="M215.29,-935.697C203.465,-926.796 188.887,-915.823 176.1,-906.199"/>
<polygon fill="grey" stroke="grey" stroke-width="2" points="178.098,-903.322 168.003,-900.104 173.888,-908.915 178.098,-903.322"/>
</g>
<!-- 8 -->
<g id="node9" class="node"><title>8</title>
<path fill="none" stroke="#56d88a" stroke-width="2" d="M414.779,-540C414.779,-540 211.779,-540 211.779,-540 205.779,-540 199.779,-534 199.779,-528 199.779,-528 199.779,-516 199.779,-516 199.779,-510 205.779,-504 211.779,-504 211.779,-504 414.779,-504 414.779,-504 420.779,-504 426.779,-510 426.779,-516 426.779,-516 426.779,-528 426.779,-528 426.779,-534 420.779,-540 414.779,-540"/>
<text text-anchor="middle" x="313.279" y="-519.5" font-family="sans" font-size="10.00">align_paired_reads_to_assembled_genome</text>
</g>
<!-- 4&#45;&gt;8 -->
<g id="edge14" class="edge"><title>4&#45;&gt;8</title>
<path fill="none" stroke="grey" stroke-width="2" d="M259.382,-935.68C286.821,-911.075 331.279,-863.161 331.279,-811 331.279,-811 331.279,-811 331.279,-665 331.279,-624.896 324.125,-578.924 318.838,-550.419"/>
<polygon fill="grey" stroke="grey" stroke-width="2" points="322.237,-549.563 316.921,-540.399 315.362,-550.878 322.237,-549.563"/>
</g>
<!-- 5&#45;&gt;2 -->
<g id="edge3" class="edge"><title>5&#45;&gt;2</title>
<path fill="none" stroke="grey" stroke-width="2" d="M192.279,-287.697C192.279,-279.983 192.279,-270.712 192.279,-262.112"/>
<polygon fill="grey" stroke="grey" stroke-width="2" points="195.779,-262.104 192.279,-252.104 188.779,-262.104 195.779,-262.104"/>
</g>
<!-- 6 -->
<g id="node7" class="node"><title>6</title>
<path fill="none" stroke="#c6d856" stroke-width="2" d="M131.279,-684C131.279,-684 41.2787,-684 41.2787,-684 35.2787,-684 29.2787,-678 29.2787,-672 29.2787,-672 29.2787,-660 29.2787,-660 29.2787,-654 35.2787,-648 41.2787,-648 41.2787,-648 131.279,-648 131.279,-648 137.279,-648 143.279,-654 143.279,-660 143.279,-660 143.279,-672 143.279,-672 143.279,-678 137.279,-684 131.279,-684"/>
<text text-anchor="middle" x="86.2787" y="-663.5" font-family="sans" font-size="10.00">unzip_fastqc_paired</text>
</g>
<!-- 6&#45;&gt;7 -->
<g id="edge12" class="edge"><title>6&#45;&gt;7</title>
<path fill="none" stroke="grey" stroke-width="2" d="M86.2787,-647.951C86.2787,-621.292 86.2787,-568.115 86.2787,-523 86.2787,-523 86.2787,-523 86.2787,-233 86.2787,-192.553 89.3979,-181.199 105.279,-144 109.363,-134.433 115.267,-124.784 121.117,-116.388"/>
<polygon fill="grey" stroke="grey" stroke-width="2" points="124.058,-118.294 127.114,-108.149 118.399,-114.174 124.058,-118.294"/>
</g>
<!-- 15 -->
<g id="node16" class="node"><title>15</title>
<path fill="none" stroke="#d8a456" stroke-width="2" d="M164.779,-36C164.779,-36 117.779,-36 117.779,-36 111.779,-36 105.779,-30 105.779,-24 105.779,-24 105.779,-12 105.779,-12 105.779,-6 111.779,-0 117.779,-0 117.779,-0 164.779,-0 164.779,-0 170.779,-0 176.779,-6 176.779,-12 176.779,-12 176.779,-24 176.779,-24 176.779,-30 170.779,-36 164.779,-36"/>
<text text-anchor="middle" x="141.279" y="-15.5" font-family="sans" font-size="10.00">multiqc_all</text>
</g>
<!-- 7&#45;&gt;15 -->
<g id="edge21" class="edge"><title>7&#45;&gt;15</title>
<path fill="none" stroke="grey" stroke-width="2" d="M141.279,-71.6966C141.279,-63.9827 141.279,-54.7125 141.279,-46.1124"/>
<polygon fill="grey" stroke="grey" stroke-width="2" points="144.779,-46.1043 141.279,-36.1043 137.779,-46.1044 144.779,-46.1043"/>
</g>
<!-- 12 -->
<g id="node13" class="node"><title>12</title>
<path fill="none" stroke="#5673d8" stroke-width="2" d="M356.279,-468C356.279,-468 270.279,-468 270.279,-468 264.279,-468 258.279,-462 258.279,-456 258.279,-456 258.279,-444 258.279,-444 258.279,-438 264.279,-432 270.279,-432 270.279,-432 356.279,-432 356.279,-432 362.279,-432 368.279,-438 368.279,-444 368.279,-444 368.279,-456 368.279,-456 368.279,-462 362.279,-468 356.279,-468"/>
<text text-anchor="middle" x="313.279" y="-447.5" font-family="sans" font-size="10.00">qualimap_mapping</text>
</g>
<!-- 8&#45;&gt;12 -->
<g id="edge18" class="edge"><title>8&#45;&gt;12</title>
<path fill="none" stroke="grey" stroke-width="2" d="M313.279,-503.697C313.279,-495.983 313.279,-486.712 313.279,-478.112"/>
<polygon fill="grey" stroke="grey" stroke-width="2" points="316.779,-478.104 313.279,-468.104 309.779,-478.104 316.779,-478.104"/>
</g>
<!-- 9 -->
<g id="node10" class="node"><title>9</title>
<path fill="none" stroke="#56d882" stroke-width="2" d="M260.779,-612C260.779,-612 189.779,-612 189.779,-612 183.779,-612 177.779,-606 177.779,-600 177.779,-600 177.779,-588 177.779,-588 177.779,-582 183.779,-576 189.779,-576 189.779,-576 260.779,-576 260.779,-576 266.779,-576 272.779,-582 272.779,-588 272.779,-588 272.779,-600 272.779,-600 272.779,-606 266.779,-612 260.779,-612"/>
<text text-anchor="middle" x="225.279" y="-591.5" font-family="sans" font-size="10.00">rename_contigs</text>
</g>
<!-- 9&#45;&gt;5 -->
<g id="edge5" class="edge"><title>9&#45;&gt;5</title>
<path fill="none" stroke="grey" stroke-width="2" d="M211.025,-575.986C203.558,-566.108 195.005,-553.065 190.279,-540 162.954,-464.476 161.19,-439.242 174.279,-360 175.72,-351.275 178.411,-342.056 181.281,-333.797"/>
<polygon fill="grey" stroke="grey" stroke-width="2" points="184.609,-334.889 184.799,-324.296 178.044,-332.458 184.609,-334.889"/>
</g>
<!-- 9&#45;&gt;8 -->
<g id="edge13" class="edge"><title>9&#45;&gt;8</title>
<path fill="none" stroke="grey" stroke-width="2" d="M247.031,-575.697C258.114,-566.881 271.753,-556.032 283.768,-546.474"/>
<polygon fill="grey" stroke="grey" stroke-width="2" points="286.129,-549.069 291.776,-540.104 281.771,-543.59 286.129,-549.069"/>
</g>
<!-- 10 -->
<g id="node11" class="node"><title>10</title>
<path fill="none" stroke="#a7d856" stroke-width="2" d="M276.779,-684C276.779,-684 173.779,-684 173.779,-684 167.779,-684 161.779,-678 161.779,-672 161.779,-672 161.779,-660 161.779,-660 161.779,-654 167.779,-648 173.779,-648 173.779,-648 276.779,-648 276.779,-648 282.779,-648 288.779,-654 288.779,-660 288.779,-660 288.779,-672 288.779,-672 288.779,-678 282.779,-684 276.779,-684"/>
<text text-anchor="middle" x="225.279" y="-663.5" font-family="sans" font-size="10.00">extract_contigs_500bp</text>
</g>
<!-- 10&#45;&gt;9 -->
<g id="edge15" class="edge"><title>10&#45;&gt;9</title>
<path fill="none" stroke="grey" stroke-width="2" d="M225.279,-647.697C225.279,-639.983 225.279,-630.712 225.279,-622.112"/>
<polygon fill="grey" stroke="grey" stroke-width="2" points="228.779,-622.104 225.279,-612.104 221.779,-622.104 228.779,-622.104"/>
</g>
<!-- 11&#45;&gt;10 -->
<g id="edge16" class="edge"><title>11&#45;&gt;10</title>
<path fill="none" stroke="grey" stroke-width="2" d="M223.02,-719.697C223.351,-711.983 223.748,-702.712 224.117,-694.112"/>
<polygon fill="grey" stroke="grey" stroke-width="2" points="227.614,-694.245 224.546,-684.104 220.621,-693.945 227.614,-694.245"/>
</g>
<!-- 12&#45;&gt;3 -->
<g id="edge4" class="edge"><title>12&#45;&gt;3</title>
<path fill="none" stroke="grey" stroke-width="2" d="M298.2,-431.697C290.887,-423.305 281.969,-413.07 273.944,-403.861"/>
<polygon fill="grey" stroke="grey" stroke-width="2" points="276.392,-401.344 267.184,-396.104 271.115,-405.943 276.392,-401.344"/>
</g>
<!-- 12&#45;&gt;7 -->
<g id="edge11" class="edge"><title>12&#45;&gt;7</title>
<path fill="none" stroke="grey" stroke-width="2" d="M320.564,-431.867C331.083,-405.531 349.279,-353.288 349.279,-307 349.279,-307 349.279,-307 349.279,-233 349.279,-168.595 280.415,-131.293 221.935,-111.228"/>
<polygon fill="grey" stroke="grey" stroke-width="2" points="222.872,-107.852 212.279,-108.036 220.675,-114.498 222.872,-107.852"/>
</g>
<!-- 13&#45;&gt;7 -->
<g id="edge9" class="edge"><title>13&#45;&gt;7</title>
<path fill="none" stroke="grey" stroke-width="2" d="M141.279,-143.697C141.279,-135.983 141.279,-126.712 141.279,-118.112"/>
<polygon fill="grey" stroke="grey" stroke-width="2" points="144.779,-118.104 141.279,-108.104 137.779,-118.104 144.779,-118.104"/>
</g>
<!-- 14&#45;&gt;6 -->
<g id="edge7" class="edge"><title>14&#45;&gt;6</title>
<path fill="none" stroke="grey" stroke-width="2" d="M74.8468,-791.871C77.0624,-767.67 81.1326,-723.211 83.7708,-694.393"/>
<polygon fill="grey" stroke="grey" stroke-width="2" points="87.2786,-694.467 84.705,-684.189 80.3078,-693.829 87.2786,-694.467"/>
</g>
</g>
</svg>
