<?xml version="1.0" encoding="UTF-8" standalone="no"?> <!DOCTYPE svg PUBLIC "-//W3C//DTD SVG 1.1//EN" "http://www.w3.org/Graphics/SVG/1.1/DTD/svg11.dtd"> <!-- Generated by graphviz version 2.40.1 (20161225.0304) --> <!-- Title: snakemake_dag Pages: 1 --> <svg width="650pt" height="928pt" viewBox="0.00 0.00 650.29 928.00" xmlns="http://www.w3.org/2000/svg" xmlns:xlink="http://www.w3.org/1999/xlink"> <g id="graph0" class="graph" transform="scale(1 1) rotate(0) translate(4 924)"> <title>snakemake_dag</title> <polygon fill="#ffffff" stroke="transparent" points="-4,4 -4,-924 646.289,-924 646.289,4 -4,4"/> <!-- 0 --> <g id="node1" class="node"> <title>0</title> <path fill="none" stroke="#568ad8" stroke-width="2" d="M470.3632,-848C470.3632,-848 318.3438,-848 318.3438,-848 312.3438,-848 306.3438,-842 306.3438,-836 306.3438,-836 306.3438,-824 306.3438,-824 306.3438,-818 312.3438,-812 318.3438,-812 318.3438,-812 470.3632,-812 470.3632,-812 476.3632,-812 482.3632,-818 482.3632,-824 482.3632,-824 482.3632,-836 482.3632,-836 482.3632,-842 476.3632,-848 470.3632,-848"/> <text text-anchor="middle" x="394.3535" y="-827" font-family="sans" font-size="10.00" fill="#000000">download_all_complete_genomes_fasta</text> </g> <!-- 17 --> <g id="node18" class="node"> <title>17</title> <path fill="none" stroke="#56d87b" stroke-width="2" d="M492.4065,-776C492.4065,-776 374.3005,-776 374.3005,-776 368.3005,-776 362.3005,-770 362.3005,-764 362.3005,-764 362.3005,-752 362.3005,-752 362.3005,-746 368.3005,-740 374.3005,-740 374.3005,-740 492.4065,-740 492.4065,-740 498.4065,-740 504.4065,-746 504.4065,-752 504.4065,-752 504.4065,-764 504.4065,-764 504.4065,-770 498.4065,-776 492.4065,-776"/> <text text-anchor="middle" x="433.3535" y="-755" font-family="sans" font-size="10.00" fill="#000000">calculate_core_genome_parsnp</text> </g> <!-- 0&#45;&gt;17 --> <g id="edge24" class="edge"> <title>0&#45;&gt;17</title> <path fill="none" stroke="#c0c0c0" stroke-width="2" d="M404.1948,-811.8314C408.5492,-803.7925 413.7633,-794.1666 418.5704,-785.2918"/> <polygon fill="#c0c0c0" stroke="#c0c0c0" stroke-width="2" points="421.6943,-786.8732 423.3796,-776.4133 415.5392,-783.5392 421.6943,-786.8732"/> </g> <!-- 1 --> <g id="node2" class="node"> <title>1</title> <path fill="none" stroke="#ced856" stroke-width="2" d="M492.4561,-704C492.4561,-704 374.2509,-704 374.2509,-704 368.2509,-704 362.2509,-698 362.2509,-692 362.2509,-692 362.2509,-680 362.2509,-680 362.2509,-674 368.2509,-668 374.2509,-668 374.2509,-668 492.4561,-668 492.4561,-668 498.4561,-668 504.4561,-674 504.4561,-680 504.4561,-680 504.4561,-692 504.4561,-692 504.4561,-698 498.4561,-704 492.4561,-704"/> <text text-anchor="middle" x="433.3535" y="-683" font-family="sans" font-size="10.00" fill="#000000">extract_core_genome_from_ref</text> </g> <!-- 19 --> <g id="node20" class="node"> <title>19</title> <path fill="none" stroke="#56b1d8" stroke-width="2" d="M458.0977,-344C458.0977,-344 292.6093,-344 292.6093,-344 286.6093,-344 280.6093,-338 280.6093,-332 280.6093,-332 280.6093,-320 280.6093,-320 280.6093,-314 286.6093,-308 292.6093,-308 292.6093,-308 458.0977,-308 458.0977,-308 464.0977,-308 470.0977,-314 470.0977,-320 470.0977,-320 470.0977,-332 470.0977,-332 470.0977,-338 464.0977,-344 458.0977,-344"/> <text text-anchor="middle" x="375.3535" y="-323" font-family="sans" font-size="10.00" fill="#000000">merge_vcfs_freebayes_filter_core_genome</text> </g> <!-- 1&#45;&gt;19 --> <g id="edge26" class="edge"> <title>1&#45;&gt;19</title> <path fill="none" stroke="#c0c0c0" stroke-width="2" d="M428.7951,-667.9498C422.3512,-640.8059 411.3535,-587.775 411.3535,-542 411.3535,-542 411.3535,-542 411.3535,-470 411.3535,-428.5072 397.1119,-382.2433 386.5437,-353.6245"/> <polygon fill="#c0c0c0" stroke="#c0c0c0" stroke-width="2" points="389.814,-352.3773 382.9882,-344.2743 383.2711,-354.8654 389.814,-352.3773"/> </g> <!-- 2 --> <g id="node3" class="node"> <title>2</title> <path fill="none" stroke="#d89c56" stroke-width="2" d="M233.747,-704C233.747,-704 106.96,-704 106.96,-704 100.96,-704 94.96,-698 94.96,-692 94.96,-692 94.96,-680 94.96,-680 94.96,-674 100.96,-668 106.96,-668 106.96,-668 233.747,-668 233.747,-668 239.747,-668 245.747,-674 245.747,-680 245.747,-680 245.747,-692 245.747,-692 245.747,-698 239.747,-704 233.747,-704"/> <text text-anchor="middle" x="170.3535" y="-683" font-family="sans" font-size="10.00" fill="#000000">mapping_to_reference_with_bwa</text> </g> <!-- 11 --> <g id="node12" class="node"> <title>11</title> <path fill="none" stroke="#56d8a9" stroke-width="2" d="M249.3165,-632C249.3165,-632 117.3905,-632 117.3905,-632 111.3905,-632 105.3905,-626 105.3905,-620 105.3905,-620 105.3905,-608 105.3905,-608 105.3905,-602 111.3905,-596 117.3905,-596 117.3905,-596 249.3165,-596 249.3165,-596 255.3165,-596 261.3165,-602 261.3165,-608 261.3165,-608 261.3165,-620 261.3165,-620 261.3165,-626 255.3165,-632 249.3165,-632"/> <text text-anchor="middle" x="183.3535" y="-611" font-family="sans" font-size="10.00" fill="#000000">remove_duplicates_from_mapping</text> </g> <!-- 2&#45;&gt;11 --> <g id="edge15" class="edge"> <title>2&#45;&gt;11</title> <path fill="none" stroke="#c0c0c0" stroke-width="2" d="M173.6339,-667.8314C175.0243,-660.131 176.6776,-650.9743 178.2227,-642.4166"/> <polygon fill="#c0c0c0" stroke="#c0c0c0" stroke-width="2" points="181.6963,-642.8761 180.0289,-632.4133 174.8077,-641.6322 181.6963,-642.8761"/> </g> <!-- 15 --> <g id="node16" class="node"> <title>15</title> <path fill="none" stroke="#d87d56" stroke-width="2" d="M480.9055,-36C480.9055,-36 267.8015,-36 267.8015,-36 261.8015,-36 255.8015,-30 255.8015,-24 255.8015,-24 255.8015,-12 255.8015,-12 255.8015,-6 261.8015,0 267.8015,0 267.8015,0 480.9055,0 480.9055,0 486.9055,0 492.9055,-6 492.9055,-12 492.9055,-12 492.9055,-24 492.9055,-24 492.9055,-30 486.9055,-36 480.9055,-36"/> <text text-anchor="middle" x="374.3535" y="-15" font-family="sans" font-size="10.00" fill="#000000">snp_distance_from_vcf_and_positions_for_close_pairs</text> </g> <!-- 2&#45;&gt;15 --> <g id="edge19" class="edge"> <title>2&#45;&gt;15</title> <path fill="none" stroke="#c0c0c0" stroke-width="2" d="M136.1495,-667.8147C122.0107,-658.7517 106.5697,-646.5918 96.3535,-632 72.474,-597.8928 70.3535,-583.6357 70.3535,-542 70.3535,-542 70.3535,-542 70.3535,-162 70.3535,-112.2039 205.258,-64.8497 295.3319,-38.7818"/> <polygon fill="#c0c0c0" stroke="#c0c0c0" stroke-width="2" points="296.3395,-42.134 304.9908,-36.0179 294.4138,-35.4041 296.3395,-42.134"/> </g> <!-- 3 --> <g id="node4" class="node"> <title>3</title> <path fill="none" stroke="#56d89a" stroke-width="2" d="M374.0838,-180C374.0838,-180 294.6232,-180 294.6232,-180 288.6232,-180 282.6232,-174 282.6232,-168 282.6232,-168 282.6232,-156 282.6232,-156 282.6232,-150 288.6232,-144 294.6232,-144 294.6232,-144 374.0838,-144 374.0838,-144 380.0838,-144 386.0838,-150 386.0838,-156 386.0838,-156 386.0838,-168 386.0838,-168 386.0838,-174 380.0838,-180 374.0838,-180"/> <text text-anchor="middle" x="334.3535" y="-159" font-family="sans" font-size="10.00" fill="#000000">split_mnps_into_snps</text> </g> <!-- 8 --> <g id="node9" class="node"> <title>8</title> <path fill="none" stroke="#56d88a" stroke-width="2" d="M375.3225,-108C375.3225,-108 293.3845,-108 293.3845,-108 287.3845,-108 281.3845,-102 281.3845,-96 281.3845,-96 281.3845,-84 281.3845,-84 281.3845,-78 287.3845,-72 293.3845,-72 293.3845,-72 375.3225,-72 375.3225,-72 381.3225,-72 387.3225,-78 387.3225,-84 387.3225,-84 387.3225,-96 387.3225,-96 387.3225,-102 381.3225,-108 375.3225,-108"/> <text text-anchor="middle" x="334.3535" y="-87" font-family="sans" font-size="10.00" fill="#000000">extract_genotype_info</text> </g> <!-- 3&#45;&gt;8 --> <g id="edge11" class="edge"> <title>3&#45;&gt;8</title> <path fill="none" stroke="#c0c0c0" stroke-width="2" d="M334.3535,-143.8314C334.3535,-136.131 334.3535,-126.9743 334.3535,-118.4166"/> <polygon fill="#c0c0c0" stroke="#c0c0c0" stroke-width="2" points="337.8536,-118.4132 334.3535,-108.4133 330.8536,-118.4133 337.8536,-118.4132"/> </g> <!-- 4 --> <g id="node5" class="node"> <title>4</title> <path fill="none" stroke="#68d856" stroke-width="2" d="M447.7692,-920C447.7692,-920 340.9378,-920 340.9378,-920 334.9378,-920 328.9378,-914 328.9378,-908 328.9378,-908 328.9378,-896 328.9378,-896 328.9378,-890 334.9378,-884 340.9378,-884 340.9378,-884 447.7692,-884 447.7692,-884 453.7692,-884 459.7692,-890 459.7692,-896 459.7692,-896 459.7692,-908 459.7692,-908 459.7692,-914 453.7692,-920 447.7692,-920"/> <text text-anchor="middle" x="394.3535" y="-899" font-family="sans" font-size="10.00" fill="#000000">get_complete_genomes_urls</text> </g> <!-- 4&#45;&gt;0 --> <g id="edge1" class="edge"> <title>4&#45;&gt;0</title> <path fill="none" stroke="#c0c0c0" stroke-width="2" d="M394.3535,-883.8314C394.3535,-876.131 394.3535,-866.9743 394.3535,-858.4166"/> <polygon fill="#c0c0c0" stroke="#c0c0c0" stroke-width="2" points="397.8536,-858.4132 394.3535,-848.4133 390.8536,-858.4133 397.8536,-858.4132"/> </g> <!-- 7 --> <g id="node8" class="node"> <title>7</title> <path fill="none" stroke="#bed856" stroke-width="2" d="M630.2246,-776C630.2246,-776 534.4824,-776 534.4824,-776 528.4824,-776 522.4824,-770 522.4824,-764 522.4824,-764 522.4824,-752 522.4824,-752 522.4824,-746 528.4824,-740 534.4824,-740 534.4824,-740 630.2246,-740 630.2246,-740 636.2246,-740 642.2246,-746 642.2246,-752 642.2246,-752 642.2246,-764 642.2246,-764 642.2246,-770 636.2246,-776 630.2246,-776"/> <text text-anchor="middle" x="582.3535" y="-761" font-family="sans" font-size="10.00" fill="#000000">download_gbks_from_url</text> <text text-anchor="middle" x="582.3535" y="-749" font-family="sans" font-size="10.00" fill="#000000">ref: 1446871</text> </g> <!-- 4&#45;&gt;7 --> <g id="edge10" class="edge"> <title>4&#45;&gt;7</title> <path fill="none" stroke="#c0c0c0" stroke-width="2" d="M459.8045,-890.8704C506.1074,-881.5499 562.4975,-866.7639 577.3535,-848 590.8771,-830.9189 591.1705,-805.7991 588.624,-786.4354"/> <polygon fill="#c0c0c0" stroke="#c0c0c0" stroke-width="2" points="592.0448,-785.6652 586.9831,-776.3577 585.1357,-786.7902 592.0448,-785.6652"/> </g> <!-- 14 --> <g id="node15" class="node"> <title>14</title> <path fill="none" stroke="#5692d8" stroke-width="2" d="M276.2106,-848C276.2106,-848 180.4964,-848 180.4964,-848 174.4964,-848 168.4964,-842 168.4964,-836 168.4964,-836 168.4964,-824 168.4964,-824 168.4964,-818 174.4964,-812 180.4964,-812 180.4964,-812 276.2106,-812 276.2106,-812 282.2106,-812 288.2106,-818 288.2106,-824 288.2106,-824 288.2106,-836 288.2106,-836 288.2106,-842 282.2106,-848 276.2106,-848"/> <text text-anchor="middle" x="228.3535" y="-833" font-family="sans" font-size="10.00" fill="#000000">download_fasta_from_url</text> <text text-anchor="middle" x="228.3535" y="-821" font-family="sans" font-size="10.00" fill="#000000">ref: 1446871</text> </g> <!-- 4&#45;&gt;14 --> <g id="edge17" class="edge"> <title>4&#45;&gt;14</title> <path fill="none" stroke="#c0c0c0" stroke-width="2" d="M352.4647,-883.8314C330.2632,-874.2018 302.8113,-862.295 279.3751,-852.1299"/> <polygon fill="#c0c0c0" stroke="#c0c0c0" stroke-width="2" points="280.508,-848.8062 269.9411,-848.038 277.7226,-855.2282 280.508,-848.8062"/> </g> <!-- 5 --> <g id="node6" class="node"> <title>5</title> <path fill="none" stroke="#59d856" stroke-width="2" d="M245.5266,-560C245.5266,-560 121.1804,-560 121.1804,-560 115.1804,-560 109.1804,-554 109.1804,-548 109.1804,-548 109.1804,-536 109.1804,-536 109.1804,-530 115.1804,-524 121.1804,-524 121.1804,-524 245.5266,-524 245.5266,-524 251.5266,-524 257.5266,-530 257.5266,-536 257.5266,-536 257.5266,-548 257.5266,-548 257.5266,-554 251.5266,-560 245.5266,-560"/> <text text-anchor="middle" x="183.3535" y="-539" font-family="sans" font-size="10.00" fill="#000000">qualimap_mapping_to_reference</text> </g> <!-- 13 --> <g id="node14" class="node"> <title>13</title> <path fill="none" stroke="#c6d856" stroke-width="2" d="M256.1227,-488C256.1227,-488 110.5843,-488 110.5843,-488 104.5843,-488 98.5843,-482 98.5843,-476 98.5843,-476 98.5843,-464 98.5843,-464 98.5843,-458 104.5843,-452 110.5843,-452 110.5843,-452 256.1227,-452 256.1227,-452 262.1227,-452 268.1227,-458 268.1227,-464 268.1227,-464 268.1227,-476 268.1227,-476 268.1227,-482 262.1227,-488 256.1227,-488"/> <text text-anchor="middle" x="183.3535" y="-467" font-family="sans" font-size="10.00" fill="#000000">get_ninety_percent_interval_coverage</text> </g> <!-- 5&#45;&gt;13 --> <g id="edge16" class="edge"> <title>5&#45;&gt;13</title> <path fill="none" stroke="#c0c0c0" stroke-width="2" d="M183.3535,-523.8314C183.3535,-516.131 183.3535,-506.9743 183.3535,-498.4166"/> <polygon fill="#c0c0c0" stroke="#c0c0c0" stroke-width="2" points="186.8536,-498.4132 183.3535,-488.4133 179.8536,-498.4133 186.8536,-498.4132"/> </g> <!-- 6 --> <g id="node7" class="node"> <title>6</title> <path fill="none" stroke="#d88d56" stroke-width="2" d="M442.5346,-272C442.5346,-272 308.1724,-272 308.1724,-272 302.1724,-272 296.1724,-266 296.1724,-260 296.1724,-260 296.1724,-228 296.1724,-228 296.1724,-222 302.1724,-216 308.1724,-216 308.1724,-216 442.5346,-216 442.5346,-216 448.5346,-216 454.5346,-222 454.5346,-228 454.5346,-228 454.5346,-260 454.5346,-260 454.5346,-266 448.5346,-272 442.5346,-272"/> <text text-anchor="middle" x="375.3535" y="-259" font-family="sans" font-size="10.00" fill="#000000">exclude_indel_other_ref_mutations</text> <text text-anchor="middle" x="375.3535" y="-247" font-family="sans" font-size="10.00" fill="#000000">method: parsnp</text> <text text-anchor="middle" x="375.3535" y="-235" font-family="sans" font-size="10.00" fill="#000000">snp_caller: freebayes</text> <text text-anchor="middle" x="375.3535" y="-223" font-family="sans" font-size="10.00" fill="#000000">validation: before_validation</text> </g> <!-- 6&#45;&gt;3 --> <g id="edge7" class="edge"> <title>6&#45;&gt;3</title> <path fill="none" stroke="#c0c0c0" stroke-width="2" d="M361.2436,-215.7803C357.0025,-207.298 352.3559,-198.0048 348.1362,-189.5655"/> <polygon fill="#c0c0c0" stroke="#c0c0c0" stroke-width="2" points="351.2005,-187.8677 343.5978,-180.4887 344.9395,-190.9982 351.2005,-187.8677"/> </g> <!-- 6&#45;&gt;15 --> <g id="edge18" class="edge"> <title>6&#45;&gt;15</title> <path fill="none" stroke="#c0c0c0" stroke-width="2" d="M386.1135,-215.7494C389.7852,-204.7592 393.444,-191.9551 395.3535,-180 402.9246,-132.5988 405.5811,-119.1068 396.3535,-72 394.6191,-63.146 391.4259,-53.9119 387.9997,-45.6355"/> <polygon fill="#c0c0c0" stroke="#c0c0c0" stroke-width="2" points="391.1819,-44.1772 383.9443,-36.4398 384.7771,-47.0018 391.1819,-44.1772"/> </g> <!-- 7&#45;&gt;1 --> <g id="edge3" class="edge"> <title>7&#45;&gt;1</title> <path fill="none" stroke="#c0c0c0" stroke-width="2" d="M544.7545,-739.8314C525.0038,-730.2874 500.6238,-718.5065 479.7118,-708.4013"/> <polygon fill="#c0c0c0" stroke="#c0c0c0" stroke-width="2" points="481.2088,-705.2376 470.6821,-704.038 478.1632,-711.5403 481.2088,-705.2376"/> </g> <!-- 7&#45;&gt;15 --> <g id="edge21" class="edge"> <title>7&#45;&gt;15</title> <path fill="none" stroke="#c0c0c0" stroke-width="2" d="M577.1735,-739.9889C569.8508,-712.8949 557.3535,-659.9269 557.3535,-614 557.3535,-614 557.3535,-614 557.3535,-162 557.3535,-100.789 493.3394,-61.6118 441.0325,-39.8168"/> <polygon fill="#c0c0c0" stroke="#c0c0c0" stroke-width="2" points="442.3372,-36.5691 431.7537,-36.0779 439.7209,-43.0618 442.3372,-36.5691"/> </g> <!-- 8&#45;&gt;15 --> <g id="edge20" class="edge"> <title>8&#45;&gt;15</title> <path fill="none" stroke="#c0c0c0" stroke-width="2" d="M344.4472,-71.8314C348.9132,-63.7925 354.261,-54.1666 359.1914,-45.2918"/> <polygon fill="#c0c0c0" stroke="#c0c0c0" stroke-width="2" points="362.327,-46.8546 364.1239,-36.4133 356.2079,-43.4551 362.327,-46.8546"/> </g> <!-- 9 --> <g id="node10" class="node"> <title>9</title> <path fill="none" stroke="#bed856" stroke-width="2" d="M359.5146,-416C359.5146,-416 255.1924,-416 255.1924,-416 249.1924,-416 243.1924,-410 243.1924,-404 243.1924,-404 243.1924,-392 243.1924,-392 243.1924,-386 249.1924,-380 255.1924,-380 255.1924,-380 359.5146,-380 359.5146,-380 365.5146,-380 371.5146,-386 371.5146,-392 371.5146,-392 371.5146,-404 371.5146,-404 371.5146,-410 365.5146,-416 359.5146,-416"/> <text text-anchor="middle" x="307.3535" y="-401" font-family="sans" font-size="10.00" fill="#000000">call_variants_freebayes_vcf</text> <text text-anchor="middle" x="307.3535" y="-389" font-family="sans" font-size="10.00" fill="#000000">mapping_method: bwa</text> </g> <!-- 9&#45;&gt;19 --> <g id="edge27" class="edge"> <title>9&#45;&gt;19</title> <path fill="none" stroke="#c0c0c0" stroke-width="2" d="M324.5128,-379.8314C332.5046,-371.3694 342.1573,-361.1489 350.8951,-351.8971"/> <polygon fill="#c0c0c0" stroke="#c0c0c0" stroke-width="2" points="353.6415,-354.0866 357.9632,-344.4133 348.5524,-349.2802 353.6415,-354.0866"/> </g> <!-- 10 --> <g id="node11" class="node"> <title>10</title> <path fill="none" stroke="#5673d8" stroke-width="2" d="M555.9974,-848C555.9974,-848 512.7096,-848 512.7096,-848 506.7096,-848 500.7096,-842 500.7096,-836 500.7096,-836 500.7096,-824 500.7096,-824 500.7096,-818 506.7096,-812 512.7096,-812 512.7096,-812 555.9974,-812 555.9974,-812 561.9974,-812 567.9974,-818 567.9974,-824 567.9974,-824 567.9974,-836 567.9974,-836 567.9974,-842 561.9974,-848 555.9974,-848"/> <text text-anchor="middle" x="534.3535" y="-827" font-family="sans" font-size="10.00" fill="#000000">fetch_parsnp</text> </g> <!-- 10&#45;&gt;17 --> <g id="edge23" class="edge"> <title>10&#45;&gt;17</title> <path fill="none" stroke="#c0c0c0" stroke-width="2" d="M508.8669,-811.8314C496.1876,-802.7927 480.6939,-791.7476 467.048,-782.0198"/> <polygon fill="#c0c0c0" stroke="#c0c0c0" stroke-width="2" points="469.0064,-779.1176 458.8319,-776.1628 464.943,-784.8176 469.0064,-779.1176"/> </g> <!-- 11&#45;&gt;5 --> <g id="edge8" class="edge"> <title>11&#45;&gt;5</title> <path fill="none" stroke="#c0c0c0" stroke-width="2" d="M183.3535,-595.8314C183.3535,-588.131 183.3535,-578.9743 183.3535,-570.4166"/> <polygon fill="#c0c0c0" stroke="#c0c0c0" stroke-width="2" points="186.8536,-570.4132 183.3535,-560.4133 179.8536,-570.4133 186.8536,-570.4132"/> </g> <!-- 11&#45;&gt;9 --> <g id="edge12" class="edge"> <title>11&#45;&gt;9</title> <path fill="none" stroke="#c0c0c0" stroke-width="2" d="M223.67,-595.8645C239.0916,-587.0709 255.5516,-575.1006 266.3535,-560 295.2157,-519.6519 303.8133,-460.9279 306.3408,-426.3776"/> <polygon fill="#c0c0c0" stroke="#c0c0c0" stroke-width="2" points="309.8544,-426.2568 306.966,-416.0633 302.8672,-425.8332 309.8544,-426.2568"/> </g> <!-- 12 --> <g id="node13" class="node"> <title>12</title> <path fill="none" stroke="#d8cb56" stroke-width="2" d="M128.5608,-848C128.5608,-848 12.1462,-848 12.1462,-848 6.1462,-848 .1462,-842 .1462,-836 .1462,-836 .1462,-824 .1462,-824 .1462,-818 6.1462,-812 12.1462,-812 12.1462,-812 128.5608,-812 128.5608,-812 134.5608,-812 140.5608,-818 140.5608,-824 140.5608,-824 140.5608,-836 140.5608,-836 140.5608,-842 134.5608,-848 128.5608,-848"/> <text text-anchor="middle" x="70.3535" y="-833" font-family="sans" font-size="10.00" fill="#000000">copy_fastq_paired_from_link</text> <text text-anchor="middle" x="70.3535" y="-821" font-family="sans" font-size="10.00" fill="#000000">sample: 1712113810&#45;strain_S9</text> </g> <!-- 18 --> <g id="node19" class="node"> <title>18</title> <path fill="none" stroke="#5673d8" stroke-width="2" d="M100.6821,-776C100.6821,-776 40.0249,-776 40.0249,-776 34.0249,-776 28.0249,-770 28.0249,-764 28.0249,-764 28.0249,-752 28.0249,-752 28.0249,-746 34.0249,-740 40.0249,-740 40.0249,-740 100.6821,-740 100.6821,-740 106.6821,-740 112.6821,-746 112.6821,-752 112.6821,-752 112.6821,-764 112.6821,-764 112.6821,-770 106.6821,-776 100.6821,-776"/> <text text-anchor="middle" x="70.3535" y="-755" font-family="sans" font-size="10.00" fill="#000000">trimmomatic_PE</text> </g> <!-- 12&#45;&gt;18 --> <g id="edge25" class="edge"> <title>12&#45;&gt;18</title> <path fill="none" stroke="#c0c0c0" stroke-width="2" d="M70.3535,-811.8314C70.3535,-804.131 70.3535,-794.9743 70.3535,-786.4166"/> <polygon fill="#c0c0c0" stroke="#c0c0c0" stroke-width="2" points="73.8536,-786.4132 70.3535,-776.4133 66.8536,-786.4133 73.8536,-786.4132"/> </g> <!-- 13&#45;&gt;9 --> <g id="edge13" class="edge"> <title>13&#45;&gt;9</title> <path fill="none" stroke="#c0c0c0" stroke-width="2" d="M214.6439,-451.8314C230.6512,-442.5368 250.3121,-431.1208 267.4029,-421.1971"/> <polygon fill="#c0c0c0" stroke="#c0c0c0" stroke-width="2" points="269.1827,-424.211 276.0731,-416.1628 265.6677,-418.1575 269.1827,-424.211"/> </g> <!-- 14&#45;&gt;2 --> <g id="edge6" class="edge"> <title>14&#45;&gt;2</title> <path fill="none" stroke="#c0c0c0" stroke-width="2" d="M229.7838,-811.9104C230.5458,-793.1117 229.6865,-763.2456 219.3535,-740 214.6686,-729.4605 207.1119,-719.5832 199.321,-711.2317"/> <polygon fill="#c0c0c0" stroke="#c0c0c0" stroke-width="2" points="201.699,-708.6589 192.1758,-704.0157 196.7249,-713.5842 201.699,-708.6589"/> </g> <!-- 14&#45;&gt;9 --> <g id="edge14" class="edge"> <title>14&#45;&gt;9</title> <path fill="none" stroke="#c0c0c0" stroke-width="2" d="M253.7431,-811.9792C285.1023,-787.3983 334.3535,-740.1699 334.3535,-686 334.3535,-686 334.3535,-686 334.3535,-542 334.3535,-501.2235 323.7654,-455.0472 315.8502,-426.2247"/> <polygon fill="#c0c0c0" stroke="#c0c0c0" stroke-width="2" points="319.1701,-425.1024 313.0795,-416.4332 312.4345,-427.0083 319.1701,-425.1024"/> </g> <!-- 16 --> <g id="node17" class="node"> <title>16</title> <path fill="none" stroke="#5682d8" stroke-width="2" d="M198.7545,-776C198.7545,-776 141.9525,-776 141.9525,-776 135.9525,-776 129.9525,-770 129.9525,-764 129.9525,-764 129.9525,-752 129.9525,-752 129.9525,-746 135.9525,-740 141.9525,-740 141.9525,-740 198.7545,-740 198.7545,-740 204.7545,-740 210.7545,-746 210.7545,-752 210.7545,-752 210.7545,-764 210.7545,-764 210.7545,-770 204.7545,-776 198.7545,-776"/> <text text-anchor="middle" x="170.3535" y="-755" font-family="sans" font-size="10.00" fill="#000000">index_reference</text> </g> <!-- 14&#45;&gt;16 --> <g id="edge22" class="edge"> <title>14&#45;&gt;16</title> <path fill="none" stroke="#c0c0c0" stroke-width="2" d="M213.7177,-811.8314C207.0374,-803.5386 198.9967,-793.557 191.6631,-784.4533"/> <polygon fill="#c0c0c0" stroke="#c0c0c0" stroke-width="2" points="194.1854,-782.0052 185.1864,-776.4133 188.7341,-786.3965 194.1854,-782.0052"/> </g> <!-- 16&#45;&gt;2 --> <g id="edge5" class="edge"> <title>16&#45;&gt;2</title> <path fill="none" stroke="#c0c0c0" stroke-width="2" d="M170.3535,-739.8314C170.3535,-732.131 170.3535,-722.9743 170.3535,-714.4166"/> <polygon fill="#c0c0c0" stroke="#c0c0c0" stroke-width="2" points="173.8536,-714.4132 170.3535,-704.4133 166.8536,-714.4133 173.8536,-714.4132"/> </g> <!-- 17&#45;&gt;1 --> <g id="edge2" class="edge"> <title>17&#45;&gt;1</title> <path fill="none" stroke="#c0c0c0" stroke-width="2" d="M433.3535,-739.8314C433.3535,-732.131 433.3535,-722.9743 433.3535,-714.4166"/> <polygon fill="#c0c0c0" stroke="#c0c0c0" stroke-width="2" points="436.8536,-714.4132 433.3535,-704.4133 429.8536,-714.4133 436.8536,-714.4132"/> </g> <!-- 18&#45;&gt;2 --> <g id="edge4" class="edge"> <title>18&#45;&gt;2</title> <path fill="none" stroke="#c0c0c0" stroke-width="2" d="M95.5877,-739.8314C108.1415,-730.7927 123.4818,-719.7476 136.9926,-710.0198"/> <polygon fill="#c0c0c0" stroke="#c0c0c0" stroke-width="2" points="139.0571,-712.8463 145.1274,-704.1628 134.9669,-707.1655 139.0571,-712.8463"/> </g> <!-- 19&#45;&gt;6 --> <g id="edge9" class="edge"> <title>19&#45;&gt;6</title> <path fill="none" stroke="#c0c0c0" stroke-width="2" d="M375.3535,-307.8015C375.3535,-300.2729 375.3535,-291.2401 375.3535,-282.372"/> <polygon fill="#c0c0c0" stroke="#c0c0c0" stroke-width="2" points="378.8536,-282.1372 375.3535,-272.1373 371.8536,-282.1373 378.8536,-282.1372"/> </g> </g> </svg> 
