<?xml version="1.0" encoding="UTF-8" standalone="no"?>
<!DOCTYPE svg PUBLIC "-//W3C//DTD SVG 1.1//EN"
 "http://www.w3.org/Graphics/SVG/1.1/DTD/svg11.dtd">
<!-- Generated by graphviz version 2.38.0 (20140413.2041)
 -->
<!-- Title: snakemake_dag Pages: 1 -->
<svg width="320pt" height="836pt"
 viewBox="0.00 0.00 319.50 836.00" xmlns="http://www.w3.org/2000/svg" xmlns:xlink="http://www.w3.org/1999/xlink">
<g id="graph0" class="graph" transform="scale(1 1) rotate(0) translate(4 832)">
<title>snakemake_dag</title>
<polygon fill="white" stroke="none" points="-4,4 -4,-832 315.5,-832 315.5,4 -4,4"/>
<!-- 0 -->
<g id="node1" class="node"><title>0</title>
<path fill="none" stroke="#d86656" stroke-width="2" d="M140,-756C140,-756 66,-756 66,-756 60,-756 54,-750 54,-744 54,-744 54,-732 54,-732 54,-726 60,-720 66,-720 66,-720 140,-720 140,-720 146,-720 152,-726 152,-732 152,-732 152,-744 152,-744 152,-750 146,-756 140,-756"/>
<text text-anchor="middle" x="103" y="-735.5" font-family="sans" font-size="10.00">trimmomatic_PE</text>
</g>
<!-- 2 -->
<g id="node3" class="node"><title>2</title>
<path fill="none" stroke="#56d88a" stroke-width="2" d="M158,-684C158,-684 12,-684 12,-684 6,-684 0,-678 0,-672 0,-672 0,-660 0,-660 0,-654 6,-648 12,-648 12,-648 158,-648 158,-648 164,-648 170,-654 170,-660 170,-660 170,-672 170,-672 170,-678 164,-684 158,-684"/>
<text text-anchor="middle" x="85" y="-663.5" font-family="sans" font-size="10.00">error_correction_spades_paired</text>
</g>
<!-- 0&#45;&gt;2 -->
<g id="edge3" class="edge"><title>0&#45;&gt;2</title>
<path fill="none" stroke="grey" stroke-width="2" d="M98.5506,-719.697C96.5452,-711.898 94.1308,-702.509 91.8989,-693.829"/>
<polygon fill="grey" stroke="grey" stroke-width="2" points="95.2785,-692.918 89.3983,-684.104 88.499,-694.661 95.2785,-692.918"/>
</g>
<!-- 1 -->
<g id="node2" class="node"><title>1</title>
<path fill="none" stroke="#d88d56" stroke-width="2" d="M120.5,-468C120.5,-468 49.5,-468 49.5,-468 43.5,-468 37.5,-462 37.5,-456 37.5,-456 37.5,-444 37.5,-444 37.5,-438 43.5,-432 49.5,-432 49.5,-432 120.5,-432 120.5,-432 126.5,-432 132.5,-438 132.5,-444 132.5,-444 132.5,-456 132.5,-456 132.5,-462 126.5,-468 120.5,-468"/>
<text text-anchor="middle" x="85" y="-447.5" font-family="sans" font-size="10.00">rename_contigs</text>
</g>
<!-- 3 -->
<g id="node4" class="node"><title>3</title>
<path fill="none" stroke="#56d863" stroke-width="2" d="M172,-180C172,-180 48,-180 48,-180 42,-180 36,-174 36,-168 36,-168 36,-156 36,-156 36,-150 42,-144 48,-144 48,-144 172,-144 172,-144 178,-144 184,-150 184,-156 184,-156 184,-168 184,-168 184,-174 178,-180 172,-180"/>
<text text-anchor="middle" x="110" y="-159.5" font-family="sans" font-size="10.00">filter_contigs_on_coverage</text>
</g>
<!-- 1&#45;&gt;3 -->
<g id="edge4" class="edge"><title>1&#45;&gt;3</title>
<path fill="none" stroke="grey" stroke-width="2" d="M80.9409,-431.929C78.6944,-421.598 76.1334,-408.12 75,-396 69.8068,-340.467 81.0521,-235.319 86,-216 88.3056,-206.998 92.0536,-197.621 95.9096,-189.301"/>
<polygon fill="grey" stroke="grey" stroke-width="2" points="99.1572,-190.627 100.406,-180.106 92.8687,-187.552 99.1572,-190.627"/>
</g>
<!-- 4 -->
<g id="node5" class="node"><title>4</title>
<path fill="none" stroke="#56d8d0" stroke-width="2" d="M299.5,-396C299.5,-396 96.5,-396 96.5,-396 90.5,-396 84.5,-390 84.5,-384 84.5,-384 84.5,-372 84.5,-372 84.5,-366 90.5,-360 96.5,-360 96.5,-360 299.5,-360 299.5,-360 305.5,-360 311.5,-366 311.5,-372 311.5,-372 311.5,-384 311.5,-384 311.5,-390 305.5,-396 299.5,-396"/>
<text text-anchor="middle" x="198" y="-375.5" font-family="sans" font-size="10.00">align_paired_reads_to_assembled_genome</text>
</g>
<!-- 1&#45;&gt;4 -->
<g id="edge7" class="edge"><title>1&#45;&gt;4</title>
<path fill="none" stroke="grey" stroke-width="2" d="M112.643,-431.876C127.418,-422.724 145.791,-411.342 161.703,-401.485"/>
<polygon fill="grey" stroke="grey" stroke-width="2" points="163.593,-404.431 170.251,-396.19 159.907,-398.481 163.593,-404.431"/>
</g>
<!-- 7 -->
<g id="node8" class="node"><title>7</title>
<path fill="none" stroke="#56d8a9" stroke-width="2" d="M116.5,-612C116.5,-612 53.5,-612 53.5,-612 47.5,-612 41.5,-606 41.5,-600 41.5,-600 41.5,-588 41.5,-588 41.5,-582 47.5,-576 53.5,-576 53.5,-576 116.5,-576 116.5,-576 122.5,-576 128.5,-582 128.5,-588 128.5,-588 128.5,-600 128.5,-600 128.5,-606 122.5,-612 116.5,-612"/>
<text text-anchor="middle" x="85" y="-591.5" font-family="sans" font-size="10.00">spades_paired</text>
</g>
<!-- 2&#45;&gt;7 -->
<g id="edge9" class="edge"><title>2&#45;&gt;7</title>
<path fill="none" stroke="grey" stroke-width="2" d="M85,-647.697C85,-639.983 85,-630.712 85,-622.112"/>
<polygon fill="grey" stroke="grey" stroke-width="2" points="88.5001,-622.104 85,-612.104 81.5001,-622.104 88.5001,-622.104"/>
</g>
<!-- 8 -->
<g id="node9" class="node"><title>8</title>
<path fill="none" stroke="#569ad8" stroke-width="2" d="M125,-108C125,-108 95,-108 95,-108 89,-108 83,-102 83,-96 83,-96 83,-84 83,-84 83,-78 89,-72 95,-72 95,-72 125,-72 125,-72 131,-72 137,-78 137,-84 137,-84 137,-96 137,-96 137,-102 131,-108 125,-108"/>
<text text-anchor="middle" x="110" y="-87.5" font-family="sans" font-size="10.00">prokka</text>
</g>
<!-- 3&#45;&gt;8 -->
<g id="edge10" class="edge"><title>3&#45;&gt;8</title>
<path fill="none" stroke="grey" stroke-width="2" d="M110,-143.697C110,-135.983 110,-126.712 110,-118.112"/>
<polygon fill="grey" stroke="grey" stroke-width="2" points="113.5,-118.104 110,-108.104 106.5,-118.104 113.5,-118.104"/>
</g>
<!-- 11 -->
<g id="node12" class="node"><title>11</title>
<path fill="none" stroke="#56b1d8" stroke-width="2" d="M229,-324C229,-324 143,-324 143,-324 137,-324 131,-318 131,-312 131,-312 131,-300 131,-300 131,-294 137,-288 143,-288 143,-288 229,-288 229,-288 235,-288 241,-294 241,-300 241,-300 241,-312 241,-312 241,-318 235,-324 229,-324"/>
<text text-anchor="middle" x="186" y="-303.5" font-family="sans" font-size="10.00">qualimap_mapping</text>
</g>
<!-- 4&#45;&gt;11 -->
<g id="edge13" class="edge"><title>4&#45;&gt;11</title>
<path fill="none" stroke="grey" stroke-width="2" d="M195.034,-359.697C193.711,-351.983 192.122,-342.712 190.648,-334.112"/>
<polygon fill="grey" stroke="grey" stroke-width="2" points="194.072,-333.369 188.932,-324.104 187.172,-334.552 194.072,-333.369"/>
</g>
<!-- 5 -->
<g id="node6" class="node"><title>5</title>
<path fill="none" stroke="#56d89a" stroke-width="2" d="M226,-828C226,-828 92,-828 92,-828 86,-828 80,-822 80,-816 80,-816 80,-804 80,-804 80,-798 86,-792 92,-792 92,-792 226,-792 226,-792 232,-792 238,-798 238,-804 238,-804 238,-816 238,-816 238,-822 232,-828 226,-828"/>
<text text-anchor="middle" x="159" y="-813" font-family="sans" font-size="10.00">copy_fastq_paired_from_link</text>
<text text-anchor="middle" x="159" y="-802" font-family="sans" font-size="10.00">sample: 1712113810&#45;strain</text>
</g>
<!-- 5&#45;&gt;0 -->
<g id="edge1" class="edge"><title>5&#45;&gt;0</title>
<path fill="none" stroke="grey" stroke-width="2" d="M145.157,-791.697C138.511,-783.389 130.422,-773.277 123.113,-764.141"/>
<polygon fill="grey" stroke="grey" stroke-width="2" points="125.664,-761.727 116.683,-756.104 120.197,-766.099 125.664,-761.727"/>
</g>
<!-- 5&#45;&gt;4 -->
<g id="edge6" class="edge"><title>5&#45;&gt;4</title>
<path fill="none" stroke="grey" stroke-width="2" d="M166.892,-791.928C178.288,-765.671 198,-713.53 198,-667 198,-667 198,-667 198,-521 198,-480.996 198,-434.653 198,-406.08"/>
<polygon fill="grey" stroke="grey" stroke-width="2" points="201.5,-406.049 198,-396.049 194.5,-406.049 201.5,-406.049"/>
</g>
<!-- 6 -->
<g id="node7" class="node"><title>6</title>
<path fill="none" stroke="#d8bc56" stroke-width="2" d="M220.5,-252C220.5,-252 107.5,-252 107.5,-252 101.5,-252 95.5,-246 95.5,-240 95.5,-240 95.5,-228 95.5,-228 95.5,-222 101.5,-216 107.5,-216 107.5,-216 220.5,-216 220.5,-216 226.5,-216 232.5,-222 232.5,-228 232.5,-228 232.5,-240 232.5,-240 232.5,-246 226.5,-252 220.5,-252"/>
<text text-anchor="middle" x="164" y="-231.5" font-family="sans" font-size="10.00">extract_contig_coverage</text>
</g>
<!-- 6&#45;&gt;3 -->
<g id="edge5" class="edge"><title>6&#45;&gt;3</title>
<path fill="none" stroke="grey" stroke-width="2" d="M150.652,-215.697C144.243,-207.389 136.442,-197.277 129.394,-188.141"/>
<polygon fill="grey" stroke="grey" stroke-width="2" points="132.074,-185.884 123.195,-180.104 126.532,-190.16 132.074,-185.884"/>
</g>
<!-- 9 -->
<g id="node10" class="node"><title>9</title>
<path fill="none" stroke="#5692d8" stroke-width="2" d="M136.5,-540C136.5,-540 33.5,-540 33.5,-540 27.5,-540 21.5,-534 21.5,-528 21.5,-528 21.5,-516 21.5,-516 21.5,-510 27.5,-504 33.5,-504 33.5,-504 136.5,-504 136.5,-504 142.5,-504 148.5,-510 148.5,-516 148.5,-516 148.5,-528 148.5,-528 148.5,-534 142.5,-540 136.5,-540"/>
<text text-anchor="middle" x="85" y="-519.5" font-family="sans" font-size="10.00">extract_contigs_500bp</text>
</g>
<!-- 7&#45;&gt;9 -->
<g id="edge11" class="edge"><title>7&#45;&gt;9</title>
<path fill="none" stroke="grey" stroke-width="2" d="M85,-575.697C85,-567.983 85,-558.712 85,-550.112"/>
<polygon fill="grey" stroke="grey" stroke-width="2" points="88.5001,-550.104 85,-540.104 81.5001,-550.104 88.5001,-550.104"/>
</g>
<!-- 10 -->
<g id="node11" class="node"><title>10</title>
<path fill="none" stroke="#d8a456" stroke-width="2" d="M140.5,-36C140.5,-36 79.5,-36 79.5,-36 73.5,-36 67.5,-30 67.5,-24 67.5,-24 67.5,-12 67.5,-12 67.5,-6 73.5,-0 79.5,-0 79.5,-0 140.5,-0 140.5,-0 146.5,-0 152.5,-6 152.5,-12 152.5,-12 152.5,-24 152.5,-24 152.5,-30 146.5,-36 140.5,-36"/>
<text text-anchor="middle" x="110" y="-15.5" font-family="sans" font-size="10.00">mlst_samples</text>
</g>
<!-- 8&#45;&gt;10 -->
<g id="edge12" class="edge"><title>8&#45;&gt;10</title>
<path fill="none" stroke="grey" stroke-width="2" d="M110,-71.6966C110,-63.9827 110,-54.7125 110,-46.1124"/>
<polygon fill="grey" stroke="grey" stroke-width="2" points="113.5,-46.1043 110,-36.1043 106.5,-46.1044 113.5,-46.1043"/>
</g>
<!-- 9&#45;&gt;1 -->
<g id="edge2" class="edge"><title>9&#45;&gt;1</title>
<path fill="none" stroke="grey" stroke-width="2" d="M85,-503.697C85,-495.983 85,-486.712 85,-478.112"/>
<polygon fill="grey" stroke="grey" stroke-width="2" points="88.5001,-478.104 85,-468.104 81.5001,-478.104 88.5001,-478.104"/>
</g>
<!-- 11&#45;&gt;6 -->
<g id="edge8" class="edge"><title>11&#45;&gt;6</title>
<path fill="none" stroke="grey" stroke-width="2" d="M180.562,-287.697C178.111,-279.898 175.16,-270.509 172.432,-261.829"/>
<polygon fill="grey" stroke="grey" stroke-width="2" points="175.713,-260.595 169.376,-252.104 169.035,-262.694 175.713,-260.595"/>
</g>
</g>
</svg>
