<?xml version="1.0" encoding="UTF-8" standalone="no"?>
<!DOCTYPE svg PUBLIC "-//W3C//DTD SVG 1.1//EN"
 "http://www.w3.org/Graphics/SVG/1.1/DTD/svg11.dtd">
<!-- Generated by graphviz version 2.38.0 (20140413.2041)
 -->
<!-- Title: snakemake_dag Pages: 1 -->
<svg width="416pt" height="1052pt"
 viewBox="0.00 0.00 416.00 1052.00" xmlns="http://www.w3.org/2000/svg" xmlns:xlink="http://www.w3.org/1999/xlink">
<g id="graph0" class="graph" transform="scale(1 1) rotate(0) translate(4 1048)">
<title>snakemake_dag</title>
<polygon fill="white" stroke="none" points="-4,4 -4,-1048 412,-1048 412,4 -4,4"/>
<!-- 0 -->
<g id="node1" class="node"><title>0</title>
<path fill="none" stroke="#d8a456" stroke-width="2" d="M248.5,-1044C248.5,-1044 114.5,-1044 114.5,-1044 108.5,-1044 102.5,-1038 102.5,-1032 102.5,-1032 102.5,-1020 102.5,-1020 102.5,-1014 108.5,-1008 114.5,-1008 114.5,-1008 248.5,-1008 248.5,-1008 254.5,-1008 260.5,-1014 260.5,-1020 260.5,-1020 260.5,-1032 260.5,-1032 260.5,-1038 254.5,-1044 248.5,-1044"/>
<text text-anchor="middle" x="181.5" y="-1029" font-family="sans" font-size="10.00">copy_fastq_paired_from_link</text>
<text text-anchor="middle" x="181.5" y="-1018" font-family="sans" font-size="10.00">sample: 1712113810&#45;strain</text>
</g>
<!-- 4 -->
<g id="node5" class="node"><title>4</title>
<path fill="none" stroke="#d87556" stroke-width="2" d="M100.5,-972C100.5,-972 28.5,-972 28.5,-972 22.5,-972 16.5,-966 16.5,-960 16.5,-960 16.5,-948 16.5,-948 16.5,-942 22.5,-936 28.5,-936 28.5,-936 100.5,-936 100.5,-936 106.5,-936 112.5,-942 112.5,-948 112.5,-948 112.5,-960 112.5,-960 112.5,-966 106.5,-972 100.5,-972"/>
<text text-anchor="middle" x="64.5" y="-951.5" font-family="sans" font-size="10.00">mykrobe_paired</text>
</g>
<!-- 0&#45;&gt;4 -->
<g id="edge5" class="edge"><title>0&#45;&gt;4</title>
<path fill="none" stroke="grey" stroke-width="2" d="M152.879,-1007.88C137.581,-998.724 118.557,-987.342 102.082,-977.485"/>
<polygon fill="grey" stroke="grey" stroke-width="2" points="103.61,-974.32 93.2314,-972.19 100.016,-980.327 103.61,-974.32"/>
</g>
<!-- 6 -->
<g id="node7" class="node"><title>6</title>
<path fill="none" stroke="#56b1d8" stroke-width="2" d="M218.5,-972C218.5,-972 144.5,-972 144.5,-972 138.5,-972 132.5,-966 132.5,-960 132.5,-960 132.5,-948 132.5,-948 132.5,-942 138.5,-936 144.5,-936 144.5,-936 218.5,-936 218.5,-936 224.5,-936 230.5,-942 230.5,-948 230.5,-948 230.5,-960 230.5,-960 230.5,-966 224.5,-972 218.5,-972"/>
<text text-anchor="middle" x="181.5" y="-951.5" font-family="sans" font-size="10.00">trimmomatic_PE</text>
</g>
<!-- 0&#45;&gt;6 -->
<g id="edge7" class="edge"><title>0&#45;&gt;6</title>
<path fill="none" stroke="grey" stroke-width="2" d="M181.5,-1007.7C181.5,-999.983 181.5,-990.712 181.5,-982.112"/>
<polygon fill="grey" stroke="grey" stroke-width="2" points="185,-982.104 181.5,-972.104 178,-982.104 185,-982.104"/>
</g>
<!-- 13 -->
<g id="node14" class="node"><title>13</title>
<path fill="none" stroke="#d88556" stroke-width="2" d="M396,-612C396,-612 193,-612 193,-612 187,-612 181,-606 181,-600 181,-600 181,-588 181,-588 181,-582 187,-576 193,-576 193,-576 396,-576 396,-576 402,-576 408,-582 408,-588 408,-588 408,-600 408,-600 408,-606 402,-612 396,-612"/>
<text text-anchor="middle" x="294.5" y="-591.5" font-family="sans" font-size="10.00">align_paired_reads_to_assembled_genome</text>
</g>
<!-- 0&#45;&gt;13 -->
<g id="edge15" class="edge"><title>0&#45;&gt;13</title>
<path fill="none" stroke="grey" stroke-width="2" d="M208.279,-1007.91C241.695,-984.247 294.5,-938.135 294.5,-883 294.5,-883 294.5,-883 294.5,-737 294.5,-696.996 294.5,-650.653 294.5,-622.08"/>
<polygon fill="grey" stroke="grey" stroke-width="2" points="298,-622.049 294.5,-612.049 291,-622.049 298,-622.049"/>
</g>
<!-- 1 -->
<g id="node2" class="node"><title>1</title>
<path fill="none" stroke="#68d856" stroke-width="2" d="M157,-108C157,-108 44,-108 44,-108 38,-108 32,-102 32,-96 32,-96 32,-84 32,-84 32,-78 38,-72 44,-72 44,-72 157,-72 157,-72 163,-72 169,-78 169,-84 169,-84 169,-96 169,-96 169,-102 163,-108 157,-108"/>
<text text-anchor="middle" x="100.5" y="-87.5" font-family="sans" font-size="10.00">summary_csv_excel_file</text>
</g>
<!-- 12 -->
<g id="node13" class="node"><title>12</title>
<path fill="none" stroke="#d88d56" stroke-width="2" d="M164.5,-36C164.5,-36 36.5,-36 36.5,-36 30.5,-36 24.5,-30 24.5,-24 24.5,-24 24.5,-12 24.5,-12 24.5,-6 30.5,-0 36.5,-0 36.5,-0 164.5,-0 164.5,-0 170.5,-0 176.5,-6 176.5,-12 176.5,-12 176.5,-24 176.5,-24 176.5,-30 170.5,-36 164.5,-36"/>
<text text-anchor="middle" x="100.5" y="-15.5" font-family="sans" font-size="10.00">merge_summary_xlsx_files</text>
</g>
<!-- 1&#45;&gt;12 -->
<g id="edge14" class="edge"><title>1&#45;&gt;12</title>
<path fill="none" stroke="grey" stroke-width="2" d="M100.5,-71.6966C100.5,-63.9827 100.5,-54.7125 100.5,-46.1124"/>
<polygon fill="grey" stroke="grey" stroke-width="2" points="104,-46.1043 100.5,-36.1043 97.0001,-46.1044 104,-46.1043"/>
</g>
<!-- 2 -->
<g id="node3" class="node"><title>2</title>
<path fill="none" stroke="#68d856" stroke-width="2" d="M159.5,-252C159.5,-252 129.5,-252 129.5,-252 123.5,-252 117.5,-246 117.5,-240 117.5,-240 117.5,-228 117.5,-228 117.5,-222 123.5,-216 129.5,-216 129.5,-216 159.5,-216 159.5,-216 165.5,-216 171.5,-222 171.5,-228 171.5,-228 171.5,-240 171.5,-240 171.5,-246 165.5,-252 159.5,-252"/>
<text text-anchor="middle" x="144.5" y="-231.5" font-family="sans" font-size="10.00">rgi</text>
</g>
<!-- 16 -->
<g id="node17" class="node"><title>16</title>
<path fill="none" stroke="#78d856" stroke-width="2" d="M173.5,-180C173.5,-180 107.5,-180 107.5,-180 101.5,-180 95.5,-174 95.5,-168 95.5,-168 95.5,-156 95.5,-156 95.5,-150 101.5,-144 107.5,-144 107.5,-144 173.5,-144 173.5,-144 179.5,-144 185.5,-150 185.5,-156 185.5,-156 185.5,-168 185.5,-168 185.5,-174 179.5,-180 173.5,-180"/>
<text text-anchor="middle" x="140.5" y="-159.5" font-family="sans" font-size="10.00">rgi_json_to_tsv</text>
</g>
<!-- 2&#45;&gt;16 -->
<g id="edge19" class="edge"><title>2&#45;&gt;16</title>
<path fill="none" stroke="grey" stroke-width="2" d="M143.511,-215.697C143.07,-207.983 142.541,-198.712 142.049,-190.112"/>
<polygon fill="grey" stroke="grey" stroke-width="2" points="145.542,-189.888 141.477,-180.104 138.554,-190.288 145.542,-189.888"/>
</g>
<!-- 3 -->
<g id="node4" class="node"><title>3</title>
<path fill="none" stroke="#5692d8" stroke-width="2" d="M214,-828C214,-828 151,-828 151,-828 145,-828 139,-822 139,-816 139,-816 139,-804 139,-804 139,-798 145,-792 151,-792 151,-792 214,-792 214,-792 220,-792 226,-798 226,-804 226,-804 226,-816 226,-816 226,-822 220,-828 214,-828"/>
<text text-anchor="middle" x="182.5" y="-807.5" font-family="sans" font-size="10.00">spades_paired</text>
</g>
<!-- 7 -->
<g id="node8" class="node"><title>7</title>
<path fill="none" stroke="#b6d856" stroke-width="2" d="M234,-756C234,-756 131,-756 131,-756 125,-756 119,-750 119,-744 119,-744 119,-732 119,-732 119,-726 125,-720 131,-720 131,-720 234,-720 234,-720 240,-720 246,-726 246,-732 246,-732 246,-744 246,-744 246,-750 240,-756 234,-756"/>
<text text-anchor="middle" x="182.5" y="-735.5" font-family="sans" font-size="10.00">extract_contigs_500bp</text>
</g>
<!-- 3&#45;&gt;7 -->
<g id="edge8" class="edge"><title>3&#45;&gt;7</title>
<path fill="none" stroke="grey" stroke-width="2" d="M182.5,-791.697C182.5,-783.983 182.5,-774.712 182.5,-766.112"/>
<polygon fill="grey" stroke="grey" stroke-width="2" points="186,-766.104 182.5,-756.104 179,-766.104 186,-766.104"/>
</g>
<!-- 11 -->
<g id="node12" class="node"><title>11</title>
<path fill="none" stroke="#56c1d8" stroke-width="2" d="M109,-828C109,-828 12,-828 12,-828 6,-828 7.10543e-15,-822 7.10543e-15,-816 7.10543e-15,-816 7.10543e-15,-804 7.10543e-15,-804 7.10543e-15,-798 6,-792 12,-792 12,-792 109,-792 109,-792 115,-792 121,-798 121,-804 121,-804 121,-816 121,-816 121,-822 115,-828 109,-828"/>
<text text-anchor="middle" x="60.5" y="-807.5" font-family="sans" font-size="10.00">mykrobe_json_to_tsv</text>
</g>
<!-- 4&#45;&gt;11 -->
<g id="edge13" class="edge"><title>4&#45;&gt;11</title>
<path fill="none" stroke="grey" stroke-width="2" d="M64.0175,-935.871C63.3358,-911.67 62.0834,-867.211 61.2716,-838.393"/>
<polygon fill="grey" stroke="grey" stroke-width="2" points="64.7645,-838.087 60.9842,-828.189 57.7673,-838.284 64.7645,-838.087"/>
</g>
<!-- 5 -->
<g id="node6" class="node"><title>5</title>
<path fill="none" stroke="#56d8d0" stroke-width="2" d="M173.5,-324C173.5,-324 143.5,-324 143.5,-324 137.5,-324 131.5,-318 131.5,-312 131.5,-312 131.5,-300 131.5,-300 131.5,-294 137.5,-288 143.5,-288 143.5,-288 173.5,-288 173.5,-288 179.5,-288 185.5,-294 185.5,-300 185.5,-300 185.5,-312 185.5,-312 185.5,-318 179.5,-324 173.5,-324"/>
<text text-anchor="middle" x="158.5" y="-303.5" font-family="sans" font-size="10.00">prokka</text>
</g>
<!-- 5&#45;&gt;2 -->
<g id="edge3" class="edge"><title>5&#45;&gt;2</title>
<path fill="none" stroke="grey" stroke-width="2" d="M155.039,-287.697C153.497,-279.983 151.642,-270.712 149.922,-262.112"/>
<polygon fill="grey" stroke="grey" stroke-width="2" points="153.314,-261.224 147.921,-252.104 146.45,-262.597 153.314,-261.224"/>
</g>
<!-- 15 -->
<g id="node16" class="node"><title>15</title>
<path fill="none" stroke="#61d856" stroke-width="2" d="M254.5,-900C254.5,-900 108.5,-900 108.5,-900 102.5,-900 96.5,-894 96.5,-888 96.5,-888 96.5,-876 96.5,-876 96.5,-870 102.5,-864 108.5,-864 108.5,-864 254.5,-864 254.5,-864 260.5,-864 266.5,-870 266.5,-876 266.5,-876 266.5,-888 266.5,-888 266.5,-894 260.5,-900 254.5,-900"/>
<text text-anchor="middle" x="181.5" y="-879.5" font-family="sans" font-size="10.00">error_correction_spades_paired</text>
</g>
<!-- 6&#45;&gt;15 -->
<g id="edge18" class="edge"><title>6&#45;&gt;15</title>
<path fill="none" stroke="grey" stroke-width="2" d="M181.5,-935.697C181.5,-927.983 181.5,-918.712 181.5,-910.112"/>
<polygon fill="grey" stroke="grey" stroke-width="2" points="185,-910.104 181.5,-900.104 178,-910.104 185,-910.104"/>
</g>
<!-- 8 -->
<g id="node9" class="node"><title>8</title>
<path fill="none" stroke="#70d856" stroke-width="2" d="M218,-684C218,-684 147,-684 147,-684 141,-684 135,-678 135,-672 135,-672 135,-660 135,-660 135,-654 141,-648 147,-648 147,-648 218,-648 218,-648 224,-648 230,-654 230,-660 230,-660 230,-672 230,-672 230,-678 224,-684 218,-684"/>
<text text-anchor="middle" x="182.5" y="-663.5" font-family="sans" font-size="10.00">rename_contigs</text>
</g>
<!-- 7&#45;&gt;8 -->
<g id="edge9" class="edge"><title>7&#45;&gt;8</title>
<path fill="none" stroke="grey" stroke-width="2" d="M182.5,-719.697C182.5,-711.983 182.5,-702.712 182.5,-694.112"/>
<polygon fill="grey" stroke="grey" stroke-width="2" points="186,-694.104 182.5,-684.104 179,-694.104 186,-694.104"/>
</g>
<!-- 10 -->
<g id="node11" class="node"><title>10</title>
<path fill="none" stroke="#56d873" stroke-width="2" d="M224.5,-396C224.5,-396 100.5,-396 100.5,-396 94.5,-396 88.5,-390 88.5,-384 88.5,-384 88.5,-372 88.5,-372 88.5,-366 94.5,-360 100.5,-360 100.5,-360 224.5,-360 224.5,-360 230.5,-360 236.5,-366 236.5,-372 236.5,-372 236.5,-384 236.5,-384 236.5,-390 230.5,-396 224.5,-396"/>
<text text-anchor="middle" x="162.5" y="-375.5" font-family="sans" font-size="10.00">filter_contigs_on_coverage</text>
</g>
<!-- 8&#45;&gt;10 -->
<g id="edge11" class="edge"><title>8&#45;&gt;10</title>
<path fill="none" stroke="grey" stroke-width="2" d="M178.206,-647.934C175.796,-637.604 172.982,-624.126 171.5,-612 162.445,-537.913 161.764,-449.684 162.093,-406.113"/>
<polygon fill="grey" stroke="grey" stroke-width="2" points="165.593,-406.068 162.193,-396.034 158.594,-405.998 165.593,-406.068"/>
</g>
<!-- 8&#45;&gt;13 -->
<g id="edge16" class="edge"><title>8&#45;&gt;13</title>
<path fill="none" stroke="grey" stroke-width="2" d="M209.898,-647.876C224.407,-638.808 242.416,-627.552 258.085,-617.759"/>
<polygon fill="grey" stroke="grey" stroke-width="2" points="260.371,-620.458 266.996,-612.19 256.661,-614.522 260.371,-620.458"/>
</g>
<!-- 9 -->
<g id="node10" class="node"><title>9</title>
<path fill="none" stroke="#afd856" stroke-width="2" d="M325.5,-540C325.5,-540 239.5,-540 239.5,-540 233.5,-540 227.5,-534 227.5,-528 227.5,-528 227.5,-516 227.5,-516 227.5,-510 233.5,-504 239.5,-504 239.5,-504 325.5,-504 325.5,-504 331.5,-504 337.5,-510 337.5,-516 337.5,-516 337.5,-528 337.5,-528 337.5,-534 331.5,-540 325.5,-540"/>
<text text-anchor="middle" x="282.5" y="-519.5" font-family="sans" font-size="10.00">qualimap_mapping</text>
</g>
<!-- 14 -->
<g id="node15" class="node"><title>14</title>
<path fill="none" stroke="#d87d56" stroke-width="2" d="M317,-468C317,-468 204,-468 204,-468 198,-468 192,-462 192,-456 192,-456 192,-444 192,-444 192,-438 198,-432 204,-432 204,-432 317,-432 317,-432 323,-432 329,-438 329,-444 329,-444 329,-456 329,-456 329,-462 323,-468 317,-468"/>
<text text-anchor="middle" x="260.5" y="-447.5" font-family="sans" font-size="10.00">extract_contig_coverage</text>
</g>
<!-- 9&#45;&gt;14 -->
<g id="edge17" class="edge"><title>9&#45;&gt;14</title>
<path fill="none" stroke="grey" stroke-width="2" d="M277.062,-503.697C274.611,-495.898 271.66,-486.509 268.932,-477.829"/>
<polygon fill="grey" stroke="grey" stroke-width="2" points="272.213,-476.595 265.876,-468.104 265.535,-478.694 272.213,-476.595"/>
</g>
<!-- 10&#45;&gt;5 -->
<g id="edge6" class="edge"><title>10&#45;&gt;5</title>
<path fill="none" stroke="grey" stroke-width="2" d="M161.511,-359.697C161.07,-351.983 160.541,-342.712 160.049,-334.112"/>
<polygon fill="grey" stroke="grey" stroke-width="2" points="163.542,-333.888 159.477,-324.104 156.554,-334.288 163.542,-333.888"/>
</g>
<!-- 11&#45;&gt;1 -->
<g id="edge1" class="edge"><title>11&#45;&gt;1</title>
<path fill="none" stroke="grey" stroke-width="2" d="M60.5,-791.951C60.5,-765.292 60.5,-712.115 60.5,-667 60.5,-667 60.5,-667 60.5,-233 60.5,-191.484 76.5366,-145.612 88.3018,-117.545"/>
<polygon fill="grey" stroke="grey" stroke-width="2" points="91.6505,-118.619 92.4054,-108.051 85.225,-115.842 91.6505,-118.619"/>
</g>
<!-- 13&#45;&gt;9 -->
<g id="edge10" class="edge"><title>13&#45;&gt;9</title>
<path fill="none" stroke="grey" stroke-width="2" d="M291.534,-575.697C290.211,-567.983 288.622,-558.712 287.148,-550.112"/>
<polygon fill="grey" stroke="grey" stroke-width="2" points="290.572,-549.369 285.432,-540.104 283.672,-550.552 290.572,-549.369"/>
</g>
<!-- 14&#45;&gt;10 -->
<g id="edge12" class="edge"><title>14&#45;&gt;10</title>
<path fill="none" stroke="grey" stroke-width="2" d="M236.527,-431.876C223.95,-422.893 208.368,-411.763 194.748,-402.034"/>
<polygon fill="grey" stroke="grey" stroke-width="2" points="196.737,-399.154 186.566,-396.19 192.669,-404.85 196.737,-399.154"/>
</g>
<!-- 15&#45;&gt;3 -->
<g id="edge4" class="edge"><title>15&#45;&gt;3</title>
<path fill="none" stroke="grey" stroke-width="2" d="M181.747,-863.697C181.857,-855.983 181.99,-846.712 182.113,-838.112"/>
<polygon fill="grey" stroke="grey" stroke-width="2" points="185.612,-838.153 182.256,-828.104 178.613,-838.053 185.612,-838.153"/>
</g>
<!-- 16&#45;&gt;1 -->
<g id="edge2" class="edge"><title>16&#45;&gt;1</title>
<path fill="none" stroke="grey" stroke-width="2" d="M130.612,-143.697C126.011,-135.644 120.44,-125.894 115.347,-116.982"/>
<polygon fill="grey" stroke="grey" stroke-width="2" points="118.274,-115.05 110.274,-108.104 112.196,-118.523 118.274,-115.05"/>
</g>
</g>
</svg>
