<?xml version="1.0" encoding="UTF-8" standalone="no"?>
<!DOCTYPE svg PUBLIC "-//W3C//DTD SVG 1.1//EN"
 "http://www.w3.org/Graphics/SVG/1.1/DTD/svg11.dtd">
<!-- Generated by graphviz version 2.38.0 (20140413.2041)
 -->
<!-- Title: snakemake_dag Pages: 1 -->
<svg width="434pt" height="980pt"
 viewBox="0.00 0.00 434.00 980.00" xmlns="http://www.w3.org/2000/svg" xmlns:xlink="http://www.w3.org/1999/xlink">
<g id="graph0" class="graph" transform="scale(1 1) rotate(0) translate(4 976)">
<title>snakemake_dag</title>
<polygon fill="white" stroke="none" points="-4,4 -4,-976 430,-976 430,4 -4,4"/>
<!-- 0 -->
<g id="node1" class="node"><title>0</title>
<path fill="none" stroke="#56d89a" stroke-width="2" d="M315.5,-108C315.5,-108 245.5,-108 245.5,-108 239.5,-108 233.5,-102 233.5,-96 233.5,-96 233.5,-84 233.5,-84 233.5,-78 239.5,-72 245.5,-72 245.5,-72 315.5,-72 315.5,-72 321.5,-72 327.5,-78 327.5,-84 327.5,-84 327.5,-96 327.5,-96 327.5,-102 321.5,-108 315.5,-108"/>
<text text-anchor="middle" x="280.5" y="-87.5" font-family="sans" font-size="10.00">add_description</text>
</g>
<!-- 2 -->
<g id="node3" class="node"><title>2</title>
<path fill="none" stroke="#afd856" stroke-width="2" d="M335.5,-36C335.5,-36 225.5,-36 225.5,-36 219.5,-36 213.5,-30 213.5,-24 213.5,-24 213.5,-12 213.5,-12 213.5,-6 219.5,-0 225.5,-0 225.5,-0 335.5,-0 335.5,-0 341.5,-0 347.5,-6 347.5,-12 347.5,-12 347.5,-24 347.5,-24 347.5,-30 341.5,-36 335.5,-36"/>
<text text-anchor="middle" x="280.5" y="-15.5" font-family="sans" font-size="10.00">merge_description_files</text>
</g>
<!-- 0&#45;&gt;2 -->
<g id="edge3" class="edge"><title>0&#45;&gt;2</title>
<path fill="none" stroke="grey" stroke-width="2" d="M280.5,-71.6966C280.5,-63.9827 280.5,-54.7125 280.5,-46.1124"/>
<polygon fill="grey" stroke="grey" stroke-width="2" points="284,-46.1043 280.5,-36.1043 277,-46.1044 284,-46.1043"/>
</g>
<!-- 1 -->
<g id="node2" class="node"><title>1</title>
<path fill="none" stroke="#d8cb56" stroke-width="2" d="M232.5,-252C232.5,-252 202.5,-252 202.5,-252 196.5,-252 190.5,-246 190.5,-240 190.5,-240 190.5,-228 190.5,-228 190.5,-222 196.5,-216 202.5,-216 202.5,-216 232.5,-216 232.5,-216 238.5,-216 244.5,-222 244.5,-228 244.5,-228 244.5,-240 244.5,-240 244.5,-246 238.5,-252 232.5,-252"/>
<text text-anchor="middle" x="217.5" y="-231.5" font-family="sans" font-size="10.00">prokka</text>
</g>
<!-- 4 -->
<g id="node5" class="node"><title>4</title>
<path fill="none" stroke="#61d856" stroke-width="2" d="M334,-180C334,-180 227,-180 227,-180 221,-180 215,-174 215,-168 215,-168 215,-156 215,-156 215,-150 221,-144 227,-144 227,-144 334,-144 334,-144 340,-144 346,-150 346,-156 346,-156 346,-168 346,-168 346,-174 340,-180 334,-180"/>
<text text-anchor="middle" x="280.5" y="-159.5" font-family="sans" font-size="10.00">blast_virulence_protein</text>
</g>
<!-- 1&#45;&gt;4 -->
<g id="edge5" class="edge"><title>1&#45;&gt;4</title>
<path fill="none" stroke="grey" stroke-width="2" d="M233.073,-215.697C240.702,-207.22 250.023,-196.864 258.376,-187.583"/>
<polygon fill="grey" stroke="grey" stroke-width="2" points="261.018,-189.879 265.106,-180.104 255.815,-185.196 261.018,-189.879"/>
</g>
<!-- 3 -->
<g id="node4" class="node"><title>3</title>
<path fill="none" stroke="#56d85b" stroke-width="2" d="M203,-396C203,-396 90,-396 90,-396 84,-396 78,-390 78,-384 78,-384 78,-372 78,-372 78,-366 84,-360 90,-360 90,-360 203,-360 203,-360 209,-360 215,-366 215,-372 215,-372 215,-384 215,-384 215,-390 209,-396 203,-396"/>
<text text-anchor="middle" x="146.5" y="-375.5" font-family="sans" font-size="10.00">extract_contig_coverage</text>
</g>
<!-- 9 -->
<g id="node10" class="node"><title>9</title>
<path fill="none" stroke="#56d8b9" stroke-width="2" d="M279.5,-324C279.5,-324 155.5,-324 155.5,-324 149.5,-324 143.5,-318 143.5,-312 143.5,-312 143.5,-300 143.5,-300 143.5,-294 149.5,-288 155.5,-288 155.5,-288 279.5,-288 279.5,-288 285.5,-288 291.5,-294 291.5,-300 291.5,-300 291.5,-312 291.5,-312 291.5,-318 285.5,-324 279.5,-324"/>
<text text-anchor="middle" x="217.5" y="-303.5" font-family="sans" font-size="10.00">filter_contigs_on_coverage</text>
</g>
<!-- 3&#45;&gt;9 -->
<g id="edge11" class="edge"><title>3&#45;&gt;9</title>
<path fill="none" stroke="grey" stroke-width="2" d="M164.051,-359.697C172.734,-351.135 183.363,-340.656 192.848,-331.304"/>
<polygon fill="grey" stroke="grey" stroke-width="2" points="195.488,-333.617 200.151,-324.104 190.573,-328.633 195.488,-333.617"/>
</g>
<!-- 4&#45;&gt;0 -->
<g id="edge1" class="edge"><title>4&#45;&gt;0</title>
<path fill="none" stroke="grey" stroke-width="2" d="M280.5,-143.697C280.5,-135.983 280.5,-126.712 280.5,-118.112"/>
<polygon fill="grey" stroke="grey" stroke-width="2" points="284,-118.104 280.5,-108.104 277,-118.104 284,-118.104"/>
</g>
<!-- 5 -->
<g id="node6" class="node"><title>5</title>
<path fill="none" stroke="#bed856" stroke-width="2" d="M278,-684C278,-684 175,-684 175,-684 169,-684 163,-678 163,-672 163,-672 163,-660 163,-660 163,-654 169,-648 175,-648 175,-648 278,-648 278,-648 284,-648 290,-654 290,-660 290,-660 290,-672 290,-672 290,-678 284,-684 278,-684"/>
<text text-anchor="middle" x="226.5" y="-663.5" font-family="sans" font-size="10.00">extract_contigs_500bp</text>
</g>
<!-- 14 -->
<g id="node15" class="node"><title>14</title>
<path fill="none" stroke="#b6d856" stroke-width="2" d="M262,-612C262,-612 191,-612 191,-612 185,-612 179,-606 179,-600 179,-600 179,-588 179,-588 179,-582 185,-576 191,-576 191,-576 262,-576 262,-576 268,-576 274,-582 274,-588 274,-588 274,-600 274,-600 274,-606 268,-612 262,-612"/>
<text text-anchor="middle" x="226.5" y="-591.5" font-family="sans" font-size="10.00">rename_contigs</text>
</g>
<!-- 5&#45;&gt;14 -->
<g id="edge16" class="edge"><title>5&#45;&gt;14</title>
<path fill="none" stroke="grey" stroke-width="2" d="M226.5,-647.697C226.5,-639.983 226.5,-630.712 226.5,-622.112"/>
<polygon fill="grey" stroke="grey" stroke-width="2" points="230,-622.104 226.5,-612.104 223,-622.104 230,-622.104"/>
</g>
<!-- 6 -->
<g id="node7" class="node"><title>6</title>
<path fill="none" stroke="#97d856" stroke-width="2" d="M167.5,-468C167.5,-468 81.5,-468 81.5,-468 75.5,-468 69.5,-462 69.5,-456 69.5,-456 69.5,-444 69.5,-444 69.5,-438 75.5,-432 81.5,-432 81.5,-432 167.5,-432 167.5,-432 173.5,-432 179.5,-438 179.5,-444 179.5,-444 179.5,-456 179.5,-456 179.5,-462 173.5,-468 167.5,-468"/>
<text text-anchor="middle" x="124.5" y="-447.5" font-family="sans" font-size="10.00">qualimap_mapping</text>
</g>
<!-- 6&#45;&gt;3 -->
<g id="edge4" class="edge"><title>6&#45;&gt;3</title>
<path fill="none" stroke="grey" stroke-width="2" d="M129.938,-431.697C132.389,-423.898 135.34,-414.509 138.068,-405.829"/>
<polygon fill="grey" stroke="grey" stroke-width="2" points="141.465,-406.694 141.124,-396.104 134.787,-404.595 141.465,-406.694"/>
</g>
<!-- 7 -->
<g id="node8" class="node"><title>7</title>
<path fill="none" stroke="#80d856" stroke-width="2" d="M215,-540C215,-540 12,-540 12,-540 6,-540 0,-534 0,-528 0,-528 0,-516 0,-516 0,-510 6,-504 12,-504 12,-504 215,-504 215,-504 221,-504 227,-510 227,-516 227,-516 227,-528 227,-528 227,-534 221,-540 215,-540"/>
<text text-anchor="middle" x="113.5" y="-519.5" font-family="sans" font-size="10.00">align_paired_reads_to_assembled_genome</text>
</g>
<!-- 7&#45;&gt;6 -->
<g id="edge8" class="edge"><title>7&#45;&gt;6</title>
<path fill="none" stroke="grey" stroke-width="2" d="M116.219,-503.697C117.431,-495.983 118.888,-486.712 120.239,-478.112"/>
<polygon fill="grey" stroke="grey" stroke-width="2" points="123.717,-478.526 121.812,-468.104 116.802,-477.44 123.717,-478.526"/>
</g>
<!-- 8 -->
<g id="node9" class="node"><title>8</title>
<path fill="none" stroke="#ced856" stroke-width="2" d="M414,-252C414,-252 275,-252 275,-252 269,-252 263,-246 263,-240 263,-240 263,-228 263,-228 263,-222 269,-216 275,-216 275,-216 414,-216 414,-216 420,-216 426,-222 426,-228 426,-228 426,-240 426,-240 426,-246 420,-252 414,-252"/>
<text text-anchor="middle" x="344.5" y="-231.5" font-family="sans" font-size="10.00">fetch_from_uniprot_accession</text>
</g>
<!-- 8&#45;&gt;4 -->
<g id="edge6" class="edge"><title>8&#45;&gt;4</title>
<path fill="none" stroke="grey" stroke-width="2" d="M328.68,-215.697C320.93,-207.22 311.461,-196.864 302.976,-187.583"/>
<polygon fill="grey" stroke="grey" stroke-width="2" points="305.469,-185.123 296.138,-180.104 300.303,-189.846 305.469,-185.123"/>
</g>
<!-- 9&#45;&gt;1 -->
<g id="edge2" class="edge"><title>9&#45;&gt;1</title>
<path fill="none" stroke="grey" stroke-width="2" d="M217.5,-287.697C217.5,-279.983 217.5,-270.712 217.5,-262.112"/>
<polygon fill="grey" stroke="grey" stroke-width="2" points="221,-262.104 217.5,-252.104 214,-262.104 221,-262.104"/>
</g>
<!-- 10 -->
<g id="node11" class="node"><title>10</title>
<path fill="none" stroke="#5682d8" stroke-width="2" d="M299.5,-828C299.5,-828 153.5,-828 153.5,-828 147.5,-828 141.5,-822 141.5,-816 141.5,-816 141.5,-804 141.5,-804 141.5,-798 147.5,-792 153.5,-792 153.5,-792 299.5,-792 299.5,-792 305.5,-792 311.5,-798 311.5,-804 311.5,-804 311.5,-816 311.5,-816 311.5,-822 305.5,-828 299.5,-828"/>
<text text-anchor="middle" x="226.5" y="-807.5" font-family="sans" font-size="10.00">error_correction_spades_paired</text>
</g>
<!-- 12 -->
<g id="node13" class="node"><title>12</title>
<path fill="none" stroke="#566bd8" stroke-width="2" d="M258,-756C258,-756 195,-756 195,-756 189,-756 183,-750 183,-744 183,-744 183,-732 183,-732 183,-726 189,-720 195,-720 195,-720 258,-720 258,-720 264,-720 270,-726 270,-732 270,-732 270,-744 270,-744 270,-750 264,-756 258,-756"/>
<text text-anchor="middle" x="226.5" y="-735.5" font-family="sans" font-size="10.00">spades_paired</text>
</g>
<!-- 10&#45;&gt;12 -->
<g id="edge14" class="edge"><title>10&#45;&gt;12</title>
<path fill="none" stroke="grey" stroke-width="2" d="M226.5,-791.697C226.5,-783.983 226.5,-774.712 226.5,-766.112"/>
<polygon fill="grey" stroke="grey" stroke-width="2" points="230,-766.104 226.5,-756.104 223,-766.104 230,-766.104"/>
</g>
<!-- 11 -->
<g id="node12" class="node"><title>11</title>
<path fill="none" stroke="#d86656" stroke-width="2" d="M227.5,-972C227.5,-972 93.5,-972 93.5,-972 87.5,-972 81.5,-966 81.5,-960 81.5,-960 81.5,-948 81.5,-948 81.5,-942 87.5,-936 93.5,-936 93.5,-936 227.5,-936 227.5,-936 233.5,-936 239.5,-942 239.5,-948 239.5,-948 239.5,-960 239.5,-960 239.5,-966 233.5,-972 227.5,-972"/>
<text text-anchor="middle" x="160.5" y="-957" font-family="sans" font-size="10.00">copy_fastq_paired_from_link</text>
<text text-anchor="middle" x="160.5" y="-946" font-family="sans" font-size="10.00">sample: 1712113810&#45;strain</text>
</g>
<!-- 11&#45;&gt;7 -->
<g id="edge9" class="edge"><title>11&#45;&gt;7</title>
<path fill="none" stroke="grey" stroke-width="2" d="M150.762,-935.68C136.995,-909.525 113.5,-858.002 113.5,-811 113.5,-811 113.5,-811 113.5,-665 113.5,-624.996 113.5,-578.653 113.5,-550.08"/>
<polygon fill="grey" stroke="grey" stroke-width="2" points="117,-550.049 113.5,-540.049 110,-550.049 117,-550.049"/>
</g>
<!-- 13 -->
<g id="node14" class="node"><title>13</title>
<path fill="none" stroke="#5673d8" stroke-width="2" d="M245.5,-900C245.5,-900 171.5,-900 171.5,-900 165.5,-900 159.5,-894 159.5,-888 159.5,-888 159.5,-876 159.5,-876 159.5,-870 165.5,-864 171.5,-864 171.5,-864 245.5,-864 245.5,-864 251.5,-864 257.5,-870 257.5,-876 257.5,-876 257.5,-888 257.5,-888 257.5,-894 251.5,-900 245.5,-900"/>
<text text-anchor="middle" x="208.5" y="-879.5" font-family="sans" font-size="10.00">trimmomatic_PE</text>
</g>
<!-- 11&#45;&gt;13 -->
<g id="edge15" class="edge"><title>11&#45;&gt;13</title>
<path fill="none" stroke="grey" stroke-width="2" d="M172.365,-935.697C178.003,-927.474 184.854,-917.483 191.069,-908.421"/>
<polygon fill="grey" stroke="grey" stroke-width="2" points="194.003,-910.331 196.771,-900.104 188.229,-906.372 194.003,-910.331"/>
</g>
<!-- 12&#45;&gt;5 -->
<g id="edge7" class="edge"><title>12&#45;&gt;5</title>
<path fill="none" stroke="grey" stroke-width="2" d="M226.5,-719.697C226.5,-711.983 226.5,-702.712 226.5,-694.112"/>
<polygon fill="grey" stroke="grey" stroke-width="2" points="230,-694.104 226.5,-684.104 223,-694.104 230,-694.104"/>
</g>
<!-- 13&#45;&gt;10 -->
<g id="edge13" class="edge"><title>13&#45;&gt;10</title>
<path fill="none" stroke="grey" stroke-width="2" d="M212.949,-863.697C214.955,-855.898 217.369,-846.509 219.601,-837.829"/>
<polygon fill="grey" stroke="grey" stroke-width="2" points="223.001,-838.661 222.102,-828.104 216.222,-836.918 223.001,-838.661"/>
</g>
<!-- 14&#45;&gt;7 -->
<g id="edge10" class="edge"><title>14&#45;&gt;7</title>
<path fill="none" stroke="grey" stroke-width="2" d="M198.857,-575.876C184.082,-566.724 165.709,-555.342 149.797,-545.485"/>
<polygon fill="grey" stroke="grey" stroke-width="2" points="151.593,-542.481 141.249,-540.19 147.907,-548.431 151.593,-542.481"/>
</g>
<!-- 14&#45;&gt;9 -->
<g id="edge12" class="edge"><title>14&#45;&gt;9</title>
<path fill="none" stroke="grey" stroke-width="2" d="M230.154,-575.908C232.176,-565.569 234.481,-552.09 235.5,-540 241.768,-465.646 229.74,-377.87 222.469,-334.333"/>
<polygon fill="grey" stroke="grey" stroke-width="2" points="225.88,-333.515 220.737,-324.252 218.981,-334.701 225.88,-333.515"/>
</g>
</g>
</svg>
