<?xml version="1.0" encoding="UTF-8" standalone="no"?>
<!DOCTYPE svg PUBLIC "-//W3C//DTD SVG 1.1//EN"
 "http://www.w3.org/Graphics/SVG/1.1/DTD/svg11.dtd">
<!-- Generated by graphviz version 2.38.0 (20140413.2041)
 -->
<!-- Title: snakemake_dag Pages: 1 -->
<svg width="3422pt" height="769pt"
 viewBox="0.00 0.00 3422.00 769.00" xmlns="http://www.w3.org/2000/svg" xmlns:xlink="http://www.w3.org/1999/xlink">
<g id="graph0" class="graph" transform="scale(1 1) rotate(0) translate(4 765)">
<title>snakemake_dag</title>
<polygon fill="white" stroke="none" points="-4,4 -4,-765 3418,-765 3418,4 -4,4"/>
<!-- 0 -->
<g id="node1" class="node"><title>0</title>
<path fill="none" stroke="#56d8d0" stroke-width="2" stroke-dasharray="5,2" d="M1835,-545C1835,-545 1735,-545 1735,-545 1729,-545 1723,-539 1723,-533 1723,-533 1723,-521 1723,-521 1723,-515 1729,-509 1735,-509 1735,-509 1835,-509 1835,-509 1841,-509 1847,-515 1847,-521 1847,-521 1847,-533 1847,-533 1847,-539 1841,-545 1835,-545"/>
<text text-anchor="middle" x="1785" y="-524.5" font-family="sans" font-size="10.00">haplotype_caller_gvcf</text>
</g>
<!-- 48 -->
<g id="node49" class="node"><title>48</title>
<path fill="none" stroke="#565bd8" stroke-width="2" stroke-dasharray="5,2" d="M1823.5,-473C1823.5,-473 1746.5,-473 1746.5,-473 1740.5,-473 1734.5,-467 1734.5,-461 1734.5,-461 1734.5,-449 1734.5,-449 1734.5,-443 1740.5,-437 1746.5,-437 1746.5,-437 1823.5,-437 1823.5,-437 1829.5,-437 1835.5,-443 1835.5,-449 1835.5,-449 1835.5,-461 1835.5,-461 1835.5,-467 1829.5,-473 1823.5,-473"/>
<text text-anchor="middle" x="1785" y="-458" font-family="sans" font-size="10.00">merge_gvcf_files</text>
<text text-anchor="middle" x="1785" y="-447" font-family="sans" font-size="10.00">method: parsnp</text>
</g>
<!-- 0&#45;&gt;48 -->
<g id="edge57" class="edge"><title>0&#45;&gt;48</title>
<path fill="none" stroke="grey" stroke-width="2" d="M1785,-508.697C1785,-500.983 1785,-491.712 1785,-483.112"/>
<polygon fill="grey" stroke="grey" stroke-width="2" points="1788.5,-483.104 1785,-473.104 1781.5,-483.104 1788.5,-483.104"/>
</g>
<!-- 1 -->
<g id="node2" class="node"><title>1</title>
<path fill="none" stroke="#d8cb56" stroke-width="2" stroke-dasharray="5,2" d="M146,-761C146,-761 12,-761 12,-761 6,-761 1.42109e-14,-755 1.42109e-14,-749 1.42109e-14,-749 1.42109e-14,-737 1.42109e-14,-737 1.42109e-14,-731 6,-725 12,-725 12,-725 146,-725 146,-725 152,-725 158,-731 158,-737 158,-737 158,-749 158,-749 158,-755 152,-761 146,-761"/>
<text text-anchor="middle" x="79" y="-746" font-family="sans" font-size="10.00">copy_fastq_paired_from_link</text>
<text text-anchor="middle" x="79" y="-735" font-family="sans" font-size="10.00">sample: S5</text>
</g>
<!-- 31 -->
<g id="node32" class="node"><title>31</title>
<path fill="none" stroke="#c6d856" stroke-width="2" stroke-dasharray="5,2" d="M287,-689C287,-689 133,-689 133,-689 127,-689 121,-683 121,-677 121,-677 121,-665 121,-665 121,-659 127,-653 133,-653 133,-653 287,-653 287,-653 293,-653 299,-659 299,-665 299,-665 299,-677 299,-677 299,-683 293,-689 287,-689"/>
<text text-anchor="middle" x="210" y="-674" font-family="sans" font-size="10.00">mapping_to_reference_with_bwa</text>
<text text-anchor="middle" x="210" y="-663" font-family="sans" font-size="10.00">ref: 34528</text>
</g>
<!-- 1&#45;&gt;31 -->
<g id="edge38" class="edge"><title>1&#45;&gt;31</title>
<path fill="none" stroke="grey" stroke-width="2" d="M111.046,-724.876C128.492,-715.554 150.265,-703.919 168.943,-693.939"/>
<polygon fill="grey" stroke="grey" stroke-width="2" points="170.66,-696.99 177.831,-689.19 167.361,-690.816 170.66,-696.99"/>
</g>
<!-- 51 -->
<g id="node52" class="node"><title>51</title>
<path fill="none" stroke="#569ad8" stroke-width="2" stroke-dasharray="5,2" d="M255.5,-401C255.5,-401 156.5,-401 156.5,-401 150.5,-401 144.5,-395 144.5,-389 144.5,-389 144.5,-377 144.5,-377 144.5,-371 150.5,-365 156.5,-365 156.5,-365 255.5,-365 255.5,-365 261.5,-365 267.5,-371 267.5,-377 267.5,-377 267.5,-389 267.5,-389 267.5,-395 261.5,-401 255.5,-401"/>
<text text-anchor="middle" x="206" y="-380.5" font-family="sans" font-size="10.00">snippy_to_gbk_paired</text>
</g>
<!-- 1&#45;&gt;51 -->
<g id="edge71" class="edge"><title>1&#45;&gt;51</title>
<path fill="none" stroke="grey" stroke-width="2" d="M65.8514,-724.688C47.6519,-698.952 17,-648.42 17,-600 17,-600 17,-600 17,-526 17,-483.331 22.0704,-466.394 53,-437 75.1468,-415.953 106.066,-403.224 134.317,-395.544"/>
<polygon fill="grey" stroke="grey" stroke-width="2" points="135.353,-398.892 144.18,-393.033 133.626,-392.108 135.353,-398.892"/>
</g>
<!-- 2 -->
<g id="node3" class="node"><title>2</title>
<path fill="none" stroke="#d8cb56" stroke-width="2" stroke-dasharray="5,2" d="M2224,-761C2224,-761 2090,-761 2090,-761 2084,-761 2078,-755 2078,-749 2078,-749 2078,-737 2078,-737 2078,-731 2084,-725 2090,-725 2090,-725 2224,-725 2224,-725 2230,-725 2236,-731 2236,-737 2236,-737 2236,-749 2236,-749 2236,-755 2230,-761 2224,-761"/>
<text text-anchor="middle" x="2157" y="-746" font-family="sans" font-size="10.00">copy_fastq_paired_from_link</text>
<text text-anchor="middle" x="2157" y="-735" font-family="sans" font-size="10.00">sample: S4</text>
</g>
<!-- 21 -->
<g id="node22" class="node"><title>21</title>
<path fill="none" stroke="#569ad8" stroke-width="2" stroke-dasharray="5,2" d="M1309.5,-401C1309.5,-401 1210.5,-401 1210.5,-401 1204.5,-401 1198.5,-395 1198.5,-389 1198.5,-389 1198.5,-377 1198.5,-377 1198.5,-371 1204.5,-365 1210.5,-365 1210.5,-365 1309.5,-365 1309.5,-365 1315.5,-365 1321.5,-371 1321.5,-377 1321.5,-377 1321.5,-389 1321.5,-389 1321.5,-395 1315.5,-401 1309.5,-401"/>
<text text-anchor="middle" x="1260" y="-380.5" font-family="sans" font-size="10.00">snippy_to_gbk_paired</text>
</g>
<!-- 2&#45;&gt;21 -->
<g id="edge27" class="edge"><title>2&#45;&gt;21</title>
<path fill="none" stroke="grey" stroke-width="2" d="M2236.33,-731.719C2254.3,-729.451 2273.3,-727.1 2291,-725 2363.38,-716.413 2562.42,-737.307 2617,-689 2647.43,-662.063 2638,-640.642 2638,-600 2638,-600 2638,-600 2638,-526 2638,-510.88 2600.09,-501.164 1844,-437 1619.16,-417.919 1558.07,-435.612 1331.92,-401.158"/>
<polygon fill="grey" stroke="grey" stroke-width="2" points="1332.14,-397.651 1321.72,-399.587 1331.07,-404.569 1332.14,-397.651"/>
</g>
<!-- 45 -->
<g id="node46" class="node"><title>45</title>
<path fill="none" stroke="#c6d856" stroke-width="2" stroke-dasharray="5,2" d="M2189,-689C2189,-689 2035,-689 2035,-689 2029,-689 2023,-683 2023,-677 2023,-677 2023,-665 2023,-665 2023,-659 2029,-653 2035,-653 2035,-653 2189,-653 2189,-653 2195,-653 2201,-659 2201,-665 2201,-665 2201,-677 2201,-677 2201,-683 2195,-689 2189,-689"/>
<text text-anchor="middle" x="2112" y="-674" font-family="sans" font-size="10.00">mapping_to_reference_with_bwa</text>
<text text-anchor="middle" x="2112" y="-663" font-family="sans" font-size="10.00">ref: 34528</text>
</g>
<!-- 2&#45;&gt;45 -->
<g id="edge55" class="edge"><title>2&#45;&gt;45</title>
<path fill="none" stroke="grey" stroke-width="2" d="M2145.88,-724.697C2140.64,-716.559 2134.3,-706.689 2128.52,-697.701"/>
<polygon fill="grey" stroke="grey" stroke-width="2" points="2131.35,-695.623 2123,-689.104 2125.46,-699.409 2131.35,-695.623"/>
</g>
<!-- 3 -->
<g id="node4" class="node"><title>3</title>
<path fill="none" stroke="#56b1d8" stroke-width="2" stroke-dasharray="5,2" d="M1046,-401C1046,-401 900,-401 900,-401 894,-401 888,-395 888,-389 888,-389 888,-377 888,-377 888,-371 894,-365 900,-365 900,-365 1046,-365 1046,-365 1052,-365 1058,-371 1058,-377 1058,-377 1058,-389 1058,-389 1058,-395 1052,-401 1046,-401"/>
<text text-anchor="middle" x="973" y="-380.5" font-family="sans" font-size="10.00">extract_core_genome_from_ref</text>
</g>
<!-- 9 -->
<g id="node10" class="node"><title>9</title>
<path fill="none" stroke="#56d86b" stroke-width="2" stroke-dasharray="5,2" d="M1049.5,-329C1049.5,-329 920.5,-329 920.5,-329 914.5,-329 908.5,-323 908.5,-317 908.5,-317 908.5,-305 908.5,-305 908.5,-299 914.5,-293 920.5,-293 920.5,-293 1049.5,-293 1049.5,-293 1055.5,-293 1061.5,-299 1061.5,-305 1061.5,-305 1061.5,-317 1061.5,-317 1061.5,-323 1055.5,-329 1049.5,-329"/>
<text text-anchor="middle" x="985" y="-308.5" font-family="sans" font-size="10.00">extract_only_core_positions</text>
</g>
<!-- 3&#45;&gt;9 -->
<g id="edge12" class="edge"><title>3&#45;&gt;9</title>
<path fill="none" stroke="grey" stroke-width="2" d="M975.966,-364.697C977.289,-356.983 978.878,-347.712 980.352,-339.112"/>
<polygon fill="grey" stroke="grey" stroke-width="2" points="983.828,-339.552 982.068,-329.104 976.928,-338.369 983.828,-339.552"/>
</g>
<!-- 4 -->
<g id="node5" class="node"><title>4</title>
<path fill="none" stroke="#c6d856" stroke-width="2" stroke-dasharray="5,2" d="M2394,-617C2394,-617 2232,-617 2232,-617 2226,-617 2220,-611 2220,-605 2220,-605 2220,-593 2220,-593 2220,-587 2226,-581 2232,-581 2232,-581 2394,-581 2394,-581 2400,-581 2406,-587 2406,-593 2406,-593 2406,-605 2406,-605 2406,-611 2400,-617 2394,-617"/>
<text text-anchor="middle" x="2313" y="-596.5" font-family="sans" font-size="10.00">remove_duplicates_from_mapping</text>
</g>
<!-- 24 -->
<g id="node25" class="node"><title>24</title>
<path fill="none" stroke="#56d8d0" stroke-width="2" stroke-dasharray="5,2" d="M2119,-545C2119,-545 2019,-545 2019,-545 2013,-545 2007,-539 2007,-533 2007,-533 2007,-521 2007,-521 2007,-515 2013,-509 2019,-509 2019,-509 2119,-509 2119,-509 2125,-509 2131,-515 2131,-521 2131,-521 2131,-533 2131,-533 2131,-539 2125,-545 2119,-545"/>
<text text-anchor="middle" x="2069" y="-524.5" font-family="sans" font-size="10.00">haplotype_caller_gvcf</text>
</g>
<!-- 4&#45;&gt;24 -->
<g id="edge32" class="edge"><title>4&#45;&gt;24</title>
<path fill="none" stroke="grey" stroke-width="2" d="M2253.62,-580.966C2218.94,-571.015 2174.99,-558.406 2138.67,-547.987"/>
<polygon fill="grey" stroke="grey" stroke-width="2" points="2139.22,-544.504 2128.64,-545.111 2137.29,-551.233 2139.22,-544.504"/>
</g>
<!-- 5 -->
<g id="node6" class="node"><title>5</title>
<path fill="none" stroke="#d8cb56" stroke-width="2" stroke-dasharray="5,2" d="M2446,-761C2446,-761 2312,-761 2312,-761 2306,-761 2300,-755 2300,-749 2300,-749 2300,-737 2300,-737 2300,-731 2306,-725 2312,-725 2312,-725 2446,-725 2446,-725 2452,-725 2458,-731 2458,-737 2458,-737 2458,-749 2458,-749 2458,-755 2452,-761 2446,-761"/>
<text text-anchor="middle" x="2379" y="-746" font-family="sans" font-size="10.00">copy_fastq_paired_from_link</text>
<text text-anchor="middle" x="2379" y="-735" font-family="sans" font-size="10.00">sample: S8</text>
</g>
<!-- 30 -->
<g id="node31" class="node"><title>30</title>
<path fill="none" stroke="#c6d856" stroke-width="2" stroke-dasharray="5,2" d="M2395,-689C2395,-689 2241,-689 2241,-689 2235,-689 2229,-683 2229,-677 2229,-677 2229,-665 2229,-665 2229,-659 2235,-653 2241,-653 2241,-653 2395,-653 2395,-653 2401,-653 2407,-659 2407,-665 2407,-665 2407,-677 2407,-677 2407,-683 2401,-689 2395,-689"/>
<text text-anchor="middle" x="2318" y="-674" font-family="sans" font-size="10.00">mapping_to_reference_with_bwa</text>
<text text-anchor="middle" x="2318" y="-663" font-family="sans" font-size="10.00">ref: 34528</text>
</g>
<!-- 5&#45;&gt;30 -->
<g id="edge37" class="edge"><title>5&#45;&gt;30</title>
<path fill="none" stroke="grey" stroke-width="2" d="M2363.92,-724.697C2356.61,-716.305 2347.69,-706.07 2339.66,-696.861"/>
<polygon fill="grey" stroke="grey" stroke-width="2" points="2342.11,-694.344 2332.91,-689.104 2336.84,-698.943 2342.11,-694.344"/>
</g>
<!-- 40 -->
<g id="node41" class="node"><title>40</title>
<path fill="none" stroke="#569ad8" stroke-width="2" stroke-dasharray="5,2" d="M1450.5,-401C1450.5,-401 1351.5,-401 1351.5,-401 1345.5,-401 1339.5,-395 1339.5,-389 1339.5,-389 1339.5,-377 1339.5,-377 1339.5,-371 1345.5,-365 1351.5,-365 1351.5,-365 1450.5,-365 1450.5,-365 1456.5,-365 1462.5,-371 1462.5,-377 1462.5,-377 1462.5,-389 1462.5,-389 1462.5,-395 1456.5,-401 1450.5,-401"/>
<text text-anchor="middle" x="1401" y="-380.5" font-family="sans" font-size="10.00">snippy_to_gbk_paired</text>
</g>
<!-- 5&#45;&gt;40 -->
<g id="edge50" class="edge"><title>5&#45;&gt;40</title>
<path fill="none" stroke="grey" stroke-width="2" d="M2458.27,-734.46C2525.3,-726.596 2614.67,-712.132 2642,-689 2674.32,-661.645 2676,-642.344 2676,-600 2676,-600 2676,-600 2676,-526 2676,-394.219 1648.64,-419.901 1472.84,-400.902"/>
<polygon fill="grey" stroke="grey" stroke-width="2" points="1473.08,-397.405 1462.72,-399.616 1472.2,-404.349 1473.08,-397.405"/>
</g>
<!-- 6 -->
<g id="node7" class="node"><title>6</title>
<path fill="none" stroke="#56d8c9" stroke-width="2" stroke-dasharray="5,2" d="M1076,-473C1076,-473 930,-473 930,-473 924,-473 918,-467 918,-461 918,-461 918,-449 918,-449 918,-443 924,-437 930,-437 930,-437 1076,-437 1076,-437 1082,-437 1088,-443 1088,-449 1088,-449 1088,-461 1088,-461 1088,-467 1082,-473 1076,-473"/>
<text text-anchor="middle" x="1003" y="-452.5" font-family="sans" font-size="10.00">calculate_core_genome_parsnp</text>
</g>
<!-- 6&#45;&gt;3 -->
<g id="edge4" class="edge"><title>6&#45;&gt;3</title>
<path fill="none" stroke="grey" stroke-width="2" d="M995.584,-436.697C992.206,-428.813 988.13,-419.304 984.377,-410.546"/>
<polygon fill="grey" stroke="grey" stroke-width="2" points="987.487,-408.917 980.33,-401.104 981.053,-411.675 987.487,-408.917"/>
</g>
<!-- 7 -->
<g id="node8" class="node"><title>7</title>
<path fill="none" stroke="#c6d856" stroke-width="2" stroke-dasharray="5,2" d="M2190,-617C2190,-617 2028,-617 2028,-617 2022,-617 2016,-611 2016,-605 2016,-605 2016,-593 2016,-593 2016,-587 2022,-581 2028,-581 2028,-581 2190,-581 2190,-581 2196,-581 2202,-587 2202,-593 2202,-593 2202,-605 2202,-605 2202,-611 2196,-617 2190,-617"/>
<text text-anchor="middle" x="2109" y="-596.5" font-family="sans" font-size="10.00">remove_duplicates_from_mapping</text>
</g>
<!-- 23 -->
<g id="node24" class="node"><title>23</title>
<path fill="none" stroke="#56d8d0" stroke-width="2" stroke-dasharray="5,2" d="M1977,-545C1977,-545 1877,-545 1877,-545 1871,-545 1865,-539 1865,-533 1865,-533 1865,-521 1865,-521 1865,-515 1871,-509 1877,-509 1877,-509 1977,-509 1977,-509 1983,-509 1989,-515 1989,-521 1989,-521 1989,-533 1989,-533 1989,-539 1983,-545 1977,-545"/>
<text text-anchor="middle" x="1927" y="-524.5" font-family="sans" font-size="10.00">haplotype_caller_gvcf</text>
</g>
<!-- 7&#45;&gt;23 -->
<g id="edge30" class="edge"><title>7&#45;&gt;23</title>
<path fill="none" stroke="grey" stroke-width="2" d="M2064.48,-580.876C2039.27,-571.179 2007.55,-558.98 1980.93,-548.743"/>
<polygon fill="grey" stroke="grey" stroke-width="2" points="1981.97,-545.391 1971.38,-545.068 1979.45,-551.925 1981.97,-545.391"/>
</g>
<!-- 8 -->
<g id="node9" class="node"><title>8</title>
<path fill="none" stroke="#56d8d0" stroke-width="2" stroke-dasharray="5,2" d="M1267,-545C1267,-545 1167,-545 1167,-545 1161,-545 1155,-539 1155,-533 1155,-533 1155,-521 1155,-521 1155,-515 1161,-509 1167,-509 1167,-509 1267,-509 1267,-509 1273,-509 1279,-515 1279,-521 1279,-521 1279,-533 1279,-533 1279,-539 1273,-545 1267,-545"/>
<text text-anchor="middle" x="1217" y="-524.5" font-family="sans" font-size="10.00">haplotype_caller_gvcf</text>
</g>
<!-- 8&#45;&gt;48 -->
<g id="edge61" class="edge"><title>8&#45;&gt;48</title>
<path fill="none" stroke="grey" stroke-width="2" d="M1279.24,-510.617C1282.2,-510.038 1285.13,-509.495 1288,-509 1443.99,-482.123 1630.02,-466.639 1724.08,-459.958"/>
<polygon fill="grey" stroke="grey" stroke-width="2" points="1724.53,-463.435 1734.26,-459.244 1724.04,-456.452 1724.53,-463.435"/>
</g>
<!-- 61 -->
<g id="node62" class="node"><title>61</title>
<path fill="none" stroke="#56b1d8" stroke-width="2" stroke-dasharray="5,2" d="M1067,-257C1067,-257 903,-257 903,-257 897,-257 891,-251 891,-245 891,-245 891,-228 891,-228 891,-222 897,-216 903,-216 903,-216 1067,-216 1067,-216 1073,-216 1079,-222 1079,-228 1079,-228 1079,-245 1079,-245 1079,-251 1073,-257 1067,-257"/>
<text text-anchor="middle" x="985" y="-245" font-family="sans" font-size="10.00">exclude_indel_other_ref_mutations</text>
<text text-anchor="middle" x="985" y="-234" font-family="sans" font-size="10.00">snp_caller: gatk</text>
<text text-anchor="middle" x="985" y="-223" font-family="sans" font-size="10.00">validation: before_validation</text>
</g>
<!-- 9&#45;&gt;61 -->
<g id="edge93" class="edge"><title>9&#45;&gt;61</title>
<path fill="none" stroke="grey" stroke-width="2" d="M985,-292.819C985,-285.198 985,-276.005 985,-267.32"/>
<polygon fill="grey" stroke="grey" stroke-width="2" points="988.5,-267.12 985,-257.12 981.5,-267.12 988.5,-267.12"/>
</g>
<!-- 10 -->
<g id="node11" class="node"><title>10</title>
<path fill="none" stroke="#c6d856" stroke-width="2" stroke-dasharray="5,2" d="M3354,-689C3354,-689 3200,-689 3200,-689 3194,-689 3188,-683 3188,-677 3188,-677 3188,-665 3188,-665 3188,-659 3194,-653 3200,-653 3200,-653 3354,-653 3354,-653 3360,-653 3366,-659 3366,-665 3366,-665 3366,-677 3366,-677 3366,-683 3360,-689 3354,-689"/>
<text text-anchor="middle" x="3277" y="-674" font-family="sans" font-size="10.00">mapping_to_reference_with_bwa</text>
<text text-anchor="middle" x="3277" y="-663" font-family="sans" font-size="10.00">ref: 34528</text>
</g>
<!-- 60 -->
<g id="node61" class="node"><title>60</title>
<path fill="none" stroke="#c6d856" stroke-width="2" stroke-dasharray="5,2" d="M3120,-617C3120,-617 2958,-617 2958,-617 2952,-617 2946,-611 2946,-605 2946,-605 2946,-593 2946,-593 2946,-587 2952,-581 2958,-581 2958,-581 3120,-581 3120,-581 3126,-581 3132,-587 3132,-593 3132,-593 3132,-605 3132,-605 3132,-611 3126,-617 3120,-617"/>
<text text-anchor="middle" x="3039" y="-596.5" font-family="sans" font-size="10.00">remove_duplicates_from_mapping</text>
</g>
<!-- 10&#45;&gt;60 -->
<g id="edge92" class="edge"><title>10&#45;&gt;60</title>
<path fill="none" stroke="grey" stroke-width="2" d="M3219.08,-652.966C3185.25,-643.015 3142.38,-630.406 3106.96,-619.987"/>
<polygon fill="grey" stroke="grey" stroke-width="2" points="3107.76,-616.575 3097.18,-617.111 3105.78,-623.29 3107.76,-616.575"/>
</g>
<!-- 11 -->
<g id="node12" class="node"><title>11</title>
<path fill="none" stroke="#56d8d0" stroke-width="2" stroke-dasharray="5,2" d="M1693,-545C1693,-545 1593,-545 1593,-545 1587,-545 1581,-539 1581,-533 1581,-533 1581,-521 1581,-521 1581,-515 1587,-509 1593,-509 1593,-509 1693,-509 1693,-509 1699,-509 1705,-515 1705,-521 1705,-521 1705,-533 1705,-533 1705,-539 1699,-545 1693,-545"/>
<text text-anchor="middle" x="1643" y="-524.5" font-family="sans" font-size="10.00">haplotype_caller_gvcf</text>
</g>
<!-- 11&#45;&gt;48 -->
<g id="edge60" class="edge"><title>11&#45;&gt;48</title>
<path fill="none" stroke="grey" stroke-width="2" d="M1677.74,-508.876C1696.82,-499.469 1720.68,-487.708 1741.05,-477.667"/>
<polygon fill="grey" stroke="grey" stroke-width="2" points="1742.71,-480.751 1750.13,-473.19 1739.61,-474.472 1742.71,-480.751"/>
</g>
<!-- 12 -->
<g id="node13" class="node"><title>12</title>
<path fill="none" stroke="#569ad8" stroke-width="2" stroke-dasharray="5,2" d="M678.5,-401C678.5,-401 579.5,-401 579.5,-401 573.5,-401 567.5,-395 567.5,-389 567.5,-389 567.5,-377 567.5,-377 567.5,-371 573.5,-365 579.5,-365 579.5,-365 678.5,-365 678.5,-365 684.5,-365 690.5,-371 690.5,-377 690.5,-377 690.5,-389 690.5,-389 690.5,-395 684.5,-401 678.5,-401"/>
<text text-anchor="middle" x="629" y="-380.5" font-family="sans" font-size="10.00">snippy_to_gbk_paired</text>
</g>
<!-- 57 -->
<g id="node58" class="node"><title>57</title>
<path fill="none" stroke="#80d856" stroke-width="2" stroke-dasharray="5,2" d="M1026.5,-36C1026.5,-36 769.5,-36 769.5,-36 763.5,-36 757.5,-30 757.5,-24 757.5,-24 757.5,-12 757.5,-12 757.5,-6 763.5,-0 769.5,-0 769.5,-0 1026.5,-0 1026.5,-0 1032.5,-0 1038.5,-6 1038.5,-12 1038.5,-12 1038.5,-24 1038.5,-24 1038.5,-30 1032.5,-36 1026.5,-36"/>
<text text-anchor="middle" x="898" y="-15.5" font-family="sans" font-size="10.00">snp_distance_from_vcf_and_positions_for_close_pairs</text>
</g>
<!-- 12&#45;&gt;57 -->
<g id="edge84" class="edge"><title>12&#45;&gt;57</title>
<path fill="none" stroke="grey" stroke-width="2" d="M642.468,-364.88C661.507,-338.908 694,-287.29 694,-237.5 694,-237.5 694,-237.5 694,-161 694,-97.0283 762.41,-59.5284 820,-39.2937"/>
<polygon fill="grey" stroke="grey" stroke-width="2" points="821.156,-42.5975 829.503,-36.0732 818.909,-35.9678 821.156,-42.5975"/>
</g>
<!-- 13 -->
<g id="node14" class="node"><title>13</title>
<path fill="none" stroke="#c6d856" stroke-width="2" stroke-dasharray="5,2" d="M1826,-617C1826,-617 1664,-617 1664,-617 1658,-617 1652,-611 1652,-605 1652,-605 1652,-593 1652,-593 1652,-587 1658,-581 1664,-581 1664,-581 1826,-581 1826,-581 1832,-581 1838,-587 1838,-593 1838,-593 1838,-605 1838,-605 1838,-611 1832,-617 1826,-617"/>
<text text-anchor="middle" x="1745" y="-596.5" font-family="sans" font-size="10.00">remove_duplicates_from_mapping</text>
</g>
<!-- 13&#45;&gt;0 -->
<g id="edge2" class="edge"><title>13&#45;&gt;0</title>
<path fill="none" stroke="grey" stroke-width="2" d="M1754.89,-580.697C1759.49,-572.644 1765.06,-562.894 1770.15,-553.982"/>
<polygon fill="grey" stroke="grey" stroke-width="2" points="1773.3,-555.523 1775.23,-545.104 1767.23,-552.05 1773.3,-555.523"/>
</g>
<!-- 14 -->
<g id="node15" class="node"><title>14</title>
<path fill="none" stroke="#56d8d0" stroke-width="2" stroke-dasharray="5,2" d="M1409,-545C1409,-545 1309,-545 1309,-545 1303,-545 1297,-539 1297,-533 1297,-533 1297,-521 1297,-521 1297,-515 1303,-509 1309,-509 1309,-509 1409,-509 1409,-509 1415,-509 1421,-515 1421,-521 1421,-521 1421,-533 1421,-533 1421,-539 1415,-545 1409,-545"/>
<text text-anchor="middle" x="1359" y="-524.5" font-family="sans" font-size="10.00">haplotype_caller_gvcf</text>
</g>
<!-- 14&#45;&gt;48 -->
<g id="edge63" class="edge"><title>14&#45;&gt;48</title>
<path fill="none" stroke="grey" stroke-width="2" d="M1421.27,-510.767C1424.22,-510.148 1427.14,-509.555 1430,-509 1532.62,-489.093 1653.18,-472.518 1724.11,-463.456"/>
<polygon fill="grey" stroke="grey" stroke-width="2" points="1724.73,-466.905 1734.21,-462.174 1723.85,-459.961 1724.73,-466.905"/>
</g>
<!-- 15 -->
<g id="node16" class="node"><title>15</title>
<path fill="none" stroke="#d8ac56" stroke-width="2" stroke-dasharray="5,2" d="M1040,-108C1040,-108 938,-108 938,-108 932,-108 926,-102 926,-96 926,-96 926,-84 926,-84 926,-78 932,-72 938,-72 938,-72 1040,-72 1040,-72 1046,-72 1052,-78 1052,-84 1052,-84 1052,-96 1052,-96 1052,-102 1046,-108 1040,-108"/>
<text text-anchor="middle" x="989" y="-87.5" font-family="sans" font-size="10.00">extract_genotype_info</text>
</g>
<!-- 15&#45;&gt;57 -->
<g id="edge81" class="edge"><title>15&#45;&gt;57</title>
<path fill="none" stroke="grey" stroke-width="2" d="M966.506,-71.6966C955.045,-62.8807 940.942,-52.0321 928.516,-42.4742"/>
<polygon fill="grey" stroke="grey" stroke-width="2" points="930.296,-39.4273 920.236,-36.1043 926.028,-44.9757 930.296,-39.4273"/>
</g>
<!-- 16 -->
<g id="node17" class="node"><title>16</title>
<path fill="none" stroke="#56d8d0" stroke-width="2" stroke-dasharray="5,2" d="M1551,-545C1551,-545 1451,-545 1451,-545 1445,-545 1439,-539 1439,-533 1439,-533 1439,-521 1439,-521 1439,-515 1445,-509 1451,-509 1451,-509 1551,-509 1551,-509 1557,-509 1563,-515 1563,-521 1563,-521 1563,-533 1563,-533 1563,-539 1557,-545 1551,-545"/>
<text text-anchor="middle" x="1501" y="-524.5" font-family="sans" font-size="10.00">haplotype_caller_gvcf</text>
</g>
<!-- 16&#45;&gt;48 -->
<g id="edge62" class="edge"><title>16&#45;&gt;48</title>
<path fill="none" stroke="grey" stroke-width="2" d="M1563.33,-510.638C1611.19,-498.84 1676.91,-482.641 1724.36,-470.948"/>
<polygon fill="grey" stroke="grey" stroke-width="2" points="1725.32,-474.316 1734.19,-468.524 1723.64,-467.519 1725.32,-474.316"/>
</g>
<!-- 17 -->
<g id="node18" class="node"><title>17</title>
<path fill="none" stroke="#c6d856" stroke-width="2" stroke-dasharray="5,2" d="M1418,-617C1418,-617 1256,-617 1256,-617 1250,-617 1244,-611 1244,-605 1244,-605 1244,-593 1244,-593 1244,-587 1250,-581 1256,-581 1256,-581 1418,-581 1418,-581 1424,-581 1430,-587 1430,-593 1430,-593 1430,-605 1430,-605 1430,-611 1424,-617 1418,-617"/>
<text text-anchor="middle" x="1337" y="-596.5" font-family="sans" font-size="10.00">remove_duplicates_from_mapping</text>
</g>
<!-- 17&#45;&gt;16 -->
<g id="edge23" class="edge"><title>17&#45;&gt;16</title>
<path fill="none" stroke="grey" stroke-width="2" d="M1377.12,-580.876C1399.64,-571.264 1427.92,-559.193 1451.77,-549.013"/>
<polygon fill="grey" stroke="grey" stroke-width="2" points="1453.19,-552.213 1461.01,-545.068 1450.44,-545.775 1453.19,-552.213"/>
</g>
<!-- 18 -->
<g id="node19" class="node"><title>18</title>
<path fill="none" stroke="#c6d856" stroke-width="2" stroke-dasharray="5,2" d="M2596,-689C2596,-689 2442,-689 2442,-689 2436,-689 2430,-683 2430,-677 2430,-677 2430,-665 2430,-665 2430,-659 2436,-653 2442,-653 2442,-653 2596,-653 2596,-653 2602,-653 2608,-659 2608,-665 2608,-665 2608,-677 2608,-677 2608,-683 2602,-689 2596,-689"/>
<text text-anchor="middle" x="2519" y="-674" font-family="sans" font-size="10.00">mapping_to_reference_with_bwa</text>
<text text-anchor="middle" x="2519" y="-663" font-family="sans" font-size="10.00">ref: 34528</text>
</g>
<!-- 49 -->
<g id="node50" class="node"><title>49</title>
<path fill="none" stroke="#c6d856" stroke-width="2" stroke-dasharray="5,2" d="M2598,-617C2598,-617 2436,-617 2436,-617 2430,-617 2424,-611 2424,-605 2424,-605 2424,-593 2424,-593 2424,-587 2430,-581 2436,-581 2436,-581 2598,-581 2598,-581 2604,-581 2610,-587 2610,-593 2610,-593 2610,-605 2610,-605 2610,-611 2604,-617 2598,-617"/>
<text text-anchor="middle" x="2517" y="-596.5" font-family="sans" font-size="10.00">remove_duplicates_from_mapping</text>
</g>
<!-- 18&#45;&gt;49 -->
<g id="edge67" class="edge"><title>18&#45;&gt;49</title>
<path fill="none" stroke="grey" stroke-width="2" d="M2518.51,-652.697C2518.29,-644.983 2518.02,-635.712 2517.77,-627.112"/>
<polygon fill="grey" stroke="grey" stroke-width="2" points="2521.27,-627 2517.49,-617.104 2514.28,-627.2 2521.27,-627"/>
</g>
<!-- 19 -->
<g id="node20" class="node"><title>19</title>
<path fill="none" stroke="#d8cb56" stroke-width="2" stroke-dasharray="5,2" d="M3116,-761C3116,-761 2982,-761 2982,-761 2976,-761 2970,-755 2970,-749 2970,-749 2970,-737 2970,-737 2970,-731 2976,-725 2982,-725 2982,-725 3116,-725 3116,-725 3122,-725 3128,-731 3128,-737 3128,-737 3128,-749 3128,-749 3128,-755 3122,-761 3116,-761"/>
<text text-anchor="middle" x="3049" y="-746" font-family="sans" font-size="10.00">copy_fastq_paired_from_link</text>
<text text-anchor="middle" x="3049" y="-735" font-family="sans" font-size="10.00">sample: S7</text>
</g>
<!-- 53 -->
<g id="node54" class="node"><title>53</title>
<path fill="none" stroke="#c6d856" stroke-width="2" stroke-dasharray="5,2" d="M3016,-689C3016,-689 2862,-689 2862,-689 2856,-689 2850,-683 2850,-677 2850,-677 2850,-665 2850,-665 2850,-659 2856,-653 2862,-653 2862,-653 3016,-653 3016,-653 3022,-653 3028,-659 3028,-665 3028,-665 3028,-677 3028,-677 3028,-683 3022,-689 3016,-689"/>
<text text-anchor="middle" x="2939" y="-674" font-family="sans" font-size="10.00">mapping_to_reference_with_bwa</text>
<text text-anchor="middle" x="2939" y="-663" font-family="sans" font-size="10.00">ref: 34528</text>
</g>
<!-- 19&#45;&gt;53 -->
<g id="edge74" class="edge"><title>19&#45;&gt;53</title>
<path fill="none" stroke="grey" stroke-width="2" d="M3022.09,-724.876C3007.84,-715.808 2990.15,-704.552 2974.76,-694.759"/>
<polygon fill="grey" stroke="grey" stroke-width="2" points="2976.33,-691.606 2966.01,-689.19 2972.57,-697.511 2976.33,-691.606"/>
</g>
<!-- 58 -->
<g id="node59" class="node"><title>58</title>
<path fill="none" stroke="#569ad8" stroke-width="2" stroke-dasharray="5,2" d="M1732.5,-401C1732.5,-401 1633.5,-401 1633.5,-401 1627.5,-401 1621.5,-395 1621.5,-389 1621.5,-389 1621.5,-377 1621.5,-377 1621.5,-371 1627.5,-365 1633.5,-365 1633.5,-365 1732.5,-365 1732.5,-365 1738.5,-365 1744.5,-371 1744.5,-377 1744.5,-377 1744.5,-389 1744.5,-389 1744.5,-395 1738.5,-401 1732.5,-401"/>
<text text-anchor="middle" x="1683" y="-380.5" font-family="sans" font-size="10.00">snippy_to_gbk_paired</text>
</g>
<!-- 19&#45;&gt;58 -->
<g id="edge90" class="edge"><title>19&#45;&gt;58</title>
<path fill="none" stroke="grey" stroke-width="2" d="M3075.02,-724.998C3107.83,-701.273 3160,-654.916 3160,-600 3160,-600 3160,-600 3160,-526 3160,-399.994 2725.38,-449.585 2600,-437 2228.39,-399.699 2127.84,-452.764 1754.7,-401.08"/>
<polygon fill="grey" stroke="grey" stroke-width="2" points="1755.1,-397.602 1744.71,-399.68 1754.13,-404.534 1755.1,-397.602"/>
</g>
<!-- 20 -->
<g id="node21" class="node"><title>20</title>
<path fill="none" stroke="#d8cb56" stroke-width="2" stroke-dasharray="5,2" d="M3402,-761C3402,-761 3268,-761 3268,-761 3262,-761 3256,-755 3256,-749 3256,-749 3256,-737 3256,-737 3256,-731 3262,-725 3268,-725 3268,-725 3402,-725 3402,-725 3408,-725 3414,-731 3414,-737 3414,-737 3414,-749 3414,-749 3414,-755 3408,-761 3402,-761"/>
<text text-anchor="middle" x="3335" y="-746" font-family="sans" font-size="10.00">copy_fastq_paired_from_link</text>
<text text-anchor="middle" x="3335" y="-735" font-family="sans" font-size="10.00">sample: S2</text>
</g>
<!-- 20&#45;&gt;10 -->
<g id="edge13" class="edge"><title>20&#45;&gt;10</title>
<path fill="none" stroke="grey" stroke-width="2" d="M3320.66,-724.697C3313.71,-716.305 3305.23,-706.07 3297.6,-696.861"/>
<polygon fill="grey" stroke="grey" stroke-width="2" points="3300.25,-694.571 3291.17,-689.104 3294.86,-699.038 3300.25,-694.571"/>
</g>
<!-- 52 -->
<g id="node53" class="node"><title>52</title>
<path fill="none" stroke="#569ad8" stroke-width="2" stroke-dasharray="5,2" d="M1873.5,-401C1873.5,-401 1774.5,-401 1774.5,-401 1768.5,-401 1762.5,-395 1762.5,-389 1762.5,-389 1762.5,-377 1762.5,-377 1762.5,-371 1768.5,-365 1774.5,-365 1774.5,-365 1873.5,-365 1873.5,-365 1879.5,-365 1885.5,-371 1885.5,-377 1885.5,-377 1885.5,-389 1885.5,-389 1885.5,-395 1879.5,-401 1873.5,-401"/>
<text text-anchor="middle" x="1824" y="-380.5" font-family="sans" font-size="10.00">snippy_to_gbk_paired</text>
</g>
<!-- 20&#45;&gt;52 -->
<g id="edge73" class="edge"><title>20&#45;&gt;52</title>
<path fill="none" stroke="grey" stroke-width="2" d="M3351.2,-724.629C3359.49,-714.844 3369.06,-702.003 3375,-689 3391.8,-652.209 3394,-640.447 3394,-600 3394,-600 3394,-600 3394,-526 3394,-290.214 3105.37,-462.783 2871,-437 2505.78,-396.823 2065.49,-387.053 1895.64,-384.718"/>
<polygon fill="grey" stroke="grey" stroke-width="2" points="1895.61,-381.217 1885.57,-384.584 1895.52,-388.217 1895.61,-381.217"/>
</g>
<!-- 21&#45;&gt;57 -->
<g id="edge79" class="edge"><title>21&#45;&gt;57</title>
<path fill="none" stroke="grey" stroke-width="2" d="M1243.67,-364.884C1221.07,-339.319 1183,-288.667 1183,-237.5 1183,-237.5 1183,-237.5 1183,-161 1183,-92.2315 1115.7,-56.7662 1046.51,-38.4762"/>
<polygon fill="grey" stroke="grey" stroke-width="2" points="1047.3,-35.0643 1036.74,-36.0077 1045.58,-41.851 1047.3,-35.0643"/>
</g>
<!-- 22 -->
<g id="node23" class="node"><title>22</title>
<path fill="none" stroke="#c6d856" stroke-width="2" stroke-dasharray="5,2" d="M1622,-617C1622,-617 1460,-617 1460,-617 1454,-617 1448,-611 1448,-605 1448,-605 1448,-593 1448,-593 1448,-587 1454,-581 1460,-581 1460,-581 1622,-581 1622,-581 1628,-581 1634,-587 1634,-593 1634,-593 1634,-605 1634,-605 1634,-611 1628,-617 1622,-617"/>
<text text-anchor="middle" x="1541" y="-596.5" font-family="sans" font-size="10.00">remove_duplicates_from_mapping</text>
</g>
<!-- 22&#45;&gt;11 -->
<g id="edge15" class="edge"><title>22&#45;&gt;11</title>
<path fill="none" stroke="grey" stroke-width="2" d="M1565.95,-580.876C1579.04,-571.893 1595.26,-560.763 1609.44,-551.034"/>
<polygon fill="grey" stroke="grey" stroke-width="2" points="1611.69,-553.734 1617.95,-545.19 1607.73,-547.962 1611.69,-553.734"/>
</g>
<!-- 23&#45;&gt;48 -->
<g id="edge66" class="edge"><title>23&#45;&gt;48</title>
<path fill="none" stroke="grey" stroke-width="2" d="M1892.26,-508.876C1873.18,-499.469 1849.32,-487.708 1828.95,-477.667"/>
<polygon fill="grey" stroke="grey" stroke-width="2" points="1830.39,-474.472 1819.87,-473.19 1827.29,-480.751 1830.39,-474.472"/>
</g>
<!-- 24&#45;&gt;48 -->
<g id="edge64" class="edge"><title>24&#45;&gt;48</title>
<path fill="none" stroke="grey" stroke-width="2" d="M2006.67,-510.638C1958.81,-498.84 1893.09,-482.641 1845.64,-470.948"/>
<polygon fill="grey" stroke="grey" stroke-width="2" points="1846.36,-467.519 1835.81,-468.524 1844.68,-474.316 1846.36,-467.519"/>
</g>
<!-- 25 -->
<g id="node26" class="node"><title>25</title>
<path fill="none" stroke="#d87556" stroke-width="2" stroke-dasharray="5,2" d="M967,-545C967,-545 779,-545 779,-545 773,-545 767,-539 767,-533 767,-533 767,-521 767,-521 767,-515 773,-509 779,-509 779,-509 967,-509 967,-509 973,-509 979,-515 979,-521 979,-521 979,-533 979,-533 979,-539 973,-545 967,-545"/>
<text text-anchor="middle" x="873" y="-524.5" font-family="sans" font-size="10.00">download_all_complete_genomes_fasta</text>
</g>
<!-- 25&#45;&gt;6 -->
<g id="edge6" class="edge"><title>25&#45;&gt;6</title>
<path fill="none" stroke="grey" stroke-width="2" d="M904.802,-508.876C922.114,-499.554 943.721,-487.919 962.256,-477.939"/>
<polygon fill="grey" stroke="grey" stroke-width="2" points="963.931,-481.012 971.076,-473.19 960.612,-474.849 963.931,-481.012"/>
</g>
<!-- 26 -->
<g id="node27" class="node"><title>26</title>
<path fill="none" stroke="#569ad8" stroke-width="2" stroke-dasharray="5,2" d="M1591.5,-401C1591.5,-401 1492.5,-401 1492.5,-401 1486.5,-401 1480.5,-395 1480.5,-389 1480.5,-389 1480.5,-377 1480.5,-377 1480.5,-371 1486.5,-365 1492.5,-365 1492.5,-365 1591.5,-365 1591.5,-365 1597.5,-365 1603.5,-371 1603.5,-377 1603.5,-377 1603.5,-389 1603.5,-389 1603.5,-395 1597.5,-401 1591.5,-401"/>
<text text-anchor="middle" x="1542" y="-380.5" font-family="sans" font-size="10.00">snippy_to_gbk_paired</text>
</g>
<!-- 26&#45;&gt;57 -->
<g id="edge83" class="edge"><title>26&#45;&gt;57</title>
<path fill="none" stroke="grey" stroke-width="2" d="M1508.03,-364.876C1467.75,-341.876 1406,-296.927 1406,-237.5 1406,-237.5 1406,-237.5 1406,-161 1406,-86.1403 1198.8,-48.9809 1049.06,-31.9005"/>
<polygon fill="grey" stroke="grey" stroke-width="2" points="1049.16,-28.3899 1038.83,-30.7547 1048.38,-35.3463 1049.16,-28.3899"/>
</g>
<!-- 27 -->
<g id="node28" class="node"><title>27</title>
<path fill="none" stroke="#d8cb56" stroke-width="2" stroke-dasharray="5,2" d="M2683,-761C2683,-761 2549,-761 2549,-761 2543,-761 2537,-755 2537,-749 2537,-749 2537,-737 2537,-737 2537,-731 2543,-725 2549,-725 2549,-725 2683,-725 2683,-725 2689,-725 2695,-731 2695,-737 2695,-737 2695,-749 2695,-749 2695,-755 2689,-761 2683,-761"/>
<text text-anchor="middle" x="2616" y="-746" font-family="sans" font-size="10.00">copy_fastq_paired_from_link</text>
<text text-anchor="middle" x="2616" y="-735" font-family="sans" font-size="10.00">sample: S1</text>
</g>
<!-- 27&#45;&gt;18 -->
<g id="edge25" class="edge"><title>27&#45;&gt;18</title>
<path fill="none" stroke="grey" stroke-width="2" d="M2592.02,-724.697C2579.69,-715.796 2564.48,-704.823 2551.15,-695.199"/>
<polygon fill="grey" stroke="grey" stroke-width="2" points="2552.86,-692.118 2542.7,-689.104 2548.76,-697.794 2552.86,-692.118"/>
</g>
<!-- 27&#45;&gt;26 -->
<g id="edge35" class="edge"><title>27&#45;&gt;26</title>
<path fill="none" stroke="grey" stroke-width="2" d="M2638.24,-724.925C2667.15,-700.604 2714,-653.018 2714,-600 2714,-600 2714,-600 2714,-526 2714,-478.824 2971.38,-532.806 2498,-437 2115.03,-359.492 2004.17,-454.127 1613.86,-401.091"/>
<polygon fill="grey" stroke="grey" stroke-width="2" points="1614.09,-397.59 1603.71,-399.687 1613.13,-404.524 1614.09,-397.59"/>
</g>
<!-- 28 -->
<g id="node29" class="node"><title>28</title>
<path fill="none" stroke="#a7d856" stroke-width="2" stroke-dasharray="5,2" d="M887.5,-473C887.5,-473 772.5,-473 772.5,-473 766.5,-473 760.5,-467 760.5,-461 760.5,-461 760.5,-449 760.5,-449 760.5,-443 766.5,-437 772.5,-437 772.5,-437 887.5,-437 887.5,-437 893.5,-437 899.5,-443 899.5,-449 899.5,-449 899.5,-461 899.5,-461 899.5,-467 893.5,-473 887.5,-473"/>
<text text-anchor="middle" x="830" y="-458" font-family="sans" font-size="10.00">download_gbks_from_url</text>
<text text-anchor="middle" x="830" y="-447" font-family="sans" font-size="10.00">ref: 34528</text>
</g>
<!-- 28&#45;&gt;3 -->
<g id="edge3" class="edge"><title>28&#45;&gt;3</title>
<path fill="none" stroke="grey" stroke-width="2" d="M864.982,-436.876C884.198,-427.469 908.226,-415.708 928.737,-405.667"/>
<polygon fill="grey" stroke="grey" stroke-width="2" points="930.441,-408.73 937.884,-401.19 927.363,-402.443 930.441,-408.73"/>
</g>
<!-- 28&#45;&gt;12 -->
<g id="edge16" class="edge"><title>28&#45;&gt;12</title>
<path fill="none" stroke="grey" stroke-width="2" d="M781.087,-436.966C753.003,-427.185 717.545,-414.836 687.932,-404.524"/>
<polygon fill="grey" stroke="grey" stroke-width="2" points="688.727,-401.094 678.132,-401.111 686.425,-407.705 688.727,-401.094"/>
</g>
<!-- 28&#45;&gt;21 -->
<g id="edge26" class="edge"><title>28&#45;&gt;21</title>
<path fill="none" stroke="grey" stroke-width="2" d="M899.725,-438.663C902.855,-438.08 905.958,-437.522 909,-437 1029.52,-416.322 1063.86,-423.26 1188.22,-401.026"/>
<polygon fill="grey" stroke="grey" stroke-width="2" points="1188.91,-404.457 1198.13,-399.227 1187.66,-397.57 1188.91,-404.457"/>
</g>
<!-- 28&#45;&gt;26 -->
<g id="edge34" class="edge"><title>28&#45;&gt;26</title>
<path fill="none" stroke="grey" stroke-width="2" d="M899.687,-438.419C902.828,-437.902 905.943,-437.424 909,-437 1153.64,-403.032 1221.71,-437.348 1470.11,-400.96"/>
<polygon fill="grey" stroke="grey" stroke-width="2" points="1470.79,-404.398 1480.17,-399.464 1469.76,-397.474 1470.79,-404.398"/>
</g>
<!-- 33 -->
<g id="node34" class="node"><title>33</title>
<path fill="none" stroke="#569ad8" stroke-width="2" stroke-dasharray="5,2" d="M537.5,-401C537.5,-401 438.5,-401 438.5,-401 432.5,-401 426.5,-395 426.5,-389 426.5,-389 426.5,-377 426.5,-377 426.5,-371 432.5,-365 438.5,-365 438.5,-365 537.5,-365 537.5,-365 543.5,-365 549.5,-371 549.5,-377 549.5,-377 549.5,-389 549.5,-389 549.5,-395 543.5,-401 537.5,-401"/>
<text text-anchor="middle" x="488" y="-380.5" font-family="sans" font-size="10.00">snippy_to_gbk_paired</text>
</g>
<!-- 28&#45;&gt;33 -->
<g id="edge41" class="edge"><title>28&#45;&gt;33</title>
<path fill="none" stroke="grey" stroke-width="2" d="M760.223,-441.314C707.535,-431.525 633.218,-417.272 559.697,-401.329"/>
<polygon fill="grey" stroke="grey" stroke-width="2" points="560.317,-397.882 549.801,-399.171 558.826,-404.721 560.317,-397.882"/>
</g>
<!-- 36 -->
<g id="node37" class="node"><title>36</title>
<path fill="none" stroke="#569ad8" stroke-width="2" stroke-dasharray="5,2" d="M396.5,-401C396.5,-401 297.5,-401 297.5,-401 291.5,-401 285.5,-395 285.5,-389 285.5,-389 285.5,-377 285.5,-377 285.5,-371 291.5,-365 297.5,-365 297.5,-365 396.5,-365 396.5,-365 402.5,-365 408.5,-371 408.5,-377 408.5,-377 408.5,-389 408.5,-389 408.5,-395 402.5,-401 396.5,-401"/>
<text text-anchor="middle" x="347" y="-380.5" font-family="sans" font-size="10.00">snippy_to_gbk_paired</text>
</g>
<!-- 28&#45;&gt;36 -->
<g id="edge46" class="edge"><title>28&#45;&gt;36</title>
<path fill="none" stroke="grey" stroke-width="2" d="M760.214,-447.424C679.975,-439.328 544.171,-423.995 418.909,-401.254"/>
<polygon fill="grey" stroke="grey" stroke-width="2" points="419.224,-397.754 408.757,-399.39 417.96,-404.639 419.224,-397.754"/>
</g>
<!-- 28&#45;&gt;40 -->
<g id="edge49" class="edge"><title>28&#45;&gt;40</title>
<path fill="none" stroke="grey" stroke-width="2" d="M899.699,-438.501C902.836,-437.961 905.948,-437.457 909,-437 1091.46,-409.68 1142.81,-430.199 1329.03,-401"/>
<polygon fill="grey" stroke="grey" stroke-width="2" points="1329.83,-404.416 1339.15,-399.385 1328.73,-397.504 1329.83,-404.416"/>
</g>
<!-- 50 -->
<g id="node51" class="node"><title>50</title>
<path fill="none" stroke="#569ad8" stroke-width="2" stroke-dasharray="5,2" d="M819.5,-401C819.5,-401 720.5,-401 720.5,-401 714.5,-401 708.5,-395 708.5,-389 708.5,-389 708.5,-377 708.5,-377 708.5,-371 714.5,-365 720.5,-365 720.5,-365 819.5,-365 819.5,-365 825.5,-365 831.5,-371 831.5,-377 831.5,-377 831.5,-389 831.5,-389 831.5,-395 825.5,-401 819.5,-401"/>
<text text-anchor="middle" x="770" y="-380.5" font-family="sans" font-size="10.00">snippy_to_gbk_paired</text>
</g>
<!-- 28&#45;&gt;50 -->
<g id="edge68" class="edge"><title>28&#45;&gt;50</title>
<path fill="none" stroke="grey" stroke-width="2" d="M815.169,-436.697C807.975,-428.305 799.203,-418.07 791.31,-408.861"/>
<polygon fill="grey" stroke="grey" stroke-width="2" points="793.826,-406.419 784.661,-401.104 788.511,-410.975 793.826,-406.419"/>
</g>
<!-- 28&#45;&gt;51 -->
<g id="edge70" class="edge"><title>28&#45;&gt;51</title>
<path fill="none" stroke="grey" stroke-width="2" d="M760.49,-450.545C657.079,-444.699 456.548,-430.651 277.848,-401.188"/>
<polygon fill="grey" stroke="grey" stroke-width="2" points="278.177,-397.694 267.737,-399.5 277.025,-404.599 278.177,-397.694"/>
</g>
<!-- 28&#45;&gt;52 -->
<g id="edge72" class="edge"><title>28&#45;&gt;52</title>
<path fill="none" stroke="grey" stroke-width="2" d="M899.676,-438.337C902.82,-437.842 905.939,-437.392 909,-437 1278.14,-389.755 1379.39,-451.843 1752.2,-400.924"/>
<polygon fill="grey" stroke="grey" stroke-width="2" points="1752.75,-404.381 1762.18,-399.543 1751.79,-397.447 1752.75,-404.381"/>
</g>
<!-- 28&#45;&gt;57 -->
<g id="edge85" class="edge"><title>28&#45;&gt;57</title>
<path fill="none" stroke="grey" stroke-width="2" d="M836.071,-436.76C844.837,-410.283 860,-357.858 860,-312 860,-312 860,-312 860,-161 860,-119.633 875.235,-73.7216 886.412,-45.6051"/>
<polygon fill="grey" stroke="grey" stroke-width="2" points="889.756,-46.6733 890.31,-36.0929 883.279,-44.0187 889.756,-46.6733"/>
</g>
<!-- 28&#45;&gt;58 -->
<g id="edge89" class="edge"><title>28&#45;&gt;58</title>
<path fill="none" stroke="grey" stroke-width="2" d="M899.681,-438.37C902.823,-437.866 905.94,-437.405 909,-437 1215.82,-396.4 1300.53,-444.557 1610.98,-400.964"/>
<polygon fill="grey" stroke="grey" stroke-width="2" points="1611.77,-404.387 1621.17,-399.511 1610.78,-397.457 1611.77,-404.387"/>
</g>
<!-- 29 -->
<g id="node30" class="node"><title>29</title>
<path fill="none" stroke="#d8cb56" stroke-width="2" stroke-dasharray="5,2" d="M409,-761C409,-761 275,-761 275,-761 269,-761 263,-755 263,-749 263,-749 263,-737 263,-737 263,-731 269,-725 275,-725 275,-725 409,-725 409,-725 415,-725 421,-731 421,-737 421,-737 421,-749 421,-749 421,-755 415,-761 409,-761"/>
<text text-anchor="middle" x="342" y="-746" font-family="sans" font-size="10.00">copy_fastq_paired_from_link</text>
<text text-anchor="middle" x="342" y="-735" font-family="sans" font-size="10.00">sample: S10</text>
</g>
<!-- 29&#45;&gt;36 -->
<g id="edge47" class="edge"><title>29&#45;&gt;36</title>
<path fill="none" stroke="grey" stroke-width="2" d="M262.805,-735.181C195.316,-727.772 105.208,-713.569 79,-689 49.1113,-660.981 55,-640.969 55,-600 55,-600 55,-600 55,-526 55,-485.031 48.8588,-464.748 79,-437 142.181,-378.837 185.761,-416.498 275.478,-400.875"/>
<polygon fill="grey" stroke="grey" stroke-width="2" points="276.316,-404.278 285.473,-398.948 274.991,-397.405 276.316,-404.278"/>
</g>
<!-- 43 -->
<g id="node44" class="node"><title>43</title>
<path fill="none" stroke="#c6d856" stroke-width="2" stroke-dasharray="5,2" d="M483,-689C483,-689 329,-689 329,-689 323,-689 317,-683 317,-677 317,-677 317,-665 317,-665 317,-659 323,-653 329,-653 329,-653 483,-653 483,-653 489,-653 495,-659 495,-665 495,-665 495,-677 495,-677 495,-683 489,-689 483,-689"/>
<text text-anchor="middle" x="406" y="-674" font-family="sans" font-size="10.00">mapping_to_reference_with_bwa</text>
<text text-anchor="middle" x="406" y="-663" font-family="sans" font-size="10.00">ref: 34528</text>
</g>
<!-- 29&#45;&gt;43 -->
<g id="edge52" class="edge"><title>29&#45;&gt;43</title>
<path fill="none" stroke="grey" stroke-width="2" d="M357.82,-724.697C365.57,-716.22 375.039,-705.864 383.524,-696.583"/>
<polygon fill="grey" stroke="grey" stroke-width="2" points="386.197,-698.846 390.362,-689.104 381.031,-694.123 386.197,-698.846"/>
</g>
<!-- 30&#45;&gt;4 -->
<g id="edge5" class="edge"><title>30&#45;&gt;4</title>
<path fill="none" stroke="grey" stroke-width="2" d="M2316.76,-652.697C2316.21,-644.983 2315.55,-635.712 2314.94,-627.112"/>
<polygon fill="grey" stroke="grey" stroke-width="2" points="2318.43,-626.83 2314.22,-617.104 2311.44,-627.328 2318.43,-626.83"/>
</g>
<!-- 34 -->
<g id="node35" class="node"><title>34</title>
<path fill="none" stroke="#c6d856" stroke-width="2" stroke-dasharray="5,2" d="M1010,-617C1010,-617 848,-617 848,-617 842,-617 836,-611 836,-605 836,-605 836,-593 836,-593 836,-587 842,-581 848,-581 848,-581 1010,-581 1010,-581 1016,-581 1022,-587 1022,-593 1022,-593 1022,-605 1022,-605 1022,-611 1016,-617 1010,-617"/>
<text text-anchor="middle" x="929" y="-596.5" font-family="sans" font-size="10.00">remove_duplicates_from_mapping</text>
</g>
<!-- 31&#45;&gt;34 -->
<g id="edge43" class="edge"><title>31&#45;&gt;34</title>
<path fill="none" stroke="grey" stroke-width="2" d="M299.141,-654.138C302.126,-653.734 305.086,-653.353 308,-653 533.858,-625.635 595.062,-643.303 825.809,-616.94"/>
<polygon fill="grey" stroke="grey" stroke-width="2" points="826.327,-620.404 835.858,-615.777 825.521,-613.45 826.327,-620.404"/>
</g>
<!-- 32 -->
<g id="node33" class="node"><title>32</title>
<path fill="none" stroke="#56d8d0" stroke-width="2" stroke-dasharray="5,2" d="M2261,-545C2261,-545 2161,-545 2161,-545 2155,-545 2149,-539 2149,-533 2149,-533 2149,-521 2149,-521 2149,-515 2155,-509 2161,-509 2161,-509 2261,-509 2261,-509 2267,-509 2273,-515 2273,-521 2273,-521 2273,-533 2273,-533 2273,-539 2267,-545 2261,-545"/>
<text text-anchor="middle" x="2211" y="-524.5" font-family="sans" font-size="10.00">haplotype_caller_gvcf</text>
</g>
<!-- 32&#45;&gt;48 -->
<g id="edge59" class="edge"><title>32&#45;&gt;48</title>
<path fill="none" stroke="grey" stroke-width="2" d="M2148.73,-510.767C2145.78,-510.148 2142.86,-509.555 2140,-509 2037.38,-489.093 1916.82,-472.518 1845.89,-463.456"/>
<polygon fill="grey" stroke="grey" stroke-width="2" points="1846.15,-459.961 1835.79,-462.174 1845.27,-466.905 1846.15,-459.961"/>
</g>
<!-- 33&#45;&gt;57 -->
<g id="edge88" class="edge"><title>33&#45;&gt;57</title>
<path fill="none" stroke="grey" stroke-width="2" d="M517.462,-364.868C553.85,-341.244 611,-294.988 611,-237.5 611,-237.5 611,-237.5 611,-161 611,-92.1101 678.25,-56.6413 747.644,-38.3798"/>
<polygon fill="grey" stroke="grey" stroke-width="2" points="748.598,-41.7488 757.443,-35.9156 746.891,-34.9602 748.598,-41.7488"/>
</g>
<!-- 34&#45;&gt;8 -->
<g id="edge10" class="edge"><title>34&#45;&gt;8</title>
<path fill="none" stroke="grey" stroke-width="2" d="M999.084,-580.966C1043.36,-570.205 1100.42,-556.337 1145.04,-545.49"/>
<polygon fill="grey" stroke="grey" stroke-width="2" points="1146.05,-548.846 1154.94,-543.084 1144.4,-542.044 1146.05,-548.846"/>
</g>
<!-- 35 -->
<g id="node36" class="node"><title>35</title>
<path fill="none" stroke="#56d8d0" stroke-width="2" stroke-dasharray="5,2" d="M2403,-545C2403,-545 2303,-545 2303,-545 2297,-545 2291,-539 2291,-533 2291,-533 2291,-521 2291,-521 2291,-515 2297,-509 2303,-509 2303,-509 2403,-509 2403,-509 2409,-509 2415,-515 2415,-521 2415,-521 2415,-533 2415,-533 2415,-539 2409,-545 2403,-545"/>
<text text-anchor="middle" x="2353" y="-524.5" font-family="sans" font-size="10.00">haplotype_caller_gvcf</text>
</g>
<!-- 35&#45;&gt;48 -->
<g id="edge58" class="edge"><title>35&#45;&gt;48</title>
<path fill="none" stroke="grey" stroke-width="2" d="M2290.76,-510.617C2287.8,-510.038 2284.87,-509.495 2282,-509 2126.01,-482.123 1939.98,-466.639 1845.92,-459.958"/>
<polygon fill="grey" stroke="grey" stroke-width="2" points="1845.96,-456.452 1835.74,-459.244 1845.47,-463.435 1845.96,-456.452"/>
</g>
<!-- 36&#45;&gt;57 -->
<g id="edge76" class="edge"><title>36&#45;&gt;57</title>
<path fill="none" stroke="grey" stroke-width="2" d="M356.309,-364.769C369.75,-338.236 393,-285.416 393,-237.5 393,-237.5 393,-237.5 393,-161 393,-86.6615 598.358,-49.3887 747.165,-32.1384"/>
<polygon fill="grey" stroke="grey" stroke-width="2" points="747.79,-35.59 757.329,-30.9808 746.998,-28.6349 747.79,-35.59"/>
</g>
<!-- 37 -->
<g id="node38" class="node"><title>37</title>
<path fill="none" stroke="#d8cb56" stroke-width="2" stroke-dasharray="5,2" d="M628,-761C628,-761 494,-761 494,-761 488,-761 482,-755 482,-749 482,-749 482,-737 482,-737 482,-731 488,-725 494,-725 494,-725 628,-725 628,-725 634,-725 640,-731 640,-737 640,-737 640,-749 640,-749 640,-755 634,-761 628,-761"/>
<text text-anchor="middle" x="561" y="-746" font-family="sans" font-size="10.00">copy_fastq_paired_from_link</text>
<text text-anchor="middle" x="561" y="-735" font-family="sans" font-size="10.00">sample: S9</text>
</g>
<!-- 37&#45;&gt;33 -->
<g id="edge42" class="edge"><title>37&#45;&gt;33</title>
<path fill="none" stroke="grey" stroke-width="2" d="M481.707,-731.499C464.657,-729.3 446.733,-727.033 430,-725 359.401,-716.424 164.681,-736.775 112,-689 82.0387,-661.829 93,-640.447 93,-600 93,-600 93,-600 93,-526 93,-492.012 302.781,-432.147 416.583,-402.172"/>
<polygon fill="grey" stroke="grey" stroke-width="2" points="417.496,-405.551 426.281,-399.629 415.72,-398.78 417.496,-405.551"/>
</g>
<!-- 63 -->
<g id="node64" class="node"><title>63</title>
<path fill="none" stroke="#c6d856" stroke-width="2" stroke-dasharray="5,2" d="M679,-689C679,-689 525,-689 525,-689 519,-689 513,-683 513,-677 513,-677 513,-665 513,-665 513,-659 519,-653 525,-653 525,-653 679,-653 679,-653 685,-653 691,-659 691,-665 691,-665 691,-677 691,-677 691,-683 685,-689 679,-689"/>
<text text-anchor="middle" x="602" y="-674" font-family="sans" font-size="10.00">mapping_to_reference_with_bwa</text>
<text text-anchor="middle" x="602" y="-663" font-family="sans" font-size="10.00">ref: 34528</text>
</g>
<!-- 37&#45;&gt;63 -->
<g id="edge95" class="edge"><title>37&#45;&gt;63</title>
<path fill="none" stroke="grey" stroke-width="2" d="M571.135,-724.697C575.852,-716.644 581.562,-706.894 586.782,-697.982"/>
<polygon fill="grey" stroke="grey" stroke-width="2" points="589.948,-699.502 591.982,-689.104 583.908,-695.964 589.948,-699.502"/>
</g>
<!-- 38 -->
<g id="node39" class="node"><title>38</title>
<path fill="none" stroke="#88d856" stroke-width="2" stroke-dasharray="5,2" d="M1065,-545C1065,-545 1009,-545 1009,-545 1003,-545 997,-539 997,-533 997,-533 997,-521 997,-521 997,-515 1003,-509 1009,-509 1009,-509 1065,-509 1065,-509 1071,-509 1077,-515 1077,-521 1077,-521 1077,-533 1077,-533 1077,-539 1071,-545 1065,-545"/>
<text text-anchor="middle" x="1037" y="-524.5" font-family="sans" font-size="10.00">fetch_parsnp</text>
</g>
<!-- 38&#45;&gt;6 -->
<g id="edge7" class="edge"><title>38&#45;&gt;6</title>
<path fill="none" stroke="grey" stroke-width="2" d="M1028.6,-508.697C1024.73,-500.728 1020.05,-491.1 1015.76,-482.264"/>
<polygon fill="grey" stroke="grey" stroke-width="2" points="1018.83,-480.57 1011.31,-473.104 1012.53,-483.629 1018.83,-480.57"/>
</g>
<!-- 39 -->
<g id="node40" class="node"><title>39</title>
<path fill="none" stroke="#56d85b" stroke-width="2" stroke-dasharray="5,2" d="M1168,-401C1168,-401 1088,-401 1088,-401 1082,-401 1076,-395 1076,-389 1076,-389 1076,-377 1076,-377 1076,-371 1082,-365 1088,-365 1088,-365 1168,-365 1168,-365 1174,-365 1180,-371 1180,-377 1180,-377 1180,-389 1180,-389 1180,-395 1174,-401 1168,-401"/>
<text text-anchor="middle" x="1128" y="-380.5" font-family="sans" font-size="10.00">extract_gvcf_files</text>
</g>
<!-- 39&#45;&gt;9 -->
<g id="edge11" class="edge"><title>39&#45;&gt;9</title>
<path fill="none" stroke="grey" stroke-width="2" d="M1093.02,-364.876C1073.8,-355.469 1049.77,-343.708 1029.26,-333.667"/>
<polygon fill="grey" stroke="grey" stroke-width="2" points="1030.64,-330.443 1020.12,-329.19 1027.56,-336.73 1030.64,-330.443"/>
</g>
<!-- 40&#45;&gt;57 -->
<g id="edge78" class="edge"><title>40&#45;&gt;57</title>
<path fill="none" stroke="grey" stroke-width="2" d="M1381.03,-364.582C1354.51,-339.418 1311,-290.108 1311,-237.5 1311,-237.5 1311,-237.5 1311,-161 1311,-99.8353 1146.96,-59.3652 1025.65,-37.799"/>
<polygon fill="grey" stroke="grey" stroke-width="2" points="1025.97,-34.3034 1015.52,-36.025 1024.77,-41.1984 1025.97,-34.3034"/>
</g>
<!-- 41 -->
<g id="node42" class="node"><title>41</title>
<path fill="none" stroke="#afd856" stroke-width="2" stroke-dasharray="5,2" d="M1985.5,-617C1985.5,-617 1868.5,-617 1868.5,-617 1862.5,-617 1856.5,-611 1856.5,-605 1856.5,-605 1856.5,-593 1856.5,-593 1856.5,-587 1862.5,-581 1868.5,-581 1868.5,-581 1985.5,-581 1985.5,-581 1991.5,-581 1997.5,-587 1997.5,-593 1997.5,-593 1997.5,-605 1997.5,-605 1997.5,-611 1991.5,-617 1985.5,-617"/>
<text text-anchor="middle" x="1927" y="-602" font-family="sans" font-size="10.00">create_dict_for_reference</text>
<text text-anchor="middle" x="1927" y="-591" font-family="sans" font-size="10.00">ref: 34528</text>
</g>
<!-- 41&#45;&gt;0 -->
<g id="edge1" class="edge"><title>41&#45;&gt;0</title>
<path fill="none" stroke="grey" stroke-width="2" d="M1892.26,-580.876C1873.18,-571.469 1849.32,-559.708 1828.95,-549.667"/>
<polygon fill="grey" stroke="grey" stroke-width="2" points="1830.39,-546.472 1819.87,-545.19 1827.29,-552.751 1830.39,-546.472"/>
</g>
<!-- 41&#45;&gt;8 -->
<g id="edge9" class="edge"><title>41&#45;&gt;8</title>
<path fill="none" stroke="grey" stroke-width="2" d="M1856.43,-582.423C1853.25,-581.905 1850.09,-581.426 1847,-581 1603.62,-547.484 1535.95,-581.208 1289.21,-545.021"/>
<polygon fill="grey" stroke="grey" stroke-width="2" points="1289.63,-541.545 1279.22,-543.533 1288.59,-548.469 1289.63,-541.545"/>
</g>
<!-- 41&#45;&gt;11 -->
<g id="edge14" class="edge"><title>41&#45;&gt;11</title>
<path fill="none" stroke="grey" stroke-width="2" d="M1857.89,-580.966C1814.54,-570.28 1758.75,-556.53 1714.88,-545.718"/>
<polygon fill="grey" stroke="grey" stroke-width="2" points="1715.69,-542.313 1705.15,-543.318 1714.02,-549.109 1715.69,-542.313"/>
</g>
<!-- 41&#45;&gt;14 -->
<g id="edge19" class="edge"><title>41&#45;&gt;14</title>
<path fill="none" stroke="grey" stroke-width="2" d="M1856.42,-582.508C1853.24,-581.966 1850.09,-581.46 1847,-581 1666.24,-554.096 1615.41,-574.013 1431.25,-545.057"/>
<polygon fill="grey" stroke="grey" stroke-width="2" points="1431.66,-541.578 1421.23,-543.455 1430.55,-548.49 1431.66,-541.578"/>
</g>
<!-- 41&#45;&gt;16 -->
<g id="edge22" class="edge"><title>41&#45;&gt;16</title>
<path fill="none" stroke="grey" stroke-width="2" d="M1856.39,-582.678C1853.22,-582.09 1850.08,-581.528 1847,-581 1728.71,-560.722 1694.98,-567.021 1573.34,-545.138"/>
<polygon fill="grey" stroke="grey" stroke-width="2" points="1573.73,-541.651 1563.26,-543.298 1572.47,-548.537 1573.73,-541.651"/>
</g>
<!-- 41&#45;&gt;23 -->
<g id="edge29" class="edge"><title>41&#45;&gt;23</title>
<path fill="none" stroke="grey" stroke-width="2" d="M1927,-580.697C1927,-572.983 1927,-563.712 1927,-555.112"/>
<polygon fill="grey" stroke="grey" stroke-width="2" points="1930.5,-555.104 1927,-545.104 1923.5,-555.104 1930.5,-555.104"/>
</g>
<!-- 41&#45;&gt;24 -->
<g id="edge31" class="edge"><title>41&#45;&gt;24</title>
<path fill="none" stroke="grey" stroke-width="2" d="M1961.74,-580.876C1980.82,-571.469 2004.68,-559.708 2025.05,-549.667"/>
<polygon fill="grey" stroke="grey" stroke-width="2" points="2026.71,-552.751 2034.13,-545.19 2023.61,-546.472 2026.71,-552.751"/>
</g>
<!-- 41&#45;&gt;32 -->
<g id="edge39" class="edge"><title>41&#45;&gt;32</title>
<path fill="none" stroke="grey" stroke-width="2" d="M1996.11,-580.966C2039.46,-570.28 2095.25,-556.53 2139.12,-545.718"/>
<polygon fill="grey" stroke="grey" stroke-width="2" points="2139.98,-549.109 2148.85,-543.318 2138.31,-542.313 2139.98,-549.109"/>
</g>
<!-- 41&#45;&gt;35 -->
<g id="edge44" class="edge"><title>41&#45;&gt;35</title>
<path fill="none" stroke="grey" stroke-width="2" d="M1997.61,-582.678C2000.78,-582.09 2003.92,-581.528 2007,-581 2125.29,-560.722 2159.02,-567.021 2280.66,-545.138"/>
<polygon fill="grey" stroke="grey" stroke-width="2" points="2281.53,-548.537 2290.74,-543.298 2280.27,-541.651 2281.53,-548.537"/>
</g>
<!-- 44 -->
<g id="node45" class="node"><title>44</title>
<path fill="none" stroke="#56d8d0" stroke-width="2" stroke-dasharray="5,2" d="M2545,-545C2545,-545 2445,-545 2445,-545 2439,-545 2433,-539 2433,-533 2433,-533 2433,-521 2433,-521 2433,-515 2439,-509 2445,-509 2445,-509 2545,-509 2545,-509 2551,-509 2557,-515 2557,-521 2557,-521 2557,-533 2557,-533 2557,-539 2551,-545 2545,-545"/>
<text text-anchor="middle" x="2495" y="-524.5" font-family="sans" font-size="10.00">haplotype_caller_gvcf</text>
</g>
<!-- 41&#45;&gt;44 -->
<g id="edge53" class="edge"><title>41&#45;&gt;44</title>
<path fill="none" stroke="grey" stroke-width="2" d="M1997.58,-582.508C2000.76,-581.966 2003.91,-581.46 2007,-581 2187.76,-554.096 2238.59,-574.013 2422.75,-545.057"/>
<polygon fill="grey" stroke="grey" stroke-width="2" points="2423.45,-548.49 2432.77,-543.455 2422.34,-541.578 2423.45,-548.49"/>
</g>
<!-- 42 -->
<g id="node43" class="node"><title>42</title>
<path fill="none" stroke="#c6d856" stroke-width="2" stroke-dasharray="5,2" d="M1214,-617C1214,-617 1052,-617 1052,-617 1046,-617 1040,-611 1040,-605 1040,-605 1040,-593 1040,-593 1040,-587 1046,-581 1052,-581 1052,-581 1214,-581 1214,-581 1220,-581 1226,-587 1226,-593 1226,-593 1226,-605 1226,-605 1226,-611 1220,-617 1214,-617"/>
<text text-anchor="middle" x="1133" y="-596.5" font-family="sans" font-size="10.00">remove_duplicates_from_mapping</text>
</g>
<!-- 42&#45;&gt;14 -->
<g id="edge20" class="edge"><title>42&#45;&gt;14</title>
<path fill="none" stroke="grey" stroke-width="2" d="M1188,-580.966C1219.99,-571.057 1260.48,-558.514 1294.04,-548.121"/>
<polygon fill="grey" stroke="grey" stroke-width="2" points="1295.24,-551.413 1303.76,-545.111 1293.17,-544.726 1295.24,-551.413"/>
</g>
<!-- 43&#45;&gt;42 -->
<g id="edge51" class="edge"><title>43&#45;&gt;42</title>
<path fill="none" stroke="grey" stroke-width="2" d="M495.14,-654.134C498.126,-653.731 501.086,-653.351 504,-653 733.78,-625.297 796.073,-643.789 1029.76,-617.071"/>
<polygon fill="grey" stroke="grey" stroke-width="2" points="1030.41,-620.52 1039.94,-615.892 1029.61,-613.566 1030.41,-620.52"/>
</g>
<!-- 44&#45;&gt;48 -->
<g id="edge65" class="edge"><title>44&#45;&gt;48</title>
<path fill="none" stroke="grey" stroke-width="2" d="M2432.77,-510.533C2429.81,-509.977 2426.88,-509.461 2424,-509 2213.49,-475.269 1960.31,-462.344 1846.13,-457.973"/>
<polygon fill="grey" stroke="grey" stroke-width="2" points="1845.97,-454.465 1835.85,-457.589 1845.71,-461.46 1845.97,-454.465"/>
</g>
<!-- 45&#45;&gt;7 -->
<g id="edge8" class="edge"><title>45&#45;&gt;7</title>
<path fill="none" stroke="grey" stroke-width="2" d="M2111.26,-652.697C2110.93,-644.983 2110.53,-635.712 2110.16,-627.112"/>
<polygon fill="grey" stroke="grey" stroke-width="2" points="2113.66,-626.945 2109.73,-617.104 2106.66,-627.245 2113.66,-626.945"/>
</g>
<!-- 46 -->
<g id="node47" class="node"><title>46</title>
<path fill="none" stroke="#c6d856" stroke-width="2" stroke-dasharray="5,2" d="M1285,-689C1285,-689 1131,-689 1131,-689 1125,-689 1119,-683 1119,-677 1119,-677 1119,-665 1119,-665 1119,-659 1125,-653 1131,-653 1131,-653 1285,-653 1285,-653 1291,-653 1297,-659 1297,-665 1297,-665 1297,-677 1297,-677 1297,-683 1291,-689 1285,-689"/>
<text text-anchor="middle" x="1208" y="-674" font-family="sans" font-size="10.00">mapping_to_reference_with_bwa</text>
<text text-anchor="middle" x="1208" y="-663" font-family="sans" font-size="10.00">ref: 34528</text>
</g>
<!-- 46&#45;&gt;22 -->
<g id="edge28" class="edge"><title>46&#45;&gt;22</title>
<path fill="none" stroke="grey" stroke-width="2" d="M1289.04,-652.966C1337.68,-642.741 1399.67,-629.71 1449.99,-619.131"/>
<polygon fill="grey" stroke="grey" stroke-width="2" points="1450.82,-622.532 1459.89,-617.05 1449.38,-615.682 1450.82,-622.532"/>
</g>
<!-- 47 -->
<g id="node48" class="node"><title>47</title>
<path fill="none" stroke="#566bd8" stroke-width="2" stroke-dasharray="5,2" d="M805.5,-617C805.5,-617 672.5,-617 672.5,-617 666.5,-617 660.5,-611 660.5,-605 660.5,-605 660.5,-593 660.5,-593 660.5,-587 666.5,-581 672.5,-581 672.5,-581 805.5,-581 805.5,-581 811.5,-581 817.5,-587 817.5,-593 817.5,-593 817.5,-605 817.5,-605 817.5,-611 811.5,-617 805.5,-617"/>
<text text-anchor="middle" x="739" y="-596.5" font-family="sans" font-size="10.00">get_complete_genomes_urls</text>
</g>
<!-- 47&#45;&gt;25 -->
<g id="edge33" class="edge"><title>47&#45;&gt;25</title>
<path fill="none" stroke="grey" stroke-width="2" d="M771.78,-580.876C789.625,-571.554 811.897,-559.919 831.003,-549.939"/>
<polygon fill="grey" stroke="grey" stroke-width="2" points="832.851,-552.922 840.094,-545.19 829.61,-546.718 832.851,-552.922"/>
</g>
<!-- 47&#45;&gt;28 -->
<g id="edge36" class="edge"><title>47&#45;&gt;28</title>
<path fill="none" stroke="grey" stroke-width="2" d="M739.119,-580.904C740.009,-561.915 743.774,-531.034 758,-509 765.723,-497.038 777.156,-486.843 788.649,-478.685"/>
<polygon fill="grey" stroke="grey" stroke-width="2" points="790.615,-481.581 796.976,-473.109 786.72,-475.765 790.615,-481.581"/>
</g>
<!-- 48&#45;&gt;39 -->
<g id="edge48" class="edge"><title>48&#45;&gt;39</title>
<path fill="none" stroke="grey" stroke-width="2" d="M1734.35,-452.619C1632.68,-449.174 1396.57,-437.782 1190.21,-401.022"/>
<polygon fill="grey" stroke="grey" stroke-width="2" points="1190.56,-397.528 1180.1,-399.195 1189.32,-404.417 1190.56,-397.528"/>
</g>
<!-- 49&#45;&gt;32 -->
<g id="edge40" class="edge"><title>49&#45;&gt;32</title>
<path fill="none" stroke="grey" stroke-width="2" d="M2440.21,-580.949C2396.78,-571.244 2341.22,-558.722 2283.39,-545.309"/>
<polygon fill="grey" stroke="grey" stroke-width="2" points="2283.86,-541.826 2273.33,-542.973 2282.28,-548.644 2283.86,-541.826"/>
</g>
<!-- 50&#45;&gt;57 -->
<g id="edge77" class="edge"><title>50&#45;&gt;57</title>
<path fill="none" stroke="grey" stroke-width="2" d="M775.137,-364.83C782.714,-337.943 796,-284.146 796,-237.5 796,-237.5 796,-237.5 796,-161 796,-111.821 836.857,-68.0129 866.854,-42.4766"/>
<polygon fill="grey" stroke="grey" stroke-width="2" points="869.119,-45.1454 874.599,-36.0777 864.661,-39.749 869.119,-45.1454"/>
</g>
<!-- 51&#45;&gt;57 -->
<g id="edge86" class="edge"><title>51&#45;&gt;57</title>
<path fill="none" stroke="grey" stroke-width="2" d="M221.906,-364.807C243.921,-339.146 281,-288.376 281,-237.5 281,-237.5 281,-237.5 281,-161 281,-65.6621 564.306,-34.328 746.972,-24.0333"/>
<polygon fill="grey" stroke="grey" stroke-width="2" points="747.428,-27.5137 757.221,-23.4717 747.045,-20.5242 747.428,-27.5137"/>
</g>
<!-- 52&#45;&gt;57 -->
<g id="edge87" class="edge"><title>52&#45;&gt;57</title>
<path fill="none" stroke="grey" stroke-width="2" d="M1818.27,-364.874C1809.82,-338.044 1795,-284.324 1795,-237.5 1795,-237.5 1795,-237.5 1795,-161 1795,-86.3655 1304.29,-44.4534 1048.76,-27.6877"/>
<polygon fill="grey" stroke="grey" stroke-width="2" points="1048.86,-24.1864 1038.65,-27.0292 1048.4,-31.1716 1048.86,-24.1864"/>
</g>
<!-- 56 -->
<g id="node57" class="node"><title>56</title>
<path fill="none" stroke="#c6d856" stroke-width="2" stroke-dasharray="5,2" d="M2916,-617C2916,-617 2754,-617 2754,-617 2748,-617 2742,-611 2742,-605 2742,-605 2742,-593 2742,-593 2742,-587 2748,-581 2754,-581 2754,-581 2916,-581 2916,-581 2922,-581 2928,-587 2928,-593 2928,-593 2928,-605 2928,-605 2928,-611 2922,-617 2916,-617"/>
<text text-anchor="middle" x="2835" y="-596.5" font-family="sans" font-size="10.00">remove_duplicates_from_mapping</text>
</g>
<!-- 53&#45;&gt;56 -->
<g id="edge75" class="edge"><title>53&#45;&gt;56</title>
<path fill="none" stroke="grey" stroke-width="2" d="M2913.56,-652.876C2900.21,-643.893 2883.68,-632.763 2869.22,-623.034"/>
<polygon fill="grey" stroke="grey" stroke-width="2" points="2870.79,-619.87 2860.54,-617.19 2866.88,-625.677 2870.79,-619.87"/>
</g>
<!-- 54 -->
<g id="node55" class="node"><title>54</title>
<path fill="none" stroke="#d8cb56" stroke-width="2" stroke-dasharray="5,2" d="M1302,-761C1302,-761 1168,-761 1168,-761 1162,-761 1156,-755 1156,-749 1156,-749 1156,-737 1156,-737 1156,-731 1162,-725 1168,-725 1168,-725 1302,-725 1302,-725 1308,-725 1314,-731 1314,-737 1314,-737 1314,-749 1314,-749 1314,-755 1308,-761 1302,-761"/>
<text text-anchor="middle" x="1235" y="-746" font-family="sans" font-size="10.00">copy_fastq_paired_from_link</text>
<text text-anchor="middle" x="1235" y="-735" font-family="sans" font-size="10.00">sample: S3</text>
</g>
<!-- 54&#45;&gt;50 -->
<g id="edge69" class="edge"><title>54&#45;&gt;50</title>
<path fill="none" stroke="grey" stroke-width="2" d="M1155.86,-730.655C1003.75,-708.058 682.721,-656.229 651,-617 596.239,-549.277 690.267,-452.292 740.921,-407.87"/>
<polygon fill="grey" stroke="grey" stroke-width="2" points="743.362,-410.386 748.648,-401.205 738.79,-405.086 743.362,-410.386"/>
</g>
<!-- 62 -->
<g id="node63" class="node"><title>62</title>
<path fill="none" stroke="#c6d856" stroke-width="2" stroke-dasharray="5,2" d="M1652,-689C1652,-689 1498,-689 1498,-689 1492,-689 1486,-683 1486,-677 1486,-677 1486,-665 1486,-665 1486,-659 1492,-653 1498,-653 1498,-653 1652,-653 1652,-653 1658,-653 1664,-659 1664,-665 1664,-665 1664,-677 1664,-677 1664,-683 1658,-689 1652,-689"/>
<text text-anchor="middle" x="1575" y="-674" font-family="sans" font-size="10.00">mapping_to_reference_with_bwa</text>
<text text-anchor="middle" x="1575" y="-663" font-family="sans" font-size="10.00">ref: 34528</text>
</g>
<!-- 54&#45;&gt;62 -->
<g id="edge94" class="edge"><title>54&#45;&gt;62</title>
<path fill="none" stroke="grey" stroke-width="2" d="M1314.29,-725.676C1364.52,-715.334 1429.7,-701.915 1482.32,-691.081"/>
<polygon fill="grey" stroke="grey" stroke-width="2" points="1483.24,-694.465 1492.33,-689.021 1481.83,-687.609 1483.24,-694.465"/>
</g>
<!-- 55 -->
<g id="node56" class="node"><title>55</title>
<path fill="none" stroke="#d8cb56" stroke-width="2" stroke-dasharray="5,2" d="M826,-761C826,-761 692,-761 692,-761 686,-761 680,-755 680,-749 680,-749 680,-737 680,-737 680,-731 686,-725 692,-725 692,-725 826,-725 826,-725 832,-725 838,-731 838,-737 838,-737 838,-749 838,-749 838,-755 832,-761 826,-761"/>
<text text-anchor="middle" x="759" y="-746" font-family="sans" font-size="10.00">copy_fastq_paired_from_link</text>
<text text-anchor="middle" x="759" y="-735" font-family="sans" font-size="10.00">sample: S6</text>
</g>
<!-- 55&#45;&gt;12 -->
<g id="edge17" class="edge"><title>55&#45;&gt;12</title>
<path fill="none" stroke="grey" stroke-width="2" d="M751.325,-724.789C741.792,-705.115 723.83,-673.053 700,-653 669.546,-627.373 639.764,-650.324 618,-617 576.311,-553.168 601.887,-457.211 618.341,-410.9"/>
<polygon fill="grey" stroke="grey" stroke-width="2" points="621.712,-411.873 621.884,-401.279 615.144,-409.453 621.712,-411.873"/>
</g>
<!-- 55&#45;&gt;46 -->
<g id="edge56" class="edge"><title>55&#45;&gt;46</title>
<path fill="none" stroke="grey" stroke-width="2" d="M838.239,-729.647C913.565,-717.903 1027.13,-700.199 1108.51,-687.51"/>
<polygon fill="grey" stroke="grey" stroke-width="2" points="1109.43,-690.91 1118.77,-685.911 1108.35,-683.993 1109.43,-690.91"/>
</g>
<!-- 56&#45;&gt;35 -->
<g id="edge45" class="edge"><title>56&#45;&gt;35</title>
<path fill="none" stroke="grey" stroke-width="2" d="M2741.93,-588.865C2660.7,-580.232 2539.54,-565.764 2425.23,-545.125"/>
<polygon fill="grey" stroke="grey" stroke-width="2" points="2425.72,-541.656 2415.26,-543.304 2424.47,-548.543 2425.72,-541.656"/>
</g>
<!-- 58&#45;&gt;57 -->
<g id="edge80" class="edge"><title>58&#45;&gt;57</title>
<path fill="none" stroke="grey" stroke-width="2" d="M1621.41,-367.632C1559.45,-349.088 1473,-310.19 1473,-237.5 1473,-237.5 1473,-237.5 1473,-161 1473,-73.5412 1219.1,-39.6136 1048.74,-26.6926"/>
<polygon fill="grey" stroke="grey" stroke-width="2" points="1048.89,-23.1944 1038.66,-25.9451 1048.37,-30.1752 1048.89,-23.1944"/>
</g>
<!-- 59 -->
<g id="node60" class="node"><title>59</title>
<path fill="none" stroke="#56c1d8" stroke-width="2" stroke-dasharray="5,2" d="M1037,-180C1037,-180 939,-180 939,-180 933,-180 927,-174 927,-168 927,-168 927,-156 927,-156 927,-150 933,-144 939,-144 939,-144 1037,-144 1037,-144 1043,-144 1049,-150 1049,-156 1049,-156 1049,-168 1049,-168 1049,-174 1043,-180 1037,-180"/>
<text text-anchor="middle" x="988" y="-159.5" font-family="sans" font-size="10.00">split_mnps_into_snps</text>
</g>
<!-- 59&#45;&gt;15 -->
<g id="edge21" class="edge"><title>59&#45;&gt;15</title>
<path fill="none" stroke="grey" stroke-width="2" d="M988.247,-143.697C988.357,-135.983 988.49,-126.712 988.613,-118.112"/>
<polygon fill="grey" stroke="grey" stroke-width="2" points="992.112,-118.153 988.756,-108.104 985.113,-118.053 992.112,-118.153"/>
</g>
<!-- 60&#45;&gt;44 -->
<g id="edge54" class="edge"><title>60&#45;&gt;44</title>
<path fill="none" stroke="grey" stroke-width="2" d="M2945.92,-582.305C2942.91,-581.856 2939.93,-581.42 2937,-581 2807.11,-562.398 2655.1,-545.159 2567.44,-535.656"/>
<polygon fill="grey" stroke="grey" stroke-width="2" points="2567.65,-532.159 2557.34,-534.564 2566.9,-539.119 2567.65,-532.159"/>
</g>
<!-- 61&#45;&gt;57 -->
<g id="edge82" class="edge"><title>61&#45;&gt;57</title>
<path fill="none" stroke="grey" stroke-width="2" d="M951.922,-215.899C939.233,-206.643 925.912,-194.438 918,-180 894.794,-137.652 893.7,-79.8155 895.509,-46.2297"/>
<polygon fill="grey" stroke="grey" stroke-width="2" points="899.003,-46.4379 896.174,-36.2277 892.019,-45.9734 899.003,-46.4379"/>
</g>
<!-- 61&#45;&gt;59 -->
<g id="edge91" class="edge"><title>61&#45;&gt;59</title>
<path fill="none" stroke="grey" stroke-width="2" d="M985.82,-215.689C986.142,-207.907 986.517,-198.842 986.864,-190.447"/>
<polygon fill="grey" stroke="grey" stroke-width="2" points="990.367,-190.456 987.283,-180.319 983.373,-190.166 990.367,-190.456"/>
</g>
<!-- 62&#45;&gt;13 -->
<g id="edge18" class="edge"><title>62&#45;&gt;13</title>
<path fill="none" stroke="grey" stroke-width="2" d="M1616.59,-652.876C1640.03,-643.222 1669.5,-631.087 1694.3,-620.878"/>
<polygon fill="grey" stroke="grey" stroke-width="2" points="1695.63,-624.112 1703.55,-617.068 1692.97,-617.639 1695.63,-624.112"/>
</g>
<!-- 63&#45;&gt;17 -->
<g id="edge24" class="edge"><title>63&#45;&gt;17</title>
<path fill="none" stroke="grey" stroke-width="2" d="M691.083,-664.841C811.787,-657.336 1034.18,-641.688 1233.84,-617.086"/>
<polygon fill="grey" stroke="grey" stroke-width="2" points="1234.44,-620.539 1243.93,-615.833 1233.58,-613.592 1234.44,-620.539"/>
</g>
</g>
</svg>
