<?xml version="1.0" encoding="UTF-8" standalone="no"?>
<!DOCTYPE svg PUBLIC "-//W3C//DTD SVG 1.1//EN"
 "http://www.w3.org/Graphics/SVG/1.1/DTD/svg11.dtd">
<!-- Generated by graphviz version 2.38.0 (20140413.2041)
 -->
<!-- Title: snakemake_dag Pages: 1 -->
<svg width="1120pt" height="625pt"
 viewBox="0.00 0.00 1119.50 625.00" xmlns="http://www.w3.org/2000/svg" xmlns:xlink="http://www.w3.org/1999/xlink">
<g id="graph0" class="graph" transform="scale(1 1) rotate(0) translate(4 621)">
<title>snakemake_dag</title>
<polygon fill="white" stroke="none" points="-4,4 -4,-621 1115.5,-621 1115.5,4 -4,4"/>
<!-- 0 -->
<g id="node1" class="node"><title>0</title>
<path fill="none" stroke="#56d892" stroke-width="2" d="M379.5,-108C379.5,-108 71.5,-108 71.5,-108 65.5,-108 59.5,-102 59.5,-96 59.5,-96 59.5,-84 59.5,-84 59.5,-78 65.5,-72 71.5,-72 71.5,-72 379.5,-72 379.5,-72 385.5,-72 391.5,-78 391.5,-84 391.5,-84 391.5,-96 391.5,-96 391.5,-102 385.5,-108 379.5,-108"/>
<text text-anchor="middle" x="225.5" y="-93" font-family="sans" font-size="10.00">index_bam_file</text>
<text text-anchor="middle" x="225.5" y="-82" font-family="sans" font-size="10.00">any_bam: samples/S1/mapping/bwa/34528/deduplicated_filtered</text>
</g>
<!-- 6 -->
<g id="node7" class="node"><title>6</title>
<path fill="none" stroke="#56c1d8" stroke-width="2" d="M584.5,-36C584.5,-36 368.5,-36 368.5,-36 362.5,-36 356.5,-30 356.5,-24 356.5,-24 356.5,-12 356.5,-12 356.5,-6 362.5,-0 368.5,-0 368.5,-0 584.5,-0 584.5,-0 590.5,-0 596.5,-6 596.5,-12 596.5,-12 596.5,-24 596.5,-24 596.5,-30 590.5,-36 584.5,-36"/>
<text text-anchor="middle" x="476.5" y="-21" font-family="sans" font-size="10.00">call_variants_with_freebayes_on_all_samples</text>
<text text-anchor="middle" x="476.5" y="-10" font-family="sans" font-size="10.00">mapping_method: bwa</text>
</g>
<!-- 0&#45;&gt;6 -->
<g id="edge13" class="edge"><title>0&#45;&gt;6</title>
<path fill="none" stroke="grey" stroke-width="2" d="M286.581,-71.9656C322.413,-61.9724 367.859,-49.2984 405.31,-38.8539"/>
<polygon fill="grey" stroke="grey" stroke-width="2" points="406.453,-42.1686 415.146,-36.1108 404.573,-35.4259 406.453,-42.1686"/>
</g>
<!-- 1 -->
<g id="node2" class="node"><title>1</title>
<path fill="none" stroke="#56d88a" stroke-width="2" d="M267.5,-468C267.5,-468 133.5,-468 133.5,-468 127.5,-468 121.5,-462 121.5,-456 121.5,-456 121.5,-444 121.5,-444 121.5,-438 127.5,-432 133.5,-432 133.5,-432 267.5,-432 267.5,-432 273.5,-432 279.5,-438 279.5,-444 279.5,-444 279.5,-456 279.5,-456 279.5,-462 273.5,-468 267.5,-468"/>
<text text-anchor="middle" x="200.5" y="-447.5" font-family="sans" font-size="10.00">map_paired_reads_with_bwa</text>
</g>
<!-- 9 -->
<g id="node10" class="node"><title>9</title>
<path fill="none" stroke="#56d892" stroke-width="2" d="M229,-396C229,-396 12,-396 12,-396 6,-396 1.42109e-14,-390 1.42109e-14,-384 1.42109e-14,-384 1.42109e-14,-372 1.42109e-14,-372 1.42109e-14,-366 6,-360 12,-360 12,-360 229,-360 229,-360 235,-360 241,-366 241,-372 241,-372 241,-384 241,-384 241,-390 235,-396 229,-396"/>
<text text-anchor="middle" x="120.5" y="-381" font-family="sans" font-size="10.00">index_bam_file</text>
<text text-anchor="middle" x="120.5" y="-370" font-family="sans" font-size="10.00">any_bam: samples/S1/mapping/bwa/34528/S1</text>
</g>
<!-- 1&#45;&gt;9 -->
<g id="edge18" class="edge"><title>1&#45;&gt;9</title>
<path fill="none" stroke="grey" stroke-width="2" d="M180.725,-431.697C170.746,-422.965 158.489,-412.24 147.643,-402.75"/>
<polygon fill="grey" stroke="grey" stroke-width="2" points="149.878,-400.055 140.048,-396.104 145.269,-405.323 149.878,-400.055"/>
</g>
<!-- 14 -->
<g id="node15" class="node"><title>14</title>
<path fill="none" stroke="#56d863" stroke-width="2" d="M340.5,-324C340.5,-324 236.5,-324 236.5,-324 230.5,-324 224.5,-318 224.5,-312 224.5,-312 224.5,-300 224.5,-300 224.5,-294 230.5,-288 236.5,-288 236.5,-288 340.5,-288 340.5,-288 346.5,-288 352.5,-294 352.5,-300 352.5,-300 352.5,-312 352.5,-312 352.5,-318 346.5,-324 340.5,-324"/>
<text text-anchor="middle" x="288.5" y="-303.5" font-family="sans" font-size="10.00">filter_reads_on_quality</text>
</g>
<!-- 1&#45;&gt;14 -->
<g id="edge26" class="edge"><title>1&#45;&gt;14</title>
<path fill="none" stroke="grey" stroke-width="2" d="M219.36,-431.628C229.227,-421.842 240.99,-409.001 249.5,-396 262.285,-376.469 272.643,-352.049 279.463,-333.732"/>
<polygon fill="grey" stroke="grey" stroke-width="2" points="282.781,-334.847 282.881,-324.253 276.196,-332.473 282.781,-334.847"/>
</g>
<!-- 2 -->
<g id="node3" class="node"><title>2</title>
<path fill="none" stroke="#56d88a" stroke-width="2" d="M763.5,-468C763.5,-468 629.5,-468 629.5,-468 623.5,-468 617.5,-462 617.5,-456 617.5,-456 617.5,-444 617.5,-444 617.5,-438 623.5,-432 629.5,-432 629.5,-432 763.5,-432 763.5,-432 769.5,-432 775.5,-438 775.5,-444 775.5,-444 775.5,-456 775.5,-456 775.5,-462 769.5,-468 763.5,-468"/>
<text text-anchor="middle" x="696.5" y="-447.5" font-family="sans" font-size="10.00">map_paired_reads_with_bwa</text>
</g>
<!-- 3 -->
<g id="node4" class="node"><title>3</title>
<path fill="none" stroke="#56d892" stroke-width="2" d="M805,-396C805,-396 588,-396 588,-396 582,-396 576,-390 576,-384 576,-384 576,-372 576,-372 576,-366 582,-360 588,-360 588,-360 805,-360 805,-360 811,-360 817,-366 817,-372 817,-372 817,-384 817,-384 817,-390 811,-396 805,-396"/>
<text text-anchor="middle" x="696.5" y="-381" font-family="sans" font-size="10.00">index_bam_file</text>
<text text-anchor="middle" x="696.5" y="-370" font-family="sans" font-size="10.00">any_bam: samples/S2/mapping/bwa/34528/S2</text>
</g>
<!-- 2&#45;&gt;3 -->
<g id="edge8" class="edge"><title>2&#45;&gt;3</title>
<path fill="none" stroke="grey" stroke-width="2" d="M696.5,-431.697C696.5,-423.983 696.5,-414.712 696.5,-406.112"/>
<polygon fill="grey" stroke="grey" stroke-width="2" points="700,-406.104 696.5,-396.104 693,-406.104 700,-406.104"/>
</g>
<!-- 18 -->
<g id="node19" class="node"><title>18</title>
<path fill="none" stroke="#56d863" stroke-width="2" d="M708.5,-324C708.5,-324 604.5,-324 604.5,-324 598.5,-324 592.5,-318 592.5,-312 592.5,-312 592.5,-300 592.5,-300 592.5,-294 598.5,-288 604.5,-288 604.5,-288 708.5,-288 708.5,-288 714.5,-288 720.5,-294 720.5,-300 720.5,-300 720.5,-312 720.5,-312 720.5,-318 714.5,-324 708.5,-324"/>
<text text-anchor="middle" x="656.5" y="-303.5" font-family="sans" font-size="10.00">filter_reads_on_quality</text>
</g>
<!-- 2&#45;&gt;18 -->
<g id="edge31" class="edge"><title>2&#45;&gt;18</title>
<path fill="none" stroke="grey" stroke-width="2" d="M775.517,-433.48C795.434,-425.626 814.534,-413.8 826.5,-396 835.426,-382.721 835.982,-372.888 826.5,-360 804.573,-330.196 765.991,-316.676 731.119,-310.727"/>
<polygon fill="grey" stroke="grey" stroke-width="2" points="731.333,-307.22 720.921,-309.179 730.282,-314.14 731.333,-307.22"/>
</g>
<!-- 3&#45;&gt;18 -->
<g id="edge32" class="edge"><title>3&#45;&gt;18</title>
<path fill="none" stroke="grey" stroke-width="2" d="M686.612,-359.697C682.011,-351.644 676.44,-341.894 671.347,-332.982"/>
<polygon fill="grey" stroke="grey" stroke-width="2" points="674.274,-331.05 666.274,-324.104 668.196,-334.523 674.274,-331.05"/>
</g>
<!-- 4 -->
<g id="node5" class="node"><title>4</title>
<path fill="none" stroke="#567bd8" stroke-width="2" d="M567,-540C567,-540 348,-540 348,-540 342,-540 336,-534 336,-528 336,-528 336,-516 336,-516 336,-510 342,-504 348,-504 348,-504 567,-504 567,-504 573,-504 579,-510 579,-516 579,-516 579,-528 579,-528 579,-534 573,-540 567,-540"/>
<text text-anchor="middle" x="457.5" y="-525" font-family="sans" font-size="10.00">index_reference_fasta</text>
<text text-anchor="middle" x="457.5" y="-514" font-family="sans" font-size="10.00">any_genome: references/34528/genome_fasta</text>
</g>
<!-- 4&#45;&gt;1 -->
<g id="edge4" class="edge"><title>4&#45;&gt;1</title>
<path fill="none" stroke="grey" stroke-width="2" d="M394.959,-503.966C358.27,-493.972 311.738,-481.298 273.392,-470.854"/>
<polygon fill="grey" stroke="grey" stroke-width="2" points="273.889,-467.362 263.321,-468.111 272.05,-474.116 273.889,-467.362"/>
</g>
<!-- 4&#45;&gt;2 -->
<g id="edge7" class="edge"><title>4&#45;&gt;2</title>
<path fill="none" stroke="grey" stroke-width="2" d="M515.66,-503.966C549.635,-494.015 592.685,-481.406 628.257,-470.987"/>
<polygon fill="grey" stroke="grey" stroke-width="2" points="629.466,-474.281 638.079,-468.111 627.498,-467.563 629.466,-474.281"/>
</g>
<!-- 4&#45;&gt;6 -->
<g id="edge12" class="edge"><title>4&#45;&gt;6</title>
<path fill="none" stroke="grey" stroke-width="2" d="M457.5,-503.951C457.5,-477.292 457.5,-424.115 457.5,-379 457.5,-379 457.5,-379 457.5,-161 457.5,-120.86 465.051,-74.897 470.632,-46.4045"/>
<polygon fill="grey" stroke="grey" stroke-width="2" points="474.106,-46.8834 472.655,-36.3884 467.245,-45.4976 474.106,-46.8834"/>
</g>
<!-- 4&#45;&gt;14 -->
<g id="edge28" class="edge"><title>4&#45;&gt;14</title>
<path fill="none" stroke="grey" stroke-width="2" d="M443.956,-503.849C414.228,-466.206 343.15,-376.201 308.362,-332.151"/>
<polygon fill="grey" stroke="grey" stroke-width="2" points="311.053,-329.911 302.109,-324.232 305.56,-334.25 311.053,-329.911"/>
</g>
<!-- 4&#45;&gt;18 -->
<g id="edge33" class="edge"><title>4&#45;&gt;18</title>
<path fill="none" stroke="grey" stroke-width="2" d="M461.373,-503.576C469.413,-471.183 490.825,-401.24 533.5,-360 547.738,-346.24 566.114,-335.77 584.3,-327.924"/>
<polygon fill="grey" stroke="grey" stroke-width="2" points="585.835,-331.077 593.769,-324.056 583.188,-324.597 585.835,-331.077"/>
</g>
<!-- 5 -->
<g id="node6" class="node"><title>5</title>
<path fill="none" stroke="#d86e56" stroke-width="2" d="M208.5,-614.5C208.5,-614.5 74.5,-614.5 74.5,-614.5 68.5,-614.5 62.5,-608.5 62.5,-602.5 62.5,-602.5 62.5,-590.5 62.5,-590.5 62.5,-584.5 68.5,-578.5 74.5,-578.5 74.5,-578.5 208.5,-578.5 208.5,-578.5 214.5,-578.5 220.5,-584.5 220.5,-590.5 220.5,-590.5 220.5,-602.5 220.5,-602.5 220.5,-608.5 214.5,-614.5 208.5,-614.5"/>
<text text-anchor="middle" x="141.5" y="-599.5" font-family="sans" font-size="10.00">copy_fastq_paired_from_link</text>
<text text-anchor="middle" x="141.5" y="-588.5" font-family="sans" font-size="10.00">sample: S1</text>
</g>
<!-- 10 -->
<g id="node11" class="node"><title>10</title>
<path fill="none" stroke="#56d8a9" stroke-width="2" d="M229.5,-540C229.5,-540 53.5,-540 53.5,-540 47.5,-540 41.5,-534 41.5,-528 41.5,-528 41.5,-516 41.5,-516 41.5,-510 47.5,-504 53.5,-504 53.5,-504 229.5,-504 229.5,-504 235.5,-504 241.5,-510 241.5,-516 241.5,-516 241.5,-528 241.5,-528 241.5,-534 235.5,-540 229.5,-540"/>
<text text-anchor="middle" x="141.5" y="-519.5" font-family="sans" font-size="10.00">trim_paired_reads_with_trimmomatic</text>
</g>
<!-- 5&#45;&gt;10 -->
<g id="edge19" class="edge"><title>5&#45;&gt;10</title>
<path fill="none" stroke="grey" stroke-width="2" d="M141.5,-578.319C141.5,-569.922 141.5,-559.616 141.5,-550.186"/>
<polygon fill="grey" stroke="grey" stroke-width="2" points="145,-550.058 141.5,-540.058 138,-550.058 145,-550.058"/>
</g>
<!-- 7 -->
<g id="node8" class="node"><title>7</title>
<path fill="none" stroke="#56d892" stroke-width="2" d="M771.5,-252C771.5,-252 531.5,-252 531.5,-252 525.5,-252 519.5,-246 519.5,-240 519.5,-240 519.5,-228 519.5,-228 519.5,-222 525.5,-216 531.5,-216 531.5,-216 771.5,-216 771.5,-216 777.5,-216 783.5,-222 783.5,-228 783.5,-228 783.5,-240 783.5,-240 783.5,-246 777.5,-252 771.5,-252"/>
<text text-anchor="middle" x="651.5" y="-237" font-family="sans" font-size="10.00">index_bam_file</text>
<text text-anchor="middle" x="651.5" y="-226" font-family="sans" font-size="10.00">any_bam: samples/S2/mapping/bwa/34528/filtered</text>
</g>
<!-- 12 -->
<g id="node13" class="node"><title>12</title>
<path fill="none" stroke="#d85e56" stroke-width="2" d="M751.5,-180C751.5,-180 589.5,-180 589.5,-180 583.5,-180 577.5,-174 577.5,-168 577.5,-168 577.5,-156 577.5,-156 577.5,-150 583.5,-144 589.5,-144 589.5,-144 751.5,-144 751.5,-144 757.5,-144 763.5,-150 763.5,-156 763.5,-156 763.5,-168 763.5,-168 763.5,-174 757.5,-180 751.5,-180"/>
<text text-anchor="middle" x="670.5" y="-159.5" font-family="sans" font-size="10.00">remove_duplicates_from_mapping</text>
</g>
<!-- 7&#45;&gt;12 -->
<g id="edge21" class="edge"><title>7&#45;&gt;12</title>
<path fill="none" stroke="grey" stroke-width="2" d="M656.197,-215.697C658.313,-207.898 660.862,-198.509 663.218,-189.829"/>
<polygon fill="grey" stroke="grey" stroke-width="2" points="666.616,-190.672 665.857,-180.104 659.86,-188.838 666.616,-190.672"/>
</g>
<!-- 8 -->
<g id="node9" class="node"><title>8</title>
<path fill="none" stroke="#56d892" stroke-width="2" d="M333.5,-252C333.5,-252 93.5,-252 93.5,-252 87.5,-252 81.5,-246 81.5,-240 81.5,-240 81.5,-228 81.5,-228 81.5,-222 87.5,-216 93.5,-216 93.5,-216 333.5,-216 333.5,-216 339.5,-216 345.5,-222 345.5,-228 345.5,-228 345.5,-240 345.5,-240 345.5,-246 339.5,-252 333.5,-252"/>
<text text-anchor="middle" x="213.5" y="-237" font-family="sans" font-size="10.00">index_bam_file</text>
<text text-anchor="middle" x="213.5" y="-226" font-family="sans" font-size="10.00">any_bam: samples/S1/mapping/bwa/34528/filtered</text>
</g>
<!-- 13 -->
<g id="node14" class="node"><title>13</title>
<path fill="none" stroke="#d85e56" stroke-width="2" d="M352.5,-180C352.5,-180 190.5,-180 190.5,-180 184.5,-180 178.5,-174 178.5,-168 178.5,-168 178.5,-156 178.5,-156 178.5,-150 184.5,-144 190.5,-144 190.5,-144 352.5,-144 352.5,-144 358.5,-144 364.5,-150 364.5,-156 364.5,-156 364.5,-168 364.5,-168 364.5,-174 358.5,-180 352.5,-180"/>
<text text-anchor="middle" x="271.5" y="-159.5" font-family="sans" font-size="10.00">remove_duplicates_from_mapping</text>
</g>
<!-- 8&#45;&gt;13 -->
<g id="edge23" class="edge"><title>8&#45;&gt;13</title>
<path fill="none" stroke="grey" stroke-width="2" d="M227.837,-215.697C234.791,-207.305 243.27,-197.07 250.901,-187.861"/>
<polygon fill="grey" stroke="grey" stroke-width="2" points="253.643,-190.038 257.328,-180.104 248.253,-185.571 253.643,-190.038"/>
</g>
<!-- 9&#45;&gt;14 -->
<g id="edge25" class="edge"><title>9&#45;&gt;14</title>
<path fill="none" stroke="grey" stroke-width="2" d="M161.597,-359.876C184.666,-350.264 213.636,-338.193 238.07,-328.013"/>
<polygon fill="grey" stroke="grey" stroke-width="2" points="239.651,-331.145 247.536,-324.068 236.959,-324.684 239.651,-331.145"/>
</g>
<!-- 10&#45;&gt;1 -->
<g id="edge2" class="edge"><title>10&#45;&gt;1</title>
<path fill="none" stroke="grey" stroke-width="2" d="M156.084,-503.697C163.158,-495.305 171.783,-485.07 179.545,-475.861"/>
<polygon fill="grey" stroke="grey" stroke-width="2" points="182.315,-478.006 186.083,-468.104 176.963,-473.495 182.315,-478.006"/>
</g>
<!-- 11 -->
<g id="node12" class="node"><title>11</title>
<path fill="none" stroke="#56d8a9" stroke-width="2" d="M1099.5,-540C1099.5,-540 923.5,-540 923.5,-540 917.5,-540 911.5,-534 911.5,-528 911.5,-528 911.5,-516 911.5,-516 911.5,-510 917.5,-504 923.5,-504 923.5,-504 1099.5,-504 1099.5,-504 1105.5,-504 1111.5,-510 1111.5,-516 1111.5,-516 1111.5,-528 1111.5,-528 1111.5,-534 1105.5,-540 1099.5,-540"/>
<text text-anchor="middle" x="1011.5" y="-519.5" font-family="sans" font-size="10.00">trim_paired_reads_with_trimmomatic</text>
</g>
<!-- 11&#45;&gt;2 -->
<g id="edge5" class="edge"><title>11&#45;&gt;2</title>
<path fill="none" stroke="grey" stroke-width="2" d="M934.845,-503.966C889.025,-493.783 830.681,-480.818 783.187,-470.264"/>
<polygon fill="grey" stroke="grey" stroke-width="2" points="783.746,-466.803 773.225,-468.05 782.228,-473.636 783.746,-466.803"/>
</g>
<!-- 12&#45;&gt;6 -->
<g id="edge10" class="edge"><title>12&#45;&gt;6</title>
<path fill="none" stroke="grey" stroke-width="2" d="M578.95,-143.908C555.795,-136.055 532.438,-124.623 514.5,-108 496.847,-91.6405 487.052,-65.721 481.847,-46.0635"/>
<polygon fill="grey" stroke="grey" stroke-width="2" points="485.208,-45.0683 479.468,-36.1634 478.402,-46.7045 485.208,-45.0683"/>
</g>
<!-- 15 -->
<g id="node16" class="node"><title>15</title>
<path fill="none" stroke="#56d892" stroke-width="2" d="M843.5,-108C843.5,-108 535.5,-108 535.5,-108 529.5,-108 523.5,-102 523.5,-96 523.5,-96 523.5,-84 523.5,-84 523.5,-78 529.5,-72 535.5,-72 535.5,-72 843.5,-72 843.5,-72 849.5,-72 855.5,-78 855.5,-84 855.5,-84 855.5,-96 855.5,-96 855.5,-102 849.5,-108 843.5,-108"/>
<text text-anchor="middle" x="689.5" y="-93" font-family="sans" font-size="10.00">index_bam_file</text>
<text text-anchor="middle" x="689.5" y="-82" font-family="sans" font-size="10.00">any_bam: samples/S2/mapping/bwa/34528/deduplicated_filtered</text>
</g>
<!-- 12&#45;&gt;15 -->
<g id="edge29" class="edge"><title>12&#45;&gt;15</title>
<path fill="none" stroke="grey" stroke-width="2" d="M675.197,-143.697C677.313,-135.898 679.862,-126.509 682.218,-117.829"/>
<polygon fill="grey" stroke="grey" stroke-width="2" points="685.616,-118.672 684.857,-108.104 678.86,-116.838 685.616,-118.672"/>
</g>
<!-- 13&#45;&gt;0 -->
<g id="edge1" class="edge"><title>13&#45;&gt;0</title>
<path fill="none" stroke="grey" stroke-width="2" d="M260.129,-143.697C254.782,-135.559 248.296,-125.689 242.389,-116.701"/>
<polygon fill="grey" stroke="grey" stroke-width="2" points="245.157,-114.539 236.74,-108.104 239.307,-118.384 245.157,-114.539"/>
</g>
<!-- 13&#45;&gt;6 -->
<g id="edge11" class="edge"><title>13&#45;&gt;6</title>
<path fill="none" stroke="grey" stroke-width="2" d="M329.114,-143.958C352.568,-135.389 379.127,-123.483 400.5,-108 424.472,-90.6341 445.773,-64.2098 459.68,-44.6614"/>
<polygon fill="grey" stroke="grey" stroke-width="2" points="462.711,-46.433 465.532,-36.2207 456.958,-42.4445 462.711,-46.433"/>
</g>
<!-- 14&#45;&gt;8 -->
<g id="edge17" class="edge"><title>14&#45;&gt;8</title>
<path fill="none" stroke="grey" stroke-width="2" d="M269.961,-287.697C260.697,-279.05 249.338,-268.449 239.243,-259.027"/>
<polygon fill="grey" stroke="grey" stroke-width="2" points="241.525,-256.369 231.826,-252.104 236.749,-261.486 241.525,-256.369"/>
</g>
<!-- 14&#45;&gt;13 -->
<g id="edge24" class="edge"><title>14&#45;&gt;13</title>
<path fill="none" stroke="grey" stroke-width="2" d="M320.553,-287.88C333.62,-279.055 347.32,-266.974 354.5,-252 361.418,-237.573 362.188,-230.032 354.5,-216 347.559,-203.332 336.158,-193.252 323.997,-185.433"/>
<polygon fill="grey" stroke="grey" stroke-width="2" points="325.448,-182.224 315.061,-180.134 321.878,-188.245 325.448,-182.224"/>
</g>
<!-- 15&#45;&gt;6 -->
<g id="edge15" class="edge"><title>15&#45;&gt;6</title>
<path fill="none" stroke="grey" stroke-width="2" d="M637.667,-71.9656C607.647,-62.1 569.677,-49.6215 538.133,-39.255"/>
<polygon fill="grey" stroke="grey" stroke-width="2" points="539.159,-35.9079 528.566,-36.1108 536.973,-42.558 539.159,-35.9079"/>
</g>
<!-- 16 -->
<g id="node17" class="node"><title>16</title>
<path fill="none" stroke="#56d86b" stroke-width="2" d="M601.5,-617C601.5,-617 463.5,-617 463.5,-617 457.5,-617 451.5,-611 451.5,-605 451.5,-605 451.5,-588 451.5,-588 451.5,-582 457.5,-576 463.5,-576 463.5,-576 601.5,-576 601.5,-576 607.5,-576 613.5,-582 613.5,-588 613.5,-588 613.5,-605 613.5,-605 613.5,-611 607.5,-617 601.5,-617"/>
<text text-anchor="middle" x="532.5" y="-605" font-family="sans" font-size="10.00">download_reference_from_url</text>
<text text-anchor="middle" x="532.5" y="-594" font-family="sans" font-size="10.00">format: fasta</text>
<text text-anchor="middle" x="532.5" y="-583" font-family="sans" font-size="10.00">ref: 34528</text>
</g>
<!-- 16&#45;&gt;1 -->
<g id="edge3" class="edge"><title>16&#45;&gt;1</title>
<path fill="none" stroke="grey" stroke-width="2" d="M451.477,-587.588C403.313,-580.298 342.302,-566.395 293.5,-540 277.782,-531.499 245.409,-498.887 223.324,-475.606"/>
<polygon fill="grey" stroke="grey" stroke-width="2" points="225.672,-472.995 216.267,-468.117 220.578,-477.795 225.672,-472.995"/>
</g>
<!-- 16&#45;&gt;2 -->
<g id="edge6" class="edge"><title>16&#45;&gt;2</title>
<path fill="none" stroke="grey" stroke-width="2" d="M569.792,-575.764C586.448,-566.088 605.813,-553.595 621.5,-540 643.481,-520.95 664.457,-495.183 678.607,-476.276"/>
<polygon fill="grey" stroke="grey" stroke-width="2" points="681.5,-478.25 684.607,-468.121 675.862,-474.101 681.5,-478.25"/>
</g>
<!-- 16&#45;&gt;4 -->
<g id="edge9" class="edge"><title>16&#45;&gt;4</title>
<path fill="none" stroke="grey" stroke-width="2" d="M512.006,-575.689C502.971,-566.955 492.265,-556.607 482.744,-547.403"/>
<polygon fill="grey" stroke="grey" stroke-width="2" points="485.039,-544.753 475.417,-540.319 480.174,-549.786 485.039,-544.753"/>
</g>
<!-- 16&#45;&gt;6 -->
<g id="edge14" class="edge"><title>16&#45;&gt;6</title>
<path fill="none" stroke="grey" stroke-width="2" d="M613.909,-578.975C717.598,-555.543 883.5,-508.991 883.5,-451 883.5,-451 883.5,-451 883.5,-161 883.5,-120.553 894.146,-99.5143 864.5,-72 827.802,-37.9409 704.896,-25.5291 607.129,-21.1296"/>
<polygon fill="grey" stroke="grey" stroke-width="2" points="606.988,-17.6205 596.848,-20.692 606.69,-24.6142 606.988,-17.6205"/>
</g>
<!-- 16&#45;&gt;14 -->
<g id="edge27" class="edge"><title>16&#45;&gt;14</title>
<path fill="none" stroke="grey" stroke-width="2" d="M451.37,-582.877C401.308,-573.399 343.507,-558.828 326.5,-540 299.52,-510.132 291.571,-388.947 289.333,-334.145"/>
<polygon fill="grey" stroke="grey" stroke-width="2" points="292.829,-333.978 288.957,-324.116 285.834,-334.24 292.829,-333.978"/>
</g>
<!-- 16&#45;&gt;18 -->
<g id="edge30" class="edge"><title>16&#45;&gt;18</title>
<path fill="none" stroke="grey" stroke-width="2" d="M559.641,-575.91C570.467,-566.429 581.718,-554.05 587.5,-540 618.135,-465.565 527.726,-429.979 567.5,-360 574.865,-347.043 586.788,-336.92 599.547,-329.155"/>
<polygon fill="grey" stroke="grey" stroke-width="2" points="601.46,-332.096 608.468,-324.15 598.034,-325.991 601.46,-332.096"/>
</g>
<!-- 17 -->
<g id="node18" class="node"><title>17</title>
<path fill="none" stroke="#d86e56" stroke-width="2" d="M1078.5,-614.5C1078.5,-614.5 944.5,-614.5 944.5,-614.5 938.5,-614.5 932.5,-608.5 932.5,-602.5 932.5,-602.5 932.5,-590.5 932.5,-590.5 932.5,-584.5 938.5,-578.5 944.5,-578.5 944.5,-578.5 1078.5,-578.5 1078.5,-578.5 1084.5,-578.5 1090.5,-584.5 1090.5,-590.5 1090.5,-590.5 1090.5,-602.5 1090.5,-602.5 1090.5,-608.5 1084.5,-614.5 1078.5,-614.5"/>
<text text-anchor="middle" x="1011.5" y="-599.5" font-family="sans" font-size="10.00">copy_fastq_paired_from_link</text>
<text text-anchor="middle" x="1011.5" y="-588.5" font-family="sans" font-size="10.00">sample: S2</text>
</g>
<!-- 17&#45;&gt;11 -->
<g id="edge20" class="edge"><title>17&#45;&gt;11</title>
<path fill="none" stroke="grey" stroke-width="2" d="M1011.5,-578.319C1011.5,-569.922 1011.5,-559.616 1011.5,-550.186"/>
<polygon fill="grey" stroke="grey" stroke-width="2" points="1015,-550.058 1011.5,-540.058 1008,-550.058 1015,-550.058"/>
</g>
<!-- 18&#45;&gt;7 -->
<g id="edge16" class="edge"><title>18&#45;&gt;7</title>
<path fill="none" stroke="grey" stroke-width="2" d="M655.264,-287.697C654.713,-279.983 654.051,-270.712 653.437,-262.112"/>
<polygon fill="grey" stroke="grey" stroke-width="2" points="656.925,-261.83 652.722,-252.104 649.943,-262.328 656.925,-261.83"/>
</g>
<!-- 18&#45;&gt;12 -->
<g id="edge22" class="edge"><title>18&#45;&gt;12</title>
<path fill="none" stroke="grey" stroke-width="2" d="M720.564,-296.183C747.446,-288.968 776.198,-275.849 792.5,-252 801.529,-238.791 801.275,-229.379 792.5,-216 783.48,-202.248 770.037,-192.045 755.329,-184.482"/>
<polygon fill="grey" stroke="grey" stroke-width="2" points="756.575,-181.199 746.037,-180.105 753.593,-187.532 756.575,-181.199"/>
</g>
</g>
</svg>
