<?xml version="1.0" encoding="UTF-8" standalone="no"?>
<!DOCTYPE svg PUBLIC "-//W3C//DTD SVG 1.1//EN"
 "http://www.w3.org/Graphics/SVG/1.1/DTD/svg11.dtd">
<!-- Generated by graphviz version 2.38.0 (20140413.2041)
 -->
<!-- Title: snakemake_dag Pages: 1 -->
<svg width="1338pt" height="913pt"
 viewBox="0.00 0.00 1337.86 913.00" xmlns="http://www.w3.org/2000/svg" xmlns:xlink="http://www.w3.org/1999/xlink">
<g id="graph0" class="graph" transform="scale(1 1) rotate(0) translate(4 909)">
<title>snakemake_dag</title>
<polygon fill="white" stroke="none" points="-4,4 -4,-909 1333.86,-909 1333.86,4 -4,4"/>
<!-- 0 -->
<g id="node1" class="node"><title>0</title>
<path fill="none" stroke="#d8ac56" stroke-width="2" d="M1014.86,-252C1014.86,-252 780.865,-252 780.865,-252 774.865,-252 768.865,-246 768.865,-240 768.865,-240 768.865,-228 768.865,-228 768.865,-222 774.865,-216 780.865,-216 780.865,-216 1014.86,-216 1014.86,-216 1020.86,-216 1026.86,-222 1026.86,-228 1026.86,-228 1026.86,-240 1026.86,-240 1026.86,-246 1020.86,-252 1014.86,-252"/>
<text text-anchor="middle" x="897.865" y="-237" font-family="sans" font-size="10.00">compress_vcf</text>
<text text-anchor="middle" x="897.865" y="-226" font-family="sans" font-size="10.00">any_vcf: samples/S2/snps/gatk/34528/bwa/snps.g</text>
</g>
<!-- 3 -->
<g id="node4" class="node"><title>3</title>
<path fill="none" stroke="#d89c56" stroke-width="2" d="M1038.36,-108C1038.36,-108 823.365,-108 823.365,-108 817.365,-108 811.365,-102 811.365,-96 811.365,-96 811.365,-84 811.365,-84 811.365,-78 817.365,-72 823.365,-72 823.365,-72 1038.36,-72 1038.36,-72 1044.36,-72 1050.36,-78 1050.36,-84 1050.36,-84 1050.36,-96 1050.36,-96 1050.36,-102 1044.36,-108 1038.36,-108"/>
<text text-anchor="middle" x="930.865" y="-93" font-family="sans" font-size="10.00">merge_gvcf_files_with_CombineGVCFs_GATK</text>
<text text-anchor="middle" x="930.865" y="-82" font-family="sans" font-size="10.00">mapping_method: bwa</text>
</g>
<!-- 0&#45;&gt;3 -->
<g id="edge3" class="edge"><title>0&#45;&gt;3</title>
<path fill="none" stroke="grey" stroke-width="2" d="M907.344,-215.863C912.504,-205.735 918.504,-192.485 921.865,-180 927.34,-159.662 929.54,-135.895 930.399,-118.039"/>
<polygon fill="grey" stroke="grey" stroke-width="2" points="933.897,-118.148 930.77,-108.025 926.902,-117.888 933.897,-118.148"/>
</g>
<!-- 24 -->
<g id="node25" class="node"><title>24</title>
<path fill="none" stroke="#8fd856" stroke-width="2" d="M900.865,-180C900.865,-180 860.865,-180 860.865,-180 854.865,-180 848.865,-174 848.865,-168 848.865,-168 848.865,-156 848.865,-156 848.865,-150 854.865,-144 860.865,-144 860.865,-144 900.865,-144 900.865,-144 906.865,-144 912.865,-150 912.865,-156 912.865,-156 912.865,-168 912.865,-168 912.865,-174 906.865,-180 900.865,-180"/>
<text text-anchor="middle" x="880.865" y="-159.5" font-family="sans" font-size="10.00">index_vcf</text>
</g>
<!-- 0&#45;&gt;24 -->
<g id="edge45" class="edge"><title>0&#45;&gt;24</title>
<path fill="none" stroke="grey" stroke-width="2" d="M893.663,-215.697C891.769,-207.898 889.488,-198.509 887.381,-189.829"/>
<polygon fill="grey" stroke="grey" stroke-width="2" points="890.78,-188.996 885.019,-180.104 883.978,-190.648 890.78,-188.996"/>
</g>
<!-- 1 -->
<g id="node2" class="node"><title>1</title>
<path fill="none" stroke="#56d0d8" stroke-width="2" d="M1296.86,-902.5C1296.86,-902.5 1162.86,-902.5 1162.86,-902.5 1156.86,-902.5 1150.86,-896.5 1150.86,-890.5 1150.86,-890.5 1150.86,-878.5 1150.86,-878.5 1150.86,-872.5 1156.86,-866.5 1162.86,-866.5 1162.86,-866.5 1296.86,-866.5 1296.86,-866.5 1302.86,-866.5 1308.86,-872.5 1308.86,-878.5 1308.86,-878.5 1308.86,-890.5 1308.86,-890.5 1308.86,-896.5 1302.86,-902.5 1296.86,-902.5"/>
<text text-anchor="middle" x="1229.86" y="-887.5" font-family="sans" font-size="10.00">copy_fastq_paired_from_link</text>
<text text-anchor="middle" x="1229.86" y="-876.5" font-family="sans" font-size="10.00">sample: S2</text>
</g>
<!-- 12 -->
<g id="node13" class="node"><title>12</title>
<path fill="none" stroke="#5692d8" stroke-width="2" d="M1317.86,-828C1317.86,-828 1141.86,-828 1141.86,-828 1135.86,-828 1129.86,-822 1129.86,-816 1129.86,-816 1129.86,-804 1129.86,-804 1129.86,-798 1135.86,-792 1141.86,-792 1141.86,-792 1317.86,-792 1317.86,-792 1323.86,-792 1329.86,-798 1329.86,-804 1329.86,-804 1329.86,-816 1329.86,-816 1329.86,-822 1323.86,-828 1317.86,-828"/>
<text text-anchor="middle" x="1229.86" y="-807.5" font-family="sans" font-size="10.00">trim_paired_reads_with_trimmomatic</text>
</g>
<!-- 1&#45;&gt;12 -->
<g id="edge17" class="edge"><title>1&#45;&gt;12</title>
<path fill="none" stroke="grey" stroke-width="2" d="M1229.86,-866.319C1229.86,-857.922 1229.86,-847.616 1229.86,-838.186"/>
<polygon fill="grey" stroke="grey" stroke-width="2" points="1233.36,-838.058 1229.86,-828.058 1226.36,-838.058 1233.36,-838.058"/>
</g>
<!-- 2 -->
<g id="node3" class="node"><title>2</title>
<path fill="none" stroke="#d88d56" stroke-width="2" d="M597.865,-396C597.865,-396 449.865,-396 449.865,-396 443.865,-396 437.865,-390 437.865,-384 437.865,-384 437.865,-372 437.865,-372 437.865,-366 443.865,-360 449.865,-360 449.865,-360 597.865,-360 597.865,-360 603.865,-360 609.865,-366 609.865,-372 609.865,-372 609.865,-384 609.865,-384 609.865,-390 603.865,-396 597.865,-396"/>
<text text-anchor="middle" x="523.865" y="-375.5" font-family="sans" font-size="10.00">create_dictionary_for_reference</text>
</g>
<!-- 15 -->
<g id="node16" class="node"><title>15</title>
<path fill="none" stroke="#d8cb56" stroke-width="2" d="M386.865,-324C386.865,-324 120.865,-324 120.865,-324 114.865,-324 108.865,-318 108.865,-312 108.865,-312 108.865,-300 108.865,-300 108.865,-294 114.865,-288 120.865,-288 120.865,-288 386.865,-288 386.865,-288 392.865,-288 398.865,-294 398.865,-300 398.865,-300 398.865,-312 398.865,-312 398.865,-318 392.865,-324 386.865,-324"/>
<text text-anchor="middle" x="253.865" y="-309" font-family="sans" font-size="10.00">call_snps_with_HaplotypeCaller_GATK_BP_RESOLUTION</text>
<text text-anchor="middle" x="253.865" y="-298" font-family="sans" font-size="10.00">mapping_method: bwa</text>
</g>
<!-- 2&#45;&gt;15 -->
<g id="edge22" class="edge"><title>2&#45;&gt;15</title>
<path fill="none" stroke="grey" stroke-width="2" d="M458.161,-359.966C419.37,-349.909 370.106,-337.136 329.674,-326.654"/>
<polygon fill="grey" stroke="grey" stroke-width="2" points="330.422,-323.233 319.864,-324.111 328.665,-330.008 330.422,-323.233"/>
</g>
<!-- 20 -->
<g id="node21" class="node"><title>20</title>
<path fill="none" stroke="#d8cb56" stroke-width="2" d="M964.865,-324C964.865,-324 698.865,-324 698.865,-324 692.865,-324 686.865,-318 686.865,-312 686.865,-312 686.865,-300 686.865,-300 686.865,-294 692.865,-288 698.865,-288 698.865,-288 964.865,-288 964.865,-288 970.865,-288 976.865,-294 976.865,-300 976.865,-300 976.865,-312 976.865,-312 976.865,-318 970.865,-324 964.865,-324"/>
<text text-anchor="middle" x="831.865" y="-309" font-family="sans" font-size="10.00">call_snps_with_HaplotypeCaller_GATK_BP_RESOLUTION</text>
<text text-anchor="middle" x="831.865" y="-298" font-family="sans" font-size="10.00">mapping_method: bwa</text>
</g>
<!-- 2&#45;&gt;20 -->
<g id="edge38" class="edge"><title>2&#45;&gt;20</title>
<path fill="none" stroke="grey" stroke-width="2" d="M598.816,-359.966C643.524,-349.805 700.427,-336.872 746.813,-326.33"/>
<polygon fill="grey" stroke="grey" stroke-width="2" points="747.869,-329.679 756.845,-324.05 746.318,-322.853 747.869,-329.679"/>
</g>
<!-- 6 -->
<g id="node7" class="node"><title>6</title>
<path fill="none" stroke="#d86e56" stroke-width="2" d="M1106.36,-36C1106.36,-36 925.365,-36 925.365,-36 919.365,-36 913.365,-30 913.365,-24 913.365,-24 913.365,-12 913.365,-12 913.365,-6 919.365,-0 925.365,-0 925.365,-0 1106.36,-0 1106.36,-0 1112.36,-0 1118.36,-6 1118.36,-12 1118.36,-12 1118.36,-24 1118.36,-24 1118.36,-30 1112.36,-36 1106.36,-36"/>
<text text-anchor="middle" x="1015.86" y="-15.5" font-family="sans" font-size="10.00">genotype_with_GenotypeGVCFs_GATK</text>
</g>
<!-- 3&#45;&gt;6 -->
<g id="edge12" class="edge"><title>3&#45;&gt;6</title>
<path fill="none" stroke="grey" stroke-width="2" d="M951.876,-71.6966C962.581,-62.8807 975.755,-52.0321 987.36,-42.4742"/>
<polygon fill="grey" stroke="grey" stroke-width="2" points="989.601,-45.1632 995.095,-36.1043 985.151,-39.7597 989.601,-45.1632"/>
</g>
<!-- 4 -->
<g id="node5" class="node"><title>4</title>
<path fill="none" stroke="#61d856" stroke-width="2" d="M902.865,-468C902.865,-468 740.865,-468 740.865,-468 734.865,-468 728.865,-462 728.865,-456 728.865,-456 728.865,-444 728.865,-444 728.865,-438 734.865,-432 740.865,-432 740.865,-432 902.865,-432 902.865,-432 908.865,-432 914.865,-438 914.865,-444 914.865,-444 914.865,-456 914.865,-456 914.865,-462 908.865,-468 902.865,-468"/>
<text text-anchor="middle" x="821.865" y="-447.5" font-family="sans" font-size="10.00">remove_duplicates_from_mapping</text>
</g>
<!-- 4&#45;&gt;20 -->
<g id="edge39" class="edge"><title>4&#45;&gt;20</title>
<path fill="none" stroke="grey" stroke-width="2" d="M729.14,-431.948C678.351,-418.275 630.586,-395.417 656.865,-360 666.89,-346.489 680.266,-336.3 695.174,-328.638"/>
<polygon fill="grey" stroke="grey" stroke-width="2" points="697.079,-331.609 704.638,-324.186 694.099,-325.275 697.079,-331.609"/>
</g>
<!-- 21 -->
<g id="node22" class="node"><title>21</title>
<path fill="none" stroke="#56b1d8" stroke-width="2" d="M985.865,-396C985.865,-396 677.865,-396 677.865,-396 671.865,-396 665.865,-390 665.865,-384 665.865,-384 665.865,-372 665.865,-372 665.865,-366 671.865,-360 677.865,-360 677.865,-360 985.865,-360 985.865,-360 991.865,-360 997.865,-366 997.865,-372 997.865,-372 997.865,-384 997.865,-384 997.865,-390 991.865,-396 985.865,-396"/>
<text text-anchor="middle" x="831.865" y="-381" font-family="sans" font-size="10.00">index_bam_file</text>
<text text-anchor="middle" x="831.865" y="-370" font-family="sans" font-size="10.00">any_bam: samples/S2/mapping/bwa/34528/deduplicated_filtered</text>
</g>
<!-- 4&#45;&gt;21 -->
<g id="edge40" class="edge"><title>4&#45;&gt;21</title>
<path fill="none" stroke="grey" stroke-width="2" d="M824.337,-431.697C825.439,-423.983 826.763,-414.712 827.992,-406.112"/>
<polygon fill="grey" stroke="grey" stroke-width="2" points="831.472,-406.499 829.421,-396.104 824.542,-405.509 831.472,-406.499"/>
</g>
<!-- 5 -->
<g id="node6" class="node"><title>5</title>
<path fill="none" stroke="#56b1d8" stroke-width="2" d="M909.365,-684C909.365,-684 692.365,-684 692.365,-684 686.365,-684 680.365,-678 680.365,-672 680.365,-672 680.365,-660 680.365,-660 680.365,-654 686.365,-648 692.365,-648 692.365,-648 909.365,-648 909.365,-648 915.365,-648 921.365,-654 921.365,-660 921.365,-660 921.365,-672 921.365,-672 921.365,-678 915.365,-684 909.365,-684"/>
<text text-anchor="middle" x="800.865" y="-669" font-family="sans" font-size="10.00">index_bam_file</text>
<text text-anchor="middle" x="800.865" y="-658" font-family="sans" font-size="10.00">any_bam: samples/S2/mapping/bwa/34528/S2</text>
</g>
<!-- 16 -->
<g id="node17" class="node"><title>16</title>
<path fill="none" stroke="#d8a456" stroke-width="2" d="M932.865,-612C932.865,-612 828.865,-612 828.865,-612 822.865,-612 816.865,-606 816.865,-600 816.865,-600 816.865,-588 816.865,-588 816.865,-582 822.865,-576 828.865,-576 828.865,-576 932.865,-576 932.865,-576 938.865,-576 944.865,-582 944.865,-588 944.865,-588 944.865,-600 944.865,-600 944.865,-606 938.865,-612 932.865,-612"/>
<text text-anchor="middle" x="880.865" y="-591.5" font-family="sans" font-size="10.00">filter_reads_on_quality</text>
</g>
<!-- 5&#45;&gt;16 -->
<g id="edge26" class="edge"><title>5&#45;&gt;16</title>
<path fill="none" stroke="grey" stroke-width="2" d="M820.64,-647.697C830.619,-638.965 842.876,-628.24 853.722,-618.75"/>
<polygon fill="grey" stroke="grey" stroke-width="2" points="856.096,-621.323 861.317,-612.104 851.487,-616.055 856.096,-621.323"/>
</g>
<!-- 7 -->
<g id="node8" class="node"><title>7</title>
<path fill="none" stroke="#d8ac56" stroke-width="2" d="M738.865,-252C738.865,-252 504.865,-252 504.865,-252 498.865,-252 492.865,-246 492.865,-240 492.865,-240 492.865,-228 492.865,-228 492.865,-222 498.865,-216 504.865,-216 504.865,-216 738.865,-216 738.865,-216 744.865,-216 750.865,-222 750.865,-228 750.865,-228 750.865,-240 750.865,-240 750.865,-246 744.865,-252 738.865,-252"/>
<text text-anchor="middle" x="621.865" y="-237" font-family="sans" font-size="10.00">compress_vcf</text>
<text text-anchor="middle" x="621.865" y="-226" font-family="sans" font-size="10.00">any_vcf: samples/S1/snps/gatk/34528/bwa/snps.g</text>
</g>
<!-- 7&#45;&gt;3 -->
<g id="edge7" class="edge"><title>7&#45;&gt;3</title>
<path fill="none" stroke="grey" stroke-width="2" d="M636.876,-215.924C655.529,-195.765 689.27,-162.631 724.865,-144 753.133,-129.204 785.784,-118.358 816.641,-110.481"/>
<polygon fill="grey" stroke="grey" stroke-width="2" points="817.718,-113.821 826.588,-108.027 816.041,-107.025 817.718,-113.821"/>
</g>
<!-- 14 -->
<g id="node15" class="node"><title>14</title>
<path fill="none" stroke="#8fd856" stroke-width="2" d="M785.865,-180C785.865,-180 745.865,-180 745.865,-180 739.865,-180 733.865,-174 733.865,-168 733.865,-168 733.865,-156 733.865,-156 733.865,-150 739.865,-144 745.865,-144 745.865,-144 785.865,-144 785.865,-144 791.865,-144 797.865,-150 797.865,-156 797.865,-156 797.865,-168 797.865,-168 797.865,-174 791.865,-180 785.865,-180"/>
<text text-anchor="middle" x="765.865" y="-159.5" font-family="sans" font-size="10.00">index_vcf</text>
</g>
<!-- 7&#45;&gt;14 -->
<g id="edge19" class="edge"><title>7&#45;&gt;14</title>
<path fill="none" stroke="grey" stroke-width="2" d="M657.091,-215.876C677.4,-206.004 703.044,-193.538 724.331,-183.19"/>
<polygon fill="grey" stroke="grey" stroke-width="2" points="726.001,-186.27 733.464,-178.75 722.94,-179.974 726.001,-186.27"/>
</g>
<!-- 8 -->
<g id="node9" class="node"><title>8</title>
<path fill="none" stroke="#d88d56" stroke-width="2" d="M822.865,-905C822.865,-905 684.865,-905 684.865,-905 678.865,-905 672.865,-899 672.865,-893 672.865,-893 672.865,-876 672.865,-876 672.865,-870 678.865,-864 684.865,-864 684.865,-864 822.865,-864 822.865,-864 828.865,-864 834.865,-870 834.865,-876 834.865,-876 834.865,-893 834.865,-893 834.865,-899 828.865,-905 822.865,-905"/>
<text text-anchor="middle" x="753.865" y="-893" font-family="sans" font-size="10.00">download_reference_from_url</text>
<text text-anchor="middle" x="753.865" y="-882" font-family="sans" font-size="10.00">format: fasta</text>
<text text-anchor="middle" x="753.865" y="-871" font-family="sans" font-size="10.00">ref: 34528</text>
</g>
<!-- 8&#45;&gt;2 -->
<g id="edge2" class="edge"><title>8&#45;&gt;2</title>
<path fill="none" stroke="grey" stroke-width="2" d="M744.257,-863.846C727.34,-828.573 692.028,-751.864 670.865,-684 658.824,-645.387 651.865,-635.447 651.865,-595 651.865,-595 651.865,-595 651.865,-521 651.865,-467.996 602.054,-425.863 564.578,-401.664"/>
<polygon fill="grey" stroke="grey" stroke-width="2" points="566.168,-398.53 555.835,-396.193 562.455,-404.464 566.168,-398.53"/>
</g>
<!-- 8&#45;&gt;3 -->
<g id="edge5" class="edge"><title>8&#45;&gt;3</title>
<path fill="none" stroke="grey" stroke-width="2" d="M834.909,-879.751C926.759,-870.633 1063.86,-840.093 1063.86,-739 1063.86,-739 1063.86,-739 1063.86,-233 1063.86,-179.215 1012.41,-137.4 973.507,-113.474"/>
<polygon fill="grey" stroke="grey" stroke-width="2" points="974.809,-110.176 964.426,-108.067 971.228,-116.19 974.809,-110.176"/>
</g>
<!-- 8&#45;&gt;6 -->
<g id="edge11" class="edge"><title>8&#45;&gt;6</title>
<path fill="none" stroke="grey" stroke-width="2" d="M834.949,-875.644C909.722,-867.086 1014.08,-851.41 1047.86,-828 1085.89,-801.647 1101.86,-785.267 1101.86,-739 1101.86,-739 1101.86,-739 1101.86,-161 1101.86,-114.307 1067.42,-69.843 1042.13,-43.4869"/>
<polygon fill="grey" stroke="grey" stroke-width="2" points="1044.47,-40.8756 1034.95,-36.2265 1039.49,-45.7979 1044.47,-40.8756"/>
</g>
<!-- 13 -->
<g id="node14" class="node"><title>13</title>
<path fill="none" stroke="#9fd856" stroke-width="2" d="M685.365,-828C685.365,-828 466.365,-828 466.365,-828 460.365,-828 454.365,-822 454.365,-816 454.365,-816 454.365,-804 454.365,-804 454.365,-798 460.365,-792 466.365,-792 466.365,-792 685.365,-792 685.365,-792 691.365,-792 697.365,-798 697.365,-804 697.365,-804 697.365,-816 697.365,-816 697.365,-822 691.365,-828 685.365,-828"/>
<text text-anchor="middle" x="575.865" y="-813" font-family="sans" font-size="10.00">index_reference_fasta</text>
<text text-anchor="middle" x="575.865" y="-802" font-family="sans" font-size="10.00">any_genome: references/34528/genome_fasta</text>
</g>
<!-- 8&#45;&gt;13 -->
<g id="edge18" class="edge"><title>8&#45;&gt;13</title>
<path fill="none" stroke="grey" stroke-width="2" d="M705.696,-863.88C681.427,-853.996 651.987,-842.005 627.28,-831.942"/>
<polygon fill="grey" stroke="grey" stroke-width="2" points="628.296,-828.576 617.715,-828.046 625.656,-835.059 628.296,-828.576"/>
</g>
<!-- 8&#45;&gt;15 -->
<g id="edge21" class="edge"><title>8&#45;&gt;15</title>
<path fill="none" stroke="grey" stroke-width="2" d="M672.786,-879.944C487.3,-871.46 46.0843,-849.16 21.8649,-828 -8.59466,-801.389 2.86489,-779.447 2.86489,-739 2.86489,-739 2.86489,-739 2.86489,-449 2.86489,-381.119 73.269,-345.309 139.503,-326.641"/>
<polygon fill="grey" stroke="grey" stroke-width="2" points="140.496,-329.998 149.236,-324.009 138.669,-323.241 140.496,-329.998"/>
</g>
<!-- 8&#45;&gt;16 -->
<g id="edge25" class="edge"><title>8&#45;&gt;16</title>
<path fill="none" stroke="grey" stroke-width="2" d="M785.609,-863.862C832.452,-832.652 917.694,-766.713 946.865,-684 952.186,-668.911 953.783,-662.427 946.865,-648 941.2,-636.185 931.474,-626.171 921.204,-618.136"/>
<polygon fill="grey" stroke="grey" stroke-width="2" points="923.067,-615.163 912.918,-612.12 918.954,-620.828 923.067,-615.163"/>
</g>
<!-- 17 -->
<g id="node18" class="node"><title>17</title>
<path fill="none" stroke="#d8a456" stroke-width="2" d="M446.865,-612C446.865,-612 342.865,-612 342.865,-612 336.865,-612 330.865,-606 330.865,-600 330.865,-600 330.865,-588 330.865,-588 330.865,-582 336.865,-576 342.865,-576 342.865,-576 446.865,-576 446.865,-576 452.865,-576 458.865,-582 458.865,-588 458.865,-588 458.865,-600 458.865,-600 458.865,-606 452.865,-612 446.865,-612"/>
<text text-anchor="middle" x="394.865" y="-591.5" font-family="sans" font-size="10.00">filter_reads_on_quality</text>
</g>
<!-- 8&#45;&gt;17 -->
<g id="edge29" class="edge"><title>8&#45;&gt;17</title>
<path fill="none" stroke="grey" stroke-width="2" d="M672.778,-881.922C550.876,-874.404 327.363,-839.106 258.865,-684 252.401,-669.364 249.836,-661.209 258.865,-648 273.193,-627.039 297.138,-614.367 320.978,-606.706"/>
<polygon fill="grey" stroke="grey" stroke-width="2" points="322.195,-609.997 330.8,-603.817 320.219,-603.281 322.195,-609.997"/>
</g>
<!-- 18 -->
<g id="node19" class="node"><title>18</title>
<path fill="none" stroke="#56a2d8" stroke-width="2" d="M492.865,-756C492.865,-756 358.865,-756 358.865,-756 352.865,-756 346.865,-750 346.865,-744 346.865,-744 346.865,-732 346.865,-732 346.865,-726 352.865,-720 358.865,-720 358.865,-720 492.865,-720 492.865,-720 498.865,-720 504.865,-726 504.865,-732 504.865,-732 504.865,-744 504.865,-744 504.865,-750 498.865,-756 492.865,-756"/>
<text text-anchor="middle" x="425.865" y="-735.5" font-family="sans" font-size="10.00">map_paired_reads_with_bwa</text>
</g>
<!-- 8&#45;&gt;18 -->
<g id="edge32" class="edge"><title>8&#45;&gt;18</title>
<path fill="none" stroke="grey" stroke-width="2" d="M672.679,-878.995C592.257,-872.817 476.636,-858.752 444.865,-828 428.506,-812.166 424.543,-785.958 424.205,-766.072"/>
<polygon fill="grey" stroke="grey" stroke-width="2" points="427.705,-766.1 424.323,-756.059 420.705,-766.017 427.705,-766.1"/>
</g>
<!-- 8&#45;&gt;20 -->
<g id="edge37" class="edge"><title>8&#45;&gt;20</title>
<path fill="none" stroke="grey" stroke-width="2" d="M835.105,-874.717C915.255,-861.015 1025.86,-826.294 1025.86,-739 1025.86,-739 1025.86,-739 1025.86,-449 1025.86,-408.553 1034.24,-389.772 1006.86,-360 993.873,-345.872 977.257,-335.461 959.453,-327.8"/>
<polygon fill="grey" stroke="grey" stroke-width="2" points="960.632,-324.502 950.047,-324.039 958.033,-331.001 960.632,-324.502"/>
</g>
<!-- 22 -->
<g id="node23" class="node"><title>22</title>
<path fill="none" stroke="#56a2d8" stroke-width="2" d="M867.865,-756C867.865,-756 733.865,-756 733.865,-756 727.865,-756 721.865,-750 721.865,-744 721.865,-744 721.865,-732 721.865,-732 721.865,-726 727.865,-720 733.865,-720 733.865,-720 867.865,-720 867.865,-720 873.865,-720 879.865,-726 879.865,-732 879.865,-732 879.865,-744 879.865,-744 879.865,-750 873.865,-756 867.865,-756"/>
<text text-anchor="middle" x="800.865" y="-735.5" font-family="sans" font-size="10.00">map_paired_reads_with_bwa</text>
</g>
<!-- 8&#45;&gt;22 -->
<g id="edge41" class="edge"><title>8&#45;&gt;22</title>
<path fill="none" stroke="grey" stroke-width="2" d="M760.301,-863.711C768.541,-838.378 782.854,-794.374 792.088,-765.985"/>
<polygon fill="grey" stroke="grey" stroke-width="2" points="795.475,-766.888 795.239,-756.296 788.818,-764.723 795.475,-766.888"/>
</g>
<!-- 9 -->
<g id="node10" class="node"><title>9</title>
<path fill="none" stroke="#56b1d8" stroke-width="2" d="M497.365,-684C497.365,-684 280.365,-684 280.365,-684 274.365,-684 268.365,-678 268.365,-672 268.365,-672 268.365,-660 268.365,-660 268.365,-654 274.365,-648 280.365,-648 280.365,-648 497.365,-648 497.365,-648 503.365,-648 509.365,-654 509.365,-660 509.365,-660 509.365,-672 509.365,-672 509.365,-678 503.365,-684 497.365,-684"/>
<text text-anchor="middle" x="388.865" y="-669" font-family="sans" font-size="10.00">index_bam_file</text>
<text text-anchor="middle" x="388.865" y="-658" font-family="sans" font-size="10.00">any_bam: samples/S1/mapping/bwa/34528/S1</text>
</g>
<!-- 9&#45;&gt;17 -->
<g id="edge28" class="edge"><title>9&#45;&gt;17</title>
<path fill="none" stroke="grey" stroke-width="2" d="M390.348,-647.697C391.009,-639.983 391.804,-630.712 392.541,-622.112"/>
<polygon fill="grey" stroke="grey" stroke-width="2" points="396.032,-622.367 393.399,-612.104 389.057,-621.769 396.032,-622.367"/>
</g>
<!-- 10 -->
<g id="node11" class="node"><title>10</title>
<path fill="none" stroke="#56d0d8" stroke-width="2" d="M197.865,-902.5C197.865,-902.5 63.8649,-902.5 63.8649,-902.5 57.8649,-902.5 51.8649,-896.5 51.8649,-890.5 51.8649,-890.5 51.8649,-878.5 51.8649,-878.5 51.8649,-872.5 57.8649,-866.5 63.8649,-866.5 63.8649,-866.5 197.865,-866.5 197.865,-866.5 203.865,-866.5 209.865,-872.5 209.865,-878.5 209.865,-878.5 209.865,-890.5 209.865,-890.5 209.865,-896.5 203.865,-902.5 197.865,-902.5"/>
<text text-anchor="middle" x="130.865" y="-887.5" font-family="sans" font-size="10.00">copy_fastq_paired_from_link</text>
<text text-anchor="middle" x="130.865" y="-876.5" font-family="sans" font-size="10.00">sample: S1</text>
</g>
<!-- 26 -->
<g id="node27" class="node"><title>26</title>
<path fill="none" stroke="#5692d8" stroke-width="2" d="M218.865,-828C218.865,-828 42.8649,-828 42.8649,-828 36.8649,-828 30.8649,-822 30.8649,-816 30.8649,-816 30.8649,-804 30.8649,-804 30.8649,-798 36.8649,-792 42.8649,-792 42.8649,-792 218.865,-792 218.865,-792 224.865,-792 230.865,-798 230.865,-804 230.865,-804 230.865,-816 230.865,-816 230.865,-822 224.865,-828 218.865,-828"/>
<text text-anchor="middle" x="130.865" y="-807.5" font-family="sans" font-size="10.00">trim_paired_reads_with_trimmomatic</text>
</g>
<!-- 10&#45;&gt;26 -->
<g id="edge47" class="edge"><title>10&#45;&gt;26</title>
<path fill="none" stroke="grey" stroke-width="2" d="M130.865,-866.319C130.865,-857.922 130.865,-847.616 130.865,-838.186"/>
<polygon fill="grey" stroke="grey" stroke-width="2" points="134.365,-838.058 130.865,-828.058 127.365,-838.058 134.365,-838.058"/>
</g>
<!-- 11 -->
<g id="node12" class="node"><title>11</title>
<path fill="none" stroke="#61d856" stroke-width="2" d="M322.865,-468C322.865,-468 160.865,-468 160.865,-468 154.865,-468 148.865,-462 148.865,-456 148.865,-456 148.865,-444 148.865,-444 148.865,-438 154.865,-432 160.865,-432 160.865,-432 322.865,-432 322.865,-432 328.865,-432 334.865,-438 334.865,-444 334.865,-444 334.865,-456 334.865,-456 334.865,-462 328.865,-468 322.865,-468"/>
<text text-anchor="middle" x="241.865" y="-447.5" font-family="sans" font-size="10.00">remove_duplicates_from_mapping</text>
</g>
<!-- 11&#45;&gt;15 -->
<g id="edge20" class="edge"><title>11&#45;&gt;15</title>
<path fill="none" stroke="grey" stroke-width="2" d="M151.05,-431.955C100.547,-418.216 52.6879,-395.279 78.8649,-360 88.8904,-346.489 102.266,-336.3 117.174,-328.638"/>
<polygon fill="grey" stroke="grey" stroke-width="2" points="119.079,-331.609 126.638,-324.186 116.099,-325.275 119.079,-331.609"/>
</g>
<!-- 25 -->
<g id="node26" class="node"><title>25</title>
<path fill="none" stroke="#56b1d8" stroke-width="2" d="M407.865,-396C407.865,-396 99.8649,-396 99.8649,-396 93.8649,-396 87.8649,-390 87.8649,-384 87.8649,-384 87.8649,-372 87.8649,-372 87.8649,-366 93.8649,-360 99.8649,-360 99.8649,-360 407.865,-360 407.865,-360 413.865,-360 419.865,-366 419.865,-372 419.865,-372 419.865,-384 419.865,-384 419.865,-390 413.865,-396 407.865,-396"/>
<text text-anchor="middle" x="253.865" y="-381" font-family="sans" font-size="10.00">index_bam_file</text>
<text text-anchor="middle" x="253.865" y="-370" font-family="sans" font-size="10.00">any_bam: samples/S1/mapping/bwa/34528/deduplicated_filtered</text>
</g>
<!-- 11&#45;&gt;25 -->
<g id="edge46" class="edge"><title>11&#45;&gt;25</title>
<path fill="none" stroke="grey" stroke-width="2" d="M244.831,-431.697C246.154,-423.983 247.743,-414.712 249.217,-406.112"/>
<polygon fill="grey" stroke="grey" stroke-width="2" points="252.693,-406.552 250.933,-396.104 245.793,-405.369 252.693,-406.552"/>
</g>
<!-- 12&#45;&gt;22 -->
<g id="edge42" class="edge"><title>12&#45;&gt;22</title>
<path fill="none" stroke="grey" stroke-width="2" d="M1129.82,-792.676C1057.26,-780.836 959.978,-764.963 890.056,-753.553"/>
<polygon fill="grey" stroke="grey" stroke-width="2" points="890.377,-750.06 879.944,-751.903 889.25,-756.968 890.377,-750.06"/>
</g>
<!-- 13&#45;&gt;16 -->
<g id="edge27" class="edge"><title>13&#45;&gt;16</title>
<path fill="none" stroke="grey" stroke-width="2" d="M581.012,-791.882C591.892,-758.732 620.456,-685.725 670.865,-648 709.883,-618.799 763.221,-605.581 806.378,-599.647"/>
<polygon fill="grey" stroke="grey" stroke-width="2" points="807.068,-603.087 816.548,-598.356 806.187,-596.143 807.068,-603.087"/>
</g>
<!-- 13&#45;&gt;17 -->
<g id="edge31" class="edge"><title>13&#45;&gt;17</title>
<path fill="none" stroke="grey" stroke-width="2" d="M576.509,-791.588C576.749,-759.214 572.634,-689.303 535.865,-648 518.442,-628.428 493.057,-616.058 468.612,-608.25"/>
<polygon fill="grey" stroke="grey" stroke-width="2" points="469.53,-604.872 458.948,-605.376 467.535,-611.581 469.53,-604.872"/>
</g>
<!-- 13&#45;&gt;18 -->
<g id="edge34" class="edge"><title>13&#45;&gt;18</title>
<path fill="none" stroke="grey" stroke-width="2" d="M539.171,-791.876C518.847,-782.392 493.394,-770.513 471.763,-760.419"/>
<polygon fill="grey" stroke="grey" stroke-width="2" points="472.982,-757.126 462.44,-756.068 470.022,-763.469 472.982,-757.126"/>
</g>
<!-- 13&#45;&gt;22 -->
<g id="edge43" class="edge"><title>13&#45;&gt;22</title>
<path fill="none" stroke="grey" stroke-width="2" d="M630.618,-791.966C662.466,-782.057 702.784,-769.514 736.19,-759.121"/>
<polygon fill="grey" stroke="grey" stroke-width="2" points="737.357,-762.424 745.866,-756.111 735.278,-755.74 737.357,-762.424"/>
</g>
<!-- 14&#45;&gt;3 -->
<g id="edge4" class="edge"><title>14&#45;&gt;3</title>
<path fill="none" stroke="grey" stroke-width="2" d="M798.07,-147.337C821.728,-137.3 854.309,-123.478 881.278,-112.037"/>
<polygon fill="grey" stroke="grey" stroke-width="2" points="882.72,-115.227 890.559,-108.099 879.986,-108.783 882.72,-115.227"/>
</g>
<!-- 15&#45;&gt;7 -->
<g id="edge13" class="edge"><title>15&#45;&gt;7</title>
<path fill="none" stroke="grey" stroke-width="2" d="M343.417,-287.966C397.506,-277.677 466.535,-264.547 522.33,-253.933"/>
<polygon fill="grey" stroke="grey" stroke-width="2" points="523.061,-257.357 532.23,-252.05 521.752,-250.48 523.061,-257.357"/>
</g>
<!-- 16&#45;&gt;4 -->
<g id="edge9" class="edge"><title>16&#45;&gt;4</title>
<path fill="none" stroke="grey" stroke-width="2" d="M922.049,-575.998C937.071,-567.541 952.431,-555.705 960.865,-540 968.435,-525.904 969.942,-517.176 960.865,-504 951.25,-490.044 937.431,-479.76 922.195,-472.183"/>
<polygon fill="grey" stroke="grey" stroke-width="2" points="923.633,-468.992 913.082,-468.027 920.728,-475.361 923.633,-468.992"/>
</g>
<!-- 19 -->
<g id="node20" class="node"><title>19</title>
<path fill="none" stroke="#56b1d8" stroke-width="2" d="M939.865,-540C939.865,-540 699.865,-540 699.865,-540 693.865,-540 687.865,-534 687.865,-528 687.865,-528 687.865,-516 687.865,-516 687.865,-510 693.865,-504 699.865,-504 699.865,-504 939.865,-504 939.865,-504 945.865,-504 951.865,-510 951.865,-516 951.865,-516 951.865,-528 951.865,-528 951.865,-534 945.865,-540 939.865,-540"/>
<text text-anchor="middle" x="819.865" y="-525" font-family="sans" font-size="10.00">index_bam_file</text>
<text text-anchor="middle" x="819.865" y="-514" font-family="sans" font-size="10.00">any_bam: samples/S2/mapping/bwa/34528/filtered</text>
</g>
<!-- 16&#45;&gt;19 -->
<g id="edge35" class="edge"><title>16&#45;&gt;19</title>
<path fill="none" stroke="grey" stroke-width="2" d="M865.786,-575.697C858.473,-567.305 849.555,-557.07 841.53,-547.861"/>
<polygon fill="grey" stroke="grey" stroke-width="2" points="843.979,-545.344 834.77,-540.104 838.701,-549.943 843.979,-545.344"/>
</g>
<!-- 17&#45;&gt;11 -->
<g id="edge15" class="edge"><title>17&#45;&gt;11</title>
<path fill="none" stroke="grey" stroke-width="2" d="M330.841,-582.471C304.536,-574.932 276.041,-562.033 257.865,-540 243.769,-522.913 240.351,-497.626 240.122,-478.368"/>
<polygon fill="grey" stroke="grey" stroke-width="2" points="243.626,-478.163 240.287,-468.107 236.627,-478.05 243.626,-478.163"/>
</g>
<!-- 23 -->
<g id="node24" class="node"><title>23</title>
<path fill="none" stroke="#56b1d8" stroke-width="2" d="M518.865,-540C518.865,-540 278.865,-540 278.865,-540 272.865,-540 266.865,-534 266.865,-528 266.865,-528 266.865,-516 266.865,-516 266.865,-510 272.865,-504 278.865,-504 278.865,-504 518.865,-504 518.865,-504 524.865,-504 530.865,-510 530.865,-516 530.865,-516 530.865,-528 530.865,-528 530.865,-534 524.865,-540 518.865,-540"/>
<text text-anchor="middle" x="398.865" y="-525" font-family="sans" font-size="10.00">index_bam_file</text>
<text text-anchor="middle" x="398.865" y="-514" font-family="sans" font-size="10.00">any_bam: samples/S1/mapping/bwa/34528/filtered</text>
</g>
<!-- 17&#45;&gt;23 -->
<g id="edge44" class="edge"><title>17&#45;&gt;23</title>
<path fill="none" stroke="grey" stroke-width="2" d="M395.854,-575.697C396.294,-567.983 396.824,-558.712 397.316,-550.112"/>
<polygon fill="grey" stroke="grey" stroke-width="2" points="400.811,-550.288 397.887,-540.104 393.823,-549.888 400.811,-550.288"/>
</g>
<!-- 18&#45;&gt;9 -->
<g id="edge14" class="edge"><title>18&#45;&gt;9</title>
<path fill="none" stroke="grey" stroke-width="2" d="M416.719,-719.697C412.462,-711.644 407.309,-701.894 402.598,-692.982"/>
<polygon fill="grey" stroke="grey" stroke-width="2" points="405.673,-691.31 397.906,-684.104 399.485,-694.581 405.673,-691.31"/>
</g>
<!-- 18&#45;&gt;17 -->
<g id="edge30" class="edge"><title>18&#45;&gt;17</title>
<path fill="none" stroke="grey" stroke-width="2" d="M475.958,-719.967C492.263,-711.768 508.549,-700.119 517.865,-684 525.871,-670.147 526.66,-661.366 517.865,-648 506.387,-630.556 487.825,-618.828 468.563,-610.953"/>
<polygon fill="grey" stroke="grey" stroke-width="2" points="469.67,-607.631 459.078,-607.389 467.207,-614.183 469.67,-607.631"/>
</g>
<!-- 19&#45;&gt;4 -->
<g id="edge8" class="edge"><title>19&#45;&gt;4</title>
<path fill="none" stroke="grey" stroke-width="2" d="M820.359,-503.697C820.58,-495.983 820.845,-486.712 821.09,-478.112"/>
<polygon fill="grey" stroke="grey" stroke-width="2" points="824.589,-478.2 821.376,-468.104 817.592,-478 824.589,-478.2"/>
</g>
<!-- 20&#45;&gt;0 -->
<g id="edge1" class="edge"><title>20&#45;&gt;0</title>
<path fill="none" stroke="grey" stroke-width="2" d="M848.179,-287.697C856.172,-279.22 865.936,-268.864 874.687,-259.583"/>
<polygon fill="grey" stroke="grey" stroke-width="2" points="877.424,-261.781 881.738,-252.104 872.331,-256.979 877.424,-261.781"/>
</g>
<!-- 21&#45;&gt;20 -->
<g id="edge36" class="edge"><title>21&#45;&gt;20</title>
<path fill="none" stroke="grey" stroke-width="2" d="M831.865,-359.697C831.865,-351.983 831.865,-342.712 831.865,-334.112"/>
<polygon fill="grey" stroke="grey" stroke-width="2" points="835.365,-334.104 831.865,-324.104 828.365,-334.104 835.365,-334.104"/>
</g>
<!-- 22&#45;&gt;5 -->
<g id="edge10" class="edge"><title>22&#45;&gt;5</title>
<path fill="none" stroke="grey" stroke-width="2" d="M800.865,-719.697C800.865,-711.983 800.865,-702.712 800.865,-694.112"/>
<polygon fill="grey" stroke="grey" stroke-width="2" points="804.365,-694.104 800.865,-684.104 797.365,-694.104 804.365,-694.104"/>
</g>
<!-- 22&#45;&gt;16 -->
<g id="edge24" class="edge"><title>22&#45;&gt;16</title>
<path fill="none" stroke="grey" stroke-width="2" d="M879.962,-721.08C899.481,-713.224 918.137,-701.498 929.865,-684 943.871,-663.103 927.062,-637.866 909.426,-619.611"/>
<polygon fill="grey" stroke="grey" stroke-width="2" points="911.498,-616.742 901.904,-612.247 906.602,-621.744 911.498,-616.742"/>
</g>
<!-- 23&#45;&gt;11 -->
<g id="edge16" class="edge"><title>23&#45;&gt;11</title>
<path fill="none" stroke="grey" stroke-width="2" d="M360.458,-503.876C338.996,-494.307 312.067,-482.3 289.296,-472.148"/>
<polygon fill="grey" stroke="grey" stroke-width="2" points="290.705,-468.944 280.147,-468.068 287.855,-475.337 290.705,-468.944"/>
</g>
<!-- 24&#45;&gt;3 -->
<g id="edge6" class="edge"><title>24&#45;&gt;3</title>
<path fill="none" stroke="grey" stroke-width="2" d="M893.224,-143.697C899.098,-135.474 906.234,-125.483 912.707,-116.421"/>
<polygon fill="grey" stroke="grey" stroke-width="2" points="915.683,-118.276 918.648,-108.104 909.987,-114.207 915.683,-118.276"/>
</g>
<!-- 25&#45;&gt;15 -->
<g id="edge23" class="edge"><title>25&#45;&gt;15</title>
<path fill="none" stroke="grey" stroke-width="2" d="M253.865,-359.697C253.865,-351.983 253.865,-342.712 253.865,-334.112"/>
<polygon fill="grey" stroke="grey" stroke-width="2" points="257.365,-334.104 253.865,-324.104 250.365,-334.104 257.365,-334.104"/>
</g>
<!-- 26&#45;&gt;18 -->
<g id="edge33" class="edge"><title>26&#45;&gt;18</title>
<path fill="none" stroke="grey" stroke-width="2" d="M202.653,-791.966C245.384,-781.826 299.746,-768.927 344.123,-758.396"/>
<polygon fill="grey" stroke="grey" stroke-width="2" points="345.089,-761.764 354.011,-756.05 343.473,-754.953 345.089,-761.764"/>
</g>
</g>
</svg>
