<?xml version="1.0" encoding="UTF-8" standalone="no"?>
<!DOCTYPE svg PUBLIC "-//W3C//DTD SVG 1.1//EN"
 "http://www.w3.org/Graphics/SVG/1.1/DTD/svg11.dtd">
<!-- Generated by graphviz version 2.38.0 (20140413.2041)
 -->
<!-- Title: snakemake_dag Pages: 1 -->
<svg width="885pt" height="1052pt"
 viewBox="0.00 0.00 885.00 1052.00" xmlns="http://www.w3.org/2000/svg" xmlns:xlink="http://www.w3.org/1999/xlink">
<g id="graph0" class="graph" transform="scale(1 1) rotate(0) translate(4 1048)">
<title>snakemake_dag</title>
<polygon fill="white" stroke="none" points="-4,4 -4,-1048 881,-1048 881,4 -4,4"/>
<!-- 0 -->
<g id="node1" class="node"><title>0</title>
<path fill="none" stroke="#d85e56" stroke-width="2" d="M714,-1044C714,-1044 580,-1044 580,-1044 574,-1044 568,-1038 568,-1032 568,-1032 568,-1020 568,-1020 568,-1014 574,-1008 580,-1008 580,-1008 714,-1008 714,-1008 720,-1008 726,-1014 726,-1020 726,-1020 726,-1032 726,-1032 726,-1038 720,-1044 714,-1044"/>
<text text-anchor="middle" x="647" y="-1029" font-family="sans" font-size="10.00">copy_fastq_paired_from_link</text>
<text text-anchor="middle" x="647" y="-1018" font-family="sans" font-size="10.00">sample: S1</text>
</g>
<!-- 10 -->
<g id="node11" class="node"><title>10</title>
<path fill="none" stroke="#70d856" stroke-width="2" d="M735,-972C735,-972 559,-972 559,-972 553,-972 547,-966 547,-960 547,-960 547,-948 547,-948 547,-942 553,-936 559,-936 559,-936 735,-936 735,-936 741,-936 747,-942 747,-948 747,-948 747,-960 747,-960 747,-966 741,-972 735,-972"/>
<text text-anchor="middle" x="647" y="-951.5" font-family="sans" font-size="10.00">trim_paired_reads_with_trimmomatic</text>
</g>
<!-- 0&#45;&gt;10 -->
<g id="edge13" class="edge"><title>0&#45;&gt;10</title>
<path fill="none" stroke="grey" stroke-width="2" d="M647,-1007.7C647,-999.983 647,-990.712 647,-982.112"/>
<polygon fill="grey" stroke="grey" stroke-width="2" points="650.5,-982.104 647,-972.104 643.5,-982.104 650.5,-982.104"/>
</g>
<!-- 1 -->
<g id="node2" class="node"><title>1</title>
<path fill="none" stroke="#56d892" stroke-width="2" d="M506.5,-828C506.5,-828 287.5,-828 287.5,-828 281.5,-828 275.5,-822 275.5,-816 275.5,-816 275.5,-804 275.5,-804 275.5,-798 281.5,-792 287.5,-792 287.5,-792 506.5,-792 506.5,-792 512.5,-792 518.5,-798 518.5,-804 518.5,-804 518.5,-816 518.5,-816 518.5,-822 512.5,-828 506.5,-828"/>
<text text-anchor="middle" x="397" y="-807.5" font-family="sans" font-size="10.00">assemble_genome_paired_reads_with_spades</text>
</g>
<!-- 7 -->
<g id="node8" class="node"><title>7</title>
<path fill="none" stroke="#56d0d8" stroke-width="2" d="M493,-756C493,-756 301,-756 301,-756 295,-756 289,-750 289,-744 289,-744 289,-732 289,-732 289,-726 295,-720 301,-720 301,-720 493,-720 493,-720 499,-720 505,-726 505,-732 505,-732 505,-744 505,-744 505,-750 499,-756 493,-756"/>
<text text-anchor="middle" x="397" y="-735.5" font-family="sans" font-size="10.00">copy_raw_assembly_to_reference_folder</text>
</g>
<!-- 1&#45;&gt;7 -->
<g id="edge7" class="edge"><title>1&#45;&gt;7</title>
<path fill="none" stroke="grey" stroke-width="2" d="M397,-791.697C397,-783.983 397,-774.712 397,-766.112"/>
<polygon fill="grey" stroke="grey" stroke-width="2" points="400.5,-766.104 397,-756.104 393.5,-766.104 400.5,-766.104"/>
</g>
<!-- 13 -->
<g id="node14" class="node"><title>13</title>
<path fill="none" stroke="#d8bc56" stroke-width="2" d="M178,-684C178,-684 12,-684 12,-684 6,-684 0,-678 0,-672 0,-672 0,-660 0,-660 0,-654 6,-648 12,-648 12,-648 178,-648 178,-648 184,-648 190,-654 190,-660 190,-660 190,-672 190,-672 190,-678 184,-684 178,-684"/>
<text text-anchor="middle" x="95" y="-663.5" font-family="sans" font-size="10.00">extract_contigs_longer_than_500bp</text>
</g>
<!-- 1&#45;&gt;13 -->
<g id="edge17" class="edge"><title>1&#45;&gt;13</title>
<path fill="none" stroke="grey" stroke-width="2" d="M358.695,-791.916C335.798,-781.637 306.166,-768.218 280,-756 231.622,-733.409 176.514,-706.781 139.118,-688.577"/>
<polygon fill="grey" stroke="grey" stroke-width="2" points="140.53,-685.372 130.007,-684.138 137.464,-691.664 140.53,-685.372"/>
</g>
<!-- 2 -->
<g id="node3" class="node"><title>2</title>
<path fill="none" stroke="#88d856" stroke-width="2" d="M525.5,-684C525.5,-684 220.5,-684 220.5,-684 214.5,-684 208.5,-678 208.5,-672 208.5,-672 208.5,-660 208.5,-660 208.5,-654 214.5,-648 220.5,-648 220.5,-648 525.5,-648 525.5,-648 531.5,-648 537.5,-654 537.5,-660 537.5,-660 537.5,-672 537.5,-672 537.5,-678 531.5,-684 525.5,-684"/>
<text text-anchor="middle" x="373" y="-669" font-family="sans" font-size="10.00">index_reference_fasta</text>
<text text-anchor="middle" x="373" y="-658" font-family="sans" font-size="10.00">any_genome: references/S1_assembled_genome/genome_fasta</text>
</g>
<!-- 8 -->
<g id="node9" class="node"><title>8</title>
<path fill="none" stroke="#d87d56" stroke-width="2" d="M632,-612C632,-612 498,-612 498,-612 492,-612 486,-606 486,-600 486,-600 486,-588 486,-588 486,-582 492,-576 498,-576 498,-576 632,-576 632,-576 638,-576 644,-582 644,-588 644,-588 644,-600 644,-600 644,-606 638,-612 632,-612"/>
<text text-anchor="middle" x="565" y="-597" font-family="sans" font-size="10.00">map_paired_reads_with_bwa</text>
<text text-anchor="middle" x="565" y="-586" font-family="sans" font-size="10.00">ref: S1_assembled_genome</text>
</g>
<!-- 2&#45;&gt;8 -->
<g id="edge9" class="edge"><title>2&#45;&gt;8</title>
<path fill="none" stroke="grey" stroke-width="2" d="M419.968,-647.876C446.683,-638.137 480.321,-625.872 508.475,-615.608"/>
<polygon fill="grey" stroke="grey" stroke-width="2" points="509.988,-618.782 518.184,-612.068 507.59,-612.205 509.988,-618.782"/>
</g>
<!-- 3 -->
<g id="node4" class="node"><title>3</title>
<path fill="none" stroke="#56d85b" stroke-width="2" d="M699.5,-180C699.5,-180 502.5,-180 502.5,-180 496.5,-180 490.5,-174 490.5,-168 490.5,-168 490.5,-156 490.5,-156 490.5,-150 496.5,-144 502.5,-144 502.5,-144 699.5,-144 699.5,-144 705.5,-144 711.5,-150 711.5,-156 711.5,-156 711.5,-168 711.5,-168 711.5,-174 705.5,-180 699.5,-180"/>
<text text-anchor="middle" x="601" y="-159.5" font-family="sans" font-size="10.00">calculate_assembly_statistics_with_quast</text>
</g>
<!-- 12 -->
<g id="node13" class="node"><title>12</title>
<path fill="none" stroke="#9fd856" stroke-width="2" d="M674,-108C674,-108 528,-108 528,-108 522,-108 516,-102 516,-96 516,-96 516,-84 516,-84 516,-78 522,-72 528,-72 528,-72 674,-72 674,-72 680,-72 686,-78 686,-84 686,-84 686,-96 686,-96 686,-102 680,-108 674,-108"/>
<text text-anchor="middle" x="601" y="-87.5" font-family="sans" font-size="10.00">copy_result_files_for_assembly</text>
</g>
<!-- 3&#45;&gt;12 -->
<g id="edge16" class="edge"><title>3&#45;&gt;12</title>
<path fill="none" stroke="grey" stroke-width="2" d="M601,-143.697C601,-135.983 601,-126.712 601,-118.112"/>
<polygon fill="grey" stroke="grey" stroke-width="2" points="604.5,-118.104 601,-108.104 597.5,-118.104 604.5,-118.104"/>
</g>
<!-- 4 -->
<g id="node5" class="node"><title>4</title>
<path fill="none" stroke="#d88556" stroke-width="2" d="M257.5,-540C257.5,-540 186.5,-540 186.5,-540 180.5,-540 174.5,-534 174.5,-528 174.5,-528 174.5,-516 174.5,-516 174.5,-510 180.5,-504 186.5,-504 186.5,-504 257.5,-504 257.5,-504 263.5,-504 269.5,-510 269.5,-516 269.5,-516 269.5,-528 269.5,-528 269.5,-534 263.5,-540 257.5,-540"/>
<text text-anchor="middle" x="222" y="-519.5" font-family="sans" font-size="10.00">rename_contigs</text>
</g>
<!-- 19 -->
<g id="node20" class="node"><title>19</title>
<path fill="none" stroke="#56d8b9" stroke-width="2" d="M535,-324C535,-324 411,-324 411,-324 405,-324 399,-318 399,-312 399,-312 399,-300 399,-300 399,-294 405,-288 411,-288 411,-288 535,-288 535,-288 541,-288 547,-294 547,-300 547,-300 547,-312 547,-312 547,-318 541,-324 535,-324"/>
<text text-anchor="middle" x="473" y="-303.5" font-family="sans" font-size="10.00">filter_contigs_on_coverage</text>
</g>
<!-- 4&#45;&gt;19 -->
<g id="edge27" class="edge"><title>4&#45;&gt;19</title>
<path fill="none" stroke="grey" stroke-width="2" d="M242.116,-503.849C286.727,-465.814 394.035,-374.325 445.095,-330.792"/>
<polygon fill="grey" stroke="grey" stroke-width="2" points="447.449,-333.384 452.788,-324.232 442.908,-328.057 447.449,-333.384"/>
</g>
<!-- 5 -->
<g id="node6" class="node"><title>5</title>
<path fill="none" stroke="#5673d8" stroke-width="2" d="M515.5,-900C515.5,-900 326.5,-900 326.5,-900 320.5,-900 314.5,-894 314.5,-888 314.5,-888 314.5,-876 314.5,-876 314.5,-870 320.5,-864 326.5,-864 326.5,-864 515.5,-864 515.5,-864 521.5,-864 527.5,-870 527.5,-876 527.5,-876 527.5,-888 527.5,-888 527.5,-894 521.5,-900 515.5,-900"/>
<text text-anchor="middle" x="421" y="-879.5" font-family="sans" font-size="10.00">correct_error_paired_reads_with_spades</text>
</g>
<!-- 5&#45;&gt;1 -->
<g id="edge1" class="edge"><title>5&#45;&gt;1</title>
<path fill="none" stroke="grey" stroke-width="2" d="M415.067,-863.697C412.394,-855.898 409.174,-846.509 406.199,-837.829"/>
<polygon fill="grey" stroke="grey" stroke-width="2" points="409.418,-836.429 402.864,-828.104 402.797,-838.699 409.418,-836.429"/>
</g>
<!-- 6 -->
<g id="node7" class="node"><title>6</title>
<path fill="none" stroke="#56b9d8" stroke-width="2" d="M785,-612C785,-612 695,-612 695,-612 689,-612 683,-606 683,-600 683,-600 683,-588 683,-588 683,-582 689,-576 695,-576 695,-576 785,-576 785,-576 791,-576 797,-582 797,-588 797,-588 797,-600 797,-600 797,-606 791,-612 785,-612"/>
<text text-anchor="middle" x="740" y="-591.5" font-family="sans" font-size="10.00">unzip_fastqc_paired</text>
</g>
<!-- 17 -->
<g id="node18" class="node"><title>17</title>
<path fill="none" stroke="#d89556" stroke-width="2" d="M819.5,-396C819.5,-396 660.5,-396 660.5,-396 654.5,-396 648.5,-390 648.5,-384 648.5,-384 648.5,-372 648.5,-372 648.5,-366 654.5,-360 660.5,-360 660.5,-360 819.5,-360 819.5,-360 825.5,-360 831.5,-366 831.5,-372 831.5,-372 831.5,-384 831.5,-384 831.5,-390 825.5,-396 819.5,-396"/>
<text text-anchor="middle" x="740" y="-375.5" font-family="sans" font-size="10.00">copy_result_files_mapping_paired</text>
</g>
<!-- 6&#45;&gt;17 -->
<g id="edge24" class="edge"><title>6&#45;&gt;17</title>
<path fill="none" stroke="grey" stroke-width="2" d="M740,-575.849C740,-538.832 740,-451.181 740,-406.386"/>
<polygon fill="grey" stroke="grey" stroke-width="2" points="743.5,-406.232 740,-396.232 736.5,-406.232 743.5,-406.232"/>
</g>
<!-- 7&#45;&gt;2 -->
<g id="edge2" class="edge"><title>7&#45;&gt;2</title>
<path fill="none" stroke="grey" stroke-width="2" d="M391.067,-719.697C388.394,-711.898 385.174,-702.509 382.199,-693.829"/>
<polygon fill="grey" stroke="grey" stroke-width="2" points="385.418,-692.429 378.864,-684.104 378.797,-694.699 385.418,-692.429"/>
</g>
<!-- 7&#45;&gt;8 -->
<g id="edge10" class="edge"><title>7&#45;&gt;8</title>
<path fill="none" stroke="grey" stroke-width="2" d="M490.526,-719.86C511.292,-712.03 531.432,-700.621 546,-684 560.762,-667.158 565.002,-641.68 565.846,-622.294"/>
<polygon fill="grey" stroke="grey" stroke-width="2" points="569.346,-622.3 566.01,-612.244 562.347,-622.185 569.346,-622.3"/>
</g>
<!-- 9 -->
<g id="node10" class="node"><title>9</title>
<path fill="none" stroke="#d85656" stroke-width="2" d="M667.5,-468C667.5,-468 516.5,-468 516.5,-468 510.5,-468 504.5,-462 504.5,-456 504.5,-456 504.5,-444 504.5,-444 504.5,-438 510.5,-432 516.5,-432 516.5,-432 667.5,-432 667.5,-432 673.5,-432 679.5,-438 679.5,-444 679.5,-444 679.5,-456 679.5,-456 679.5,-462 673.5,-468 667.5,-468"/>
<text text-anchor="middle" x="592" y="-447.5" font-family="sans" font-size="10.00">assess_mapping_with_qualimap</text>
</g>
<!-- 8&#45;&gt;9 -->
<g id="edge11" class="edge"><title>8&#45;&gt;9</title>
<path fill="none" stroke="grey" stroke-width="2" d="M615.093,-575.967C631.398,-567.768 647.684,-556.119 657,-540 665.007,-526.147 663.864,-518.453 657,-504 651.431,-492.273 641.856,-482.285 631.741,-474.248"/>
<polygon fill="grey" stroke="grey" stroke-width="2" points="633.704,-471.347 623.58,-468.224 629.547,-476.979 633.704,-471.347"/>
</g>
<!-- 18 -->
<g id="node19" class="node"><title>18</title>
<path fill="none" stroke="#56d8a9" stroke-width="2" d="M636.5,-540C636.5,-540 349.5,-540 349.5,-540 343.5,-540 337.5,-534 337.5,-528 337.5,-528 337.5,-516 337.5,-516 337.5,-510 343.5,-504 349.5,-504 349.5,-504 636.5,-504 636.5,-504 642.5,-504 648.5,-510 648.5,-516 648.5,-516 648.5,-528 648.5,-528 648.5,-534 642.5,-540 636.5,-540"/>
<text text-anchor="middle" x="493" y="-525" font-family="sans" font-size="10.00">index_bam_file</text>
<text text-anchor="middle" x="493" y="-514" font-family="sans" font-size="10.00">any_bam: samples/S1/mapping/bwa/S1_assembled_genome</text>
</g>
<!-- 8&#45;&gt;18 -->
<g id="edge25" class="edge"><title>8&#45;&gt;18</title>
<path fill="none" stroke="grey" stroke-width="2" d="M547.202,-575.697C538.396,-567.135 527.618,-556.656 517.999,-547.304"/>
<polygon fill="grey" stroke="grey" stroke-width="2" points="520.203,-544.566 510.593,-540.104 515.323,-549.585 520.203,-544.566"/>
</g>
<!-- 14 -->
<g id="node15" class="node"><title>14</title>
<path fill="none" stroke="#d8ac56" stroke-width="2" d="M617.5,-396C617.5,-396 504.5,-396 504.5,-396 498.5,-396 492.5,-390 492.5,-384 492.5,-384 492.5,-372 492.5,-372 492.5,-366 498.5,-360 504.5,-360 504.5,-360 617.5,-360 617.5,-360 623.5,-360 629.5,-366 629.5,-372 629.5,-372 629.5,-384 629.5,-384 629.5,-390 623.5,-396 617.5,-396"/>
<text text-anchor="middle" x="561" y="-375.5" font-family="sans" font-size="10.00">extract_contig_coverage</text>
</g>
<!-- 9&#45;&gt;14 -->
<g id="edge18" class="edge"><title>9&#45;&gt;14</title>
<path fill="none" stroke="grey" stroke-width="2" d="M584.337,-431.697C580.808,-423.728 576.544,-414.1 572.631,-405.264"/>
<polygon fill="grey" stroke="grey" stroke-width="2" points="575.824,-403.831 568.575,-396.104 569.424,-406.665 575.824,-403.831"/>
</g>
<!-- 9&#45;&gt;17 -->
<g id="edge22" class="edge"><title>9&#45;&gt;17</title>
<path fill="none" stroke="grey" stroke-width="2" d="M628.205,-431.876C648.258,-422.392 673.372,-410.513 694.714,-400.419"/>
<polygon fill="grey" stroke="grey" stroke-width="2" points="696.369,-403.508 703.913,-396.068 693.376,-397.18 696.369,-403.508"/>
</g>
<!-- 10&#45;&gt;5 -->
<g id="edge5" class="edge"><title>10&#45;&gt;5</title>
<path fill="none" stroke="grey" stroke-width="2" d="M592.003,-935.966C560.014,-926.057 519.516,-913.514 485.962,-903.121"/>
<polygon fill="grey" stroke="grey" stroke-width="2" points="486.831,-899.726 476.243,-900.111 484.76,-906.413 486.831,-899.726"/>
</g>
<!-- 10&#45;&gt;8 -->
<g id="edge8" class="edge"><title>10&#45;&gt;8</title>
<path fill="none" stroke="grey" stroke-width="2" d="M637.883,-935.606C624.995,-909.357 603,-857.715 603,-811 603,-811 603,-811 603,-737 603,-695.633 587.765,-649.722 576.588,-621.605"/>
<polygon fill="grey" stroke="grey" stroke-width="2" points="579.721,-620.019 572.69,-612.093 573.244,-622.673 579.721,-620.019"/>
</g>
<!-- 15 -->
<g id="node16" class="node"><title>15</title>
<path fill="none" stroke="#56d8d8" stroke-width="2" d="M837,-828C837,-828 643,-828 643,-828 637,-828 631,-822 631,-816 631,-816 631,-804 631,-804 631,-798 637,-792 643,-792 643,-792 837,-792 837,-792 843,-792 849,-798 849,-804 849,-804 849,-816 849,-816 849,-822 843,-828 837,-828"/>
<text text-anchor="middle" x="740" y="-807.5" font-family="sans" font-size="10.00">assess_quality_paired_reads_with_fastqc</text>
</g>
<!-- 10&#45;&gt;15 -->
<g id="edge19" class="edge"><title>10&#45;&gt;15</title>
<path fill="none" stroke="grey" stroke-width="2" d="M658.218,-935.871C674.347,-911.244 704.216,-865.638 723.047,-836.885"/>
<polygon fill="grey" stroke="grey" stroke-width="2" points="726.191,-838.472 728.742,-828.189 720.335,-834.637 726.191,-838.472"/>
</g>
<!-- 10&#45;&gt;17 -->
<g id="edge23" class="edge"><title>10&#45;&gt;17</title>
<path fill="none" stroke="grey" stroke-width="2" d="M733.953,-935.962C799.085,-917.555 877,-880.922 877,-811 877,-811 877,-811 877,-521 877,-466.541 824.167,-424.959 784.119,-401.262"/>
<polygon fill="grey" stroke="grey" stroke-width="2" points="785.697,-398.132 775.281,-396.195 782.215,-404.205 785.697,-398.132"/>
</g>
<!-- 11 -->
<g id="node12" class="node"><title>11</title>
<path fill="none" stroke="#56d85b" stroke-width="2" d="M523.5,-252C523.5,-252 422.5,-252 422.5,-252 416.5,-252 410.5,-246 410.5,-240 410.5,-240 410.5,-228 410.5,-228 410.5,-222 416.5,-216 422.5,-216 422.5,-216 523.5,-216 523.5,-216 529.5,-216 535.5,-222 535.5,-228 535.5,-228 535.5,-240 535.5,-240 535.5,-246 529.5,-252 523.5,-252"/>
<text text-anchor="middle" x="473" y="-231.5" font-family="sans" font-size="10.00">annotate_with_prokka</text>
</g>
<!-- 11&#45;&gt;3 -->
<g id="edge3" class="edge"><title>11&#45;&gt;3</title>
<path fill="none" stroke="grey" stroke-width="2" d="M504.312,-215.876C521.203,-206.639 542.247,-195.131 560.385,-185.212"/>
<polygon fill="grey" stroke="grey" stroke-width="2" points="562.473,-188.059 569.567,-180.19 559.114,-181.917 562.473,-188.059"/>
</g>
<!-- 11&#45;&gt;12 -->
<g id="edge15" class="edge"><title>11&#45;&gt;12</title>
<path fill="none" stroke="grey" stroke-width="2" d="M469.753,-215.842C467.096,-196.512 465.899,-165.052 481,-144 490.932,-130.155 505.308,-119.875 520.682,-112.26"/>
<polygon fill="grey" stroke="grey" stroke-width="2" points="522.186,-115.42 529.823,-108.077 519.274,-109.055 522.186,-115.42"/>
</g>
<!-- 16 -->
<g id="node17" class="node"><title>16</title>
<path fill="none" stroke="#56d8c9" stroke-width="2" d="M755.5,-36C755.5,-36 584.5,-36 584.5,-36 578.5,-36 572.5,-30 572.5,-24 572.5,-24 572.5,-12 572.5,-12 572.5,-6 578.5,-0 584.5,-0 584.5,-0 755.5,-0 755.5,-0 761.5,-0 767.5,-6 767.5,-12 767.5,-12 767.5,-24 767.5,-24 767.5,-30 761.5,-36 755.5,-36"/>
<text text-anchor="middle" x="670" y="-15.5" font-family="sans" font-size="10.00">create_multiqc_report_for_assembly</text>
</g>
<!-- 12&#45;&gt;16 -->
<g id="edge20" class="edge"><title>12&#45;&gt;16</title>
<path fill="none" stroke="grey" stroke-width="2" d="M618.056,-71.6966C626.495,-63.135 636.825,-52.6562 646.043,-43.3045"/>
<polygon fill="grey" stroke="grey" stroke-width="2" points="648.613,-45.6831 653.14,-36.1043 643.627,-40.7691 648.613,-45.6831"/>
</g>
<!-- 13&#45;&gt;4 -->
<g id="edge4" class="edge"><title>13&#45;&gt;4</title>
<path fill="none" stroke="grey" stroke-width="2" d="M110.319,-647.871C132.631,-622.924 174.197,-576.45 199.844,-547.773"/>
<polygon fill="grey" stroke="grey" stroke-width="2" points="202.569,-549.976 206.627,-540.189 197.351,-545.31 202.569,-549.976"/>
</g>
<!-- 14&#45;&gt;19 -->
<g id="edge26" class="edge"><title>14&#45;&gt;19</title>
<path fill="none" stroke="grey" stroke-width="2" d="M539.247,-359.697C528.164,-350.881 514.526,-340.032 502.51,-330.474"/>
<polygon fill="grey" stroke="grey" stroke-width="2" points="504.507,-327.59 494.503,-324.104 500.15,-333.069 504.507,-327.59"/>
</g>
<!-- 15&#45;&gt;6 -->
<g id="edge6" class="edge"><title>15&#45;&gt;6</title>
<path fill="none" stroke="grey" stroke-width="2" d="M740,-791.849C740,-754.832 740,-667.181 740,-622.386"/>
<polygon fill="grey" stroke="grey" stroke-width="2" points="743.5,-622.232 740,-612.232 736.5,-622.232 743.5,-622.232"/>
</g>
<!-- 17&#45;&gt;16 -->
<g id="edge21" class="edge"><title>17&#45;&gt;16</title>
<path fill="none" stroke="grey" stroke-width="2" d="M740,-359.951C740,-333.292 740,-280.115 740,-235 740,-235 740,-235 740,-161 740,-116.358 711.822,-71.2022 691.222,-44.1551"/>
<polygon fill="grey" stroke="grey" stroke-width="2" points="693.774,-41.7373 684.845,-36.0335 688.268,-46.0602 693.774,-41.7373"/>
</g>
<!-- 18&#45;&gt;9 -->
<g id="edge12" class="edge"><title>18&#45;&gt;9</title>
<path fill="none" stroke="grey" stroke-width="2" d="M517.218,-503.876C529.923,-494.893 545.664,-483.763 559.423,-474.034"/>
<polygon fill="grey" stroke="grey" stroke-width="2" points="561.544,-476.821 567.689,-468.19 557.503,-471.105 561.544,-476.821"/>
</g>
<!-- 19&#45;&gt;11 -->
<g id="edge14" class="edge"><title>19&#45;&gt;11</title>
<path fill="none" stroke="grey" stroke-width="2" d="M473,-287.697C473,-279.983 473,-270.712 473,-262.112"/>
<polygon fill="grey" stroke="grey" stroke-width="2" points="476.5,-262.104 473,-252.104 469.5,-262.104 476.5,-262.104"/>
</g>
</g>
</svg>
