<?xml version="1.0" encoding="UTF-8" standalone="no"?>
<!DOCTYPE svg PUBLIC "-//W3C//DTD SVG 1.1//EN"
 "http://www.w3.org/Graphics/SVG/1.1/DTD/svg11.dtd">
<!-- Generated by graphviz version 2.38.0 (20140413.2041)
 -->
<!-- Title: snakemake_dag Pages: 1 -->
<svg width="917pt" height="1196pt"
 viewBox="0.00 0.00 916.50 1196.00" xmlns="http://www.w3.org/2000/svg" xmlns:xlink="http://www.w3.org/1999/xlink">
<g id="graph0" class="graph" transform="scale(1 1) rotate(0) translate(4 1192)">
<title>snakemake_dag</title>
<polygon fill="white" stroke="none" points="-4,4 -4,-1192 912.5,-1192 912.5,4 -4,4"/>
<!-- 0 -->
<g id="node1" class="node"><title>0</title>
<path fill="none" stroke="#c6d856" stroke-width="2" d="M734,-1044C734,-1044 545,-1044 545,-1044 539,-1044 533,-1038 533,-1032 533,-1032 533,-1020 533,-1020 533,-1014 539,-1008 545,-1008 545,-1008 734,-1008 734,-1008 740,-1008 746,-1014 746,-1020 746,-1020 746,-1032 746,-1032 746,-1038 740,-1044 734,-1044"/>
<text text-anchor="middle" x="639.5" y="-1023.5" font-family="sans" font-size="10.00">correct_error_paired_reads_with_spades</text>
</g>
<!-- 9 -->
<g id="node10" class="node"><title>9</title>
<path fill="none" stroke="#56d8b9" stroke-width="2" d="M768,-972C768,-972 549,-972 549,-972 543,-972 537,-966 537,-960 537,-960 537,-948 537,-948 537,-942 543,-936 549,-936 549,-936 768,-936 768,-936 774,-936 780,-942 780,-948 780,-948 780,-960 780,-960 780,-966 774,-972 768,-972"/>
<text text-anchor="middle" x="658.5" y="-951.5" font-family="sans" font-size="10.00">assemble_genome_paired_reads_with_spades</text>
</g>
<!-- 0&#45;&gt;9 -->
<g id="edge13" class="edge"><title>0&#45;&gt;9</title>
<path fill="none" stroke="grey" stroke-width="2" d="M644.197,-1007.7C646.313,-999.898 648.862,-990.509 651.218,-981.829"/>
<polygon fill="grey" stroke="grey" stroke-width="2" points="654.616,-982.672 653.857,-972.104 647.86,-980.838 654.616,-982.672"/>
</g>
<!-- 1 -->
<g id="node2" class="node"><title>1</title>
<path fill="none" stroke="#56d8d0" stroke-width="2" d="M724,-396C724,-396 611,-396 611,-396 605,-396 599,-390 599,-384 599,-384 599,-372 599,-372 599,-366 605,-360 611,-360 611,-360 724,-360 724,-360 730,-360 736,-366 736,-372 736,-372 736,-384 736,-384 736,-390 730,-396 724,-396"/>
<text text-anchor="middle" x="667.5" y="-375.5" font-family="sans" font-size="10.00">extract_contig_coverage</text>
</g>
<!-- 17 -->
<g id="node18" class="node"><title>17</title>
<path fill="none" stroke="#afd856" stroke-width="2" d="M731.5,-324C731.5,-324 607.5,-324 607.5,-324 601.5,-324 595.5,-318 595.5,-312 595.5,-312 595.5,-300 595.5,-300 595.5,-294 601.5,-288 607.5,-288 607.5,-288 731.5,-288 731.5,-288 737.5,-288 743.5,-294 743.5,-300 743.5,-300 743.5,-312 743.5,-312 743.5,-318 737.5,-324 731.5,-324"/>
<text text-anchor="middle" x="669.5" y="-303.5" font-family="sans" font-size="10.00">filter_contigs_on_coverage</text>
</g>
<!-- 1&#45;&gt;17 -->
<g id="edge26" class="edge"><title>1&#45;&gt;17</title>
<path fill="none" stroke="grey" stroke-width="2" d="M667.994,-359.697C668.215,-351.983 668.48,-342.712 668.725,-334.112"/>
<polygon fill="grey" stroke="grey" stroke-width="2" points="672.224,-334.2 669.011,-324.104 665.227,-334 672.224,-334.2"/>
</g>
<!-- 2 -->
<g id="node3" class="node"><title>2</title>
<path fill="none" stroke="#70d856" stroke-width="2" d="M408.5,-972C408.5,-972 214.5,-972 214.5,-972 208.5,-972 202.5,-966 202.5,-960 202.5,-960 202.5,-948 202.5,-948 202.5,-942 208.5,-936 214.5,-936 214.5,-936 408.5,-936 408.5,-936 414.5,-936 420.5,-942 420.5,-948 420.5,-948 420.5,-960 420.5,-960 420.5,-966 414.5,-972 408.5,-972"/>
<text text-anchor="middle" x="311.5" y="-951.5" font-family="sans" font-size="10.00">assess_quality_paired_reads_with_fastqc</text>
</g>
<!-- 11 -->
<g id="node12" class="node"><title>11</title>
<path fill="none" stroke="#56d0d8" stroke-width="2" d="M382.5,-900C382.5,-900 292.5,-900 292.5,-900 286.5,-900 280.5,-894 280.5,-888 280.5,-888 280.5,-876 280.5,-876 280.5,-870 286.5,-864 292.5,-864 292.5,-864 382.5,-864 382.5,-864 388.5,-864 394.5,-870 394.5,-876 394.5,-876 394.5,-888 394.5,-888 394.5,-894 388.5,-900 382.5,-900"/>
<text text-anchor="middle" x="337.5" y="-879.5" font-family="sans" font-size="10.00">unzip_fastqc_paired</text>
</g>
<!-- 2&#45;&gt;11 -->
<g id="edge17" class="edge"><title>2&#45;&gt;11</title>
<path fill="none" stroke="grey" stroke-width="2" d="M317.927,-935.697C320.855,-927.813 324.387,-918.304 327.64,-909.546"/>
<polygon fill="grey" stroke="grey" stroke-width="2" points="330.946,-910.697 331.147,-900.104 324.384,-908.26 330.946,-910.697"/>
</g>
<!-- 3 -->
<g id="node4" class="node"><title>3</title>
<path fill="none" stroke="#56a9d8" stroke-width="2" d="M821.5,-756C821.5,-756 629.5,-756 629.5,-756 623.5,-756 617.5,-750 617.5,-744 617.5,-744 617.5,-732 617.5,-732 617.5,-726 623.5,-720 629.5,-720 629.5,-720 821.5,-720 821.5,-720 827.5,-720 833.5,-726 833.5,-732 833.5,-732 833.5,-744 833.5,-744 833.5,-750 827.5,-756 821.5,-756"/>
<text text-anchor="middle" x="725.5" y="-735.5" font-family="sans" font-size="10.00">copy_raw_assembly_to_reference_folder</text>
</g>
<!-- 12 -->
<g id="node13" class="node"><title>12</title>
<path fill="none" stroke="#d86e56" stroke-width="2" d="M745.5,-612C745.5,-612 611.5,-612 611.5,-612 605.5,-612 599.5,-606 599.5,-600 599.5,-600 599.5,-588 599.5,-588 599.5,-582 605.5,-576 611.5,-576 611.5,-576 745.5,-576 745.5,-576 751.5,-576 757.5,-582 757.5,-588 757.5,-588 757.5,-600 757.5,-600 757.5,-606 751.5,-612 745.5,-612"/>
<text text-anchor="middle" x="678.5" y="-597" font-family="sans" font-size="10.00">map_paired_reads_with_bwa</text>
<text text-anchor="middle" x="678.5" y="-586" font-family="sans" font-size="10.00">ref: S1_assembled_genome</text>
</g>
<!-- 3&#45;&gt;12 -->
<g id="edge20" class="edge"><title>3&#45;&gt;12</title>
<path fill="none" stroke="grey" stroke-width="2" d="M804.768,-719.862C823.113,-712.019 840.47,-700.605 851.5,-684 860.353,-670.672 861.013,-660.864 851.5,-648 831.95,-621.563 799.465,-607.885 767.891,-600.951"/>
<polygon fill="grey" stroke="grey" stroke-width="2" points="768.179,-597.44 757.689,-598.929 766.818,-604.307 768.179,-597.44"/>
</g>
<!-- 22 -->
<g id="node23" class="node"><title>22</title>
<path fill="none" stroke="#b6d856" stroke-width="2" d="M831,-684C831,-684 526,-684 526,-684 520,-684 514,-678 514,-672 514,-672 514,-660 514,-660 514,-654 520,-648 526,-648 526,-648 831,-648 831,-648 837,-648 843,-654 843,-660 843,-660 843,-672 843,-672 843,-678 837,-684 831,-684"/>
<text text-anchor="middle" x="678.5" y="-669" font-family="sans" font-size="10.00">index_reference_fasta</text>
<text text-anchor="middle" x="678.5" y="-658" font-family="sans" font-size="10.00">any_genome: references/S1_assembled_genome/genome_fasta</text>
</g>
<!-- 3&#45;&gt;22 -->
<g id="edge31" class="edge"><title>3&#45;&gt;22</title>
<path fill="none" stroke="grey" stroke-width="2" d="M713.882,-719.697C708.361,-711.474 701.653,-701.483 695.568,-692.421"/>
<polygon fill="grey" stroke="grey" stroke-width="2" points="698.465,-690.456 689.984,-684.104 692.653,-694.358 698.465,-690.456"/>
</g>
<!-- 4 -->
<g id="node5" class="node"><title>4</title>
<path fill="none" stroke="#d8bc56" stroke-width="2" d="M337,-1116C337,-1116 12,-1116 12,-1116 6,-1116 0,-1110 0,-1104 0,-1104 0,-1092 0,-1092 0,-1086 6,-1080 12,-1080 12,-1080 337,-1080 337,-1080 343,-1080 349,-1086 349,-1092 349,-1092 349,-1104 349,-1104 349,-1110 343,-1116 337,-1116"/>
<text text-anchor="middle" x="174.5" y="-1095.5" font-family="sans" font-size="10.00">calculate_distance_paired_reads_from_refseq_genomes_with_mash</text>
</g>
<!-- 14 -->
<g id="node15" class="node"><title>14</title>
<path fill="none" stroke="#d89556" stroke-width="2" d="M262.5,-1044C262.5,-1044 86.5,-1044 86.5,-1044 80.5,-1044 74.5,-1038 74.5,-1032 74.5,-1032 74.5,-1020 74.5,-1020 74.5,-1014 80.5,-1008 86.5,-1008 86.5,-1008 262.5,-1008 262.5,-1008 268.5,-1008 274.5,-1014 274.5,-1020 274.5,-1020 274.5,-1032 274.5,-1032 274.5,-1038 268.5,-1044 262.5,-1044"/>
<text text-anchor="middle" x="174.5" y="-1023.5" font-family="sans" font-size="10.00">format_distances_from_mash_results</text>
</g>
<!-- 4&#45;&gt;14 -->
<g id="edge22" class="edge"><title>4&#45;&gt;14</title>
<path fill="none" stroke="grey" stroke-width="2" d="M174.5,-1079.7C174.5,-1071.98 174.5,-1062.71 174.5,-1054.11"/>
<polygon fill="grey" stroke="grey" stroke-width="2" points="178,-1054.1 174.5,-1044.1 171,-1054.1 178,-1054.1"/>
</g>
<!-- 5 -->
<g id="node6" class="node"><title>5</title>
<path fill="none" stroke="#56d873" stroke-width="2" d="M514,-36C514,-36 343,-36 343,-36 337,-36 331,-30 331,-24 331,-24 331,-12 331,-12 331,-6 337,-0 343,-0 343,-0 514,-0 514,-0 520,-0 526,-6 526,-12 526,-12 526,-24 526,-24 526,-30 520,-36 514,-36"/>
<text text-anchor="middle" x="428.5" y="-15.5" font-family="sans" font-size="10.00">create_multiqc_report_for_assembly</text>
</g>
<!-- 6 -->
<g id="node7" class="node"><title>6</title>
<path fill="none" stroke="#5692d8" stroke-width="2" d="M761,-828C761,-828 690,-828 690,-828 684,-828 678,-822 678,-816 678,-816 678,-804 678,-804 678,-798 684,-792 690,-792 690,-792 761,-792 761,-792 767,-792 773,-798 773,-804 773,-804 773,-816 773,-816 773,-822 767,-828 761,-828"/>
<text text-anchor="middle" x="725.5" y="-807.5" font-family="sans" font-size="10.00">rename_contigs</text>
</g>
<!-- 6&#45;&gt;3 -->
<g id="edge4" class="edge"><title>6&#45;&gt;3</title>
<path fill="none" stroke="grey" stroke-width="2" d="M725.5,-791.697C725.5,-783.983 725.5,-774.712 725.5,-766.112"/>
<polygon fill="grey" stroke="grey" stroke-width="2" points="729,-766.104 725.5,-756.104 722,-766.104 729,-766.104"/>
</g>
<!-- 6&#45;&gt;17 -->
<g id="edge25" class="edge"><title>6&#45;&gt;17</title>
<path fill="none" stroke="grey" stroke-width="2" d="M773.103,-795.006C827.325,-775.787 908.5,-735.564 908.5,-667 908.5,-667 908.5,-667 908.5,-449 908.5,-374.937 822.624,-338.642 753.826,-321.449"/>
<polygon fill="grey" stroke="grey" stroke-width="2" points="754.351,-317.976 743.811,-319.049 752.72,-324.783 754.351,-317.976"/>
</g>
<!-- 7 -->
<g id="node8" class="node"><title>7</title>
<path fill="none" stroke="#56d8a2" stroke-width="2" d="M785.5,-900C785.5,-900 619.5,-900 619.5,-900 613.5,-900 607.5,-894 607.5,-888 607.5,-888 607.5,-876 607.5,-876 607.5,-870 613.5,-864 619.5,-864 619.5,-864 785.5,-864 785.5,-864 791.5,-864 797.5,-870 797.5,-876 797.5,-876 797.5,-888 797.5,-888 797.5,-894 791.5,-900 785.5,-900"/>
<text text-anchor="middle" x="702.5" y="-879.5" font-family="sans" font-size="10.00">extract_contigs_longer_than_500bp</text>
</g>
<!-- 7&#45;&gt;6 -->
<g id="edge9" class="edge"><title>7&#45;&gt;6</title>
<path fill="none" stroke="grey" stroke-width="2" d="M708.185,-863.697C710.748,-855.898 713.833,-846.509 716.685,-837.829"/>
<polygon fill="grey" stroke="grey" stroke-width="2" points="720.084,-838.697 719.88,-828.104 713.433,-836.512 720.084,-838.697"/>
</g>
<!-- 8 -->
<g id="node9" class="node"><title>8</title>
<path fill="none" stroke="#568ad8" stroke-width="2" d="M596.5,-108C596.5,-108 468.5,-108 468.5,-108 462.5,-108 456.5,-102 456.5,-96 456.5,-96 456.5,-84 456.5,-84 456.5,-78 462.5,-72 468.5,-72 468.5,-72 596.5,-72 596.5,-72 602.5,-72 608.5,-78 608.5,-84 608.5,-84 608.5,-96 608.5,-96 608.5,-102 602.5,-108 596.5,-108"/>
<text text-anchor="middle" x="532.5" y="-87.5" font-family="sans" font-size="10.00">copy_result_files_assembly</text>
</g>
<!-- 8&#45;&gt;5 -->
<g id="edge7" class="edge"><title>8&#45;&gt;5</title>
<path fill="none" stroke="grey" stroke-width="2" d="M507.059,-71.8761C493.713,-62.8931 477.176,-51.7625 462.722,-42.0341"/>
<polygon fill="grey" stroke="grey" stroke-width="2" points="464.289,-38.87 454.039,-36.1898 460.381,-44.6771 464.289,-38.87"/>
</g>
<!-- 9&#45;&gt;7 -->
<g id="edge10" class="edge"><title>9&#45;&gt;7</title>
<path fill="none" stroke="grey" stroke-width="2" d="M669.376,-935.697C674.492,-927.559 680.695,-917.689 686.345,-908.701"/>
<polygon fill="grey" stroke="grey" stroke-width="2" points="689.39,-910.433 691.749,-900.104 683.464,-906.708 689.39,-910.433"/>
</g>
<!-- 10 -->
<g id="node11" class="node"><title>10</title>
<path fill="none" stroke="#56b9d8" stroke-width="2" d="M509,-396C509,-396 350,-396 350,-396 344,-396 338,-390 338,-384 338,-384 338,-372 338,-372 338,-366 344,-360 350,-360 350,-360 509,-360 509,-360 515,-360 521,-366 521,-372 521,-372 521,-384 521,-384 521,-390 515,-396 509,-396"/>
<text text-anchor="middle" x="429.5" y="-375.5" font-family="sans" font-size="10.00">copy_result_files_mapping_paired</text>
</g>
<!-- 10&#45;&gt;5 -->
<g id="edge6" class="edge"><title>10&#45;&gt;5</title>
<path fill="none" stroke="grey" stroke-width="2" d="M429.302,-359.951C429.011,-333.292 428.5,-280.116 428.5,-235 428.5,-235 428.5,-235 428.5,-161 428.5,-120.996 428.5,-74.6528 428.5,-46.0798"/>
<polygon fill="grey" stroke="grey" stroke-width="2" points="432,-46.0492 428.5,-36.0493 425,-46.0493 432,-46.0492"/>
</g>
<!-- 11&#45;&gt;10 -->
<g id="edge15" class="edge"><title>11&#45;&gt;10</title>
<path fill="none" stroke="grey" stroke-width="2" d="M346.617,-863.606C359.505,-837.357 381.5,-785.715 381.5,-739 381.5,-739 381.5,-739 381.5,-521 381.5,-478.866 400.7,-433.227 414.814,-405.371"/>
<polygon fill="grey" stroke="grey" stroke-width="2" points="418.028,-406.778 419.554,-396.294 411.823,-403.538 418.028,-406.778"/>
</g>
<!-- 16 -->
<g id="node17" class="node"><title>16</title>
<path fill="none" stroke="#d8c356" stroke-width="2" d="M796,-540C796,-540 509,-540 509,-540 503,-540 497,-534 497,-528 497,-528 497,-516 497,-516 497,-510 503,-504 509,-504 509,-504 796,-504 796,-504 802,-504 808,-510 808,-516 808,-516 808,-528 808,-528 808,-534 802,-540 796,-540"/>
<text text-anchor="middle" x="652.5" y="-525" font-family="sans" font-size="10.00">index_bam_file</text>
<text text-anchor="middle" x="652.5" y="-514" font-family="sans" font-size="10.00">any_bam: samples/S1/mapping/bwa/S1_assembled_genome</text>
</g>
<!-- 12&#45;&gt;16 -->
<g id="edge24" class="edge"><title>12&#45;&gt;16</title>
<path fill="none" stroke="grey" stroke-width="2" d="M672.073,-575.697C669.145,-567.813 665.613,-558.304 662.36,-549.546"/>
<polygon fill="grey" stroke="grey" stroke-width="2" points="665.616,-548.26 658.853,-540.104 659.054,-550.697 665.616,-548.26"/>
</g>
<!-- 21 -->
<g id="node22" class="node"><title>21</title>
<path fill="none" stroke="#56d88a" stroke-width="2" d="M738,-468C738,-468 587,-468 587,-468 581,-468 575,-462 575,-456 575,-456 575,-444 575,-444 575,-438 581,-432 587,-432 587,-432 738,-432 738,-432 744,-432 750,-438 750,-444 750,-444 750,-456 750,-456 750,-462 744,-468 738,-468"/>
<text text-anchor="middle" x="662.5" y="-447.5" font-family="sans" font-size="10.00">assess_mapping_with_qualimap</text>
</g>
<!-- 12&#45;&gt;21 -->
<g id="edge29" class="edge"><title>12&#45;&gt;21</title>
<path fill="none" stroke="grey" stroke-width="2" d="M757.57,-580.2C780.365,-572.442 802.765,-559.989 816.5,-540 825.561,-526.813 825.792,-517.025 816.5,-504 802.85,-484.866 781.827,-472.57 759.659,-464.689"/>
<polygon fill="grey" stroke="grey" stroke-width="2" points="760.699,-461.347 750.107,-461.574 758.529,-468.002 760.699,-461.347"/>
</g>
<!-- 13 -->
<g id="node14" class="node"><title>13</title>
<path fill="none" stroke="#d8d356" stroke-width="2" d="M311,-828C311,-828 154,-828 154,-828 148,-828 142,-822 142,-816 142,-816 142,-804 142,-804 142,-798 148,-792 154,-792 154,-792 311,-792 311,-792 317,-792 323,-798 323,-804 323,-804 323,-816 323,-816 323,-822 317,-828 311,-828"/>
<text text-anchor="middle" x="232.5" y="-813" font-family="sans" font-size="10.00">format_tsv_to_xlsx_mash_results</text>
<text text-anchor="middle" x="232.5" y="-802" font-family="sans" font-size="10.00">results: distances_formated</text>
</g>
<!-- 13&#45;&gt;5 -->
<g id="edge8" class="edge"><title>13&#45;&gt;5</title>
<path fill="none" stroke="grey" stroke-width="2" d="M240.392,-791.928C251.788,-765.671 271.5,-713.53 271.5,-667 271.5,-667 271.5,-667 271.5,-161 271.5,-103.408 330.328,-63.1162 375.963,-40.5242"/>
<polygon fill="grey" stroke="grey" stroke-width="2" points="377.677,-43.584 385.183,-36.107 374.653,-37.271 377.677,-43.584"/>
</g>
<!-- 14&#45;&gt;13 -->
<g id="edge21" class="edge"><title>14&#45;&gt;13</title>
<path fill="none" stroke="grey" stroke-width="2" d="M177.679,-1007.83C181.125,-989.822 187.01,-960.759 193.5,-936 202.468,-901.791 214.938,-862.999 223.343,-837.826"/>
<polygon fill="grey" stroke="grey" stroke-width="2" points="226.695,-838.839 226.565,-828.245 220.06,-836.607 226.695,-838.839"/>
</g>
<!-- 15 -->
<g id="node16" class="node"><title>15</title>
<path fill="none" stroke="#d8ac56" stroke-width="2" d="M720,-252C720,-252 619,-252 619,-252 613,-252 607,-246 607,-240 607,-240 607,-228 607,-228 607,-222 613,-216 619,-216 619,-216 720,-216 720,-216 726,-216 732,-222 732,-228 732,-228 732,-240 732,-240 732,-246 726,-252 720,-252"/>
<text text-anchor="middle" x="669.5" y="-231.5" font-family="sans" font-size="10.00">annotate_with_prokka</text>
</g>
<!-- 15&#45;&gt;8 -->
<g id="edge11" class="edge"><title>15&#45;&gt;8</title>
<path fill="none" stroke="grey" stroke-width="2" d="M606.855,-217.722C586.109,-209.714 564.715,-197.735 550.5,-180 536.672,-162.748 532.593,-137.685 531.731,-118.549"/>
<polygon fill="grey" stroke="grey" stroke-width="2" points="535.227,-118.277 531.544,-108.343 528.228,-118.406 535.227,-118.277"/>
</g>
<!-- 20 -->
<g id="node21" class="node"><title>20</title>
<path fill="none" stroke="#56d892" stroke-width="2" d="M769,-180C769,-180 572,-180 572,-180 566,-180 560,-174 560,-168 560,-168 560,-156 560,-156 560,-150 566,-144 572,-144 572,-144 769,-144 769,-144 775,-144 781,-150 781,-156 781,-156 781,-168 781,-168 781,-174 775,-180 769,-180"/>
<text text-anchor="middle" x="670.5" y="-159.5" font-family="sans" font-size="10.00">calculate_assembly_statistics_with_quast</text>
</g>
<!-- 15&#45;&gt;20 -->
<g id="edge28" class="edge"><title>15&#45;&gt;20</title>
<path fill="none" stroke="grey" stroke-width="2" d="M669.747,-215.697C669.857,-207.983 669.99,-198.712 670.113,-190.112"/>
<polygon fill="grey" stroke="grey" stroke-width="2" points="673.612,-190.153 670.256,-180.104 666.613,-190.053 673.612,-190.153"/>
</g>
<!-- 16&#45;&gt;21 -->
<g id="edge30" class="edge"><title>16&#45;&gt;21</title>
<path fill="none" stroke="grey" stroke-width="2" d="M654.972,-503.697C656.074,-495.983 657.398,-486.712 658.627,-478.112"/>
<polygon fill="grey" stroke="grey" stroke-width="2" points="662.107,-478.499 660.057,-468.104 655.177,-477.509 662.107,-478.499"/>
</g>
<!-- 17&#45;&gt;15 -->
<g id="edge23" class="edge"><title>17&#45;&gt;15</title>
<path fill="none" stroke="grey" stroke-width="2" d="M669.5,-287.697C669.5,-279.983 669.5,-270.712 669.5,-262.112"/>
<polygon fill="grey" stroke="grey" stroke-width="2" points="673,-262.104 669.5,-252.104 666,-262.104 673,-262.104"/>
</g>
<!-- 18 -->
<g id="node19" class="node"><title>18</title>
<path fill="none" stroke="#61d856" stroke-width="2" d="M387.5,-1188C387.5,-1188 253.5,-1188 253.5,-1188 247.5,-1188 241.5,-1182 241.5,-1176 241.5,-1176 241.5,-1164 241.5,-1164 241.5,-1158 247.5,-1152 253.5,-1152 253.5,-1152 387.5,-1152 387.5,-1152 393.5,-1152 399.5,-1158 399.5,-1164 399.5,-1164 399.5,-1176 399.5,-1176 399.5,-1182 393.5,-1188 387.5,-1188"/>
<text text-anchor="middle" x="320.5" y="-1173" font-family="sans" font-size="10.00">copy_fastq_paired_from_link</text>
<text text-anchor="middle" x="320.5" y="-1162" font-family="sans" font-size="10.00">sample: S1</text>
</g>
<!-- 18&#45;&gt;4 -->
<g id="edge5" class="edge"><title>18&#45;&gt;4</title>
<path fill="none" stroke="grey" stroke-width="2" d="M284.784,-1151.88C265.003,-1142.39 240.228,-1130.51 219.174,-1120.42"/>
<polygon fill="grey" stroke="grey" stroke-width="2" points="220.63,-1117.24 210.1,-1116.07 217.604,-1123.55 220.63,-1117.24"/>
</g>
<!-- 19 -->
<g id="node20" class="node"><title>19</title>
<path fill="none" stroke="#59d856" stroke-width="2" d="M555.5,-1116C555.5,-1116 379.5,-1116 379.5,-1116 373.5,-1116 367.5,-1110 367.5,-1104 367.5,-1104 367.5,-1092 367.5,-1092 367.5,-1086 373.5,-1080 379.5,-1080 379.5,-1080 555.5,-1080 555.5,-1080 561.5,-1080 567.5,-1086 567.5,-1092 567.5,-1092 567.5,-1104 567.5,-1104 567.5,-1110 561.5,-1116 555.5,-1116"/>
<text text-anchor="middle" x="467.5" y="-1095.5" font-family="sans" font-size="10.00">trim_paired_reads_with_trimmomatic</text>
</g>
<!-- 18&#45;&gt;19 -->
<g id="edge27" class="edge"><title>18&#45;&gt;19</title>
<path fill="none" stroke="grey" stroke-width="2" d="M356.46,-1151.88C376.377,-1142.39 401.322,-1130.51 422.52,-1120.42"/>
<polygon fill="grey" stroke="grey" stroke-width="2" points="424.133,-1123.53 431.657,-1116.07 421.123,-1117.21 424.133,-1123.53"/>
</g>
<!-- 19&#45;&gt;0 -->
<g id="edge1" class="edge"><title>19&#45;&gt;0</title>
<path fill="none" stroke="grey" stroke-width="2" d="M509.576,-1079.88C533.298,-1070.22 563.116,-1058.09 588.201,-1047.88"/>
<polygon fill="grey" stroke="grey" stroke-width="2" points="589.618,-1051.08 597.561,-1044.07 586.979,-1044.6 589.618,-1051.08"/>
</g>
<!-- 19&#45;&gt;2 -->
<g id="edge3" class="edge"><title>19&#45;&gt;2</title>
<path fill="none" stroke="grey" stroke-width="2" d="M448.683,-1079.87C421.041,-1054.71 369.345,-1007.65 337.912,-979.042"/>
<polygon fill="grey" stroke="grey" stroke-width="2" points="340.135,-976.332 330.384,-972.189 335.423,-981.509 340.135,-976.332"/>
</g>
<!-- 19&#45;&gt;10 -->
<g id="edge14" class="edge"><title>19&#45;&gt;10</title>
<path fill="none" stroke="grey" stroke-width="2" d="M463.655,-1079.61C458.103,-1052.94 448.5,-1000.27 448.5,-955 448.5,-955 448.5,-955 448.5,-521 448.5,-480.86 440.949,-434.897 435.368,-406.405"/>
<polygon fill="grey" stroke="grey" stroke-width="2" points="438.755,-405.498 433.345,-396.388 431.894,-406.883 438.755,-405.498"/>
</g>
<!-- 19&#45;&gt;12 -->
<g id="edge18" class="edge"><title>19&#45;&gt;12</title>
<path fill="none" stroke="grey" stroke-width="2" d="M471.345,-1079.61C476.897,-1052.94 486.5,-1000.27 486.5,-955 486.5,-955 486.5,-955 486.5,-737 486.5,-696.644 477.367,-677.874 504.5,-648 526.244,-624.059 558.439,-610.791 589.242,-603.488"/>
<polygon fill="grey" stroke="grey" stroke-width="2" points="590.155,-606.871 599.179,-601.321 588.663,-600.032 590.155,-606.871"/>
</g>
<!-- 20&#45;&gt;8 -->
<g id="edge12" class="edge"><title>20&#45;&gt;8</title>
<path fill="none" stroke="grey" stroke-width="2" d="M636.741,-143.876C618.28,-134.512 595.218,-122.814 575.483,-112.803"/>
<polygon fill="grey" stroke="grey" stroke-width="2" points="576.89,-109.592 566.388,-108.19 573.723,-115.835 576.89,-109.592"/>
</g>
<!-- 21&#45;&gt;1 -->
<g id="edge2" class="edge"><title>21&#45;&gt;1</title>
<path fill="none" stroke="grey" stroke-width="2" d="M663.736,-431.697C664.287,-423.983 664.949,-414.712 665.563,-406.112"/>
<polygon fill="grey" stroke="grey" stroke-width="2" points="669.057,-406.328 666.278,-396.104 662.075,-405.83 669.057,-406.328"/>
</g>
<!-- 21&#45;&gt;10 -->
<g id="edge16" class="edge"><title>21&#45;&gt;10</title>
<path fill="none" stroke="grey" stroke-width="2" d="M605.8,-431.966C572.82,-422.057 531.068,-409.514 496.474,-399.121"/>
<polygon fill="grey" stroke="grey" stroke-width="2" points="497.039,-395.636 486.455,-396.111 495.025,-402.34 497.039,-395.636"/>
</g>
<!-- 22&#45;&gt;12 -->
<g id="edge19" class="edge"><title>22&#45;&gt;12</title>
<path fill="none" stroke="grey" stroke-width="2" d="M678.5,-647.697C678.5,-639.983 678.5,-630.712 678.5,-622.112"/>
<polygon fill="grey" stroke="grey" stroke-width="2" points="682,-622.104 678.5,-612.104 675,-622.104 682,-622.104"/>
</g>
</g>
</svg>
