<?xml version="1.0" encoding="UTF-8" standalone="no"?>
<!-- Generated by graphviz version 2.38.0 (20140413.2041)
 -->

<!-- Title: snakemake_dag Pages: 1 -->

<svg
   xmlns:dc="http://purl.org/dc/elements/1.1/"
   xmlns:cc="http://creativecommons.org/ns#"
   xmlns:rdf="http://www.w3.org/1999/02/22-rdf-syntax-ns#"
   xmlns:svg="http://www.w3.org/2000/svg"
   xmlns="http://www.w3.org/2000/svg"
   xmlns:sodipodi="http://sodipodi.sourceforge.net/DTD/sodipodi-0.dtd"
   xmlns:inkscape="http://www.inkscape.org/namespaces/inkscape"
   width="708pt"
   height="1190pt"
   viewBox="0 0 707.61396 1190"
   version="1.1"
   id="svg395"
   sodipodi:docname="assembly.svg"
   inkscape:version="0.92.3 (unknown)">
  <metadata
     id="metadata401">
    <rdf:RDF>
      <cc:Work
         rdf:about="">
        <dc:format>image/svg+xml</dc:format>
        <dc:type
           rdf:resource="http://purl.org/dc/dcmitype/StillImage" />
        <dc:title></dc:title>
      </cc:Work>
    </rdf:RDF>
  </metadata>
  <defs
     id="defs399" />
  <sodipodi:namedview
     pagecolor="#ffffff"
     bordercolor="#666666"
     borderopacity="1"
     objecttolerance="10"
     gridtolerance="10"
     guidetolerance="10"
     inkscape:pageopacity="0"
     inkscape:pageshadow="2"
     inkscape:window-width="1920"
     inkscape:window-height="1056"
     id="namedview397"
     showgrid="false"
     fit-margin-top="0"
     fit-margin-left="0"
     fit-margin-right="0"
     fit-margin-bottom="0"
     inkscape:zoom="0.55150632"
     inkscape:cx="-256.38168"
     inkscape:cy="795.49121"
     inkscape:window-x="0"
     inkscape:window-y="353"
     inkscape:window-maximized="1"
     inkscape:current-layer="graph0" />
  <g
     id="graph0"
     class="graph"
     transform="translate(-201.75,1189)">
    <title
       id="title2">snakemake_dag</title>
    <!-- 0 -->
    <g
       id="node1"
       class="node">
      <title
         id="title6">0</title>
      <path
         d="m 734,-1044 c 0,0 -189,0 -189,0 -6,0 -12,6 -12,12 0,0 0,12 0,12 0,6 6,12 12,12 0,0 189,0 189,0 6,0 12,-6 12,-12 0,0 0,-12 0,-12 0,-6 -6,-12 -12,-12"
         id="path8"
         inkscape:connector-curvature="0"
         style="fill:none;stroke:#c6d856;stroke-width:2" />
      <text
         x="639.5"
         y="-1023.5"
         font-size="10.00"
         id="text10"
         style="font-size:10px;font-family:sans;text-anchor:middle">correct_error_paired_reads_with_spades</text>
    </g>
    <!-- 9 -->
    <g
       id="node10"
       class="node">
      <title
         id="title13">9</title>
      <path
         d="m 768,-972 c 0,0 -219,0 -219,0 -6,0 -12,6 -12,12 0,0 0,12 0,12 0,6 6,12 12,12 0,0 219,0 219,0 6,0 12,-6 12,-12 0,0 0,-12 0,-12 0,-6 -6,-12 -12,-12"
         id="path15"
         inkscape:connector-curvature="0"
         style="fill:none;stroke:#56d8b9;stroke-width:2" />
      <text
         x="658.5"
         y="-951.5"
         font-size="10.00"
         id="text17"
         style="font-size:10px;font-family:sans;text-anchor:middle">assemble_genome_paired_reads_with_spades</text>
    </g>
    <!-- 0&#45;&gt;9 -->
    <g
       id="edge13"
       class="edge">
      <title
         id="title20">0-&gt;9</title>
      <path
         d="m 644.197,-1007.7 c 2.116,7.802 4.665,17.191 7.021,25.871"
         id="path22"
         inkscape:connector-curvature="0"
         style="fill:none;stroke:#808080;stroke-width:2" />
      <polygon
         points="647.86,-980.838 654.616,-982.672 653.857,-972.104 "
         id="polygon24"
         style="fill:#808080;stroke:#808080;stroke-width:2" />
    </g>
    <!-- 1 -->
    <g
       id="node2"
       class="node">
      <title
         id="title27">1</title>
      <path
         d="m 724,-396 c 0,0 -113,0 -113,0 -6,0 -12,6 -12,12 0,0 0,12 0,12 0,6 6,12 12,12 0,0 113,0 113,0 6,0 12,-6 12,-12 0,0 0,-12 0,-12 0,-6 -6,-12 -12,-12"
         id="path29"
         inkscape:connector-curvature="0"
         style="fill:none;stroke:#56d8d0;stroke-width:2" />
      <text
         x="667.5"
         y="-375.5"
         font-size="10.00"
         id="text31"
         style="font-size:10px;font-family:sans;text-anchor:middle">extract_contig_coverage</text>
    </g>
    <!-- 17 -->
    <g
       id="node18"
       class="node">
      <title
         id="title34">17</title>
      <path
         d="m 731.5,-324 c 0,0 -124,0 -124,0 -6,0 -12,6 -12,12 0,0 0,12 0,12 0,6 6,12 12,12 0,0 124,0 124,0 6,0 12,-6 12,-12 0,0 0,-12 0,-12 0,-6 -6,-12 -12,-12"
         id="path36"
         inkscape:connector-curvature="0"
         style="fill:none;stroke:#afd856;stroke-width:2" />
      <text
         x="669.5"
         y="-303.5"
         font-size="10.00"
         id="text38"
         style="font-size:10px;font-family:sans;text-anchor:middle">filter_contigs_on_coverage</text>
    </g>
    <!-- 1&#45;&gt;17 -->
    <g
       id="edge26"
       class="edge">
      <title
         id="title41">1-&gt;17</title>
      <path
         d="m 667.994,-359.697 c 0.221,7.714 0.486,16.985 0.731,25.585"
         id="path43"
         inkscape:connector-curvature="0"
         style="fill:none;stroke:#808080;stroke-width:2" />
      <polygon
         points="665.227,-334 672.224,-334.2 669.011,-324.104 "
         id="polygon45"
         style="fill:#808080;stroke:#808080;stroke-width:2" />
    </g>
    <!-- 2 -->
    <g
       id="node3"
       class="node">
      <title
         id="title48">2</title>
      <path
         d="m 408.5,-972 c 0,0 -194,0 -194,0 -6,0 -12,6 -12,12 0,0 0,12 0,12 0,6 6,12 12,12 0,0 194,0 194,0 6,0 12,-6 12,-12 0,0 0,-12 0,-12 0,-6 -6,-12 -12,-12"
         id="path50"
         inkscape:connector-curvature="0"
         style="fill:none;stroke:#70d856;stroke-width:2" />
      <text
         x="311.5"
         y="-951.5"
         font-size="10.00"
         id="text52"
         style="font-size:10px;font-family:sans;text-anchor:middle">assess_quality_paired_reads_with_fastqc</text>
    </g>
    <!-- 11 -->
    <g
       id="node12"
       class="node">
      <title
         id="title55">11</title>
      <path
         d="m 382.5,-900 c 0,0 -90,0 -90,0 -6,0 -12,6 -12,12 0,0 0,12 0,12 0,6 6,12 12,12 0,0 90,0 90,0 6,0 12,-6 12,-12 0,0 0,-12 0,-12 0,-6 -6,-12 -12,-12"
         id="path57"
         inkscape:connector-curvature="0"
         style="fill:none;stroke:#56d0d8;stroke-width:2" />
      <text
         x="337.5"
         y="-879.5"
         font-size="10.00"
         id="text59"
         style="font-size:10px;font-family:sans;text-anchor:middle">unzip_fastqc_paired</text>
    </g>
    <!-- 2&#45;&gt;11 -->
    <g
       id="edge17"
       class="edge">
      <title
         id="title62">2-&gt;11</title>
      <path
         d="m 317.927,-935.697 c 2.928,7.884 6.46,17.393 9.713,26.151"
         id="path64"
         inkscape:connector-curvature="0"
         style="fill:none;stroke:#808080;stroke-width:2" />
      <polygon
         points="324.384,-908.26 330.946,-910.697 331.147,-900.104 "
         id="polygon66"
         style="fill:#808080;stroke:#808080;stroke-width:2" />
    </g>
    <!-- 3 -->
    <g
       id="node4"
       class="node">
      <title
         id="title69">3</title>
      <path
         d="m 821.5,-756 c 0,0 -192,0 -192,0 -6,0 -12,6 -12,12 0,0 0,12 0,12 0,6 6,12 12,12 0,0 192,0 192,0 6,0 12,-6 12,-12 0,0 0,-12 0,-12 0,-6 -6,-12 -12,-12"
         id="path71"
         inkscape:connector-curvature="0"
         style="fill:none;stroke:#56a9d8;stroke-width:2" />
      <text
         x="725.5"
         y="-735.5"
         font-size="10.00"
         id="text73"
         style="font-size:10px;font-family:sans;text-anchor:middle">copy_raw_assembly_to_reference_folder</text>
    </g>
    <!-- 12 -->
    <g
       id="node13"
       class="node">
      <title
         id="title76">12</title>
      <path
         d="m 745.5,-612 c 0,0 -134,0 -134,0 -6,0 -12,6 -12,12 0,0 0,12 0,12 0,6 6,12 12,12 0,0 134,0 134,0 6,0 12,-6 12,-12 0,0 0,-12 0,-12 0,-6 -6,-12 -12,-12"
         id="path78"
         inkscape:connector-curvature="0"
         style="fill:none;stroke:#d86e56;stroke-width:2" />
      <text
         x="678.5"
         y="-597"
         font-size="10.00"
         id="text80"
         style="font-size:10px;font-family:sans;text-anchor:middle">map_paired_reads_with_bwa</text>
      <text
         x="678.5"
         y="-586"
         font-size="10.00"
         id="text82"
         style="font-size:10px;font-family:sans;text-anchor:middle">ref: S1_assembled_genome</text>
    </g>
    <!-- 3&#45;&gt;12 -->
    <g
       id="edge20"
       class="edge">
      <title
         id="title85">3-&gt;12</title>
      <path
         d="m 804.768,-719.862 c 18.345,7.843 35.702,19.257 46.732,35.862 8.853,13.328 9.513,23.136 0,36 -19.55,26.437 -52.035,40.115 -83.609,47.049"
         id="path87"
         inkscape:connector-curvature="0"
         style="fill:none;stroke:#808080;stroke-width:2" />
      <polygon
         points="766.818,-604.307 768.179,-597.44 757.689,-598.929 "
         id="polygon89"
         style="fill:#808080;stroke:#808080;stroke-width:2" />
    </g>
    <!-- 22 -->
    <g
       id="node23"
       class="node">
      <title
         id="title92">22</title>
      <path
         d="m 831,-684 c 0,0 -305,0 -305,0 -6,0 -12,6 -12,12 0,0 0,12 0,12 0,6 6,12 12,12 0,0 305,0 305,0 6,0 12,-6 12,-12 0,0 0,-12 0,-12 0,-6 -6,-12 -12,-12"
         id="path94"
         inkscape:connector-curvature="0"
         style="fill:none;stroke:#b6d856;stroke-width:2" />
      <text
         x="678.5"
         y="-669"
         font-size="10.00"
         id="text96"
         style="font-size:10px;font-family:sans;text-anchor:middle">index_reference_fasta</text>
      <text
         x="678.5"
         y="-658"
         font-size="10.00"
         id="text98"
         style="font-size:10px;font-family:sans;text-anchor:middle">any_genome: references/S1_assembled_genome/genome_fasta</text>
    </g>
    <!-- 3&#45;&gt;22 -->
    <g
       id="edge31"
       class="edge">
      <title
         id="title101">3-&gt;22</title>
      <path
         d="m 713.882,-719.697 c -5.521,8.223 -12.229,18.214 -18.314,27.276"
         id="path103"
         inkscape:connector-curvature="0"
         style="fill:none;stroke:#808080;stroke-width:2" />
      <polygon
         points="692.653,-694.358 698.465,-690.456 689.984,-684.104 "
         id="polygon105"
         style="fill:#808080;stroke:#808080;stroke-width:2" />
    </g>
    <!-- 4 -->
    <g
       id="node5"
       class="node">
      <title
         id="title108">4</title>
    </g>
    <!-- 14 -->
    <!-- 4&#45;&gt;14 -->
    <!-- 5 -->
    <g
       id="node6"
       class="node">
      <title
         id="title129">5</title>
      <path
         d="m 514,-36 c 0,0 -171,0 -171,0 -6,0 -12,6 -12,12 0,0 0,12 0,12 0,6 6,12 12,12 0,0 171,0 171,0 6,0 12,-6 12,-12 0,0 0,-12 0,-12 0,-6 -6,-12 -12,-12"
         id="path131"
         inkscape:connector-curvature="0"
         style="fill:none;stroke:#56d873;stroke-width:2" />
      <text
         x="428.5"
         y="-15.5"
         font-size="10.00"
         id="text133"
         style="font-size:10px;font-family:sans;text-anchor:middle">create_multiqc_report_for_assembly</text>
    </g>
    <!-- 6 -->
    <g
       id="node7"
       class="node">
      <title
         id="title136">6</title>
      <path
         d="m 761,-828 c 0,0 -71,0 -71,0 -6,0 -12,6 -12,12 0,0 0,12 0,12 0,6 6,12 12,12 0,0 71,0 71,0 6,0 12,-6 12,-12 0,0 0,-12 0,-12 0,-6 -6,-12 -12,-12"
         id="path138"
         inkscape:connector-curvature="0"
         style="fill:none;stroke:#5692d8;stroke-width:2" />
      <text
         x="725.5"
         y="-807.5"
         font-size="10.00"
         id="text140"
         style="font-size:10px;font-family:sans;text-anchor:middle">rename_contigs</text>
    </g>
    <!-- 6&#45;&gt;3 -->
    <g
       id="edge4"
       class="edge">
      <title
         id="title143">6-&gt;3</title>
      <path
         d="m 725.5,-791.697 c 0,7.714 0,16.985 0,25.585"
         id="path145"
         inkscape:connector-curvature="0"
         style="fill:none;stroke:#808080;stroke-width:2" />
      <polygon
         points="722,-766.104 729,-766.104 725.5,-756.104 "
         id="polygon147"
         style="fill:#808080;stroke:#808080;stroke-width:2" />
    </g>
    <!-- 6&#45;&gt;17 -->
    <g
       id="edge25"
       class="edge">
      <title
         id="title150">6-&gt;17</title>
      <path
         d="m 773.103,-795.006 c 54.222,19.219 135.397,59.442 135.397,128.006 0,0 0,0 0,218 0,74.063 -85.876,110.358 -154.674,127.551"
         id="path152"
         inkscape:connector-curvature="0"
         style="fill:none;stroke:#808080;stroke-width:2" />
      <polygon
         points="752.72,-324.783 754.351,-317.976 743.811,-319.049 "
         id="polygon154"
         style="fill:#808080;stroke:#808080;stroke-width:2" />
    </g>
    <!-- 7 -->
    <g
       id="node8"
       class="node">
      <title
         id="title157">7</title>
      <path
         d="m 785.5,-900 c 0,0 -166,0 -166,0 -6,0 -12,6 -12,12 0,0 0,12 0,12 0,6 6,12 12,12 0,0 166,0 166,0 6,0 12,-6 12,-12 0,0 0,-12 0,-12 0,-6 -6,-12 -12,-12"
         id="path159"
         inkscape:connector-curvature="0"
         style="fill:none;stroke:#56d8a2;stroke-width:2" />
      <text
         x="702.5"
         y="-879.5"
         font-size="10.00"
         id="text161"
         style="font-size:10px;font-family:sans;text-anchor:middle">extract_contigs_longer_than_500bp</text>
    </g>
    <!-- 7&#45;&gt;6 -->
    <g
       id="edge9"
       class="edge">
      <title
         id="title164">7-&gt;6</title>
      <path
         d="m 708.185,-863.697 c 2.563,7.799 5.648,17.188 8.5,25.868"
         id="path166"
         inkscape:connector-curvature="0"
         style="fill:none;stroke:#808080;stroke-width:2" />
      <polygon
         points="713.433,-836.512 720.084,-838.697 719.88,-828.104 "
         id="polygon168"
         style="fill:#808080;stroke:#808080;stroke-width:2" />
    </g>
    <!-- 8 -->
    <g
       id="node9"
       class="node">
      <title
         id="title171">8</title>
      <path
         d="m 596.5,-108 c 0,0 -128,0 -128,0 -6,0 -12,6 -12,12 0,0 0,12 0,12 0,6 6,12 12,12 0,0 128,0 128,0 6,0 12,-6 12,-12 0,0 0,-12 0,-12 0,-6 -6,-12 -12,-12"
         id="path173"
         inkscape:connector-curvature="0"
         style="fill:none;stroke:#568ad8;stroke-width:2" />
      <text
         x="532.5"
         y="-87.5"
         font-size="10.00"
         id="text175"
         style="font-size:10px;font-family:sans;text-anchor:middle">copy_result_files_assembly</text>
    </g>
    <!-- 8&#45;&gt;5 -->
    <g
       id="edge7"
       class="edge">
      <title
         id="title178">8-&gt;5</title>
      <path
         d="m 507.059,-71.8761 c -13.346,8.983 -29.883,20.1136 -44.337,29.842"
         id="path180"
         inkscape:connector-curvature="0"
         style="fill:none;stroke:#808080;stroke-width:2" />
      <polygon
         points="460.381,-44.6771 464.289,-38.87 454.039,-36.1898 "
         id="polygon182"
         style="fill:#808080;stroke:#808080;stroke-width:2" />
    </g>
    <!-- 9&#45;&gt;7 -->
    <g
       id="edge10"
       class="edge">
      <title
         id="title185">9-&gt;7</title>
      <path
         d="m 669.376,-935.697 c 5.116,8.138 11.319,18.008 16.969,26.996"
         id="path187"
         inkscape:connector-curvature="0"
         style="fill:none;stroke:#808080;stroke-width:2" />
      <polygon
         points="683.464,-906.708 689.39,-910.433 691.749,-900.104 "
         id="polygon189"
         style="fill:#808080;stroke:#808080;stroke-width:2" />
    </g>
    <!-- 10 -->
    <g
       id="node11"
       class="node">
      <title
         id="title192">10</title>
      <path
         d="m 509,-396 c 0,0 -159,0 -159,0 -6,0 -12,6 -12,12 0,0 0,12 0,12 0,6 6,12 12,12 0,0 159,0 159,0 6,0 12,-6 12,-12 0,0 0,-12 0,-12 0,-6 -6,-12 -12,-12"
         id="path194"
         inkscape:connector-curvature="0"
         style="fill:none;stroke:#56b9d8;stroke-width:2" />
      <text
         x="429.5"
         y="-375.5"
         font-size="10.00"
         id="text196"
         style="font-size:10px;font-family:sans;text-anchor:middle">copy_result_files_mapping_paired</text>
    </g>
    <!-- 10&#45;&gt;5 -->
    <g
       id="edge6"
       class="edge">
      <title
         id="title199">10-&gt;5</title>
      <path
         d="m 429.302,-359.951 c -0.291,26.659 -0.802,79.835 -0.802,124.951 0,0 0,0 0,74 0,40.004 0,86.3472 0,114.9202"
         id="path201"
         inkscape:connector-curvature="0"
         style="fill:none;stroke:#808080;stroke-width:2" />
      <polygon
         points="425,-46.0493 432,-46.0492 428.5,-36.0493 "
         id="polygon203"
         style="fill:#808080;stroke:#808080;stroke-width:2" />
    </g>
    <!-- 11&#45;&gt;10 -->
    <g
       id="edge15"
       class="edge">
      <title
         id="title206">11-&gt;10</title>
      <path
         d="m 346.617,-863.606 c 12.888,26.249 34.883,77.891 34.883,124.606 0,0 0,0 0,218 0,42.134 19.2,87.773 33.314,115.629"
         id="path208"
         inkscape:connector-curvature="0"
         style="fill:none;stroke:#808080;stroke-width:2" />
      <polygon
         points="411.823,-403.538 418.028,-406.778 419.554,-396.294 "
         id="polygon210"
         style="fill:#808080;stroke:#808080;stroke-width:2" />
    </g>
    <!-- 16 -->
    <g
       id="node17"
       class="node">
      <title
         id="title213">16</title>
      <path
         d="m 796,-540 c 0,0 -287,0 -287,0 -6,0 -12,6 -12,12 0,0 0,12 0,12 0,6 6,12 12,12 0,0 287,0 287,0 6,0 12,-6 12,-12 0,0 0,-12 0,-12 0,-6 -6,-12 -12,-12"
         id="path215"
         inkscape:connector-curvature="0"
         style="fill:none;stroke:#d8c356;stroke-width:2" />
      <text
         x="652.5"
         y="-525"
         font-size="10.00"
         id="text217"
         style="font-size:10px;font-family:sans;text-anchor:middle">index_bam_file</text>
      <text
         x="652.5"
         y="-514"
         font-size="10.00"
         id="text219"
         style="font-size:10px;font-family:sans;text-anchor:middle">any_bam: samples/S1/mapping/bwa/S1_assembled_genome</text>
    </g>
    <!-- 12&#45;&gt;16 -->
    <g
       id="edge24"
       class="edge">
      <title
         id="title222">12-&gt;16</title>
      <path
         d="m 672.073,-575.697 c -2.928,7.884 -6.46,17.393 -9.713,26.151"
         id="path224"
         inkscape:connector-curvature="0"
         style="fill:none;stroke:#808080;stroke-width:2" />
      <polygon
         points="659.054,-550.697 665.616,-548.26 658.853,-540.104 "
         id="polygon226"
         style="fill:#808080;stroke:#808080;stroke-width:2" />
    </g>
    <!-- 21 -->
    <g
       id="node22"
       class="node">
      <title
         id="title229">21</title>
      <path
         d="m 738,-468 c 0,0 -151,0 -151,0 -6,0 -12,6 -12,12 0,0 0,12 0,12 0,6 6,12 12,12 0,0 151,0 151,0 6,0 12,-6 12,-12 0,0 0,-12 0,-12 0,-6 -6,-12 -12,-12"
         id="path231"
         inkscape:connector-curvature="0"
         style="fill:none;stroke:#56d88a;stroke-width:2" />
      <text
         x="662.5"
         y="-447.5"
         font-size="10.00"
         id="text233"
         style="font-size:10px;font-family:sans;text-anchor:middle">assess_mapping_with_qualimap</text>
    </g>
    <!-- 12&#45;&gt;21 -->
    <g
       id="edge29"
       class="edge">
      <title
         id="title236">12-&gt;21</title>
      <path
         d="m 757.57,-580.2 c 22.795,7.758 45.195,20.211 58.93,40.2 9.061,13.187 9.292,22.975 0,36 -13.65,19.134 -34.673,31.43 -56.841,39.311"
         id="path238"
         inkscape:connector-curvature="0"
         style="fill:none;stroke:#808080;stroke-width:2" />
      <polygon
         points="758.529,-468.002 760.699,-461.347 750.107,-461.574 "
         id="polygon240"
         style="fill:#808080;stroke:#808080;stroke-width:2" />
    </g>
    <!-- 13 -->
    <!-- 13&#45;&gt;5 -->
    <!-- 14&#45;&gt;13 -->
    <!-- 15 -->
    <g
       id="node16"
       class="node">
      <title
         id="title266">15</title>
      <path
         d="m 720,-252 c 0,0 -101,0 -101,0 -6,0 -12,6 -12,12 0,0 0,12 0,12 0,6 6,12 12,12 0,0 101,0 101,0 6,0 12,-6 12,-12 0,0 0,-12 0,-12 0,-6 -6,-12 -12,-12"
         id="path268"
         inkscape:connector-curvature="0"
         style="fill:none;stroke:#d8ac56;stroke-width:2" />
      <text
         x="669.5"
         y="-231.5"
         font-size="10.00"
         id="text270"
         style="font-size:10px;font-family:sans;text-anchor:middle">annotate_with_prokka</text>
    </g>
    <!-- 15&#45;&gt;8 -->
    <g
       id="edge11"
       class="edge">
      <title
         id="title273">15-&gt;8</title>
      <path
         d="m 606.855,-217.722 c -20.746,8.008 -42.14,19.987 -56.355,37.722 -13.828,17.252 -17.907,42.315 -18.769,61.451"
         id="path275"
         inkscape:connector-curvature="0"
         style="fill:none;stroke:#808080;stroke-width:2" />
      <polygon
         points="528.228,-118.406 535.227,-118.277 531.544,-108.343 "
         id="polygon277"
         style="fill:#808080;stroke:#808080;stroke-width:2" />
    </g>
    <!-- 20 -->
    <g
       id="node21"
       class="node">
      <title
         id="title280">20</title>
      <path
         d="m 769,-180 c 0,0 -197,0 -197,0 -6,0 -12,6 -12,12 0,0 0,12 0,12 0,6 6,12 12,12 0,0 197,0 197,0 6,0 12,-6 12,-12 0,0 0,-12 0,-12 0,-6 -6,-12 -12,-12"
         id="path282"
         inkscape:connector-curvature="0"
         style="fill:none;stroke:#56d892;stroke-width:2" />
      <text
         x="670.5"
         y="-159.5"
         font-size="10.00"
         id="text284"
         style="font-size:10px;font-family:sans;text-anchor:middle">calculate_assembly_statistics_with_quast</text>
    </g>
    <!-- 15&#45;&gt;20 -->
    <g
       id="edge28"
       class="edge">
      <title
         id="title287">15-&gt;20</title>
      <path
         d="m 669.747,-215.697 c 0.11,7.714 0.243,16.985 0.366,25.585"
         id="path289"
         inkscape:connector-curvature="0"
         style="fill:none;stroke:#808080;stroke-width:2" />
      <polygon
         points="666.613,-190.053 673.612,-190.153 670.256,-180.104 "
         id="polygon291"
         style="fill:#808080;stroke:#808080;stroke-width:2" />
    </g>
    <!-- 16&#45;&gt;21 -->
    <g
       id="edge30"
       class="edge">
      <title
         id="title294">16-&gt;21</title>
      <path
         d="m 654.972,-503.697 c 1.102,7.714 2.426,16.985 3.655,25.585"
         id="path296"
         inkscape:connector-curvature="0"
         style="fill:none;stroke:#808080;stroke-width:2" />
      <polygon
         points="655.177,-477.509 662.107,-478.499 660.057,-468.104 "
         id="polygon298"
         style="fill:#808080;stroke:#808080;stroke-width:2" />
    </g>
    <!-- 17&#45;&gt;15 -->
    <g
       id="edge23"
       class="edge">
      <title
         id="title301">17-&gt;15</title>
      <path
         d="m 669.5,-287.697 c 0,7.714 0,16.985 0,25.585"
         id="path303"
         inkscape:connector-curvature="0"
         style="fill:none;stroke:#808080;stroke-width:2" />
      <polygon
         points="666,-262.104 673,-262.104 669.5,-252.104 "
         id="polygon305"
         style="fill:#808080;stroke:#808080;stroke-width:2" />
    </g>
    <!-- 18 -->
    <g
       id="node19"
       class="node"
       transform="translate(140.07093)">
      <title
         id="title308">18</title>
      <path
         d="m 387.5,-1188 c 0,0 -134,0 -134,0 -6,0 -12,6 -12,12 0,0 0,12 0,12 0,6 6,12 12,12 0,0 134,0 134,0 6,0 12,-6 12,-12 0,0 0,-12 0,-12 0,-6 -6,-12 -12,-12"
         id="path310"
         inkscape:connector-curvature="0"
         style="fill:none;stroke:#61d856;stroke-width:2" />
      <text
         x="320.5"
         y="-1173"
         font-size="10.00"
         id="text312"
         style="font-size:10px;font-family:sans;text-anchor:middle">copy_fastq_paired_from_link</text>
      <text
         x="320.5"
         y="-1162"
         font-size="10.00"
         id="text314"
         style="font-size:10px;font-family:sans;text-anchor:middle">sample: S1</text>
    </g>
    <!-- 18&#45;&gt;4 -->
    <!-- 19 -->
    <g
       id="node20"
       class="node">
      <title
         id="title324">19</title>
      <path
         d="m 555.5,-1116 c 0,0 -176,0 -176,0 -6,0 -12,6 -12,12 0,0 0,12 0,12 0,6 6,12 12,12 0,0 176,0 176,0 6,0 12,-6 12,-12 0,0 0,-12 0,-12 0,-6 -6,-12 -12,-12"
         id="path326"
         inkscape:connector-curvature="0"
         style="fill:none;stroke:#59d856;stroke-width:2" />
      <text
         x="467.5"
         y="-1095.5"
         font-size="10.00"
         id="text328"
         style="font-size:10px;font-family:sans;text-anchor:middle">trim_paired_reads_with_trimmomatic</text>
    </g>
    <!-- 18&#45;&gt;19 -->
    <!-- 19&#45;&gt;0 -->
    <g
       id="edge1"
       class="edge">
      <title
         id="title338">19-&gt;0</title>
      <path
         d="m 509.576,-1079.88 c 23.722,9.66 53.54,21.79 78.625,32"
         id="path340"
         inkscape:connector-curvature="0"
         style="fill:none;stroke:#808080;stroke-width:2" />
      <polygon
         points="586.979,-1044.6 589.618,-1051.08 597.561,-1044.07 "
         id="polygon342"
         style="fill:#808080;stroke:#808080;stroke-width:2" />
    </g>
    <!-- 19&#45;&gt;2 -->
    <g
       id="edge3"
       class="edge">
      <title
         id="title345">19-&gt;2</title>
      <path
         d="m 448.683,-1079.87 c -27.642,25.16 -79.338,72.22 -110.771,100.828"
         id="path347"
         inkscape:connector-curvature="0"
         style="fill:none;stroke:#808080;stroke-width:2" />
      <polygon
         points="335.423,-981.509 340.135,-976.332 330.384,-972.189 "
         id="polygon349"
         style="fill:#808080;stroke:#808080;stroke-width:2" />
    </g>
    <!-- 19&#45;&gt;10 -->
    <g
       id="edge14"
       class="edge">
      <title
         id="title352">19-&gt;10</title>
      <path
         d="m 463.655,-1079.61 c -5.552,26.67 -15.155,79.34 -15.155,124.61 0,0 0,0 0,434 0,40.14 -7.551,86.103 -13.132,114.595"
         id="path354"
         inkscape:connector-curvature="0"
         style="fill:none;stroke:#808080;stroke-width:2" />
      <polygon
         points="431.894,-406.883 438.755,-405.498 433.345,-396.388 "
         id="polygon356"
         style="fill:#808080;stroke:#808080;stroke-width:2" />
    </g>
    <!-- 19&#45;&gt;12 -->
    <g
       id="edge18"
       class="edge">
      <title
         id="title359">19-&gt;12</title>
      <path
         d="m 471.345,-1079.61 c 5.552,26.67 15.155,79.34 15.155,124.61 0,0 0,0 0,218 0,40.356 -9.133,59.126 18,89 21.744,23.941 53.939,37.209 84.742,44.512"
         id="path361"
         inkscape:connector-curvature="0"
         style="fill:none;stroke:#808080;stroke-width:2" />
      <polygon
         points="588.663,-600.032 590.155,-606.871 599.179,-601.321 "
         id="polygon363"
         style="fill:#808080;stroke:#808080;stroke-width:2" />
    </g>
    <!-- 20&#45;&gt;8 -->
    <g
       id="edge12"
       class="edge">
      <title
         id="title366">20-&gt;8</title>
      <path
         d="m 636.741,-143.876 c -18.461,9.364 -41.523,21.062 -61.258,31.073"
         id="path368"
         inkscape:connector-curvature="0"
         style="fill:none;stroke:#808080;stroke-width:2" />
      <polygon
         points="573.723,-115.835 576.89,-109.592 566.388,-108.19 "
         id="polygon370"
         style="fill:#808080;stroke:#808080;stroke-width:2" />
    </g>
    <!-- 21&#45;&gt;1 -->
    <g
       id="edge2"
       class="edge">
      <title
         id="title373">21-&gt;1</title>
      <path
         d="m 663.736,-431.697 c 0.551,7.714 1.213,16.985 1.827,25.585"
         id="path375"
         inkscape:connector-curvature="0"
         style="fill:none;stroke:#808080;stroke-width:2" />
      <polygon
         points="662.075,-405.83 669.057,-406.328 666.278,-396.104 "
         id="polygon377"
         style="fill:#808080;stroke:#808080;stroke-width:2" />
    </g>
    <!-- 21&#45;&gt;10 -->
    <g
       id="edge16"
       class="edge">
      <title
         id="title380">21-&gt;10</title>
      <path
         d="m 605.8,-431.966 c -32.98,9.909 -74.732,22.452 -109.326,32.845"
         id="path382"
         inkscape:connector-curvature="0"
         style="fill:none;stroke:#808080;stroke-width:2" />
      <polygon
         points="495.025,-402.34 497.039,-395.636 486.455,-396.111 "
         id="polygon384"
         style="fill:#808080;stroke:#808080;stroke-width:2" />
    </g>
    <!-- 22&#45;&gt;12 -->
    <g
       id="edge19"
       class="edge">
      <title
         id="title387">22-&gt;12</title>
      <path
         d="m 678.5,-647.697 c 0,7.714 0,16.985 0,25.585"
         id="path389"
         inkscape:connector-curvature="0"
         style="fill:none;stroke:#808080;stroke-width:2" />
      <polygon
         points="675,-622.104 682,-622.104 678.5,-612.104 "
         id="polygon391"
         style="fill:#808080;stroke:#808080;stroke-width:2" />
    </g>
    <g
       transform="translate(-264.33418,-361.18928)"
       id="edge4-3"
       class="edge">
      <title
         id="title143-6">6-&gt;3</title>
      <path
         style="fill:none;stroke:#808080;stroke-width:2"
         inkscape:connector-curvature="0"
         d="m 725.5,-791.697 c 0,7.714 0,16.985 0,25.585"
         id="path145-7" />
      <polygon
         style="fill:#808080;stroke:#808080;stroke-width:2"
         points="725.5,-756.104 722,-766.104 729,-766.104 "
         id="polygon147-5" />
    </g>
  </g>
</svg>
