<?xml version="1.0" encoding="UTF-8" standalone="no"?>
<!-- Created with Inkscape (http://www.inkscape.org/) -->

<svg
   xmlns:dc="http://purl.org/dc/elements/1.1/"
   xmlns:cc="http://creativecommons.org/ns#"
   xmlns:rdf="http://www.w3.org/1999/02/22-rdf-syntax-ns#"
   xmlns:svg="http://www.w3.org/2000/svg"
   xmlns="http://www.w3.org/2000/svg"
   xmlns:sodipodi="http://sodipodi.sourceforge.net/DTD/sodipodi-0.dtd"
   xmlns:inkscape="http://www.inkscape.org/namespaces/inkscape"
   width="351.01392mm"
   height="190.50002mm"
   viewBox="0 0 351.01392 190.50002"
   version="1.1"
   id="svg1201"
   inkscape:version="0.92.3 (unknown)"
   sodipodi:docname="differences.svg">
  <defs
     id="defs1195" />
  <sodipodi:namedview
     id="base"
     pagecolor="#ffffff"
     bordercolor="#666666"
     borderopacity="1.0"
     inkscape:pageopacity="0.0"
     inkscape:pageshadow="2"
     inkscape:zoom="0.46065521"
     inkscape:cx="821.40249"
     inkscape:cy="-281.12315"
     inkscape:document-units="mm"
     inkscape:current-layer="layer1"
     showgrid="false"
     fit-margin-top="0"
     fit-margin-left="0"
     fit-margin-right="0"
     fit-margin-bottom="0"
     inkscape:window-width="1080"
     inkscape:window-height="1896"
     inkscape:window-x="1920"
     inkscape:window-y="24"
     inkscape:window-maximized="1" />
  <metadata
     id="metadata1198">
    <rdf:RDF>
      <cc:Work
         rdf:about="">
        <dc:format>image/svg+xml</dc:format>
        <dc:type
           rdf:resource="http://purl.org/dc/dcmitype/StillImage" />
        <dc:title></dc:title>
      </cc:Work>
    </rdf:RDF>
  </metadata>
  <g
     inkscape:label="Calque 1"
     inkscape:groupmode="layer"
     id="layer1"
     transform="translate(118.85098,6.5977842)">
    <g
       transform="matrix(0.3527778,0,0,0.3527778,-657.71907,183.54945)"
       id="node6"
       class="node">
      <title
         id="title203">5</title>
      <path
         d="m 1835.5,-306 c 0,0 -295,0 -295,0 -6,0 -12,6 -12,12 0,0 0,39 0,39 0,6 6,12 12,12 0,0 295,0 295,0 6,0 12,-6 12,-12 0,0 0,-39 0,-39 0,-6 -6,-12 -12,-12"
         id="path205"
         inkscape:connector-curvature="0"
         style="fill:none;stroke:#d87556;stroke-width:2" />
      <text
         x="1688"
         y="-294"
         font-size="10.00"
         id="text207"
         style="font-size:10px;font-family:sans;text-anchor:middle">calculate_pairwise_distances_by_type</text>
      <text
         x="1688"
         y="-283"
         font-size="10.00"
         id="text209"
         style="font-size:10px;font-family:sans;text-anchor:middle">any_analysis: typing/freebayes_joint_genotyping/cgMLST/bwa</text>
      <text
         x="1688"
         y="-272"
         font-size="10.00"
         id="text211"
         style="font-size:10px;font-family:sans;text-anchor:middle">sample1: S1</text>
      <text
         x="1688"
         y="-261"
         font-size="10.00"
         id="text213"
         style="font-size:10px;font-family:sans;text-anchor:middle">sample2: S2</text>
      <text
         x="1688"
         y="-250"
         font-size="10.00"
         id="text215"
         style="font-size:10px;font-family:sans;text-anchor:middle">type: snp</text>
    </g>
    <g
       transform="matrix(0.3527778,0,0,0.3527778,-657.71907,183.54945)"
       id="node35"
       class="node">
      <title
         id="title218">34</title>
      <path
         d="m 2149,-207 c 0,0 -248,0 -248,0 -6,0 -12,6 -12,12 0,0 0,12 0,12 0,6 6,12 12,12 0,0 248,0 248,0 6,0 12,-6 12,-12 0,0 0,-12 0,-12 0,-6 -6,-12 -12,-12"
         id="path220"
         inkscape:connector-curvature="0"
         style="fill:none;stroke:#88d856;stroke-width:2" />
      <text
         x="2025"
         y="-186.5"
         font-size="10.00"
         id="text222"
         style="font-size:10px;font-family:sans;text-anchor:middle">agregate_distances_from_joint_genotyping_by_type</text>
    </g>
    <g
       transform="matrix(0.3527778,0,0,0.3527778,-657.71907,183.54945)"
       id="edge57"
       class="edge">
      <title
         id="title225">5-&gt;34</title>
      <path
         d="m 1811.57,-242.882 c 45.12,11.18 94.88,23.509 134.99,33.448"
         id="path227"
         inkscape:connector-curvature="0"
         style="fill:none;stroke:#808080;stroke-width:2" />
      <polygon
         points="1956.28,-207.026 1945.73,-206.034 1947.42,-212.829 "
         id="polygon229"
         style="fill:#808080;stroke:#808080;stroke-width:2" />
    </g>
    <g
       transform="matrix(0.3527778,0,0,0.3527778,-657.71907,183.54945)"
       id="node28"
       class="node">
      <title
         id="title690">27</title>
      <path
         d="m 2015,-378 c 0,0 -40,0 -40,0 -6,0 -12,6 -12,12 0,0 0,12 0,12 0,6 6,12 12,12 0,0 40,0 40,0 6,0 12,-6 12,-12 0,0 0,-12 0,-12 0,-6 -6,-12 -12,-12"
         id="path692"
         inkscape:connector-curvature="0"
         style="fill:none;stroke:#56d8d0;stroke-width:2" />
      <text
         x="1995"
         y="-357.5"
         font-size="10.00"
         id="text694"
         style="font-size:10px;font-family:sans;text-anchor:middle">index_vcf</text>
    </g>
    <g
       transform="matrix(0.3527778,0,0,0.3527778,-657.71907,183.54945)"
       id="edge7"
       class="edge">
      <title
         id="title697">27-&gt;5</title>
      <path
         d="m 1962.73,-350.222 c -36.24,9.855 -97.22,26.44 -152.53,41.485"
         id="path699"
         inkscape:connector-curvature="0"
         style="fill:none;stroke:#808080;stroke-width:2" />
      <polygon
         points="1800.3,-306.045 1809.04,-312.047 1810.87,-305.293 "
         id="polygon701"
         style="fill:#808080;stroke:#808080;stroke-width:2" />
    </g>
    <g
       transform="matrix(0.3527778,0,0,0.3527778,-657.71907,183.54945)"
       id="node47"
       class="node">
      <title
         id="title704">46</title>
      <path
         d="m 2172.5,-300.5 c 0,0 -295,0 -295,0 -6,0 -12,6 -12,12 0,0 0,28 0,28 0,6 6,12 12,12 0,0 295,0 295,0 6,0 12,-6 12,-12 0,0 0,-28 0,-28 0,-6 -6,-12 -12,-12"
         id="path706"
         inkscape:connector-curvature="0"
         style="fill:none;stroke:#d87556;stroke-width:2" />
      <text
         x="2025"
         y="-288.5"
         font-size="10.00"
         id="text708"
         style="font-size:10px;font-family:sans;text-anchor:middle">calculate_distance_with_ref_by_type</text>
      <text
         x="2025"
         y="-277.5"
         font-size="10.00"
         id="text710"
         style="font-size:10px;font-family:sans;text-anchor:middle">any_analysis: typing/freebayes_joint_genotyping/cgMLST/bwa</text>
      <text
         x="2025"
         y="-266.5"
         font-size="10.00"
         id="text712"
         style="font-size:10px;font-family:sans;text-anchor:middle">sample: S2</text>
      <text
         x="2025"
         y="-255.5"
         font-size="10.00"
         id="text714"
         style="font-size:10px;font-family:sans;text-anchor:middle">type: snp</text>
    </g>
    <g
       transform="matrix(0.3527778,0,0,0.3527778,-657.71907,183.54945)"
       id="edge76"
       class="edge">
      <title
         id="title717">27-&gt;46</title>
      <path
         d="m 2001.22,-341.699 c 3.25,9.07 7.37,20.517 11.25,31.331"
         id="path719"
         inkscape:connector-curvature="0"
         style="fill:none;stroke:#808080;stroke-width:2" />
      <polygon
         points="2015.95,-300.701 2009.27,-308.929 2015.86,-311.296 "
         id="polygon721"
         style="fill:#808080;stroke:#808080;stroke-width:2" />
    </g>
    <g
       transform="matrix(0.3527778,0,0,0.3527778,-657.71907,183.54945)"
       id="node55"
       class="node">
      <title
         id="title724">54</title>
      <path
         d="m 2509.5,-300.5 c 0,0 -295,0 -295,0 -6,0 -12,6 -12,12 0,0 0,28 0,28 0,6 6,12 12,12 0,0 295,0 295,0 6,0 12,-6 12,-12 0,0 0,-28 0,-28 0,-6 -6,-12 -12,-12"
         id="path726"
         inkscape:connector-curvature="0"
         style="fill:none;stroke:#d87556;stroke-width:2" />
      <text
         x="2362"
         y="-288.5"
         font-size="10.00"
         id="text728"
         style="font-size:10px;font-family:sans;text-anchor:middle">calculate_distance_with_ref_by_type</text>
      <text
         x="2362"
         y="-277.5"
         font-size="10.00"
         id="text730"
         style="font-size:10px;font-family:sans;text-anchor:middle">any_analysis: typing/freebayes_joint_genotyping/cgMLST/bwa</text>
      <text
         x="2362"
         y="-266.5"
         font-size="10.00"
         id="text732"
         style="font-size:10px;font-family:sans;text-anchor:middle">sample: S1</text>
      <text
         x="2362"
         y="-255.5"
         font-size="10.00"
         id="text734"
         style="font-size:10px;font-family:sans;text-anchor:middle">type: snp</text>
    </g>
    <g
       transform="matrix(0.3527778,0,0,0.3527778,-657.71907,183.54945)"
       id="edge85"
       class="edge">
      <title
         id="title737">27-&gt;54</title>
      <path
         d="m 2027.25,-351.663 c 47.62,10.835 139.26,31.685 214.63,48.834"
         id="path739"
         inkscape:connector-curvature="0"
         style="fill:none;stroke:#808080;stroke-width:2" />
      <polygon
         points="2251.93,-300.542 2241.41,-299.348 2242.96,-306.174 "
         id="polygon741"
         style="fill:#808080;stroke:#808080;stroke-width:2" />
    </g>
    <g
       transform="matrix(0.3527778,0,0,0.3527778,-657.71907,183.54945)"
       id="node56"
       class="node">
      <title
         id="title802">55</title>
      <path
         d="m 2117,-135 c 0,0 -184,0 -184,0 -6,0 -12,6 -12,12 0,0 0,39 0,39 0,6 6,12 12,12 0,0 184,0 184,0 6,0 12,-6 12,-12 0,0 0,-39 0,-39 0,-6 -6,-12 -12,-12"
         id="path804"
         inkscape:connector-curvature="0"
         style="fill:none;stroke:#56d8b9;stroke-width:2" />
      <text
         x="2025"
         y="-123"
         font-size="10.00"
         id="text806"
         style="font-size:10px;font-family:sans;text-anchor:middle">distance_columns_to_matrix</text>
      <text
         x="2025"
         y="-112"
         font-size="10.00"
         id="text808"
         style="font-size:10px;font-family:sans;text-anchor:middle">core_genome_or_full_genome: cgMLST</text>
      <text
         x="2025"
         y="-101"
         font-size="10.00"
         id="text810"
         style="font-size:10px;font-family:sans;text-anchor:middle">distance_type: distances_in_snp</text>
      <text
         x="2025"
         y="-90"
         font-size="10.00"
         id="text812"
         style="font-size:10px;font-family:sans;text-anchor:middle">mapping_method: bwa</text>
      <text
         x="2025"
         y="-79"
         font-size="10.00"
         id="text814"
         style="font-size:10px;font-family:sans;text-anchor:middle">snp_caller: freebayes_joint_genotyping</text>
    </g>
    <g
       transform="matrix(0.3527778,0,0,0.3527778,-657.71907,183.54945)"
       id="edge87"
       class="edge">
      <title
         id="title817">34-&gt;55</title>
      <path
         d="m 2025,-170.699 c 0,7.428 0,16.449 0,25.411"
         id="path819"
         inkscape:connector-curvature="0"
         style="fill:none;stroke:#808080;stroke-width:2" />
      <polygon
         points="2025,-135.283 2021.5,-145.283 2028.5,-145.283 "
         id="polygon821"
         style="fill:#808080;stroke:#808080;stroke-width:2" />
    </g>
    <g
       transform="matrix(0.3527778,0,0,0.3527778,-657.71907,183.54945)"
       id="node36"
       class="node">
      <title
         id="title824">35</title>
      <path
         d="m 2117,-538 c 0,0 -184,0 -184,0 -6,0 -12,6 -12,12 0,0 0,28 0,28 0,6 6,12 12,12 0,0 184,0 184,0 6,0 12,-6 12,-12 0,0 0,-28 0,-28 0,-6 -6,-12 -12,-12"
         id="path826"
         inkscape:connector-curvature="0"
         style="fill:none;stroke:#d87d56;stroke-width:2" />
      <text
         x="2025"
         y="-526"
         font-size="10.00"
         id="text828"
         style="font-size:10px;font-family:sans;text-anchor:middle">extract_cgMLST_regions_from_vcf</text>
      <text
         x="2025"
         y="-515"
         font-size="10.00"
         id="text830"
         style="font-size:10px;font-family:sans;text-anchor:middle">mapping_method: bwa</text>
      <text
         x="2025"
         y="-504"
         font-size="10.00"
         id="text832"
         style="font-size:10px;font-family:sans;text-anchor:middle">snp_caller: freebayes_joint_genotyping</text>
      <text
         x="2025"
         y="-493"
         font-size="10.00"
         id="text834"
         style="font-size:10px;font-family:sans;text-anchor:middle">type: snp</text>
    </g>
    <g
       transform="matrix(0.3527778,0,0,0.3527778,-657.71907,183.54945)"
       id="node51"
       class="node">
      <title
         id="title837">50</title>
      <path
         d="m 2201.5,-450 c 0,0 -353,0 -353,0 -6,0 -12,6 -12,12 0,0 0,12 0,12 0,6 6,12 12,12 0,0 353,0 353,0 6,0 12,-6 12,-12 0,0 0,-12 0,-12 0,-6 -6,-12 -12,-12"
         id="path839"
         inkscape:connector-curvature="0"
         style="fill:none;stroke:#56d8c9;stroke-width:2" />
      <text
         x="2025"
         y="-435"
         font-size="10.00"
         id="text841"
         style="font-size:10px;font-family:sans;text-anchor:middle">compress_vcf</text>
      <text
         x="2025"
         y="-424"
         font-size="10.00"
         id="text843"
         style="font-size:10px;font-family:sans;text-anchor:middle">any_vcf: typing/freebayes_joint_genotyping/cgMLST/bwa/all_samples_snp</text>
    </g>
    <g
       transform="matrix(0.3527778,0,0,0.3527778,-657.71907,183.54945)"
       id="edge81"
       class="edge">
      <title
         id="title846">35-&gt;50</title>
      <path
         d="m 2025,-485.891 c 0,8.051 0,17.011 0,25.233"
         id="path848"
         inkscape:connector-curvature="0"
         style="fill:none;stroke:#808080;stroke-width:2" />
      <polygon
         points="2025,-450.411 2021.5,-460.411 2028.5,-460.411 "
         id="polygon850"
         style="fill:#808080;stroke:#808080;stroke-width:2" />
    </g>
    <g
       transform="matrix(0.3527778,0,0,0.3527778,-657.71907,183.54945)"
       id="node40"
       class="node">
      <title
         id="title904">39</title>
      <path
         d="m 2122,-36 c 0,0 -194,0 -194,0 -6,0 -12,6 -12,12 0,0 0,12 0,12 0,6 6,12 12,12 0,0 194,0 194,0 6,0 12,-6 12,-12 0,0 0,-12 0,-12 0,-6 -6,-12 -12,-12"
         id="path906"
         inkscape:connector-curvature="0"
         style="fill:none;stroke:#5663d8;stroke-width:2" />
      <text
         x="2025"
         y="-15.5"
         font-size="10.00"
         id="text908"
         style="font-size:10px;font-family:sans;text-anchor:middle">compute_minimum_spanning_tree_no_st</text>
    </g>
    <g
       transform="matrix(0.3527778,0,0,0.3527778,-657.71907,183.54945)"
       id="edge58"
       class="edge">
      <title
         id="title992">46-&gt;34</title>
      <path
         d="m 2025,-248.447 c 0,9.807 0,21.086 0,31.104"
         id="path994"
         inkscape:connector-curvature="0"
         style="fill:none;stroke:#808080;stroke-width:2" />
      <polygon
         points="2025,-207.097 2021.5,-217.097 2028.5,-217.097 "
         id="polygon996"
         style="fill:#808080;stroke:#808080;stroke-width:2" />
    </g>
    <g
       transform="matrix(0.3527778,0,0,0.3527778,-657.71907,183.54945)"
       id="edge8"
       class="edge">
      <title
         id="title1073">50-&gt;5</title>
      <path
         d="m 1987.97,-413.914 c -53.75,24.804 -154.59,71.334 -224.43,103.557"
         id="path1075"
         inkscape:connector-curvature="0"
         style="fill:none;stroke:#808080;stroke-width:2" />
      <polygon
         points="1754.33,-306.106 1761.94,-313.474 1764.88,-307.118 "
         id="polygon1077"
         style="fill:#808080;stroke:#808080;stroke-width:2" />
    </g>
    <g
       transform="matrix(0.3527778,0,0,0.3527778,-657.71907,183.54945)"
       id="edge46"
       class="edge">
      <title
         id="title1080">50-&gt;27</title>
      <path
         d="m 2017.58,-413.697 c -3.37,7.884 -7.45,17.393 -11.2,26.151"
         id="path1082"
         inkscape:connector-curvature="0"
         style="fill:none;stroke:#808080;stroke-width:2" />
      <polygon
         points="2002.33,-378.104 2003.05,-388.675 2009.49,-385.917 "
         id="polygon1084"
         style="fill:#808080;stroke:#808080;stroke-width:2" />
    </g>
    <g
       transform="matrix(0.3527778,0,0,0.3527778,-657.71907,183.54945)"
       id="edge77"
       class="edge">
      <title
         id="title1087">50-&gt;46</title>
      <path
         d="m 2029.46,-413.953 c 2.48,10.323 5.29,23.8 6.54,35.953 2.29,22.335 -0.3,47.395 -3.55,67.145"
         id="path1089"
         inkscape:connector-curvature="0"
         style="fill:none;stroke:#808080;stroke-width:2" />
      <polygon
         points="2030.67,-300.767 2028.96,-311.224 2035.86,-310.003 "
         id="polygon1091"
         style="fill:#808080;stroke:#808080;stroke-width:2" />
    </g>
    <g
       transform="matrix(0.3527778,0,0,0.3527778,-657.71907,183.54945)"
       id="edge86"
       class="edge">
      <title
         id="title1094">50-&gt;54</title>
      <path
         d="m 2062.03,-413.914 c 56.94,26.276 166.73,76.935 236.52,109.137"
         id="path1096"
         inkscape:connector-curvature="0"
         style="fill:none;stroke:#808080;stroke-width:2" />
      <polygon
         points="2307.7,-300.555 2297.15,-301.567 2300.09,-307.923 "
         id="polygon1098"
         style="fill:#808080;stroke:#808080;stroke-width:2" />
    </g>
    <g
       transform="matrix(0.3527778,0,0,0.3527778,-657.71907,183.54945)"
       id="edge59"
       class="edge">
      <title
         id="title1136">54-&gt;34</title>
      <path
         d="m 2260.89,-248.447 c -50.41,12.49 -110.45,27.367 -157.35,38.986"
         id="path1138"
         inkscape:connector-curvature="0"
         style="fill:none;stroke:#808080;stroke-width:2" />
      <polygon
         points="2093.74,-207.033 2102.61,-212.836 2104.29,-206.041 "
         id="polygon1140"
         style="fill:#808080;stroke:#808080;stroke-width:2" />
    </g>
    <g
       transform="matrix(0.3527778,0,0,0.3527778,-657.71907,183.54945)"
       id="edge65"
       class="edge">
      <title
         id="title1143">55-&gt;39</title>
      <path
         d="m 2025,-71.8818 c 0,8.4144 0,17.4796 0,25.687"
         id="path1145"
         inkscape:connector-curvature="0"
         style="fill:none;stroke:#808080;stroke-width:2" />
      <polygon
         points="2025,-36.0265 2021.5,-46.0265 2028.5,-46.0264 "
         id="polygon1147"
         style="fill:#808080;stroke:#808080;stroke-width:2" />
    </g>
  </g>
</svg>
