<?xml version="1.0" encoding="UTF-8" standalone="no"?>
<!-- Generated by graphviz version 2.38.0 (20140413.2041)
 -->

<!-- Title: snakemake_dag Pages: 1 -->

<svg
   xmlns:dc="http://purl.org/dc/elements/1.1/"
   xmlns:cc="http://creativecommons.org/ns#"
   xmlns:rdf="http://www.w3.org/1999/02/22-rdf-syntax-ns#"
   xmlns:svg="http://www.w3.org/2000/svg"
   xmlns="http://www.w3.org/2000/svg"
   xmlns:sodipodi="http://sodipodi.sourceforge.net/DTD/sodipodi-0.dtd"
   xmlns:inkscape="http://www.inkscape.org/namespaces/inkscape"
   width="740pt"
   height="723pt"
   viewBox="0 0 740 723"
   version="1.1"
   id="svg668"
   sodipodi:docname="filtering.svg"
   inkscape:version="0.92.2 (unknown)">
  <metadata
     id="metadata674">
    <rdf:RDF>
      <cc:Work
         rdf:about="">
        <dc:format>image/svg+xml</dc:format>
        <dc:type
           rdf:resource="http://purl.org/dc/dcmitype/StillImage" />
        <dc:title></dc:title>
      </cc:Work>
    </rdf:RDF>
  </metadata>
  <defs
     id="defs672" />
  <sodipodi:namedview
     pagecolor="#ffffff"
     bordercolor="#666666"
     borderopacity="1"
     objecttolerance="10"
     gridtolerance="10"
     guidetolerance="10"
     inkscape:pageopacity="0"
     inkscape:pageshadow="2"
     inkscape:window-width="1920"
     inkscape:window-height="1056"
     id="namedview670"
     showgrid="false"
     inkscape:zoom="0.45364619"
     inkscape:cx="756.02985"
     inkscape:cy="528.6872"
     inkscape:window-x="0"
     inkscape:window-y="24"
     inkscape:window-maximized="1"
     inkscape:current-layer="graph0"
     fit-margin-top="0"
     fit-margin-left="0"
     fit-margin-right="0"
     fit-margin-bottom="0" />
  <g
     id="graph0"
     class="graph"
     transform="translate(-72,722)">
    <title
       id="title2">snakemake_dag</title>
    <!-- 0 -->
    <!-- 21 -->
    <!-- 0&#45;&gt;21 -->
    <!-- 1 -->
    <g
       id="node2"
       class="node">
      <title
         id="title27">1</title>
      <path
         d="m 633.5,-52 c 0,0 -273,0 -273,0 -6,0 -12,6 -12,12 0,0 0,28 0,28 0,6 6,12 12,12 0,0 273,0 273,0 6,0 12,-6 12,-12 0,0 0,-28 0,-28 0,-6 -6,-12 -12,-12"
         id="path29"
         inkscape:connector-curvature="0"
         style="fill:none;stroke:#d85e56;stroke-width:2" />
      <text
         x="497"
         y="-40"
         font-size="10.00"
         id="text31"
         style="font-size:10px;font-family:sans;text-anchor:middle">extract_allele_by_type_from_freebayes_joint_genotyping</text>
      <text
         x="497"
         y="-29"
         font-size="10.00"
         id="text33"
         style="font-size:10px;font-family:sans;text-anchor:middle">mapping_method: bwa</text>
      <text
         x="497"
         y="-18"
         font-size="10.00"
         id="text35"
         style="font-size:10px;font-family:sans;text-anchor:middle">ref: 34528</text>
      <text
         x="497"
         y="-7"
         font-size="10.00"
         id="text37"
         style="font-size:10px;font-family:sans;text-anchor:middle">type: snp</text>
    </g>
    <!-- 2 -->
    <!-- 3 -->
    <!-- 2&#45;&gt;3 -->
    <!-- 27 -->
    <!-- 2&#45;&gt;27 -->
    <!-- 8 -->
    <!-- 3&#45;&gt;8 -->
    <!-- 4 -->
    <g
       id="node5"
       class="node">
      <title
         id="title95">4</title>
      <path
         d="m 421,-428 c 0,0 -336,0 -336,0 -6,0 -12,6 -12,12 0,0 0,12 0,12 0,6 6,12 12,12 0,0 336,0 336,0 6,0 12,-6 12,-12 0,0 0,-12 0,-12 0,-6 -6,-12 -12,-12"
         id="path97"
         inkscape:connector-curvature="0"
         style="fill:none;stroke:#ced856;stroke-width:2" />
      <text
         x="253"
         y="-413"
         font-size="10.00"
         id="text99"
         style="font-size:10px;font-family:sans;text-anchor:middle">compress_vcf</text>
      <text
         x="253"
         y="-402"
         font-size="10.00"
         id="text101"
         style="font-size:10px;font-family:sans;text-anchor:middle">any_vcf: samples/S2/snps/freebayes_joint_genotyping/34528/bwa/freq</text>
    </g>
    <!-- 25 -->
    <g
       id="node26"
       class="node">
      <title
         id="title104">25</title>
      <path
         d="m 465,-356 c 0,0 -40,0 -40,0 -6,0 -12,6 -12,12 0,0 0,12 0,12 0,6 6,12 12,12 0,0 40,0 40,0 6,0 12,-6 12,-12 0,0 0,-12 0,-12 0,-6 -6,-12 -12,-12"
         id="path106"
         inkscape:connector-curvature="0"
         style="fill:none;stroke:#61d856;stroke-width:2" />
      <text
         x="445"
         y="-335.5"
         font-size="10.00"
         id="text108"
         style="font-size:10px;font-family:sans;text-anchor:middle">index_vcf</text>
    </g>
    <!-- 4&#45;&gt;25 -->
    <g
       id="edge36"
       class="edge">
      <title
         id="title111">4-&gt;25</title>
      <path
         d="m 299.968,-391.876 c 31.656,11.541 73.035,26.627 103.489,37.73"
         id="path113"
         inkscape:connector-curvature="0"
         style="fill:none;stroke:#808080;stroke-width:2" />
      <polygon
         points="404.738,-357.404 412.934,-350.691 402.341,-350.828 "
         id="polygon115"
         style="fill:#808080;stroke:#808080;stroke-width:2" />
    </g>
    <!-- 29 -->
    <g
       id="node30"
       class="node">
      <title
         id="title118">29</title>
      <path
         d="m 589,-284 c 0,0 -184,0 -184,0 -6,0 -12,6 -12,12 0,0 0,28 0,28 0,6 6,12 12,12 0,0 184,0 184,0 6,0 12,-6 12,-12 0,0 0,-28 0,-28 0,-6 -6,-12 -12,-12"
         id="path120"
         inkscape:connector-curvature="0"
         style="fill:none;stroke:#d86e56;stroke-width:2" />
      <text
         x="497"
         y="-272"
         font-size="10.00"
         id="text122"
         style="font-size:10px;font-family:sans;text-anchor:middle">merge_all_samples_entries_into_vcf</text>
      <text
         x="497"
         y="-261"
         font-size="10.00"
         id="text124"
         style="font-size:10px;font-family:sans;text-anchor:middle">mapping_method: bwa</text>
      <text
         x="497"
         y="-250"
         font-size="10.00"
         id="text126"
         style="font-size:10px;font-family:sans;text-anchor:middle">ref: 34528</text>
      <text
         x="497"
         y="-239"
         font-size="10.00"
         id="text128"
         style="font-size:10px;font-family:sans;text-anchor:middle">snp_caller: freebayes_joint_genotyping</text>
    </g>
    <!-- 4&#45;&gt;29 -->
    <g
       id="edge42"
       class="edge">
      <title
         id="title131">4-&gt;29</title>
      <path
         d="m 280.99,-391.793 c 40.504,24.9 116.086,71.364 166.232,102.192"
         id="path133"
         inkscape:connector-curvature="0"
         style="fill:none;stroke:#808080;stroke-width:2" />
      <polygon
         points="449.28,-292.444 455.966,-284.226 445.614,-286.481 "
         id="polygon135"
         style="fill:#808080;stroke:#808080;stroke-width:2" />
    </g>
    <!-- 5 -->
    <g
       id="node6"
       class="node">
      <title
         id="title138">5</title>
      <path
         d="m 569,-356 c 0,0 -40,0 -40,0 -6,0 -12,6 -12,12 0,0 0,12 0,12 0,6 6,12 12,12 0,0 40,0 40,0 6,0 12,-6 12,-12 0,0 0,-12 0,-12 0,-6 -6,-12 -12,-12"
         id="path140"
         inkscape:connector-curvature="0"
         style="fill:none;stroke:#61d856;stroke-width:2" />
      <text
         x="549"
         y="-335.5"
         font-size="10.00"
         id="text142"
         style="font-size:10px;font-family:sans;text-anchor:middle">index_vcf</text>
    </g>
    <!-- 5&#45;&gt;29 -->
    <g
       id="edge40"
       class="edge">
      <title
         id="title145">5-&gt;29</title>
      <path
         d="m 537.46,-319.689 c -5.315,7.972 -11.812,17.717 -18.031,27.045"
         id="path147"
         inkscape:connector-curvature="0"
         style="fill:none;stroke:#808080;stroke-width:2" />
      <polygon
         points="522.297,-290.636 513.838,-284.257 516.473,-294.519 "
         id="polygon149"
         style="fill:#808080;stroke:#808080;stroke-width:2" />
    </g>
    <!-- 6 -->
    <!-- 22 -->
    <!-- 6&#45;&gt;22 -->
    <!-- 7 -->
    <g
       id="node8"
       class="node">
      <title
         id="title175">7</title>
      <path
         d="m 436.5,-644 c 0,0 -83,0 -83,0 -6,0 -12,6 -12,12 0,0 0,12 0,12 0,6 6,12 12,12 0,0 83,0 83,0 6,0 12,-6 12,-12 0,0 0,-12 0,-12 0,-6 -6,-12 -12,-12"
         id="path177"
         inkscape:connector-curvature="0"
         style="fill:none;stroke:#d86656;stroke-width:2" />
      <text
         x="395"
         y="-623.5"
         font-size="10.00"
         id="text179"
         style="font-size:10px;font-family:sans;text-anchor:middle">filter_on_coverage</text>
    </g>
    <!-- 16 -->
    <g
       id="node17"
       class="node">
      <title
         id="title182">16</title>
      <path
         d="m 564,-572 c 0,0 -148,0 -148,0 -6,0 -12,6 -12,12 0,0 0,12 0,12 0,6 6,12 12,12 0,0 148,0 148,0 6,0 12,-6 12,-12 0,0 0,-12 0,-12 0,-6 -6,-12 -12,-12"
         id="path184"
         inkscape:connector-curvature="0"
         style="fill:none;stroke:#9fd856;stroke-width:2" />
      <text
         x="490"
         y="-557"
         font-size="10.00"
         id="text186"
         style="font-size:10px;font-family:sans;text-anchor:middle">extract_sample_entry_from_vcf</text>
      <text
         x="490"
         y="-546"
         font-size="10.00"
         id="text188"
         style="font-size:10px;font-family:sans;text-anchor:middle">sample: S1</text>
    </g>
    <!-- 7&#45;&gt;16 -->
    <g
       id="edge26"
       class="edge">
      <title
         id="title191">7-&gt;16</title>
      <path
         d="m 418.483,-607.697 c 12.08,8.901 26.971,19.874 40.033,29.498"
         id="path193"
         inkscape:connector-curvature="0"
         style="fill:none;stroke:#808080;stroke-width:2" />
      <polygon
         points="460.813,-580.854 466.787,-572.104 456.66,-575.219 "
         id="polygon195"
         style="fill:#808080;stroke:#808080;stroke-width:2" />
    </g>
    <!-- 24 -->
    <g
       id="node25"
       class="node">
      <title
         id="title198">24</title>
      <path
         d="m 374,-572 c 0,0 -148,0 -148,0 -6,0 -12,6 -12,12 0,0 0,12 0,12 0,6 6,12 12,12 0,0 148,0 148,0 6,0 12,-6 12,-12 0,0 0,-12 0,-12 0,-6 -6,-12 -12,-12"
         id="path200"
         inkscape:connector-curvature="0"
         style="fill:none;stroke:#9fd856;stroke-width:2" />
      <text
         x="300"
         y="-557"
         font-size="10.00"
         id="text202"
         style="font-size:10px;font-family:sans;text-anchor:middle">extract_sample_entry_from_vcf</text>
      <text
         x="300"
         y="-546"
         font-size="10.00"
         id="text204"
         style="font-size:10px;font-family:sans;text-anchor:middle">sample: S2</text>
    </g>
    <!-- 7&#45;&gt;24 -->
    <g
       id="edge35"
       class="edge">
      <title
         id="title207">7-&gt;24</title>
      <path
         d="m 371.517,-607.697 c -12.08,8.901 -26.971,19.874 -40.033,29.498"
         id="path209"
         inkscape:connector-curvature="0"
         style="fill:none;stroke:#808080;stroke-width:2" />
      <polygon
         points="333.34,-575.219 323.213,-572.104 329.187,-580.854 "
         id="polygon211"
         style="fill:#808080;stroke:#808080;stroke-width:2" />
    </g>
    <!-- 31 -->
    <g
       id="node32"
       class="node">
      <title
         id="title214">31</title>
      <path
         d="m 490.5,-721 c 0,0 -191,0 -191,0 -6,0 -12,6 -12,12 0,0 0,17 0,17 0,6 6,12 12,12 0,0 191,0 191,0 6,0 12,-6 12,-12 0,0 0,-17 0,-17 0,-6 -6,-12 -12,-12"
         id="path216"
         inkscape:connector-curvature="0"
         style="fill:none;stroke:#70d856;stroke-width:2" />
      <text
         x="395"
         y="-709"
         font-size="10.00"
         id="text218"
         style="font-size:10px;font-family:sans;text-anchor:middle">decompose_multiallelics_and_normalize</text>
      <text
         x="395"
         y="-698"
         font-size="10.00"
         id="text220"
         style="font-size:10px;font-family:sans;text-anchor:middle">mapping_method: bwa</text>
      <text
         x="395"
         y="-687"
         font-size="10.00"
         id="text222"
         style="font-size:10px;font-family:sans;text-anchor:middle">snp_caller: freebayes_joint_genotyping</text>
    </g>
    <!-- 8&#45;&gt;31 -->
    <!-- 9 -->
    <!-- 9&#45;&gt;2 -->
    <!-- 10 -->
    <!-- 12 -->
    <!-- 10&#45;&gt;12 -->
    <!-- 15 -->
    <!-- 10&#45;&gt;15 -->
    <!-- 11 -->
    <!-- 11&#45;&gt;3 -->
    <!-- 12&#45;&gt;3 -->
    <!-- 12&#45;&gt;11 -->
    <!-- 13 -->
    <!-- 13&#45;&gt;0 -->
    <!-- 14 -->
    <g
       id="node15"
       class="node">
      <title
         id="title331">14</title>
      <path
         d="m 487,-124 c 0,0 -40,0 -40,0 -6,0 -12,6 -12,12 0,0 0,12 0,12 0,6 6,12 12,12 0,0 40,0 40,0 6,0 12,-6 12,-12 0,0 0,-12 0,-12 0,-6 -6,-12 -12,-12"
         id="path333"
         inkscape:connector-curvature="0"
         style="fill:none;stroke:#61d856;stroke-width:2" />
      <text
         x="467"
         y="-103.5"
         font-size="10.00"
         id="text335"
         style="font-size:10px;font-family:sans;text-anchor:middle">index_vcf</text>
    </g>
    <!-- 14&#45;&gt;1 -->
    <g
       id="edge2"
       class="edge">
      <title
         id="title338">14-&gt;1</title>
      <path
         d="m 473.658,-87.6893 c 2.941,7.6467 6.509,16.9246 9.962,25.9013"
         id="path340"
         inkscape:connector-curvature="0"
         style="fill:none;stroke:#808080;stroke-width:2" />
      <polygon
         points="486.963,-62.8469 487.286,-52.257 480.429,-60.334 "
         id="polygon342"
         style="fill:#808080;stroke:#808080;stroke-width:2" />
    </g>
    <!-- 15&#45;&gt;12 -->
    <!-- 26 -->
    <g
       id="node27"
       class="node">
      <title
         id="title352">26</title>
      <path
         d="m 658.5,-500 c 0,0 -149,0 -149,0 -6,0 -12,6 -12,12 0,0 0,12 0,12 0,6 6,12 12,12 0,0 149,0 149,0 6,0 12,-6 12,-12 0,0 0,-12 0,-12 0,-6 -6,-12 -12,-12"
         id="path354"
         inkscape:connector-curvature="0"
         style="fill:none;stroke:#567bd8;stroke-width:2" />
      <text
         x="584"
         y="-479.5"
         font-size="10.00"
         id="text356"
         style="font-size:10px;font-family:sans;text-anchor:middle">filter_on_frequency_per_sample</text>
    </g>
    <!-- 16&#45;&gt;26 -->
    <g
       id="edge37"
       class="edge">
      <title
         id="title359">16-&gt;26</title>
      <path
         d="m 513.236,-535.697 c 11.952,8.901 26.687,19.874 39.611,29.498"
         id="path361"
         inkscape:connector-curvature="0"
         style="fill:none;stroke:#808080;stroke-width:2" />
      <polygon
         points="555.101,-508.884 561.031,-500.104 550.92,-503.27 "
         id="polygon363"
         style="fill:#808080;stroke:#808080;stroke-width:2" />
    </g>
    <!-- 17 -->
    <!-- 17&#45;&gt;3 -->
    <!-- 17&#45;&gt;10 -->
    <!-- 17&#45;&gt;21 -->
    <!-- 30 -->
    <!-- 17&#45;&gt;30 -->
    <!-- 17&#45;&gt;31 -->
    <!-- 32 -->
    <!-- 17&#45;&gt;32 -->
    <!-- 33 -->
    <!-- 17&#45;&gt;33 -->
    <!-- 18 -->
    <g
       id="node19"
       class="node">
      <title
         id="title449">18</title>
      <path
         d="m 374.5,-500 c 0,0 -149,0 -149,0 -6,0 -12,6 -12,12 0,0 0,12 0,12 0,6 6,12 12,12 0,0 149,0 149,0 6,0 12,-6 12,-12 0,0 0,-12 0,-12 0,-6 -6,-12 -12,-12"
         id="path451"
         inkscape:connector-curvature="0"
         style="fill:none;stroke:#567bd8;stroke-width:2" />
      <text
         x="300"
         y="-479.5"
         font-size="10.00"
         id="text453"
         style="font-size:10px;font-family:sans;text-anchor:middle">filter_on_frequency_per_sample</text>
    </g>
    <!-- 18&#45;&gt;4 -->
    <g
       id="edge12"
       class="edge">
      <title
         id="title456">18-&gt;4</title>
      <path
         d="m 288.382,-463.697 c -5.521,8.223 -12.229,18.214 -18.314,27.276"
         id="path458"
         inkscape:connector-curvature="0"
         style="fill:none;stroke:#808080;stroke-width:2" />
      <polygon
         points="272.965,-434.456 264.484,-428.104 267.153,-438.358 "
         id="polygon460"
         style="fill:#808080;stroke:#808080;stroke-width:2" />
    </g>
    <!-- 19 -->
    <g
       id="node20"
       class="node">
      <title
         id="title463">19</title>
      <path
         d="m 767,-196 c 0,0 -540,0 -540,0 -6,0 -12,6 -12,12 0,0 0,12 0,12 0,6 6,12 12,12 0,0 540,0 540,0 6,0 12,-6 12,-12 0,0 0,-12 0,-12 0,-6 -6,-12 -12,-12"
         id="path465"
         inkscape:connector-curvature="0"
         style="fill:none;stroke:#ced856;stroke-width:2" />
      <text
         x="497"
         y="-181"
         font-size="10.00"
         id="text467"
         style="font-size:10px;font-family:sans;text-anchor:middle">compress_vcf</text>
      <text
         x="497"
         y="-170"
         font-size="10.00"
         id="text469"
         style="font-size:10px;font-family:sans;text-anchor:middle">any_vcf: typing/freebayes_joint_genotyping/full_genome/34528/bwa/filtering/freq_cov_decomposed_normalized</text>
    </g>
    <!-- 19&#45;&gt;1 -->
    <g
       id="edge3"
       class="edge">
      <title
         id="title472">19-&gt;1</title>
      <path
         d="m 501.464,-159.953 c 2.471,10.323 5.288,23.8 6.536,35.953 1.634,15.916 1.425,20.064 0,36 -0.757,8.4582 -2.092,17.4983 -3.577,25.9576"
         id="path474"
         inkscape:connector-curvature="0"
         style="fill:none;stroke:#808080;stroke-width:2" />
      <polygon
         points="507.84,-61.278 502.565,-52.0899 500.959,-62.5623 "
         id="polygon476"
         style="fill:#808080;stroke:#808080;stroke-width:2" />
    </g>
    <!-- 19&#45;&gt;14 -->
    <g
       id="edge24"
       class="edge">
      <title
         id="title479">19-&gt;14</title>
      <path
         d="m 489.584,-159.697 c -3.378,7.884 -7.454,17.393 -11.207,26.151"
         id="path481"
         inkscape:connector-curvature="0"
         style="fill:none;stroke:#808080;stroke-width:2" />
      <polygon
         points="481.487,-131.917 474.33,-124.104 475.053,-134.675 "
         id="polygon483"
         style="fill:#808080;stroke:#808080;stroke-width:2" />
    </g>
    <!-- 20 -->
    <g
       id="node21"
       class="node">
      <title
         id="title486">20</title>
      <path
         d="m 799,-428 c 0,0 -336,0 -336,0 -6,0 -12,6 -12,12 0,0 0,12 0,12 0,6 6,12 12,12 0,0 336,0 336,0 6,0 12,-6 12,-12 0,0 0,-12 0,-12 0,-6 -6,-12 -12,-12"
         id="path488"
         inkscape:connector-curvature="0"
         style="fill:none;stroke:#ced856;stroke-width:2" />
      <text
         x="631"
         y="-413"
         font-size="10.00"
         id="text490"
         style="font-size:10px;font-family:sans;text-anchor:middle">compress_vcf</text>
      <text
         x="631"
         y="-402"
         font-size="10.00"
         id="text492"
         style="font-size:10px;font-family:sans;text-anchor:middle">any_vcf: samples/S1/snps/freebayes_joint_genotyping/34528/bwa/freq</text>
    </g>
    <!-- 20&#45;&gt;5 -->
    <g
       id="edge13"
       class="edge">
      <title
         id="title495">20-&gt;5</title>
      <path
         d="m 610.73,-391.697 c -10.228,8.732 -22.791,19.457 -33.908,28.947"
         id="path497"
         inkscape:connector-curvature="0"
         style="fill:none;stroke:#808080;stroke-width:2" />
      <polygon
         points="578.915,-359.935 569.037,-356.104 574.37,-365.259 "
         id="polygon499"
         style="fill:#808080;stroke:#808080;stroke-width:2" />
    </g>
    <!-- 20&#45;&gt;29 -->
    <g
       id="edge41"
       class="edge">
      <title
         id="title502">20-&gt;29</title>
      <path
         d="m 626.194,-391.668 c -5.997,19.201 -17.765,50.27 -36.194,71.668 -9.829,11.412 -22.301,21.533 -34.895,30.09"
         id="path504"
         inkscape:connector-curvature="0"
         style="fill:none;stroke:#808080;stroke-width:2" />
      <polygon
         points="556.688,-286.764 546.398,-284.239 552.868,-292.63 "
         id="polygon506"
         style="fill:#808080;stroke:#808080;stroke-width:2" />
    </g>
    <!-- 21&#45;&gt;10 -->
    <!-- 23 -->
    <!-- 21&#45;&gt;23 -->
    <!-- 22&#45;&gt;32 -->
    <!-- 23&#45;&gt;10 -->
    <!-- 24&#45;&gt;18 -->
    <g
       id="edge27"
       class="edge">
      <title
         id="title546">24-&gt;18</title>
      <path
         d="m 300,-535.697 c 0,7.714 0,16.985 0,25.585"
         id="path548"
         inkscape:connector-curvature="0"
         style="fill:none;stroke:#808080;stroke-width:2" />
      <polygon
         points="303.5,-510.104 300,-500.104 296.5,-510.104 "
         id="polygon550"
         style="fill:#808080;stroke:#808080;stroke-width:2" />
    </g>
    <!-- 25&#45;&gt;29 -->
    <g
       id="edge43"
       class="edge">
      <title
         id="title553">25-&gt;29</title>
      <path
         d="m 456.54,-319.689 c 5.315,7.972 11.812,17.717 18.031,27.045"
         id="path555"
         inkscape:connector-curvature="0"
         style="fill:none;stroke:#808080;stroke-width:2" />
      <polygon
         points="477.527,-294.519 480.162,-284.257 471.703,-290.636 "
         id="polygon557"
         style="fill:#808080;stroke:#808080;stroke-width:2" />
    </g>
    <!-- 26&#45;&gt;20 -->
    <g
       id="edge29"
       class="edge">
      <title
         id="title560">26-&gt;20</title>
      <path
         d="m 595.618,-463.697 c 5.521,8.223 12.229,18.214 18.314,27.276"
         id="path562"
         inkscape:connector-curvature="0"
         style="fill:none;stroke:#808080;stroke-width:2" />
      <polygon
         points="616.847,-438.358 619.516,-428.104 611.035,-434.456 "
         id="polygon564"
         style="fill:#808080;stroke:#808080;stroke-width:2" />
    </g>
    <!-- 27&#45;&gt;3 -->
    <!-- 28 -->
    <!-- 28&#45;&gt;30 -->
    <!-- 29&#45;&gt;19 -->
    <g
       id="edge28"
       class="edge">
      <title
         id="title590">29-&gt;19</title>
      <path
         d="m 497,-231.891 c 0,8.051 0,17.011 0,25.233"
         id="path592"
         inkscape:connector-curvature="0"
         style="fill:none;stroke:#808080;stroke-width:2" />
      <polygon
         points="500.5,-206.411 497,-196.411 493.5,-206.411 "
         id="polygon594"
         style="fill:#808080;stroke:#808080;stroke-width:2" />
    </g>
    <!-- 30&#45;&gt;2 -->
    <!-- 30&#45;&gt;9 -->
    <!-- 31&#45;&gt;7 -->
    <g
       id="edge14"
       class="edge">
      <title
         id="title611">31-&gt;7</title>
      <path
         d="m 395,-679.689 c 0,7.782 0,16.847 0,25.242"
         id="path613"
         inkscape:connector-curvature="0"
         style="fill:none;stroke:#808080;stroke-width:2" />
      <polygon
         points="398.5,-654.319 395,-644.319 391.5,-654.32 "
         id="polygon615"
         style="fill:#808080;stroke:#808080;stroke-width:2" />
    </g>
    <!-- 32&#45;&gt;28 -->
    <!-- 32&#45;&gt;30 -->
    <!-- 33&#45;&gt;3 -->
    <!-- 33&#45;&gt;10 -->
    <!-- 33&#45;&gt;21 -->
    <!-- 33&#45;&gt;30 -->
    <!-- 33&#45;&gt;32 -->
  </g>
</svg>
