<?xml version="1.0" encoding="UTF-8" standalone="no"?>
<!DOCTYPE svg PUBLIC "-//W3C//DTD SVG 1.1//EN"
 "http://www.w3.org/Graphics/SVG/1.1/DTD/svg11.dtd">
<!-- Generated by graphviz version 2.38.0 (20140413.2041)
 -->
<!-- Title: snakemake_dag Pages: 1 -->
<svg width="1098pt" height="625pt"
 viewBox="0.00 0.00 1098.14 625.00" xmlns="http://www.w3.org/2000/svg" xmlns:xlink="http://www.w3.org/1999/xlink">
<g id="graph0" class="graph" transform="scale(1 1) rotate(0) translate(4 621)">
<title>snakemake_dag</title>
<polygon fill="white" stroke="none" points="-4,4 -4,-621 1094.14,-621 1094.14,4 -4,4"/>
<!-- 0 -->
<g id="node1" class="node"><title>0</title>
<path fill="none" stroke="#d85e56" stroke-width="2" d="M287.143,-324C287.143,-324 183.143,-324 183.143,-324 177.143,-324 171.143,-318 171.143,-312 171.143,-312 171.143,-300 171.143,-300 171.143,-294 177.143,-288 183.143,-288 183.143,-288 287.143,-288 287.143,-288 293.143,-288 299.143,-294 299.143,-300 299.143,-300 299.143,-312 299.143,-312 299.143,-318 293.143,-324 287.143,-324"/>
<text text-anchor="middle" x="235.143" y="-303.5" font-family="sans" font-size="10.00">filter_reads_on_quality</text>
</g>
<!-- 13 -->
<g id="node14" class="node"><title>13</title>
<path fill="none" stroke="#56d0d8" stroke-width="2" d="M329.143,-180C329.143,-180 167.143,-180 167.143,-180 161.143,-180 155.143,-174 155.143,-168 155.143,-168 155.143,-156 155.143,-156 155.143,-150 161.143,-144 167.143,-144 167.143,-144 329.143,-144 329.143,-144 335.143,-144 341.143,-150 341.143,-156 341.143,-156 341.143,-168 341.143,-168 341.143,-174 335.143,-180 329.143,-180"/>
<text text-anchor="middle" x="248.143" y="-159.5" font-family="sans" font-size="10.00">remove_duplicates_from_mapping</text>
</g>
<!-- 0&#45;&gt;13 -->
<g id="edge20" class="edge"><title>0&#45;&gt;13</title>
<path fill="none" stroke="grey" stroke-width="2" d="M291.579,-287.96C308.579,-279.895 325.316,-268.33 335.143,-252 343.393,-238.291 342.979,-229.95 335.143,-216 327.894,-203.096 316.087,-192.964 303.477,-185.172"/>
<polygon fill="grey" stroke="grey" stroke-width="2" points="305.085,-182.06 294.664,-180.146 301.617,-188.14 305.085,-182.06"/>
</g>
<!-- 14 -->
<g id="node15" class="node"><title>14</title>
<path fill="none" stroke="#5692d8" stroke-width="2" d="M314.143,-252C314.143,-252 74.1429,-252 74.1429,-252 68.1429,-252 62.1429,-246 62.1429,-240 62.1429,-240 62.1429,-228 62.1429,-228 62.1429,-222 68.1429,-216 74.1429,-216 74.1429,-216 314.143,-216 314.143,-216 320.143,-216 326.143,-222 326.143,-228 326.143,-228 326.143,-240 326.143,-240 326.143,-246 320.143,-252 314.143,-252"/>
<text text-anchor="middle" x="194.143" y="-237" font-family="sans" font-size="10.00">index_bam_file</text>
<text text-anchor="middle" x="194.143" y="-226" font-family="sans" font-size="10.00">any_bam: samples/S1/mapping/bwa/34528/filtered</text>
</g>
<!-- 0&#45;&gt;14 -->
<g id="edge22" class="edge"><title>0&#45;&gt;14</title>
<path fill="none" stroke="grey" stroke-width="2" d="M225.008,-287.697C220.291,-279.644 214.581,-269.894 209.361,-260.982"/>
<polygon fill="grey" stroke="grey" stroke-width="2" points="212.235,-258.964 204.161,-252.104 206.195,-262.502 212.235,-258.964"/>
</g>
<!-- 1 -->
<g id="node2" class="node"><title>1</title>
<path fill="none" stroke="#d89c56" stroke-width="2" d="M580.143,-617C580.143,-617 442.143,-617 442.143,-617 436.143,-617 430.143,-611 430.143,-605 430.143,-605 430.143,-588 430.143,-588 430.143,-582 436.143,-576 442.143,-576 442.143,-576 580.143,-576 580.143,-576 586.143,-576 592.143,-582 592.143,-588 592.143,-588 592.143,-605 592.143,-605 592.143,-611 586.143,-617 580.143,-617"/>
<text text-anchor="middle" x="511.143" y="-605" font-family="sans" font-size="10.00">download_reference_from_url</text>
<text text-anchor="middle" x="511.143" y="-594" font-family="sans" font-size="10.00">format: fasta</text>
<text text-anchor="middle" x="511.143" y="-583" font-family="sans" font-size="10.00">ref: 34528</text>
</g>
<!-- 1&#45;&gt;0 -->
<g id="edge1" class="edge"><title>1&#45;&gt;0</title>
<path fill="none" stroke="grey" stroke-width="2" d="M430.052,-582.535C380.188,-572.931 322.599,-558.348 305.143,-540 248.721,-480.696 295.843,-436.278 266.143,-360 262.564,-350.809 257.522,-341.337 252.543,-332.989"/>
<polygon fill="grey" stroke="grey" stroke-width="2" points="255.483,-331.09 247.236,-324.438 249.535,-334.781 255.483,-331.09"/>
</g>
<!-- 2 -->
<g id="node3" class="node"><title>2</title>
<path fill="none" stroke="#d8bc56" stroke-width="2" d="M545.643,-540C545.643,-540 326.643,-540 326.643,-540 320.643,-540 314.643,-534 314.643,-528 314.643,-528 314.643,-516 314.643,-516 314.643,-510 320.643,-504 326.643,-504 326.643,-504 545.643,-504 545.643,-504 551.643,-504 557.643,-510 557.643,-516 557.643,-516 557.643,-528 557.643,-528 557.643,-534 551.643,-540 545.643,-540"/>
<text text-anchor="middle" x="436.143" y="-525" font-family="sans" font-size="10.00">index_reference_fasta</text>
<text text-anchor="middle" x="436.143" y="-514" font-family="sans" font-size="10.00">any_genome: references/34528/genome_fasta</text>
</g>
<!-- 1&#45;&gt;2 -->
<g id="edge5" class="edge"><title>1&#45;&gt;2</title>
<path fill="none" stroke="grey" stroke-width="2" d="M490.649,-575.689C481.614,-566.955 470.908,-556.607 461.387,-547.403"/>
<polygon fill="grey" stroke="grey" stroke-width="2" points="463.682,-544.753 454.06,-540.319 458.817,-549.786 463.682,-544.753"/>
</g>
<!-- 4 -->
<g id="node5" class="node"><title>4</title>
<path fill="none" stroke="#56d8d8" stroke-width="2" d="M563.143,-36C563.143,-36 347.143,-36 347.143,-36 341.143,-36 335.143,-30 335.143,-24 335.143,-24 335.143,-12 335.143,-12 335.143,-6 341.143,-0 347.143,-0 347.143,-0 563.143,-0 563.143,-0 569.143,-0 575.143,-6 575.143,-12 575.143,-12 575.143,-24 575.143,-24 575.143,-30 569.143,-36 563.143,-36"/>
<text text-anchor="middle" x="455.143" y="-21" font-family="sans" font-size="10.00">call_variants_with_freebayes_on_all_samples</text>
<text text-anchor="middle" x="455.143" y="-10" font-family="sans" font-size="10.00">mapping_method: bwa</text>
</g>
<!-- 1&#45;&gt;4 -->
<g id="edge7" class="edge"><title>1&#45;&gt;4</title>
<path fill="none" stroke="grey" stroke-width="2" d="M592.552,-578.975C696.241,-555.543 862.143,-508.991 862.143,-451 862.143,-451 862.143,-451 862.143,-161 862.143,-120.553 872.789,-99.5143 843.143,-72 806.444,-37.9409 683.539,-25.5291 585.772,-21.1296"/>
<polygon fill="grey" stroke="grey" stroke-width="2" points="585.631,-17.6205 575.491,-20.692 585.333,-24.6142 585.631,-17.6205"/>
</g>
<!-- 15 -->
<g id="node16" class="node"><title>15</title>
<path fill="none" stroke="#d8a456" stroke-width="2" d="M742.143,-468C742.143,-468 608.143,-468 608.143,-468 602.143,-468 596.143,-462 596.143,-456 596.143,-456 596.143,-444 596.143,-444 596.143,-438 602.143,-432 608.143,-432 608.143,-432 742.143,-432 742.143,-432 748.143,-432 754.143,-438 754.143,-444 754.143,-444 754.143,-456 754.143,-456 754.143,-462 748.143,-468 742.143,-468"/>
<text text-anchor="middle" x="675.143" y="-447.5" font-family="sans" font-size="10.00">map_paired_reads_with_bwa</text>
</g>
<!-- 1&#45;&gt;15 -->
<g id="edge23" class="edge"><title>1&#45;&gt;15</title>
<path fill="none" stroke="grey" stroke-width="2" d="M548.434,-575.764C565.091,-566.088 584.455,-553.595 600.143,-540 622.124,-520.95 643.1,-495.183 657.25,-476.276"/>
<polygon fill="grey" stroke="grey" stroke-width="2" points="660.143,-478.25 663.25,-468.121 654.505,-474.101 660.143,-478.25"/>
</g>
<!-- 16 -->
<g id="node17" class="node"><title>16</title>
<path fill="none" stroke="#d85e56" stroke-width="2" d="M704.143,-324C704.143,-324 600.143,-324 600.143,-324 594.143,-324 588.143,-318 588.143,-312 588.143,-312 588.143,-300 588.143,-300 588.143,-294 594.143,-288 600.143,-288 600.143,-288 704.143,-288 704.143,-288 710.143,-288 716.143,-294 716.143,-300 716.143,-300 716.143,-312 716.143,-312 716.143,-318 710.143,-324 704.143,-324"/>
<text text-anchor="middle" x="652.143" y="-303.5" font-family="sans" font-size="10.00">filter_reads_on_quality</text>
</g>
<!-- 1&#45;&gt;16 -->
<g id="edge29" class="edge"><title>1&#45;&gt;16</title>
<path fill="none" stroke="grey" stroke-width="2" d="M538.284,-575.91C549.11,-566.429 560.361,-554.05 566.143,-540 596.778,-465.565 503.826,-428.471 546.143,-360 554.484,-346.504 567.417,-336.33 581.419,-328.701"/>
<polygon fill="grey" stroke="grey" stroke-width="2" points="583.356,-331.646 590.738,-324.046 580.228,-325.384 583.356,-331.646"/>
</g>
<!-- 17 -->
<g id="node18" class="node"><title>17</title>
<path fill="none" stroke="#d8a456" stroke-width="2" d="M204.143,-468C204.143,-468 70.1429,-468 70.1429,-468 64.1429,-468 58.1429,-462 58.1429,-456 58.1429,-456 58.1429,-444 58.1429,-444 58.1429,-438 64.1429,-432 70.1429,-432 70.1429,-432 204.143,-432 204.143,-432 210.143,-432 216.143,-438 216.143,-444 216.143,-444 216.143,-456 216.143,-456 216.143,-462 210.143,-468 204.143,-468"/>
<text text-anchor="middle" x="137.143" y="-447.5" font-family="sans" font-size="10.00">map_paired_reads_with_bwa</text>
</g>
<!-- 1&#45;&gt;17 -->
<g id="edge30" class="edge"><title>1&#45;&gt;17</title>
<path fill="none" stroke="grey" stroke-width="2" d="M429.905,-586.271C382.088,-578.532 321.508,-564.618 272.143,-540 249.838,-528.877 249.575,-518.275 229.143,-504 213.354,-492.969 195.126,-482.112 179.082,-473.127"/>
<polygon fill="grey" stroke="grey" stroke-width="2" points="180.367,-469.838 169.922,-468.065 176.982,-475.965 180.367,-469.838"/>
</g>
<!-- 2&#45;&gt;0 -->
<g id="edge2" class="edge"><title>2&#45;&gt;0</title>
<path fill="none" stroke="grey" stroke-width="2" d="M423.207,-503.649C400.088,-473.127 349.465,-408.472 300.143,-360 289.716,-349.752 277.469,-339.39 266.434,-330.58"/>
<polygon fill="grey" stroke="grey" stroke-width="2" points="268.307,-327.6 258.282,-324.173 263.981,-333.104 268.307,-327.6"/>
</g>
<!-- 2&#45;&gt;4 -->
<g id="edge8" class="edge"><title>2&#45;&gt;4</title>
<path fill="none" stroke="grey" stroke-width="2" d="M436.143,-503.951C436.143,-477.292 436.143,-424.115 436.143,-379 436.143,-379 436.143,-379 436.143,-161 436.143,-120.86 443.694,-74.897 449.275,-46.4045"/>
<polygon fill="grey" stroke="grey" stroke-width="2" points="452.749,-46.8834 451.298,-36.3884 445.888,-45.4976 452.749,-46.8834"/>
</g>
<!-- 2&#45;&gt;15 -->
<g id="edge24" class="edge"><title>2&#45;&gt;15</title>
<path fill="none" stroke="grey" stroke-width="2" d="M494.303,-503.966C528.278,-494.015 571.327,-481.406 606.9,-470.987"/>
<polygon fill="grey" stroke="grey" stroke-width="2" points="608.109,-474.281 616.722,-468.111 606.141,-467.563 608.109,-474.281"/>
</g>
<!-- 2&#45;&gt;16 -->
<g id="edge27" class="edge"><title>2&#45;&gt;16</title>
<path fill="none" stroke="grey" stroke-width="2" d="M442.305,-503.992C455.991,-467.011 489.496,-380.922 512.143,-360 530.599,-342.95 555.082,-331.219 578.408,-323.221"/>
<polygon fill="grey" stroke="grey" stroke-width="2" points="579.531,-326.537 587.964,-320.124 577.372,-319.878 579.531,-326.537"/>
</g>
<!-- 2&#45;&gt;17 -->
<g id="edge31" class="edge"><title>2&#45;&gt;17</title>
<path fill="none" stroke="grey" stroke-width="2" d="M363.382,-503.966C319.98,-493.805 264.74,-480.872 219.71,-470.33"/>
<polygon fill="grey" stroke="grey" stroke-width="2" points="220.506,-466.922 209.971,-468.05 218.91,-473.737 220.506,-466.922"/>
</g>
<!-- 3 -->
<g id="node4" class="node"><title>3</title>
<path fill="none" stroke="#56c9d8" stroke-width="2" d="M208.143,-540C208.143,-540 32.1429,-540 32.1429,-540 26.1429,-540 20.1429,-534 20.1429,-528 20.1429,-528 20.1429,-516 20.1429,-516 20.1429,-510 26.1429,-504 32.1429,-504 32.1429,-504 208.143,-504 208.143,-504 214.143,-504 220.143,-510 220.143,-516 220.143,-516 220.143,-528 220.143,-528 220.143,-534 214.143,-540 208.143,-540"/>
<text text-anchor="middle" x="120.143" y="-519.5" font-family="sans" font-size="10.00">trim_paired_reads_with_trimmomatic</text>
</g>
<!-- 3&#45;&gt;17 -->
<g id="edge32" class="edge"><title>3&#45;&gt;17</title>
<path fill="none" stroke="grey" stroke-width="2" d="M124.345,-503.697C126.239,-495.898 128.519,-486.509 130.627,-477.829"/>
<polygon fill="grey" stroke="grey" stroke-width="2" points="134.03,-478.648 132.989,-468.104 127.228,-476.996 134.03,-478.648"/>
</g>
<!-- 5 -->
<g id="node6" class="node"><title>5</title>
<path fill="none" stroke="#5692d8" stroke-width="2" d="M358.143,-108C358.143,-108 50.1429,-108 50.1429,-108 44.1429,-108 38.1429,-102 38.1429,-96 38.1429,-96 38.1429,-84 38.1429,-84 38.1429,-78 44.1429,-72 50.1429,-72 50.1429,-72 358.143,-72 358.143,-72 364.143,-72 370.143,-78 370.143,-84 370.143,-84 370.143,-96 370.143,-96 370.143,-102 364.143,-108 358.143,-108"/>
<text text-anchor="middle" x="204.143" y="-93" font-family="sans" font-size="10.00">index_bam_file</text>
<text text-anchor="middle" x="204.143" y="-82" font-family="sans" font-size="10.00">any_bam: samples/S1/mapping/bwa/34528/deduplicated_filtered</text>
</g>
<!-- 5&#45;&gt;4 -->
<g id="edge10" class="edge"><title>5&#45;&gt;4</title>
<path fill="none" stroke="grey" stroke-width="2" d="M265.223,-71.9656C301.056,-61.9724 346.502,-49.2984 383.952,-38.8539"/>
<polygon fill="grey" stroke="grey" stroke-width="2" points="385.096,-42.1686 393.788,-36.1108 383.216,-35.4259 385.096,-42.1686"/>
</g>
<!-- 6 -->
<g id="node7" class="node"><title>6</title>
<path fill="none" stroke="#56c9d8" stroke-width="2" d="M1078.14,-540C1078.14,-540 902.143,-540 902.143,-540 896.143,-540 890.143,-534 890.143,-528 890.143,-528 890.143,-516 890.143,-516 890.143,-510 896.143,-504 902.143,-504 902.143,-504 1078.14,-504 1078.14,-504 1084.14,-504 1090.14,-510 1090.14,-516 1090.14,-516 1090.14,-528 1090.14,-528 1090.14,-534 1084.14,-540 1078.14,-540"/>
<text text-anchor="middle" x="990.143" y="-519.5" font-family="sans" font-size="10.00">trim_paired_reads_with_trimmomatic</text>
</g>
<!-- 6&#45;&gt;15 -->
<g id="edge25" class="edge"><title>6&#45;&gt;15</title>
<path fill="none" stroke="grey" stroke-width="2" d="M913.488,-503.966C867.668,-493.783 809.324,-480.818 761.83,-470.264"/>
<polygon fill="grey" stroke="grey" stroke-width="2" points="762.389,-466.803 751.868,-468.05 760.871,-473.636 762.389,-466.803"/>
</g>
<!-- 7 -->
<g id="node8" class="node"><title>7</title>
<path fill="none" stroke="#d8ac56" stroke-width="2" d="M187.143,-614.5C187.143,-614.5 53.1429,-614.5 53.1429,-614.5 47.1429,-614.5 41.1429,-608.5 41.1429,-602.5 41.1429,-602.5 41.1429,-590.5 41.1429,-590.5 41.1429,-584.5 47.1429,-578.5 53.1429,-578.5 53.1429,-578.5 187.143,-578.5 187.143,-578.5 193.143,-578.5 199.143,-584.5 199.143,-590.5 199.143,-590.5 199.143,-602.5 199.143,-602.5 199.143,-608.5 193.143,-614.5 187.143,-614.5"/>
<text text-anchor="middle" x="120.143" y="-599.5" font-family="sans" font-size="10.00">copy_fastq_paired_from_link</text>
<text text-anchor="middle" x="120.143" y="-588.5" font-family="sans" font-size="10.00">sample: S1</text>
</g>
<!-- 7&#45;&gt;3 -->
<g id="edge6" class="edge"><title>7&#45;&gt;3</title>
<path fill="none" stroke="grey" stroke-width="2" d="M120.143,-578.319C120.143,-569.922 120.143,-559.616 120.143,-550.186"/>
<polygon fill="grey" stroke="grey" stroke-width="2" points="123.643,-550.058 120.143,-540.058 116.643,-550.058 123.643,-550.058"/>
</g>
<!-- 8 -->
<g id="node9" class="node"><title>8</title>
<path fill="none" stroke="#5692d8" stroke-width="2" d="M822.143,-108C822.143,-108 514.143,-108 514.143,-108 508.143,-108 502.143,-102 502.143,-96 502.143,-96 502.143,-84 502.143,-84 502.143,-78 508.143,-72 514.143,-72 514.143,-72 822.143,-72 822.143,-72 828.143,-72 834.143,-78 834.143,-84 834.143,-84 834.143,-96 834.143,-96 834.143,-102 828.143,-108 822.143,-108"/>
<text text-anchor="middle" x="668.143" y="-93" font-family="sans" font-size="10.00">index_bam_file</text>
<text text-anchor="middle" x="668.143" y="-82" font-family="sans" font-size="10.00">any_bam: samples/S2/mapping/bwa/34528/deduplicated_filtered</text>
</g>
<!-- 8&#45;&gt;4 -->
<g id="edge11" class="edge"><title>8&#45;&gt;4</title>
<path fill="none" stroke="grey" stroke-width="2" d="M616.31,-71.9656C586.29,-62.1 548.32,-49.6215 516.776,-39.255"/>
<polygon fill="grey" stroke="grey" stroke-width="2" points="517.802,-35.9079 507.209,-36.1108 515.616,-42.558 517.802,-35.9079"/>
</g>
<!-- 9 -->
<g id="node10" class="node"><title>9</title>
<path fill="none" stroke="#5692d8" stroke-width="2" d="M750.143,-252C750.143,-252 510.143,-252 510.143,-252 504.143,-252 498.143,-246 498.143,-240 498.143,-240 498.143,-228 498.143,-228 498.143,-222 504.143,-216 510.143,-216 510.143,-216 750.143,-216 750.143,-216 756.143,-216 762.143,-222 762.143,-228 762.143,-228 762.143,-240 762.143,-240 762.143,-246 756.143,-252 750.143,-252"/>
<text text-anchor="middle" x="630.143" y="-237" font-family="sans" font-size="10.00">index_bam_file</text>
<text text-anchor="middle" x="630.143" y="-226" font-family="sans" font-size="10.00">any_bam: samples/S2/mapping/bwa/34528/filtered</text>
</g>
<!-- 10 -->
<g id="node11" class="node"><title>10</title>
<path fill="none" stroke="#56d0d8" stroke-width="2" d="M730.143,-180C730.143,-180 568.143,-180 568.143,-180 562.143,-180 556.143,-174 556.143,-168 556.143,-168 556.143,-156 556.143,-156 556.143,-150 562.143,-144 568.143,-144 568.143,-144 730.143,-144 730.143,-144 736.143,-144 742.143,-150 742.143,-156 742.143,-156 742.143,-168 742.143,-168 742.143,-174 736.143,-180 730.143,-180"/>
<text text-anchor="middle" x="649.143" y="-159.5" font-family="sans" font-size="10.00">remove_duplicates_from_mapping</text>
</g>
<!-- 9&#45;&gt;10 -->
<g id="edge18" class="edge"><title>9&#45;&gt;10</title>
<path fill="none" stroke="grey" stroke-width="2" d="M634.84,-215.697C636.956,-207.898 639.505,-198.509 641.861,-189.829"/>
<polygon fill="grey" stroke="grey" stroke-width="2" points="645.259,-190.672 644.5,-180.104 638.503,-188.838 645.259,-190.672"/>
</g>
<!-- 10&#45;&gt;4 -->
<g id="edge12" class="edge"><title>10&#45;&gt;4</title>
<path fill="none" stroke="grey" stroke-width="2" d="M557.593,-143.908C534.438,-136.055 511.081,-124.623 493.143,-108 475.49,-91.6405 465.694,-65.721 460.49,-46.0635"/>
<polygon fill="grey" stroke="grey" stroke-width="2" points="463.851,-45.0683 458.11,-36.1634 457.045,-46.7045 463.851,-45.0683"/>
</g>
<!-- 10&#45;&gt;8 -->
<g id="edge15" class="edge"><title>10&#45;&gt;8</title>
<path fill="none" stroke="grey" stroke-width="2" d="M653.84,-143.697C655.956,-135.898 658.505,-126.509 660.861,-117.829"/>
<polygon fill="grey" stroke="grey" stroke-width="2" points="664.259,-118.672 663.5,-108.104 657.503,-116.838 664.259,-118.672"/>
</g>
<!-- 11 -->
<g id="node12" class="node"><title>11</title>
<path fill="none" stroke="#5692d8" stroke-width="2" d="M783.643,-396C783.643,-396 566.643,-396 566.643,-396 560.643,-396 554.643,-390 554.643,-384 554.643,-384 554.643,-372 554.643,-372 554.643,-366 560.643,-360 566.643,-360 566.643,-360 783.643,-360 783.643,-360 789.643,-360 795.643,-366 795.643,-372 795.643,-372 795.643,-384 795.643,-384 795.643,-390 789.643,-396 783.643,-396"/>
<text text-anchor="middle" x="675.143" y="-381" font-family="sans" font-size="10.00">index_bam_file</text>
<text text-anchor="middle" x="675.143" y="-370" font-family="sans" font-size="10.00">any_bam: samples/S2/mapping/bwa/34528/S2</text>
</g>
<!-- 11&#45;&gt;16 -->
<g id="edge26" class="edge"><title>11&#45;&gt;16</title>
<path fill="none" stroke="grey" stroke-width="2" d="M669.458,-359.697C666.895,-351.898 663.81,-342.509 660.958,-333.829"/>
<polygon fill="grey" stroke="grey" stroke-width="2" points="664.21,-332.512 657.763,-324.104 657.559,-334.697 664.21,-332.512"/>
</g>
<!-- 12 -->
<g id="node13" class="node"><title>12</title>
<path fill="none" stroke="#d8ac56" stroke-width="2" d="M1057.14,-614.5C1057.14,-614.5 923.143,-614.5 923.143,-614.5 917.143,-614.5 911.143,-608.5 911.143,-602.5 911.143,-602.5 911.143,-590.5 911.143,-590.5 911.143,-584.5 917.143,-578.5 923.143,-578.5 923.143,-578.5 1057.14,-578.5 1057.14,-578.5 1063.14,-578.5 1069.14,-584.5 1069.14,-590.5 1069.14,-590.5 1069.14,-602.5 1069.14,-602.5 1069.14,-608.5 1063.14,-614.5 1057.14,-614.5"/>
<text text-anchor="middle" x="990.143" y="-599.5" font-family="sans" font-size="10.00">copy_fastq_paired_from_link</text>
<text text-anchor="middle" x="990.143" y="-588.5" font-family="sans" font-size="10.00">sample: S2</text>
</g>
<!-- 12&#45;&gt;6 -->
<g id="edge14" class="edge"><title>12&#45;&gt;6</title>
<path fill="none" stroke="grey" stroke-width="2" d="M990.143,-578.319C990.143,-569.922 990.143,-559.616 990.143,-550.186"/>
<polygon fill="grey" stroke="grey" stroke-width="2" points="993.643,-550.058 990.143,-540.058 986.643,-550.058 993.643,-550.058"/>
</g>
<!-- 13&#45;&gt;4 -->
<g id="edge9" class="edge"><title>13&#45;&gt;4</title>
<path fill="none" stroke="grey" stroke-width="2" d="M306.984,-143.986C330.722,-135.449 357.544,-123.558 379.143,-108 403.162,-90.6986 424.457,-64.2654 438.349,-44.6973"/>
<polygon fill="grey" stroke="grey" stroke-width="2" points="441.384,-46.4624 444.194,-36.2471 435.627,-42.4802 441.384,-46.4624"/>
</g>
<!-- 13&#45;&gt;5 -->
<g id="edge13" class="edge"><title>13&#45;&gt;5</title>
<path fill="none" stroke="grey" stroke-width="2" d="M237.267,-143.697C232.151,-135.559 225.947,-125.689 220.298,-116.701"/>
<polygon fill="grey" stroke="grey" stroke-width="2" points="223.179,-114.708 214.894,-108.104 217.253,-118.433 223.179,-114.708"/>
</g>
<!-- 14&#45;&gt;13 -->
<g id="edge21" class="edge"><title>14&#45;&gt;13</title>
<path fill="none" stroke="grey" stroke-width="2" d="M207.491,-215.697C213.9,-207.389 221.701,-197.277 228.749,-188.141"/>
<polygon fill="grey" stroke="grey" stroke-width="2" points="231.611,-190.16 234.948,-180.104 226.069,-185.884 231.611,-190.16"/>
</g>
<!-- 15&#45;&gt;11 -->
<g id="edge19" class="edge"><title>15&#45;&gt;11</title>
<path fill="none" stroke="grey" stroke-width="2" d="M675.143,-431.697C675.143,-423.983 675.143,-414.712 675.143,-406.112"/>
<polygon fill="grey" stroke="grey" stroke-width="2" points="678.643,-406.104 675.143,-396.104 671.643,-406.104 678.643,-406.104"/>
</g>
<!-- 15&#45;&gt;16 -->
<g id="edge28" class="edge"><title>15&#45;&gt;16</title>
<path fill="none" stroke="grey" stroke-width="2" d="M754.16,-433.48C774.077,-425.626 793.177,-413.8 805.143,-396 814.069,-382.721 814.422,-373.034 805.143,-360 787.054,-334.59 755.903,-321.25 726.411,-314.291"/>
<polygon fill="grey" stroke="grey" stroke-width="2" points="727.006,-310.839 716.494,-312.167 725.54,-317.684 727.006,-310.839"/>
</g>
<!-- 16&#45;&gt;9 -->
<g id="edge16" class="edge"><title>16&#45;&gt;9</title>
<path fill="none" stroke="grey" stroke-width="2" d="M646.705,-287.697C644.254,-279.898 641.303,-270.509 638.575,-261.829"/>
<polygon fill="grey" stroke="grey" stroke-width="2" points="641.856,-260.595 635.519,-252.104 635.178,-262.694 641.856,-260.595"/>
</g>
<!-- 16&#45;&gt;10 -->
<g id="edge17" class="edge"><title>16&#45;&gt;10</title>
<path fill="none" stroke="grey" stroke-width="2" d="M716.196,-291.425C737.347,-283.57 758.642,-271.253 771.143,-252 779.856,-238.581 779.918,-229.379 771.143,-216 762.123,-202.248 748.68,-192.045 733.972,-184.482"/>
<polygon fill="grey" stroke="grey" stroke-width="2" points="735.218,-181.199 724.68,-180.105 732.235,-187.532 735.218,-181.199"/>
</g>
<!-- 17&#45;&gt;0 -->
<g id="edge3" class="edge"><title>17&#45;&gt;0</title>
<path fill="none" stroke="grey" stroke-width="2" d="M58.1256,-433.48C38.2093,-425.626 19.1086,-413.8 7.14291,-396 -1.78329,-382.721 -2.80789,-372.529 7.14291,-360 26.1968,-336.009 101.897,-321.893 160.908,-314.342"/>
<polygon fill="grey" stroke="grey" stroke-width="2" points="161.473,-317.799 170.968,-313.097 160.613,-310.852 161.473,-317.799"/>
</g>
<!-- 18 -->
<g id="node19" class="node"><title>18</title>
<path fill="none" stroke="#5692d8" stroke-width="2" d="M245.643,-396C245.643,-396 28.6429,-396 28.6429,-396 22.6429,-396 16.6429,-390 16.6429,-384 16.6429,-384 16.6429,-372 16.6429,-372 16.6429,-366 22.6429,-360 28.6429,-360 28.6429,-360 245.643,-360 245.643,-360 251.643,-360 257.643,-366 257.643,-372 257.643,-372 257.643,-384 257.643,-384 257.643,-390 251.643,-396 245.643,-396"/>
<text text-anchor="middle" x="137.143" y="-381" font-family="sans" font-size="10.00">index_bam_file</text>
<text text-anchor="middle" x="137.143" y="-370" font-family="sans" font-size="10.00">any_bam: samples/S1/mapping/bwa/34528/S1</text>
</g>
<!-- 17&#45;&gt;18 -->
<g id="edge33" class="edge"><title>17&#45;&gt;18</title>
<path fill="none" stroke="grey" stroke-width="2" d="M137.143,-431.697C137.143,-423.983 137.143,-414.712 137.143,-406.112"/>
<polygon fill="grey" stroke="grey" stroke-width="2" points="140.643,-406.104 137.143,-396.104 133.643,-406.104 140.643,-406.104"/>
</g>
<!-- 18&#45;&gt;0 -->
<g id="edge4" class="edge"><title>18&#45;&gt;0</title>
<path fill="none" stroke="grey" stroke-width="2" d="M161.116,-359.876C173.693,-350.893 189.275,-339.763 202.895,-330.034"/>
<polygon fill="grey" stroke="grey" stroke-width="2" points="204.974,-332.85 211.077,-324.19 200.906,-327.154 204.974,-332.85"/>
</g>
</g>
</svg>
