<?xml version="1.0" encoding="UTF-8" standalone="no"?>
<!DOCTYPE svg PUBLIC "-//W3C//DTD SVG 1.1//EN"
 "http://www.w3.org/Graphics/SVG/1.1/DTD/svg11.dtd">
<!-- Generated by graphviz version 2.38.0 (20140413.2041)
 -->
<!-- Title: snakemake_dag Pages: 1 -->
<svg width="1060pt" height="625pt"
 viewBox="0.00 0.00 1060.00 625.00" xmlns="http://www.w3.org/2000/svg" xmlns:xlink="http://www.w3.org/1999/xlink">
<g id="graph0" class="graph" transform="scale(1 1) rotate(0) translate(4 621)">
<title>snakemake_dag</title>
<polygon fill="white" stroke="none" points="-4,4 -4,-621 1056,-621 1056,4 -4,4"/>
<!-- 0 -->
<g id="node1" class="node"><title>0</title>
<path fill="none" stroke="#56d8c9" stroke-width="2" d="M703,-324C703,-324 545,-324 545,-324 539,-324 533,-318 533,-312 533,-312 533,-300 533,-300 533,-294 539,-288 545,-288 545,-288 703,-288 703,-288 709,-288 715,-294 715,-300 715,-300 715,-312 715,-312 715,-318 709,-324 703,-324"/>
<text text-anchor="middle" x="624" y="-303.5" font-family="sans" font-size="10.00">filter_reads_on_quality_after_bwa</text>
</g>
<!-- 8 -->
<g id="node9" class="node"><title>8</title>
<path fill="none" stroke="#88d856" stroke-width="2" d="M760,-252C760,-252 520,-252 520,-252 514,-252 508,-246 508,-240 508,-240 508,-228 508,-228 508,-222 514,-216 520,-216 520,-216 760,-216 760,-216 766,-216 772,-222 772,-228 772,-228 772,-240 772,-240 772,-246 766,-252 760,-252"/>
<text text-anchor="middle" x="640" y="-237" font-family="sans" font-size="10.00">index_bam_file</text>
<text text-anchor="middle" x="640" y="-226" font-family="sans" font-size="10.00">any_bam: samples/S1/mapping/bwa/34528/filtered</text>
</g>
<!-- 0&#45;&gt;8 -->
<g id="edge17" class="edge"><title>0&#45;&gt;8</title>
<path fill="none" stroke="grey" stroke-width="2" d="M627.955,-287.697C629.718,-279.983 631.837,-270.712 633.803,-262.112"/>
<polygon fill="grey" stroke="grey" stroke-width="2" points="637.274,-262.633 636.09,-252.104 630.45,-261.073 637.274,-262.633"/>
</g>
<!-- 13 -->
<g id="node14" class="node"><title>13</title>
<path fill="none" stroke="#56d892" stroke-width="2" d="M676,-180C676,-180 514,-180 514,-180 508,-180 502,-174 502,-168 502,-168 502,-156 502,-156 502,-150 508,-144 514,-144 514,-144 676,-144 676,-144 682,-144 688,-150 688,-156 688,-156 688,-168 688,-168 688,-174 682,-180 676,-180"/>
<text text-anchor="middle" x="595" y="-159.5" font-family="sans" font-size="10.00">remove_duplicates_from_mapping</text>
</g>
<!-- 0&#45;&gt;13 -->
<g id="edge21" class="edge"><title>0&#45;&gt;13</title>
<path fill="none" stroke="grey" stroke-width="2" d="M545.672,-287.871C527.353,-280.025 509.997,-268.607 499,-252 490.166,-238.66 490.868,-229.779 499,-216 506.858,-202.685 519.392,-192.484 532.843,-184.762"/>
<polygon fill="grey" stroke="grey" stroke-width="2" points="534.573,-187.807 541.776,-180.037 531.3,-181.619 534.573,-187.807"/>
</g>
<!-- 1 -->
<g id="node2" class="node"><title>1</title>
<path fill="none" stroke="#88d856" stroke-width="2" d="M320,-108C320,-108 12,-108 12,-108 6,-108 0,-102 0,-96 0,-96 0,-84 0,-84 0,-78 6,-72 12,-72 12,-72 320,-72 320,-72 326,-72 332,-78 332,-84 332,-84 332,-96 332,-96 332,-102 326,-108 320,-108"/>
<text text-anchor="middle" x="166" y="-93" font-family="sans" font-size="10.00">index_bam_file</text>
<text text-anchor="middle" x="166" y="-82" font-family="sans" font-size="10.00">any_bam: samples/S2/mapping/bwa/34528/deduplicated_filtered</text>
</g>
<!-- 2 -->
<g id="node3" class="node"><title>2</title>
<path fill="none" stroke="#59d856" stroke-width="2" d="M603,-36C603,-36 387,-36 387,-36 381,-36 375,-30 375,-24 375,-24 375,-12 375,-12 375,-6 381,-0 387,-0 387,-0 603,-0 603,-0 609,-0 615,-6 615,-12 615,-12 615,-24 615,-24 615,-30 609,-36 603,-36"/>
<text text-anchor="middle" x="495" y="-21" font-family="sans" font-size="10.00">call_variants_with_freebayes_on_all_samples</text>
<text text-anchor="middle" x="495" y="-10" font-family="sans" font-size="10.00">mapping_method: bwa</text>
</g>
<!-- 1&#45;&gt;2 -->
<g id="edge7" class="edge"><title>1&#45;&gt;2</title>
<path fill="none" stroke="grey" stroke-width="2" d="M246.062,-71.9656C294.118,-61.7408 355.365,-48.7095 405.082,-38.1314"/>
<polygon fill="grey" stroke="grey" stroke-width="2" points="405.812,-41.5546 414.865,-36.0501 404.355,-34.7078 405.812,-41.5546"/>
</g>
<!-- 3 -->
<g id="node4" class="node"><title>3</title>
<path fill="none" stroke="#56d882" stroke-width="2" d="M223,-614.5C223,-614.5 89,-614.5 89,-614.5 83,-614.5 77,-608.5 77,-602.5 77,-602.5 77,-590.5 77,-590.5 77,-584.5 83,-578.5 89,-578.5 89,-578.5 223,-578.5 223,-578.5 229,-578.5 235,-584.5 235,-590.5 235,-590.5 235,-602.5 235,-602.5 235,-608.5 229,-614.5 223,-614.5"/>
<text text-anchor="middle" x="156" y="-599.5" font-family="sans" font-size="10.00">copy_fastq_paired_from_link</text>
<text text-anchor="middle" x="156" y="-588.5" font-family="sans" font-size="10.00">sample: S2</text>
</g>
<!-- 11 -->
<g id="node12" class="node"><title>11</title>
<path fill="none" stroke="#56d8a9" stroke-width="2" d="M244,-540C244,-540 68,-540 68,-540 62,-540 56,-534 56,-528 56,-528 56,-516 56,-516 56,-510 62,-504 68,-504 68,-504 244,-504 244,-504 250,-504 256,-510 256,-516 256,-516 256,-528 256,-528 256,-534 250,-540 244,-540"/>
<text text-anchor="middle" x="156" y="-519.5" font-family="sans" font-size="10.00">trim_paired_reads_with_trimmomatic</text>
</g>
<!-- 3&#45;&gt;11 -->
<g id="edge19" class="edge"><title>3&#45;&gt;11</title>
<path fill="none" stroke="grey" stroke-width="2" d="M156,-578.319C156,-569.922 156,-559.616 156,-550.186"/>
<polygon fill="grey" stroke="grey" stroke-width="2" points="159.5,-550.058 156,-540.058 152.5,-550.058 159.5,-550.058"/>
</g>
<!-- 4 -->
<g id="node5" class="node"><title>4</title>
<path fill="none" stroke="#88d856" stroke-width="2" d="M292,-252C292,-252 52,-252 52,-252 46,-252 40,-246 40,-240 40,-240 40,-228 40,-228 40,-222 46,-216 52,-216 52,-216 292,-216 292,-216 298,-216 304,-222 304,-228 304,-228 304,-240 304,-240 304,-246 298,-252 292,-252"/>
<text text-anchor="middle" x="172" y="-237" font-family="sans" font-size="10.00">index_bam_file</text>
<text text-anchor="middle" x="172" y="-226" font-family="sans" font-size="10.00">any_bam: samples/S2/mapping/bwa/34528/filtered</text>
</g>
<!-- 5 -->
<g id="node6" class="node"><title>5</title>
<path fill="none" stroke="#56d892" stroke-width="2" d="M305,-180C305,-180 143,-180 143,-180 137,-180 131,-174 131,-168 131,-168 131,-156 131,-156 131,-150 137,-144 143,-144 143,-144 305,-144 305,-144 311,-144 317,-150 317,-156 317,-156 317,-168 317,-168 317,-174 311,-180 305,-180"/>
<text text-anchor="middle" x="224" y="-159.5" font-family="sans" font-size="10.00">remove_duplicates_from_mapping</text>
</g>
<!-- 4&#45;&gt;5 -->
<g id="edge13" class="edge"><title>4&#45;&gt;5</title>
<path fill="none" stroke="grey" stroke-width="2" d="M184.854,-215.697C191.025,-207.389 198.537,-197.277 205.324,-188.141"/>
<polygon fill="grey" stroke="grey" stroke-width="2" points="208.14,-190.219 211.294,-180.104 202.521,-186.045 208.14,-190.219"/>
</g>
<!-- 5&#45;&gt;1 -->
<g id="edge5" class="edge"><title>5&#45;&gt;1</title>
<path fill="none" stroke="grey" stroke-width="2" d="M209.663,-143.697C202.709,-135.305 194.23,-125.07 186.599,-115.861"/>
<polygon fill="grey" stroke="grey" stroke-width="2" points="189.247,-113.571 180.172,-108.104 183.857,-118.038 189.247,-113.571"/>
</g>
<!-- 5&#45;&gt;2 -->
<g id="edge10" class="edge"><title>5&#45;&gt;2</title>
<path fill="none" stroke="grey" stroke-width="2" d="M269.076,-143.96C291.447,-134.672 318.439,-122.182 341,-108 362.102,-94.7355 363.033,-85.4762 384,-72 402.68,-59.9938 424.499,-48.9968 443.824,-40.1699"/>
<polygon fill="grey" stroke="grey" stroke-width="2" points="445.394,-43.3018 453.086,-36.0162 442.53,-36.9147 445.394,-43.3018"/>
</g>
<!-- 6 -->
<g id="node7" class="node"><title>6</title>
<path fill="none" stroke="#565bd8" stroke-width="2" d="M581.5,-540C581.5,-540 362.5,-540 362.5,-540 356.5,-540 350.5,-534 350.5,-528 350.5,-528 350.5,-516 350.5,-516 350.5,-510 356.5,-504 362.5,-504 362.5,-504 581.5,-504 581.5,-504 587.5,-504 593.5,-510 593.5,-516 593.5,-516 593.5,-528 593.5,-528 593.5,-534 587.5,-540 581.5,-540"/>
<text text-anchor="middle" x="472" y="-525" font-family="sans" font-size="10.00">index_reference_fasta</text>
<text text-anchor="middle" x="472" y="-514" font-family="sans" font-size="10.00">any_genome: references/34528/genome_fasta</text>
</g>
<!-- 6&#45;&gt;0 -->
<g id="edge3" class="edge"><title>6&#45;&gt;0</title>
<path fill="none" stroke="grey" stroke-width="2" d="M464.421,-503.758C451.733,-471.971 430.521,-403.42 462,-360 476.655,-339.785 499.248,-327.139 522.954,-319.267"/>
<polygon fill="grey" stroke="grey" stroke-width="2" points="524.247,-322.532 532.798,-316.278 522.213,-315.834 524.247,-322.532"/>
</g>
<!-- 6&#45;&gt;2 -->
<g id="edge11" class="edge"><title>6&#45;&gt;2</title>
<path fill="none" stroke="grey" stroke-width="2" d="M455.943,-503.694C434.179,-478.359 398,-428.761 398,-379 398,-379 398,-379 398,-161 398,-120.553 394.425,-105.561 417,-72 425.316,-59.6381 437.575,-49.3677 449.924,-41.264"/>
<polygon fill="grey" stroke="grey" stroke-width="2" points="451.774,-44.2354 458.44,-36.0008 448.094,-38.2808 451.774,-44.2354"/>
</g>
<!-- 15 -->
<g id="node16" class="node"><title>15</title>
<path fill="none" stroke="#56d892" stroke-width="2" d="M240,-468C240,-468 106,-468 106,-468 100,-468 94,-462 94,-456 94,-456 94,-444 94,-444 94,-438 100,-432 106,-432 106,-432 240,-432 240,-432 246,-432 252,-438 252,-444 252,-444 252,-456 252,-456 252,-462 246,-468 240,-468"/>
<text text-anchor="middle" x="173" y="-447.5" font-family="sans" font-size="10.00">map_paired_reads_with_bwa</text>
</g>
<!-- 6&#45;&gt;15 -->
<g id="edge25" class="edge"><title>6&#45;&gt;15</title>
<path fill="none" stroke="grey" stroke-width="2" d="M399.239,-503.966C355.837,-493.805 300.597,-480.872 255.567,-470.33"/>
<polygon fill="grey" stroke="grey" stroke-width="2" points="256.363,-466.922 245.828,-468.05 254.767,-473.737 256.363,-466.922"/>
</g>
<!-- 17 -->
<g id="node18" class="node"><title>17</title>
<path fill="none" stroke="#56d8c9" stroke-width="2" d="M280,-324C280,-324 122,-324 122,-324 116,-324 110,-318 110,-312 110,-312 110,-300 110,-300 110,-294 116,-288 122,-288 122,-288 280,-288 280,-288 286,-288 292,-294 292,-300 292,-300 292,-312 292,-312 292,-318 286,-324 280,-324"/>
<text text-anchor="middle" x="201" y="-303.5" font-family="sans" font-size="10.00">filter_reads_on_quality_after_bwa</text>
</g>
<!-- 6&#45;&gt;17 -->
<g id="edge29" class="edge"><title>6&#45;&gt;17</title>
<path fill="none" stroke="grey" stroke-width="2" d="M432.345,-503.768C415.72,-494.987 397.223,-482.971 384,-468 349.228,-428.63 373.953,-396.314 336,-360 321.293,-345.928 302.412,-335.458 283.46,-327.719"/>
<polygon fill="grey" stroke="grey" stroke-width="2" points="284.457,-324.352 273.868,-324.026 281.942,-330.885 284.457,-324.352"/>
</g>
<!-- 18 -->
<g id="node19" class="node"><title>18</title>
<path fill="none" stroke="#56d892" stroke-width="2" d="M689,-468C689,-468 555,-468 555,-468 549,-468 543,-462 543,-456 543,-456 543,-444 543,-444 543,-438 549,-432 555,-432 555,-432 689,-432 689,-432 695,-432 701,-438 701,-444 701,-444 701,-456 701,-456 701,-462 695,-468 689,-468"/>
<text text-anchor="middle" x="622" y="-447.5" font-family="sans" font-size="10.00">map_paired_reads_with_bwa</text>
</g>
<!-- 6&#45;&gt;18 -->
<g id="edge32" class="edge"><title>6&#45;&gt;18</title>
<path fill="none" stroke="grey" stroke-width="2" d="M508.694,-503.876C529.018,-494.392 554.471,-482.513 576.102,-472.419"/>
<polygon fill="grey" stroke="grey" stroke-width="2" points="577.843,-475.469 585.425,-468.068 574.883,-469.126 577.843,-475.469"/>
</g>
<!-- 7 -->
<g id="node8" class="node"><title>7</title>
<path fill="none" stroke="#56d8a9" stroke-width="2" d="M1040,-540C1040,-540 864,-540 864,-540 858,-540 852,-534 852,-528 852,-528 852,-516 852,-516 852,-510 858,-504 864,-504 864,-504 1040,-504 1040,-504 1046,-504 1052,-510 1052,-516 1052,-516 1052,-528 1052,-528 1052,-534 1046,-540 1040,-540"/>
<text text-anchor="middle" x="952" y="-519.5" font-family="sans" font-size="10.00">trim_paired_reads_with_trimmomatic</text>
</g>
<!-- 7&#45;&gt;18 -->
<g id="edge33" class="edge"><title>7&#45;&gt;18</title>
<path fill="none" stroke="grey" stroke-width="2" d="M871.695,-503.966C823.135,-493.665 761.147,-480.516 711.083,-469.896"/>
<polygon fill="grey" stroke="grey" stroke-width="2" points="711.745,-466.459 701.236,-467.808 710.292,-473.307 711.745,-466.459"/>
</g>
<!-- 8&#45;&gt;13 -->
<g id="edge22" class="edge"><title>8&#45;&gt;13</title>
<path fill="none" stroke="grey" stroke-width="2" d="M628.876,-215.697C623.645,-207.559 617.3,-197.689 611.522,-188.701"/>
<polygon fill="grey" stroke="grey" stroke-width="2" points="614.347,-186.623 605.996,-180.104 608.459,-190.409 614.347,-186.623"/>
</g>
<!-- 9 -->
<g id="node10" class="node"><title>9</title>
<path fill="none" stroke="#88d856" stroke-width="2" d="M746,-108C746,-108 438,-108 438,-108 432,-108 426,-102 426,-96 426,-96 426,-84 426,-84 426,-78 432,-72 438,-72 438,-72 746,-72 746,-72 752,-72 758,-78 758,-84 758,-84 758,-96 758,-96 758,-102 752,-108 746,-108"/>
<text text-anchor="middle" x="592" y="-93" font-family="sans" font-size="10.00">index_bam_file</text>
<text text-anchor="middle" x="592" y="-82" font-family="sans" font-size="10.00">any_bam: samples/S1/mapping/bwa/34528/deduplicated_filtered</text>
</g>
<!-- 9&#45;&gt;2 -->
<g id="edge6" class="edge"><title>9&#45;&gt;2</title>
<path fill="none" stroke="grey" stroke-width="2" d="M568.022,-71.6966C555.689,-62.796 540.484,-51.8232 527.147,-42.1989"/>
<polygon fill="grey" stroke="grey" stroke-width="2" points="528.859,-39.1181 518.702,-36.1043 524.763,-44.7944 528.859,-39.1181"/>
</g>
<!-- 10 -->
<g id="node11" class="node"><title>10</title>
<path fill="none" stroke="#56d882" stroke-width="2" d="M1019,-614.5C1019,-614.5 885,-614.5 885,-614.5 879,-614.5 873,-608.5 873,-602.5 873,-602.5 873,-590.5 873,-590.5 873,-584.5 879,-578.5 885,-578.5 885,-578.5 1019,-578.5 1019,-578.5 1025,-578.5 1031,-584.5 1031,-590.5 1031,-590.5 1031,-602.5 1031,-602.5 1031,-608.5 1025,-614.5 1019,-614.5"/>
<text text-anchor="middle" x="952" y="-599.5" font-family="sans" font-size="10.00">copy_fastq_paired_from_link</text>
<text text-anchor="middle" x="952" y="-588.5" font-family="sans" font-size="10.00">sample: S1</text>
</g>
<!-- 10&#45;&gt;7 -->
<g id="edge16" class="edge"><title>10&#45;&gt;7</title>
<path fill="none" stroke="grey" stroke-width="2" d="M952,-578.319C952,-569.922 952,-559.616 952,-550.186"/>
<polygon fill="grey" stroke="grey" stroke-width="2" points="955.5,-550.058 952,-540.058 948.5,-550.058 955.5,-550.058"/>
</g>
<!-- 11&#45;&gt;15 -->
<g id="edge24" class="edge"><title>11&#45;&gt;15</title>
<path fill="none" stroke="grey" stroke-width="2" d="M160.202,-503.697C162.096,-495.898 164.377,-486.509 166.484,-477.829"/>
<polygon fill="grey" stroke="grey" stroke-width="2" points="169.887,-478.648 168.846,-468.104 163.085,-476.996 169.887,-478.648"/>
</g>
<!-- 12 -->
<g id="node13" class="node"><title>12</title>
<path fill="none" stroke="#88d856" stroke-width="2" d="M281.5,-396C281.5,-396 64.5,-396 64.5,-396 58.5,-396 52.5,-390 52.5,-384 52.5,-384 52.5,-372 52.5,-372 52.5,-366 58.5,-360 64.5,-360 64.5,-360 281.5,-360 281.5,-360 287.5,-360 293.5,-366 293.5,-372 293.5,-372 293.5,-384 293.5,-384 293.5,-390 287.5,-396 281.5,-396"/>
<text text-anchor="middle" x="173" y="-381" font-family="sans" font-size="10.00">index_bam_file</text>
<text text-anchor="middle" x="173" y="-370" font-family="sans" font-size="10.00">any_bam: samples/S2/mapping/bwa/34528/S2</text>
</g>
<!-- 12&#45;&gt;17 -->
<g id="edge30" class="edge"><title>12&#45;&gt;17</title>
<path fill="none" stroke="grey" stroke-width="2" d="M179.921,-359.697C183.075,-351.813 186.878,-342.304 190.381,-333.546"/>
<polygon fill="grey" stroke="grey" stroke-width="2" points="193.694,-334.689 194.158,-324.104 187.195,-332.089 193.694,-334.689"/>
</g>
<!-- 13&#45;&gt;2 -->
<g id="edge8" class="edge"><title>13&#45;&gt;2</title>
<path fill="none" stroke="grey" stroke-width="2" d="M688.268,-144.897C743.265,-131.29 796.772,-108.133 767,-72 748.344,-49.358 685.729,-36.2605 625.275,-28.7524"/>
<polygon fill="grey" stroke="grey" stroke-width="2" points="625.551,-25.2605 615.206,-27.5497 624.721,-32.2111 625.551,-25.2605"/>
</g>
<!-- 13&#45;&gt;9 -->
<g id="edge18" class="edge"><title>13&#45;&gt;9</title>
<path fill="none" stroke="grey" stroke-width="2" d="M594.258,-143.697C593.928,-135.983 593.531,-126.712 593.162,-118.112"/>
<polygon fill="grey" stroke="grey" stroke-width="2" points="596.658,-117.945 592.733,-108.104 589.665,-118.245 596.658,-117.945"/>
</g>
<!-- 14 -->
<g id="node15" class="node"><title>14</title>
<path fill="none" stroke="#56c1d8" stroke-width="2" d="M616,-617C616,-617 478,-617 478,-617 472,-617 466,-611 466,-605 466,-605 466,-588 466,-588 466,-582 472,-576 478,-576 478,-576 616,-576 616,-576 622,-576 628,-582 628,-588 628,-588 628,-605 628,-605 628,-611 622,-617 616,-617"/>
<text text-anchor="middle" x="547" y="-605" font-family="sans" font-size="10.00">download_reference_from_url</text>
<text text-anchor="middle" x="547" y="-594" font-family="sans" font-size="10.00">format: fasta</text>
<text text-anchor="middle" x="547" y="-583" font-family="sans" font-size="10.00">ref: 34528</text>
</g>
<!-- 14&#45;&gt;0 -->
<g id="edge1" class="edge"><title>14&#45;&gt;0</title>
<path fill="none" stroke="grey" stroke-width="2" d="M574.737,-575.859C589.268,-565.416 607.266,-552.237 623,-540 662.618,-509.186 680.626,-508.698 710,-468 730.094,-440.159 731.669,-429.746 738,-396 740.95,-380.274 746.605,-373.489 738,-360 729.252,-346.285 715.935,-336.064 701.45,-328.465"/>
<polygon fill="grey" stroke="grey" stroke-width="2" points="702.84,-325.249 692.312,-324.064 699.803,-331.556 702.84,-325.249"/>
</g>
<!-- 14&#45;&gt;2 -->
<g id="edge9" class="edge"><title>14&#45;&gt;2</title>
<path fill="none" stroke="grey" stroke-width="2" d="M628.237,-587.452C709.972,-574.343 824,-540.09 824,-451 824,-451 824,-451 824,-161 824,-117.813 818.87,-98.7939 785,-72 759.897,-52.1413 690.095,-39.0359 625.266,-30.8254"/>
<polygon fill="grey" stroke="grey" stroke-width="2" points="625.681,-27.3502 615.328,-29.5993 624.824,-34.2975 625.681,-27.3502"/>
</g>
<!-- 14&#45;&gt;6 -->
<g id="edge15" class="edge"><title>14&#45;&gt;6</title>
<path fill="none" stroke="grey" stroke-width="2" d="M526.506,-575.689C517.471,-566.955 506.765,-556.607 497.244,-547.403"/>
<polygon fill="grey" stroke="grey" stroke-width="2" points="499.539,-544.753 489.917,-540.319 494.674,-549.786 499.539,-544.753"/>
</g>
<!-- 14&#45;&gt;15 -->
<g id="edge23" class="edge"><title>14&#45;&gt;15</title>
<path fill="none" stroke="grey" stroke-width="2" d="M465.762,-586.271C417.946,-578.532 357.365,-564.618 308,-540 285.695,-528.877 285.432,-518.275 265,-504 249.211,-492.969 230.983,-482.112 214.939,-473.127"/>
<polygon fill="grey" stroke="grey" stroke-width="2" points="216.224,-469.838 205.779,-468.065 212.839,-475.965 216.224,-469.838"/>
</g>
<!-- 14&#45;&gt;17 -->
<g id="edge27" class="edge"><title>14&#45;&gt;17</title>
<path fill="none" stroke="grey" stroke-width="2" d="M465.909,-582.535C416.045,-572.931 358.456,-558.348 341,-540 284.578,-480.696 351.568,-425.142 302,-360 291.871,-346.689 277.43,-336.392 262.626,-328.569"/>
<polygon fill="grey" stroke="grey" stroke-width="2" points="263.913,-325.301 253.397,-324.013 260.814,-331.578 263.913,-325.301"/>
</g>
<!-- 14&#45;&gt;18 -->
<g id="edge31" class="edge"><title>14&#45;&gt;18</title>
<path fill="none" stroke="grey" stroke-width="2" d="M571.857,-575.99C582.648,-566.273 594.508,-553.683 602,-540 612.491,-520.841 617.483,-496.491 619.856,-478.106"/>
<polygon fill="grey" stroke="grey" stroke-width="2" points="623.347,-478.38 620.972,-468.054 616.39,-477.607 623.347,-478.38"/>
</g>
<!-- 15&#45;&gt;12 -->
<g id="edge20" class="edge"><title>15&#45;&gt;12</title>
<path fill="none" stroke="grey" stroke-width="2" d="M173,-431.697C173,-423.983 173,-414.712 173,-406.112"/>
<polygon fill="grey" stroke="grey" stroke-width="2" points="176.5,-406.104 173,-396.104 169.5,-406.104 176.5,-406.104"/>
</g>
<!-- 15&#45;&gt;17 -->
<g id="edge28" class="edge"><title>15&#45;&gt;17</title>
<path fill="none" stroke="grey" stroke-width="2" d="M93.9827,-433.48C74.0663,-425.626 54.9657,-413.8 43,-396 34.0738,-382.721 33.657,-372.989 43,-360 56.8222,-340.784 77.9466,-328.438 100.294,-320.532"/>
<polygon fill="grey" stroke="grey" stroke-width="2" points="101.496,-323.822 109.929,-317.409 99.3369,-317.163 101.496,-323.822"/>
</g>
<!-- 16 -->
<g id="node17" class="node"><title>16</title>
<path fill="none" stroke="#88d856" stroke-width="2" d="M700.5,-396C700.5,-396 483.5,-396 483.5,-396 477.5,-396 471.5,-390 471.5,-384 471.5,-384 471.5,-372 471.5,-372 471.5,-366 477.5,-360 483.5,-360 483.5,-360 700.5,-360 700.5,-360 706.5,-360 712.5,-366 712.5,-372 712.5,-372 712.5,-384 712.5,-384 712.5,-390 706.5,-396 700.5,-396"/>
<text text-anchor="middle" x="592" y="-381" font-family="sans" font-size="10.00">index_bam_file</text>
<text text-anchor="middle" x="592" y="-370" font-family="sans" font-size="10.00">any_bam: samples/S1/mapping/bwa/34528/S1</text>
</g>
<!-- 16&#45;&gt;0 -->
<g id="edge2" class="edge"><title>16&#45;&gt;0</title>
<path fill="none" stroke="grey" stroke-width="2" d="M599.91,-359.697C603.553,-351.728 607.954,-342.1 611.994,-333.264"/>
<polygon fill="grey" stroke="grey" stroke-width="2" points="615.206,-334.654 616.181,-324.104 608.84,-331.744 615.206,-334.654"/>
</g>
<!-- 17&#45;&gt;4 -->
<g id="edge12" class="edge"><title>17&#45;&gt;4</title>
<path fill="none" stroke="grey" stroke-width="2" d="M193.831,-287.697C190.565,-279.813 186.626,-270.304 182.998,-261.546"/>
<polygon fill="grey" stroke="grey" stroke-width="2" points="186.147,-260.003 179.086,-252.104 179.68,-262.683 186.147,-260.003"/>
</g>
<!-- 17&#45;&gt;5 -->
<g id="edge14" class="edge"><title>17&#45;&gt;5</title>
<path fill="none" stroke="grey" stroke-width="2" d="M267.555,-287.942C285.35,-280.018 302.529,-268.54 313,-252 321.559,-238.481 320.906,-229.91 313,-216 305.635,-203.043 293.712,-192.92 280.953,-185.155"/>
<polygon fill="grey" stroke="grey" stroke-width="2" points="282.466,-181.991 272.032,-180.15 279.04,-188.096 282.466,-181.991"/>
</g>
<!-- 18&#45;&gt;0 -->
<g id="edge4" class="edge"><title>18&#45;&gt;0</title>
<path fill="none" stroke="grey" stroke-width="2" d="M677.626,-431.961C694.546,-423.881 711.233,-412.307 721,-396 729.221,-382.274 729.162,-373.761 721,-360 713.09,-346.664 700.51,-336.466 686.995,-328.755"/>
<polygon fill="grey" stroke="grey" stroke-width="2" points="688.5,-325.591 678.02,-324.038 685.244,-331.788 688.5,-325.591"/>
</g>
<!-- 18&#45;&gt;16 -->
<g id="edge26" class="edge"><title>18&#45;&gt;16</title>
<path fill="none" stroke="grey" stroke-width="2" d="M614.584,-431.697C611.206,-423.813 607.13,-414.304 603.377,-405.546"/>
<polygon fill="grey" stroke="grey" stroke-width="2" points="606.487,-403.917 599.33,-396.104 600.053,-406.675 606.487,-403.917"/>
</g>
</g>
</svg>
