<?xml version="1.0" encoding="UTF-8" standalone="no"?>
<!DOCTYPE svg PUBLIC "-//W3C//DTD SVG 1.1//EN"
 "http://www.w3.org/Graphics/SVG/1.1/DTD/svg11.dtd">
<!-- Generated by graphviz version 2.38.0 (20140413.2041)
 -->
<!-- Title: snakemake_dag Pages: 1 -->
<svg width="1537pt" height="913pt"
 viewBox="0.00 0.00 1536.75 913.00" xmlns="http://www.w3.org/2000/svg" xmlns:xlink="http://www.w3.org/1999/xlink">
<g id="graph0" class="graph" transform="scale(1 1) rotate(0) translate(4 909)">
<title>snakemake_dag</title>
<polygon fill="white" stroke="none" points="-4,4 -4,-909 1532.75,-909 1532.75,4 -4,4"/>
<!-- 0 -->
<g id="node1" class="node"><title>0</title>
<path fill="none" stroke="#56d873" stroke-width="2" d="M1486,-828C1486,-828 1310,-828 1310,-828 1304,-828 1298,-822 1298,-816 1298,-816 1298,-804 1298,-804 1298,-798 1304,-792 1310,-792 1310,-792 1486,-792 1486,-792 1492,-792 1498,-798 1498,-804 1498,-804 1498,-816 1498,-816 1498,-822 1492,-828 1486,-828"/>
<text text-anchor="middle" x="1398" y="-807.5" font-family="sans" font-size="10.00">trim_paired_reads_with_trimmomatic</text>
</g>
<!-- 20 -->
<g id="node21" class="node"><title>20</title>
<path fill="none" stroke="#5673d8" stroke-width="2" d="M1149,-756C1149,-756 1015,-756 1015,-756 1009,-756 1003,-750 1003,-744 1003,-744 1003,-732 1003,-732 1003,-726 1009,-720 1015,-720 1015,-720 1149,-720 1149,-720 1155,-720 1161,-726 1161,-732 1161,-732 1161,-744 1161,-744 1161,-750 1155,-756 1149,-756"/>
<text text-anchor="middle" x="1082" y="-735.5" font-family="sans" font-size="10.00">map_paired_reads_with_bwa</text>
</g>
<!-- 0&#45;&gt;20 -->
<g id="edge34" class="edge"><title>0&#45;&gt;20</title>
<path fill="none" stroke="grey" stroke-width="2" d="M1321.1,-791.966C1275.14,-781.783 1216.61,-768.818 1168.96,-758.264"/>
<polygon fill="grey" stroke="grey" stroke-width="2" points="1169.49,-754.796 1158.97,-756.05 1167.98,-761.63 1169.49,-754.796"/>
</g>
<!-- 1 -->
<g id="node2" class="node"><title>1</title>
<path fill="none" stroke="#d88d56" stroke-width="2" d="M1227,-252C1227,-252 993,-252 993,-252 987,-252 981,-246 981,-240 981,-240 981,-228 981,-228 981,-222 987,-216 993,-216 993,-216 1227,-216 1227,-216 1233,-216 1239,-222 1239,-228 1239,-228 1239,-240 1239,-240 1239,-246 1233,-252 1227,-252"/>
<text text-anchor="middle" x="1110" y="-237" font-family="sans" font-size="10.00">compress_vcf</text>
<text text-anchor="middle" x="1110" y="-226" font-family="sans" font-size="10.00">any_vcf: samples/S1/snps/gatk/34528/bwa/snps.g</text>
</g>
<!-- 6 -->
<g id="node7" class="node"><title>6</title>
<path fill="none" stroke="#5663d8" stroke-width="2" d="M1111,-180C1111,-180 1071,-180 1071,-180 1065,-180 1059,-174 1059,-168 1059,-168 1059,-156 1059,-156 1059,-150 1065,-144 1071,-144 1071,-144 1111,-144 1111,-144 1117,-144 1123,-150 1123,-156 1123,-156 1123,-168 1123,-168 1123,-174 1117,-180 1111,-180"/>
<text text-anchor="middle" x="1091" y="-159.5" font-family="sans" font-size="10.00">index_vcf</text>
</g>
<!-- 1&#45;&gt;6 -->
<g id="edge8" class="edge"><title>1&#45;&gt;6</title>
<path fill="none" stroke="grey" stroke-width="2" d="M1105.3,-215.697C1103.19,-207.898 1100.64,-198.509 1098.28,-189.829"/>
<polygon fill="grey" stroke="grey" stroke-width="2" points="1101.64,-188.838 1095.64,-180.104 1094.88,-190.672 1101.64,-188.838"/>
</g>
<!-- 11 -->
<g id="node12" class="node"><title>11</title>
<path fill="none" stroke="#56d8c1" stroke-width="2" d="M1212.5,-108C1212.5,-108 1029.5,-108 1029.5,-108 1023.5,-108 1017.5,-102 1017.5,-96 1017.5,-96 1017.5,-84 1017.5,-84 1017.5,-78 1023.5,-72 1029.5,-72 1029.5,-72 1212.5,-72 1212.5,-72 1218.5,-72 1224.5,-78 1224.5,-84 1224.5,-84 1224.5,-96 1224.5,-96 1224.5,-102 1218.5,-108 1212.5,-108"/>
<text text-anchor="middle" x="1121" y="-93" font-family="sans" font-size="10.00">merge_gvcf_files_with_CombineGVCFs</text>
<text text-anchor="middle" x="1121" y="-82" font-family="sans" font-size="10.00">mapping_method: bwa</text>
</g>
<!-- 1&#45;&gt;11 -->
<g id="edge17" class="edge"><title>1&#45;&gt;11</title>
<path fill="none" stroke="grey" stroke-width="2" d="M1119.13,-215.88C1124.01,-205.756 1129.51,-192.506 1132,-180 1136.08,-159.516 1132.87,-136.06 1128.88,-118.371"/>
<polygon fill="grey" stroke="grey" stroke-width="2" points="1132.16,-117.047 1126.35,-108.182 1125.36,-118.73 1132.16,-117.047"/>
</g>
<!-- 2 -->
<g id="node3" class="node"><title>2</title>
<path fill="none" stroke="#d85656" stroke-width="2" d="M1465,-902.5C1465,-902.5 1331,-902.5 1331,-902.5 1325,-902.5 1319,-896.5 1319,-890.5 1319,-890.5 1319,-878.5 1319,-878.5 1319,-872.5 1325,-866.5 1331,-866.5 1331,-866.5 1465,-866.5 1465,-866.5 1471,-866.5 1477,-872.5 1477,-878.5 1477,-878.5 1477,-890.5 1477,-890.5 1477,-896.5 1471,-902.5 1465,-902.5"/>
<text text-anchor="middle" x="1398" y="-887.5" font-family="sans" font-size="10.00">copy_fastq_paired_from_link</text>
<text text-anchor="middle" x="1398" y="-876.5" font-family="sans" font-size="10.00">sample: S1</text>
</g>
<!-- 2&#45;&gt;0 -->
<g id="edge1" class="edge"><title>2&#45;&gt;0</title>
<path fill="none" stroke="grey" stroke-width="2" d="M1398,-866.319C1398,-857.922 1398,-847.616 1398,-838.186"/>
<polygon fill="grey" stroke="grey" stroke-width="2" points="1401.5,-838.058 1398,-828.058 1394.5,-838.058 1401.5,-838.058"/>
</g>
<!-- 3 -->
<g id="node4" class="node"><title>3</title>
<path fill="none" stroke="#78d856" stroke-width="2" d="M698.5,-684C698.5,-684 481.5,-684 481.5,-684 475.5,-684 469.5,-678 469.5,-672 469.5,-672 469.5,-660 469.5,-660 469.5,-654 475.5,-648 481.5,-648 481.5,-648 698.5,-648 698.5,-648 704.5,-648 710.5,-654 710.5,-660 710.5,-660 710.5,-672 710.5,-672 710.5,-678 704.5,-684 698.5,-684"/>
<text text-anchor="middle" x="590" y="-669" font-family="sans" font-size="10.00">index_bam_file</text>
<text text-anchor="middle" x="590" y="-658" font-family="sans" font-size="10.00">any_bam: samples/S2/mapping/bwa/34528/S2</text>
</g>
<!-- 12 -->
<g id="node13" class="node"><title>12</title>
<path fill="none" stroke="#56b1d8" stroke-width="2" d="M674,-612C674,-612 570,-612 570,-612 564,-612 558,-606 558,-600 558,-600 558,-588 558,-588 558,-582 564,-576 570,-576 570,-576 674,-576 674,-576 680,-576 686,-582 686,-588 686,-588 686,-600 686,-600 686,-606 680,-612 674,-612"/>
<text text-anchor="middle" x="622" y="-591.5" font-family="sans" font-size="10.00">filter_reads_on_quality</text>
</g>
<!-- 3&#45;&gt;12 -->
<g id="edge21" class="edge"><title>3&#45;&gt;12</title>
<path fill="none" stroke="grey" stroke-width="2" d="M597.91,-647.697C601.553,-639.728 605.954,-630.1 609.994,-621.264"/>
<polygon fill="grey" stroke="grey" stroke-width="2" points="613.206,-622.654 614.181,-612.104 606.84,-619.744 613.206,-622.654"/>
</g>
<!-- 4 -->
<g id="node5" class="node"><title>4</title>
<path fill="none" stroke="#5673d8" stroke-width="2" d="M742,-756C742,-756 608,-756 608,-756 602,-756 596,-750 596,-744 596,-744 596,-732 596,-732 596,-726 602,-720 608,-720 608,-720 742,-720 742,-720 748,-720 754,-726 754,-732 754,-732 754,-744 754,-744 754,-750 748,-756 742,-756"/>
<text text-anchor="middle" x="675" y="-735.5" font-family="sans" font-size="10.00">map_paired_reads_with_bwa</text>
</g>
<!-- 4&#45;&gt;3 -->
<g id="edge3" class="edge"><title>4&#45;&gt;3</title>
<path fill="none" stroke="grey" stroke-width="2" d="M653.989,-719.697C643.284,-710.881 630.11,-700.032 618.504,-690.474"/>
<polygon fill="grey" stroke="grey" stroke-width="2" points="620.714,-687.76 610.77,-684.104 616.264,-693.163 620.714,-687.76"/>
</g>
<!-- 4&#45;&gt;12 -->
<g id="edge20" class="edge"><title>4&#45;&gt;12</title>
<path fill="none" stroke="grey" stroke-width="2" d="M693.876,-719.864C711.576,-701.639 733.333,-672.165 719,-648 711.09,-634.664 698.51,-624.466 684.995,-616.755"/>
<polygon fill="grey" stroke="grey" stroke-width="2" points="686.5,-613.591 676.02,-612.038 683.244,-619.788 686.5,-613.591"/>
</g>
<!-- 5 -->
<g id="node6" class="node"><title>5</title>
<path fill="none" stroke="#78d856" stroke-width="2" d="M1162,-540C1162,-540 922,-540 922,-540 916,-540 910,-534 910,-528 910,-528 910,-516 910,-516 910,-510 916,-504 922,-504 922,-504 1162,-504 1162,-504 1168,-504 1174,-510 1174,-516 1174,-516 1174,-528 1174,-528 1174,-534 1168,-540 1162,-540"/>
<text text-anchor="middle" x="1042" y="-525" font-family="sans" font-size="10.00">index_bam_file</text>
<text text-anchor="middle" x="1042" y="-514" font-family="sans" font-size="10.00">any_bam: samples/S1/mapping/bwa/34528/filtered</text>
</g>
<!-- 14 -->
<g id="node15" class="node"><title>14</title>
<path fill="none" stroke="#56b1d8" stroke-width="2" d="M1102,-468C1102,-468 940,-468 940,-468 934,-468 928,-462 928,-456 928,-456 928,-444 928,-444 928,-438 934,-432 940,-432 940,-432 1102,-432 1102,-432 1108,-432 1114,-438 1114,-444 1114,-444 1114,-456 1114,-456 1114,-462 1108,-468 1102,-468"/>
<text text-anchor="middle" x="1021" y="-447.5" font-family="sans" font-size="10.00">remove_duplicates_from_mapping</text>
</g>
<!-- 5&#45;&gt;14 -->
<g id="edge24" class="edge"><title>5&#45;&gt;14</title>
<path fill="none" stroke="grey" stroke-width="2" d="M1036.81,-503.697C1034.47,-495.898 1031.65,-486.509 1029.05,-477.829"/>
<polygon fill="grey" stroke="grey" stroke-width="2" points="1032.36,-476.677 1026.13,-468.104 1025.65,-478.688 1032.36,-476.677"/>
</g>
<!-- 6&#45;&gt;11 -->
<g id="edge15" class="edge"><title>6&#45;&gt;11</title>
<path fill="none" stroke="grey" stroke-width="2" d="M1098.42,-143.697C1101.79,-135.813 1105.87,-126.304 1109.62,-117.546"/>
<polygon fill="grey" stroke="grey" stroke-width="2" points="1112.95,-118.675 1113.67,-108.104 1106.51,-115.917 1112.95,-118.675"/>
</g>
<!-- 7 -->
<g id="node8" class="node"><title>7</title>
<path fill="none" stroke="#d6d856" stroke-width="2" d="M1041.5,-828C1041.5,-828 822.5,-828 822.5,-828 816.5,-828 810.5,-822 810.5,-816 810.5,-816 810.5,-804 810.5,-804 810.5,-798 816.5,-792 822.5,-792 822.5,-792 1041.5,-792 1041.5,-792 1047.5,-792 1053.5,-798 1053.5,-804 1053.5,-804 1053.5,-816 1053.5,-816 1053.5,-822 1047.5,-828 1041.5,-828"/>
<text text-anchor="middle" x="932" y="-813" font-family="sans" font-size="10.00">index_reference_fasta</text>
<text text-anchor="middle" x="932" y="-802" font-family="sans" font-size="10.00">any_genome: references/34528/genome_fasta</text>
</g>
<!-- 7&#45;&gt;4 -->
<g id="edge4" class="edge"><title>7&#45;&gt;4</title>
<path fill="none" stroke="grey" stroke-width="2" d="M869.459,-791.966C832.77,-781.972 786.238,-769.298 747.892,-758.854"/>
<polygon fill="grey" stroke="grey" stroke-width="2" points="748.389,-755.362 737.821,-756.111 746.55,-762.116 748.389,-755.362"/>
</g>
<!-- 7&#45;&gt;12 -->
<g id="edge18" class="edge"><title>7&#45;&gt;12</title>
<path fill="none" stroke="grey" stroke-width="2" d="M912.377,-791.803C870.461,-755.251 772.997,-671.269 736,-648 716.781,-635.912 694.357,-624.897 674.507,-616.078"/>
<polygon fill="grey" stroke="grey" stroke-width="2" points="675.858,-612.849 665.293,-612.058 673.059,-619.265 675.858,-612.849"/>
</g>
<!-- 7&#45;&gt;20 -->
<g id="edge33" class="edge"><title>7&#45;&gt;20</title>
<path fill="none" stroke="grey" stroke-width="2" d="M968.694,-791.876C989.018,-782.392 1014.47,-770.513 1036.1,-760.419"/>
<polygon fill="grey" stroke="grey" stroke-width="2" points="1037.84,-763.469 1045.43,-756.068 1034.88,-757.126 1037.84,-763.469"/>
</g>
<!-- 24 -->
<g id="node25" class="node"><title>24</title>
<path fill="none" stroke="#56b1d8" stroke-width="2" d="M1062,-612C1062,-612 958,-612 958,-612 952,-612 946,-606 946,-600 946,-600 946,-588 946,-588 946,-582 952,-576 958,-576 958,-576 1062,-576 1062,-576 1068,-576 1074,-582 1074,-588 1074,-588 1074,-600 1074,-600 1074,-606 1068,-612 1062,-612"/>
<text text-anchor="middle" x="1010" y="-591.5" font-family="sans" font-size="10.00">filter_reads_on_quality</text>
</g>
<!-- 7&#45;&gt;24 -->
<g id="edge42" class="edge"><title>7&#45;&gt;24</title>
<path fill="none" stroke="grey" stroke-width="2" d="M916.638,-791.677C891.058,-760.637 845.507,-694.452 877,-648 890.669,-627.838 913.364,-615.346 936.17,-607.605"/>
<polygon fill="grey" stroke="grey" stroke-width="2" points="937.416,-610.883 945.925,-604.571 935.337,-604.199 937.416,-610.883"/>
</g>
<!-- 8 -->
<g id="node9" class="node"><title>8</title>
<path fill="none" stroke="#68d856" stroke-width="2" d="M804,-396C804,-396 656,-396 656,-396 650,-396 644,-390 644,-384 644,-384 644,-372 644,-372 644,-366 650,-360 656,-360 656,-360 804,-360 804,-360 810,-360 816,-366 816,-372 816,-372 816,-384 816,-384 816,-390 810,-396 804,-396"/>
<text text-anchor="middle" x="730" y="-375.5" font-family="sans" font-size="10.00">create_dictionary_for_reference</text>
</g>
<!-- 16 -->
<g id="node17" class="node"><title>16</title>
<path fill="none" stroke="#9fd856" stroke-width="2" d="M739,-324C739,-324 493,-324 493,-324 487,-324 481,-318 481,-312 481,-312 481,-300 481,-300 481,-294 487,-288 493,-288 493,-288 739,-288 739,-288 745,-288 751,-294 751,-300 751,-300 751,-312 751,-312 751,-318 745,-324 739,-324"/>
<text text-anchor="middle" x="616" y="-309" font-family="sans" font-size="10.00">call_snps_with_HaplotypeCaller_gatk_bp_resolution</text>
<text text-anchor="middle" x="616" y="-298" font-family="sans" font-size="10.00">mapping_method: bwa</text>
</g>
<!-- 8&#45;&gt;16 -->
<g id="edge28" class="edge"><title>8&#45;&gt;16</title>
<path fill="none" stroke="grey" stroke-width="2" d="M702.112,-359.876C687.207,-350.724 668.671,-339.342 652.618,-329.485"/>
<polygon fill="grey" stroke="grey" stroke-width="2" points="654.348,-326.44 643.995,-324.19 650.685,-332.405 654.348,-326.44"/>
</g>
<!-- 22 -->
<g id="node23" class="node"><title>22</title>
<path fill="none" stroke="#9fd856" stroke-width="2" d="M1230,-324C1230,-324 984,-324 984,-324 978,-324 972,-318 972,-312 972,-312 972,-300 972,-300 972,-294 978,-288 984,-288 984,-288 1230,-288 1230,-288 1236,-288 1242,-294 1242,-300 1242,-300 1242,-312 1242,-312 1242,-318 1236,-324 1230,-324"/>
<text text-anchor="middle" x="1107" y="-309" font-family="sans" font-size="10.00">call_snps_with_HaplotypeCaller_gatk_bp_resolution</text>
<text text-anchor="middle" x="1107" y="-298" font-family="sans" font-size="10.00">mapping_method: bwa</text>
</g>
<!-- 8&#45;&gt;22 -->
<g id="edge41" class="edge"><title>8&#45;&gt;22</title>
<path fill="none" stroke="grey" stroke-width="2" d="M816.019,-361.028C872.308,-350.577 946.114,-336.873 1005.31,-325.882"/>
<polygon fill="grey" stroke="grey" stroke-width="2" points="1006.24,-329.269 1015.43,-324.003 1004.96,-322.387 1006.24,-329.269"/>
</g>
<!-- 9 -->
<g id="node10" class="node"><title>9</title>
<path fill="none" stroke="#78d856" stroke-width="2" d="M1115.5,-684C1115.5,-684 898.5,-684 898.5,-684 892.5,-684 886.5,-678 886.5,-672 886.5,-672 886.5,-660 886.5,-660 886.5,-654 892.5,-648 898.5,-648 898.5,-648 1115.5,-648 1115.5,-648 1121.5,-648 1127.5,-654 1127.5,-660 1127.5,-660 1127.5,-672 1127.5,-672 1127.5,-678 1121.5,-684 1115.5,-684"/>
<text text-anchor="middle" x="1007" y="-669" font-family="sans" font-size="10.00">index_bam_file</text>
<text text-anchor="middle" x="1007" y="-658" font-family="sans" font-size="10.00">any_bam: samples/S1/mapping/bwa/34528/S1</text>
</g>
<!-- 9&#45;&gt;24 -->
<g id="edge45" class="edge"><title>9&#45;&gt;24</title>
<path fill="none" stroke="grey" stroke-width="2" d="M1007.74,-647.697C1008.07,-639.983 1008.47,-630.712 1008.84,-622.112"/>
<polygon fill="grey" stroke="grey" stroke-width="2" points="1012.34,-622.245 1009.27,-612.104 1005.34,-621.945 1012.34,-622.245"/>
</g>
<!-- 10 -->
<g id="node11" class="node"><title>10</title>
<path fill="none" stroke="#78d856" stroke-width="2" d="M1154,-396C1154,-396 846,-396 846,-396 840,-396 834,-390 834,-384 834,-384 834,-372 834,-372 834,-366 840,-360 846,-360 846,-360 1154,-360 1154,-360 1160,-360 1166,-366 1166,-372 1166,-372 1166,-384 1166,-384 1166,-390 1160,-396 1154,-396"/>
<text text-anchor="middle" x="1000" y="-381" font-family="sans" font-size="10.00">index_bam_file</text>
<text text-anchor="middle" x="1000" y="-370" font-family="sans" font-size="10.00">any_bam: samples/S1/mapping/bwa/34528/deduplicated_filtered</text>
</g>
<!-- 10&#45;&gt;22 -->
<g id="edge40" class="edge"><title>10&#45;&gt;22</title>
<path fill="none" stroke="grey" stroke-width="2" d="M1026.18,-359.876C1040.04,-350.808 1057.24,-339.552 1072.21,-329.759"/>
<polygon fill="grey" stroke="grey" stroke-width="2" points="1074.27,-332.593 1080.72,-324.19 1070.44,-326.735 1074.27,-332.593"/>
</g>
<!-- 21 -->
<g id="node22" class="node"><title>21</title>
<path fill="none" stroke="#56d85b" stroke-width="2" d="M1411,-36C1411,-36 1235,-36 1235,-36 1229,-36 1223,-30 1223,-24 1223,-24 1223,-12 1223,-12 1223,-6 1229,-0 1235,-0 1235,-0 1411,-0 1411,-0 1417,-0 1423,-6 1423,-12 1423,-12 1423,-24 1423,-24 1423,-30 1417,-36 1411,-36"/>
<text text-anchor="middle" x="1323" y="-15.5" font-family="sans" font-size="10.00">genotype_with_GenotypeGVCFs_gatk</text>
</g>
<!-- 11&#45;&gt;21 -->
<g id="edge37" class="edge"><title>11&#45;&gt;21</title>
<path fill="none" stroke="grey" stroke-width="2" d="M1170.16,-71.9656C1198.5,-62.1425 1234.32,-49.7291 1264.16,-39.3891"/>
<polygon fill="grey" stroke="grey" stroke-width="2" points="1265.32,-42.6923 1273.62,-36.1108 1263.03,-36.0781 1265.32,-42.6923"/>
</g>
<!-- 13 -->
<g id="node14" class="node"><title>13</title>
<path fill="none" stroke="#78d856" stroke-width="2" d="M758,-540C758,-540 518,-540 518,-540 512,-540 506,-534 506,-528 506,-528 506,-516 506,-516 506,-510 512,-504 518,-504 518,-504 758,-504 758,-504 764,-504 770,-510 770,-516 770,-516 770,-528 770,-528 770,-534 764,-540 758,-540"/>
<text text-anchor="middle" x="638" y="-525" font-family="sans" font-size="10.00">index_bam_file</text>
<text text-anchor="middle" x="638" y="-514" font-family="sans" font-size="10.00">any_bam: samples/S2/mapping/bwa/34528/filtered</text>
</g>
<!-- 12&#45;&gt;13 -->
<g id="edge22" class="edge"><title>12&#45;&gt;13</title>
<path fill="none" stroke="grey" stroke-width="2" d="M625.955,-575.697C627.718,-567.983 629.837,-558.712 631.803,-550.112"/>
<polygon fill="grey" stroke="grey" stroke-width="2" points="635.274,-550.633 634.09,-540.104 628.45,-549.073 635.274,-550.633"/>
</g>
<!-- 15 -->
<g id="node16" class="node"><title>15</title>
<path fill="none" stroke="#56b1d8" stroke-width="2" d="M628,-468C628,-468 466,-468 466,-468 460,-468 454,-462 454,-456 454,-456 454,-444 454,-444 454,-438 460,-432 466,-432 466,-432 628,-432 628,-432 634,-432 640,-438 640,-444 640,-444 640,-456 640,-456 640,-462 634,-468 628,-468"/>
<text text-anchor="middle" x="547" y="-447.5" font-family="sans" font-size="10.00">remove_duplicates_from_mapping</text>
</g>
<!-- 12&#45;&gt;15 -->
<g id="edge26" class="edge"><title>12&#45;&gt;15</title>
<path fill="none" stroke="grey" stroke-width="2" d="M557.754,-581.192C534.597,-573.5 510.795,-560.833 497,-540 483.044,-518.925 500.159,-493.708 518.054,-475.506"/>
<polygon fill="grey" stroke="grey" stroke-width="2" points="520.903,-477.622 525.684,-468.167 516.05,-472.577 520.903,-477.622"/>
</g>
<!-- 13&#45;&gt;15 -->
<g id="edge25" class="edge"><title>13&#45;&gt;15</title>
<path fill="none" stroke="grey" stroke-width="2" d="M615.506,-503.697C604.045,-494.881 589.942,-484.032 577.516,-474.474"/>
<polygon fill="grey" stroke="grey" stroke-width="2" points="579.296,-471.427 569.236,-468.104 575.028,-476.976 579.296,-471.427"/>
</g>
<!-- 14&#45;&gt;10 -->
<g id="edge12" class="edge"><title>14&#45;&gt;10</title>
<path fill="none" stroke="grey" stroke-width="2" d="M1015.81,-431.697C1013.47,-423.898 1010.65,-414.509 1008.05,-405.829"/>
<polygon fill="grey" stroke="grey" stroke-width="2" points="1011.36,-404.677 1005.13,-396.104 1004.65,-406.688 1011.36,-404.677"/>
</g>
<!-- 14&#45;&gt;22 -->
<g id="edge39" class="edge"><title>14&#45;&gt;22</title>
<path fill="none" stroke="grey" stroke-width="2" d="M1114.25,-436.653C1137.84,-428.848 1160.55,-416.256 1175,-396 1184.29,-382.975 1182.02,-374.377 1175,-360 1169.19,-348.114 1159.29,-338.119 1148.82,-330.125"/>
<polygon fill="grey" stroke="grey" stroke-width="2" points="1150.54,-327.059 1140.36,-324.145 1146.5,-332.775 1150.54,-327.059"/>
</g>
<!-- 15&#45;&gt;16 -->
<g id="edge30" class="edge"><title>15&#45;&gt;16</title>
<path fill="none" stroke="grey" stroke-width="2" d="M567.862,-431.87C578.137,-422.343 589.828,-409.665 597,-396 607.066,-376.821 611.799,-352.659 614.025,-334.353"/>
<polygon fill="grey" stroke="grey" stroke-width="2" points="617.514,-334.641 615.067,-324.332 610.552,-333.916 617.514,-334.641"/>
</g>
<!-- 26 -->
<g id="node27" class="node"><title>26</title>
<path fill="none" stroke="#78d856" stroke-width="2" d="M576,-396C576,-396 268,-396 268,-396 262,-396 256,-390 256,-384 256,-384 256,-372 256,-372 256,-366 262,-360 268,-360 268,-360 576,-360 576,-360 582,-360 588,-366 588,-372 588,-372 588,-384 588,-384 588,-390 582,-396 576,-396"/>
<text text-anchor="middle" x="422" y="-381" font-family="sans" font-size="10.00">index_bam_file</text>
<text text-anchor="middle" x="422" y="-370" font-family="sans" font-size="10.00">any_bam: samples/S2/mapping/bwa/34528/deduplicated_filtered</text>
</g>
<!-- 15&#45;&gt;26 -->
<g id="edge47" class="edge"><title>15&#45;&gt;26</title>
<path fill="none" stroke="grey" stroke-width="2" d="M516.422,-431.876C499.926,-422.639 479.376,-411.131 461.664,-401.212"/>
<polygon fill="grey" stroke="grey" stroke-width="2" points="463.131,-398.022 452.696,-396.19 459.711,-404.13 463.131,-398.022"/>
</g>
<!-- 25 -->
<g id="node26" class="node"><title>25</title>
<path fill="none" stroke="#d88d56" stroke-width="2" d="M951,-252C951,-252 717,-252 717,-252 711,-252 705,-246 705,-240 705,-240 705,-228 705,-228 705,-222 711,-216 717,-216 717,-216 951,-216 951,-216 957,-216 963,-222 963,-228 963,-228 963,-240 963,-240 963,-246 957,-252 951,-252"/>
<text text-anchor="middle" x="834" y="-237" font-family="sans" font-size="10.00">compress_vcf</text>
<text text-anchor="middle" x="834" y="-226" font-family="sans" font-size="10.00">any_vcf: samples/S2/snps/gatk/34528/bwa/snps.g</text>
</g>
<!-- 16&#45;&gt;25 -->
<g id="edge46" class="edge"><title>16&#45;&gt;25</title>
<path fill="none" stroke="grey" stroke-width="2" d="M669.05,-287.966C699.774,-278.1 738.636,-265.622 770.92,-255.255"/>
<polygon fill="grey" stroke="grey" stroke-width="2" points="772.261,-258.501 780.712,-252.111 770.121,-251.836 772.261,-258.501"/>
</g>
<!-- 17 -->
<g id="node18" class="node"><title>17</title>
<path fill="none" stroke="#56d873" stroke-width="2" d="M188,-828C188,-828 12,-828 12,-828 6,-828 0,-822 0,-816 0,-816 0,-804 0,-804 0,-798 6,-792 12,-792 12,-792 188,-792 188,-792 194,-792 200,-798 200,-804 200,-804 200,-816 200,-816 200,-822 194,-828 188,-828"/>
<text text-anchor="middle" x="100" y="-807.5" font-family="sans" font-size="10.00">trim_paired_reads_with_trimmomatic</text>
</g>
<!-- 17&#45;&gt;4 -->
<g id="edge6" class="edge"><title>17&#45;&gt;4</title>
<path fill="none" stroke="grey" stroke-width="2" d="M200.157,-796.807C308.989,-783.558 481.257,-762.586 585.652,-749.877"/>
<polygon fill="grey" stroke="grey" stroke-width="2" points="586.346,-753.319 595.85,-748.636 585.5,-746.37 586.346,-753.319"/>
</g>
<!-- 18 -->
<g id="node19" class="node"><title>18</title>
<path fill="none" stroke="#d85656" stroke-width="2" d="M167,-902.5C167,-902.5 33,-902.5 33,-902.5 27,-902.5 21,-896.5 21,-890.5 21,-890.5 21,-878.5 21,-878.5 21,-872.5 27,-866.5 33,-866.5 33,-866.5 167,-866.5 167,-866.5 173,-866.5 179,-872.5 179,-878.5 179,-878.5 179,-890.5 179,-890.5 179,-896.5 173,-902.5 167,-902.5"/>
<text text-anchor="middle" x="100" y="-887.5" font-family="sans" font-size="10.00">copy_fastq_paired_from_link</text>
<text text-anchor="middle" x="100" y="-876.5" font-family="sans" font-size="10.00">sample: S2</text>
</g>
<!-- 18&#45;&gt;17 -->
<g id="edge31" class="edge"><title>18&#45;&gt;17</title>
<path fill="none" stroke="grey" stroke-width="2" d="M100,-866.319C100,-857.922 100,-847.616 100,-838.186"/>
<polygon fill="grey" stroke="grey" stroke-width="2" points="103.5,-838.058 100,-828.058 96.5001,-838.058 103.5,-838.058"/>
</g>
<!-- 19 -->
<g id="node20" class="node"><title>19</title>
<path fill="none" stroke="#5663d8" stroke-width="2" d="M874,-180C874,-180 834,-180 834,-180 828,-180 822,-174 822,-168 822,-168 822,-156 822,-156 822,-150 828,-144 834,-144 834,-144 874,-144 874,-144 880,-144 886,-150 886,-156 886,-156 886,-168 886,-168 886,-174 880,-180 874,-180"/>
<text text-anchor="middle" x="854" y="-159.5" font-family="sans" font-size="10.00">index_vcf</text>
</g>
<!-- 19&#45;&gt;11 -->
<g id="edge13" class="edge"><title>19&#45;&gt;11</title>
<path fill="none" stroke="grey" stroke-width="2" d="M886.206,-152.556C925.557,-142.24 993.393,-124.455 1046.06,-110.647"/>
<polygon fill="grey" stroke="grey" stroke-width="2" points="1047.26,-113.951 1056.04,-108.03 1045.48,-107.18 1047.26,-113.951"/>
</g>
<!-- 20&#45;&gt;9 -->
<g id="edge11" class="edge"><title>20&#45;&gt;9</title>
<path fill="none" stroke="grey" stroke-width="2" d="M1063.46,-719.697C1054.2,-711.05 1042.84,-700.449 1032.74,-691.027"/>
<polygon fill="grey" stroke="grey" stroke-width="2" points="1035.02,-688.369 1025.33,-684.104 1030.25,-693.486 1035.02,-688.369"/>
</g>
<!-- 20&#45;&gt;24 -->
<g id="edge44" class="edge"><title>20&#45;&gt;24</title>
<path fill="none" stroke="grey" stroke-width="2" d="M1106.93,-719.861C1118.06,-710.67 1130,-698.293 1136,-684 1142.19,-669.247 1144.85,-661.328 1136,-648 1123.87,-629.74 1104.09,-617.757 1083.76,-609.899"/>
<polygon fill="grey" stroke="grey" stroke-width="2" points="1084.68,-606.512 1074.09,-606.467 1082.34,-613.109 1084.68,-606.512"/>
</g>
<!-- 22&#45;&gt;1 -->
<g id="edge2" class="edge"><title>22&#45;&gt;1</title>
<path fill="none" stroke="grey" stroke-width="2" d="M1107.74,-287.697C1108.07,-279.983 1108.47,-270.712 1108.84,-262.112"/>
<polygon fill="grey" stroke="grey" stroke-width="2" points="1112.34,-262.245 1109.27,-252.104 1105.34,-261.945 1112.34,-262.245"/>
</g>
<!-- 23 -->
<g id="node24" class="node"><title>23</title>
<path fill="none" stroke="#56d8b1" stroke-width="2" d="M1076,-905C1076,-905 938,-905 938,-905 932,-905 926,-899 926,-893 926,-893 926,-876 926,-876 926,-870 932,-864 938,-864 938,-864 1076,-864 1076,-864 1082,-864 1088,-870 1088,-876 1088,-876 1088,-893 1088,-893 1088,-899 1082,-905 1076,-905"/>
<text text-anchor="middle" x="1007" y="-893" font-family="sans" font-size="10.00">download_reference_from_url</text>
<text text-anchor="middle" x="1007" y="-882" font-family="sans" font-size="10.00">format: fasta</text>
<text text-anchor="middle" x="1007" y="-871" font-family="sans" font-size="10.00">ref: 34528</text>
</g>
<!-- 23&#45;&gt;4 -->
<g id="edge5" class="edge"><title>23&#45;&gt;4</title>
<path fill="none" stroke="grey" stroke-width="2" d="M925.977,-875.588C877.813,-868.298 816.802,-854.395 768,-828 738.63,-812.115 711.863,-784.455 694.666,-764.176"/>
<polygon fill="grey" stroke="grey" stroke-width="2" points="697.192,-761.739 688.121,-756.265 691.798,-766.201 697.192,-761.739"/>
</g>
<!-- 23&#45;&gt;7 -->
<g id="edge9" class="edge"><title>23&#45;&gt;7</title>
<path fill="none" stroke="grey" stroke-width="2" d="M986.506,-863.689C977.471,-854.955 966.765,-844.607 957.244,-835.403"/>
<polygon fill="grey" stroke="grey" stroke-width="2" points="959.539,-832.753 949.917,-828.319 954.674,-837.786 959.539,-832.753"/>
</g>
<!-- 23&#45;&gt;8 -->
<g id="edge10" class="edge"><title>23&#45;&gt;8</title>
<path fill="none" stroke="grey" stroke-width="2" d="M925.953,-871.926C875.191,-862.829 816.544,-848.286 801,-828 791.269,-815.3 800.433,-807.99 801,-792 804.113,-704.279 815,-682.776 815,-595 815,-595 815,-595 815,-521 815,-474.452 780.958,-429.949 755.961,-403.546"/>
<polygon fill="grey" stroke="grey" stroke-width="2" points="758.353,-400.985 748.864,-396.271 753.342,-405.873 758.353,-400.985"/>
</g>
<!-- 23&#45;&gt;11 -->
<g id="edge14" class="edge"><title>23&#45;&gt;11</title>
<path fill="none" stroke="grey" stroke-width="2" d="M1088.05,-873.361C1165.33,-858.626 1270,-823.138 1270,-739 1270,-739 1270,-739 1270,-233 1270,-176.62 1213.4,-135.798 1169.97,-112.772"/>
<polygon fill="grey" stroke="grey" stroke-width="2" points="1171.42,-109.583 1160.93,-108.129 1168.23,-115.81 1171.42,-109.583"/>
</g>
<!-- 23&#45;&gt;12 -->
<g id="edge19" class="edge"><title>23&#45;&gt;12</title>
<path fill="none" stroke="grey" stroke-width="2" d="M925.837,-883.262C797.878,-877.814 554.138,-845.583 460,-684 451.946,-670.175 450.609,-660.954 460,-648 480.149,-620.209 515.3,-606.721 547.72,-600.281"/>
<polygon fill="grey" stroke="grey" stroke-width="2" points="548.447,-603.707 557.675,-598.5 547.215,-596.816 548.447,-603.707"/>
</g>
<!-- 23&#45;&gt;16 -->
<g id="edge27" class="edge"><title>23&#45;&gt;16</title>
<path fill="none" stroke="grey" stroke-width="2" d="M925.838,-876.91C726.317,-859.626 228,-809.408 228,-739 228,-739 228,-739 228,-449 228,-408.553 217.449,-387.616 247,-360 279.213,-329.896 381.661,-316.823 470.457,-311.18"/>
<polygon fill="grey" stroke="grey" stroke-width="2" points="470.888,-314.661 480.658,-310.56 470.464,-307.673 470.888,-314.661"/>
</g>
<!-- 23&#45;&gt;20 -->
<g id="edge35" class="edge"><title>23&#45;&gt;20</title>
<path fill="none" stroke="grey" stroke-width="2" d="M1031.86,-863.99C1042.65,-854.273 1054.51,-841.683 1062,-828 1072.49,-808.841 1077.48,-784.491 1079.86,-766.106"/>
<polygon fill="grey" stroke="grey" stroke-width="2" points="1083.35,-766.38 1080.97,-756.054 1076.39,-765.607 1083.35,-766.38"/>
</g>
<!-- 23&#45;&gt;21 -->
<g id="edge36" class="edge"><title>23&#45;&gt;21</title>
<path fill="none" stroke="grey" stroke-width="2" d="M1088.13,-876.975C1225.76,-865.56 1491.68,-841.863 1507,-828 1536.99,-800.862 1526,-779.447 1526,-739 1526,-739 1526,-739 1526,-161 1526,-97.1376 1457.71,-59.5862 1400.34,-39.3087"/>
<polygon fill="grey" stroke="grey" stroke-width="2" points="1401.47,-35.996 1390.88,-36.0812 1399.21,-42.6214 1401.47,-35.996"/>
</g>
<!-- 23&#45;&gt;22 -->
<g id="edge38" class="edge"><title>23&#45;&gt;22</title>
<path fill="none" stroke="grey" stroke-width="2" d="M1088.23,-866.27C1152.68,-847.276 1232,-809.565 1232,-739 1232,-739 1232,-739 1232,-449 1232,-405.813 1221.34,-392.589 1193,-360 1182.33,-347.732 1168.11,-337.4 1154.32,-329.21"/>
<polygon fill="grey" stroke="grey" stroke-width="2" points="1155.78,-326.015 1145.35,-324.138 1152.33,-332.108 1155.78,-326.015"/>
</g>
<!-- 23&#45;&gt;24 -->
<g id="edge43" class="edge"><title>23&#45;&gt;24</title>
<path fill="none" stroke="grey" stroke-width="2" d="M1050.5,-863.944C1090.12,-843.431 1145.99,-807.04 1170,-756 1190.68,-712.032 1185.18,-684.407 1153,-648 1135.2,-627.86 1109.03,-615.359 1083.92,-607.605"/>
<polygon fill="grey" stroke="grey" stroke-width="2" points="1084.58,-604.153 1074,-604.761 1082.65,-610.882 1084.58,-604.153"/>
</g>
<!-- 24&#45;&gt;5 -->
<g id="edge7" class="edge"><title>24&#45;&gt;5</title>
<path fill="none" stroke="grey" stroke-width="2" d="M1017.91,-575.697C1021.55,-567.728 1025.95,-558.1 1029.99,-549.264"/>
<polygon fill="grey" stroke="grey" stroke-width="2" points="1033.21,-550.654 1034.18,-540.104 1026.84,-547.744 1033.21,-550.654"/>
</g>
<!-- 24&#45;&gt;14 -->
<g id="edge23" class="edge"><title>24&#45;&gt;14</title>
<path fill="none" stroke="grey" stroke-width="2" d="M946.042,-575.95C928.418,-567.996 911.324,-556.5 901,-540 892.513,-526.436 892.266,-517.406 901,-504 909.957,-490.252 923.377,-480.044 938.039,-472.473"/>
<polygon fill="grey" stroke="grey" stroke-width="2" points="939.757,-475.533 947.299,-468.092 936.763,-469.205 939.757,-475.533"/>
</g>
<!-- 25&#45;&gt;11 -->
<g id="edge16" class="edge"><title>25&#45;&gt;11</title>
<path fill="none" stroke="grey" stroke-width="2" d="M868.619,-215.871C920.873,-190.018 1019.85,-141.045 1077.1,-112.72"/>
<polygon fill="grey" stroke="grey" stroke-width="2" points="1078.85,-115.761 1086.26,-108.189 1075.74,-109.487 1078.85,-115.761"/>
</g>
<!-- 25&#45;&gt;19 -->
<g id="edge32" class="edge"><title>25&#45;&gt;19</title>
<path fill="none" stroke="grey" stroke-width="2" d="M838.944,-215.697C841.172,-207.898 843.855,-198.509 846.335,-189.829"/>
<polygon fill="grey" stroke="grey" stroke-width="2" points="849.731,-190.681 849.113,-180.104 843,-188.758 849.731,-190.681"/>
</g>
<!-- 26&#45;&gt;16 -->
<g id="edge29" class="edge"><title>26&#45;&gt;16</title>
<path fill="none" stroke="grey" stroke-width="2" d="M469.458,-359.876C496.568,-350.094 530.736,-337.765 559.258,-327.474"/>
<polygon fill="grey" stroke="grey" stroke-width="2" points="560.478,-330.755 568.696,-324.068 558.102,-324.17 560.478,-330.755"/>
</g>
</g>
</svg>
