<?xml version="1.0" encoding="UTF-8" standalone="no"?>
<!DOCTYPE svg PUBLIC "-//W3C//DTD SVG 1.1//EN"
 "http://www.w3.org/Graphics/SVG/1.1/DTD/svg11.dtd">
<!-- Generated by graphviz version 2.38.0 (20140413.2041)
 -->
<!-- Title: snakemake_dag Pages: 1 -->
<svg width="1311pt" height="913pt"
 viewBox="0.00 0.00 1311.46 913.00" xmlns="http://www.w3.org/2000/svg" xmlns:xlink="http://www.w3.org/1999/xlink">
<g id="graph0" class="graph" transform="scale(1 1) rotate(0) translate(4 909)">
<title>snakemake_dag</title>
<polygon fill="white" stroke="none" points="-4,4 -4,-909 1307.46,-909 1307.46,4 -4,4"/>
<!-- 0 -->
<g id="node1" class="node"><title>0</title>
<path fill="none" stroke="#bed856" stroke-width="2" d="M928.638,-396C928.638,-396 620.638,-396 620.638,-396 614.638,-396 608.638,-390 608.638,-384 608.638,-384 608.638,-372 608.638,-372 608.638,-366 614.638,-360 620.638,-360 620.638,-360 928.638,-360 928.638,-360 934.638,-360 940.638,-366 940.638,-372 940.638,-372 940.638,-384 940.638,-384 940.638,-390 934.638,-396 928.638,-396"/>
<text text-anchor="middle" x="774.638" y="-381" font-family="sans" font-size="10.00">index_bam_file</text>
<text text-anchor="middle" x="774.638" y="-370" font-family="sans" font-size="10.00">any_bam: samples/S1/mapping/bwa/34528/deduplicated_filtered</text>
</g>
<!-- 13 -->
<g id="node14" class="node"><title>13</title>
<path fill="none" stroke="#80d856" stroke-width="2" d="M1004.64,-324C1004.64,-324 758.638,-324 758.638,-324 752.638,-324 746.638,-318 746.638,-312 746.638,-312 746.638,-300 746.638,-300 746.638,-294 752.638,-288 758.638,-288 758.638,-288 1004.64,-288 1004.64,-288 1010.64,-288 1016.64,-294 1016.64,-300 1016.64,-300 1016.64,-312 1016.64,-312 1016.64,-318 1010.64,-324 1004.64,-324"/>
<text text-anchor="middle" x="881.638" y="-309" font-family="sans" font-size="10.00">call_snps_with_HaplotypeCaller_gatk_bp_resolution</text>
<text text-anchor="middle" x="881.638" y="-298" font-family="sans" font-size="10.00">mapping_method: bwa</text>
</g>
<!-- 0&#45;&gt;13 -->
<g id="edge30" class="edge"><title>0&#45;&gt;13</title>
<path fill="none" stroke="grey" stroke-width="2" d="M800.813,-359.876C814.674,-350.808 831.879,-339.552 846.849,-329.759"/>
<polygon fill="grey" stroke="grey" stroke-width="2" points="848.91,-332.593 855.362,-324.19 845.078,-326.735 848.91,-332.593"/>
</g>
<!-- 1 -->
<g id="node2" class="node"><title>1</title>
<path fill="none" stroke="#56a2d8" stroke-width="2" d="M1010.64,-108C1010.64,-108 780.638,-108 780.638,-108 774.638,-108 768.638,-102 768.638,-96 768.638,-96 768.638,-84 768.638,-84 768.638,-78 774.638,-72 780.638,-72 780.638,-72 1010.64,-72 1010.64,-72 1016.64,-72 1022.64,-78 1022.64,-84 1022.64,-84 1022.64,-96 1022.64,-96 1022.64,-102 1016.64,-108 1010.64,-108"/>
<text text-anchor="middle" x="895.638" y="-93" font-family="sans" font-size="10.00">merge_gvcf_files_with_GenomicsDBImport_gatk</text>
<text text-anchor="middle" x="895.638" y="-82" font-family="sans" font-size="10.00">mapping_method: bwa</text>
</g>
<!-- 24 -->
<g id="node25" class="node"><title>24</title>
<path fill="none" stroke="#5663d8" stroke-width="2" d="M1173.64,-36C1173.64,-36 999.638,-36 999.638,-36 993.638,-36 987.638,-30 987.638,-24 987.638,-24 987.638,-12 987.638,-12 987.638,-6 993.638,-0 999.638,-0 999.638,-0 1173.64,-0 1173.64,-0 1179.64,-0 1185.64,-6 1185.64,-12 1185.64,-12 1185.64,-24 1185.64,-24 1185.64,-30 1179.64,-36 1173.64,-36"/>
<text text-anchor="middle" x="1086.64" y="-15.5" font-family="sans" font-size="10.00">genotype_with_genotypeGVCFs_gatk</text>
</g>
<!-- 1&#45;&gt;24 -->
<g id="edge44" class="edge"><title>1&#45;&gt;24</title>
<path fill="none" stroke="grey" stroke-width="2" d="M942.362,-71.8761C968.937,-62.1365 1002.4,-49.8725 1030.41,-39.6081"/>
<polygon fill="grey" stroke="grey" stroke-width="2" points="1031.88,-42.7957 1040.07,-36.0683 1029.47,-36.2232 1031.88,-42.7957"/>
</g>
<!-- 2 -->
<g id="node3" class="node"><title>2</title>
<path fill="none" stroke="#bed856" stroke-width="2" d="M429.138,-684C429.138,-684 212.138,-684 212.138,-684 206.138,-684 200.138,-678 200.138,-672 200.138,-672 200.138,-660 200.138,-660 200.138,-654 206.138,-648 212.138,-648 212.138,-648 429.138,-648 429.138,-648 435.138,-648 441.138,-654 441.138,-660 441.138,-660 441.138,-672 441.138,-672 441.138,-678 435.138,-684 429.138,-684"/>
<text text-anchor="middle" x="320.638" y="-669" font-family="sans" font-size="10.00">index_bam_file</text>
<text text-anchor="middle" x="320.638" y="-658" font-family="sans" font-size="10.00">any_bam: samples/S2/mapping/bwa/34528/S2</text>
</g>
<!-- 3 -->
<g id="node4" class="node"><title>3</title>
<path fill="none" stroke="#d85e56" stroke-width="2" d="M363.638,-612C363.638,-612 205.638,-612 205.638,-612 199.638,-612 193.638,-606 193.638,-600 193.638,-600 193.638,-588 193.638,-588 193.638,-582 199.638,-576 205.638,-576 205.638,-576 363.638,-576 363.638,-576 369.638,-576 375.638,-582 375.638,-588 375.638,-588 375.638,-600 375.638,-600 375.638,-606 369.638,-612 363.638,-612"/>
<text text-anchor="middle" x="284.638" y="-591.5" font-family="sans" font-size="10.00">filter_reads_on_quality_after_bwa</text>
</g>
<!-- 2&#45;&gt;3 -->
<g id="edge9" class="edge"><title>2&#45;&gt;3</title>
<path fill="none" stroke="grey" stroke-width="2" d="M311.739,-647.697C307.641,-639.728 302.689,-630.1 298.145,-621.264"/>
<polygon fill="grey" stroke="grey" stroke-width="2" points="301.12,-619.396 293.434,-612.104 294.895,-622.598 301.12,-619.396"/>
</g>
<!-- 8 -->
<g id="node9" class="node"><title>8</title>
<path fill="none" stroke="#d86656" stroke-width="2" d="M349.638,-468C349.638,-468 187.638,-468 187.638,-468 181.638,-468 175.638,-462 175.638,-456 175.638,-456 175.638,-444 175.638,-444 175.638,-438 181.638,-432 187.638,-432 187.638,-432 349.638,-432 349.638,-432 355.638,-432 361.638,-438 361.638,-444 361.638,-444 361.638,-456 361.638,-456 361.638,-462 355.638,-468 349.638,-468"/>
<text text-anchor="middle" x="268.638" y="-447.5" font-family="sans" font-size="10.00">remove_duplicates_from_mapping</text>
</g>
<!-- 3&#45;&gt;8 -->
<g id="edge19" class="edge"><title>3&#45;&gt;8</title>
<path fill="none" stroke="grey" stroke-width="2" d="M203.807,-575.982C185.294,-568.142 167.797,-556.698 156.638,-540 147.748,-526.697 148.079,-517.519 156.638,-504 165.309,-490.303 178.581,-480.078 192.993,-472.466"/>
<polygon fill="grey" stroke="grey" stroke-width="2" points="194.613,-475.571 202.083,-468.058 191.558,-469.272 194.613,-475.571"/>
</g>
<!-- 26 -->
<g id="node27" class="node"><title>26</title>
<path fill="none" stroke="#bed856" stroke-width="2" d="M417.638,-540C417.638,-540 177.638,-540 177.638,-540 171.638,-540 165.638,-534 165.638,-528 165.638,-528 165.638,-516 165.638,-516 165.638,-510 171.638,-504 177.638,-504 177.638,-504 417.638,-504 417.638,-504 423.638,-504 429.638,-510 429.638,-516 429.638,-516 429.638,-528 429.638,-528 429.638,-534 423.638,-540 417.638,-540"/>
<text text-anchor="middle" x="297.638" y="-525" font-family="sans" font-size="10.00">index_bam_file</text>
<text text-anchor="middle" x="297.638" y="-514" font-family="sans" font-size="10.00">any_bam: samples/S2/mapping/bwa/34528/filtered</text>
</g>
<!-- 3&#45;&gt;26 -->
<g id="edge47" class="edge"><title>3&#45;&gt;26</title>
<path fill="none" stroke="grey" stroke-width="2" d="M287.851,-575.697C289.284,-567.983 291.006,-558.712 292.603,-550.112"/>
<polygon fill="grey" stroke="grey" stroke-width="2" points="296.076,-550.575 294.461,-540.104 289.194,-549.297 296.076,-550.575"/>
</g>
<!-- 4 -->
<g id="node5" class="node"><title>4</title>
<path fill="none" stroke="#5692d8" stroke-width="2" d="M353.638,-828C353.638,-828 177.638,-828 177.638,-828 171.638,-828 165.638,-822 165.638,-816 165.638,-816 165.638,-804 165.638,-804 165.638,-798 171.638,-792 177.638,-792 177.638,-792 353.638,-792 353.638,-792 359.638,-792 365.638,-798 365.638,-804 365.638,-804 365.638,-816 365.638,-816 365.638,-822 359.638,-828 353.638,-828"/>
<text text-anchor="middle" x="265.638" y="-807.5" font-family="sans" font-size="10.00">trim_paired_reads_with_trimmomatic</text>
</g>
<!-- 6 -->
<g id="node7" class="node"><title>6</title>
<path fill="none" stroke="#56d882" stroke-width="2" d="M387.638,-756C387.638,-756 253.638,-756 253.638,-756 247.638,-756 241.638,-750 241.638,-744 241.638,-744 241.638,-732 241.638,-732 241.638,-726 247.638,-720 253.638,-720 253.638,-720 387.638,-720 387.638,-720 393.638,-720 399.638,-726 399.638,-732 399.638,-732 399.638,-744 399.638,-744 399.638,-750 393.638,-756 387.638,-756"/>
<text text-anchor="middle" x="320.638" y="-735.5" font-family="sans" font-size="10.00">map_paired_reads_with_bwa</text>
</g>
<!-- 4&#45;&gt;6 -->
<g id="edge14" class="edge"><title>4&#45;&gt;6</title>
<path fill="none" stroke="grey" stroke-width="2" d="M279.233,-791.697C285.761,-783.389 293.706,-773.277 300.884,-764.141"/>
<polygon fill="grey" stroke="grey" stroke-width="2" points="303.773,-766.13 307.199,-756.104 298.268,-761.805 303.773,-766.13"/>
</g>
<!-- 5 -->
<g id="node6" class="node"><title>5</title>
<path fill="none" stroke="#bed856" stroke-width="2" d="M966.138,-684C966.138,-684 749.138,-684 749.138,-684 743.138,-684 737.138,-678 737.138,-672 737.138,-672 737.138,-660 737.138,-660 737.138,-654 743.138,-648 749.138,-648 749.138,-648 966.138,-648 966.138,-648 972.138,-648 978.138,-654 978.138,-660 978.138,-660 978.138,-672 978.138,-672 978.138,-678 972.138,-684 966.138,-684"/>
<text text-anchor="middle" x="857.638" y="-669" font-family="sans" font-size="10.00">index_bam_file</text>
<text text-anchor="middle" x="857.638" y="-658" font-family="sans" font-size="10.00">any_bam: samples/S1/mapping/bwa/34528/S1</text>
</g>
<!-- 9 -->
<g id="node10" class="node"><title>9</title>
<path fill="none" stroke="#d85e56" stroke-width="2" d="M768.638,-612C768.638,-612 610.638,-612 610.638,-612 604.638,-612 598.638,-606 598.638,-600 598.638,-600 598.638,-588 598.638,-588 598.638,-582 604.638,-576 610.638,-576 610.638,-576 768.638,-576 768.638,-576 774.638,-576 780.638,-582 780.638,-588 780.638,-588 780.638,-600 780.638,-600 780.638,-606 774.638,-612 768.638,-612"/>
<text text-anchor="middle" x="689.638" y="-591.5" font-family="sans" font-size="10.00">filter_reads_on_quality_after_bwa</text>
</g>
<!-- 5&#45;&gt;9 -->
<g id="edge22" class="edge"><title>5&#45;&gt;9</title>
<path fill="none" stroke="grey" stroke-width="2" d="M816.54,-647.876C793.472,-638.264 764.502,-626.193 740.068,-616.013"/>
<polygon fill="grey" stroke="grey" stroke-width="2" points="741.179,-612.684 730.602,-612.068 738.486,-619.145 741.179,-612.684"/>
</g>
<!-- 6&#45;&gt;2 -->
<g id="edge7" class="edge"><title>6&#45;&gt;2</title>
<path fill="none" stroke="grey" stroke-width="2" d="M320.638,-719.697C320.638,-711.983 320.638,-702.712 320.638,-694.112"/>
<polygon fill="grey" stroke="grey" stroke-width="2" points="324.138,-694.104 320.638,-684.104 317.138,-694.104 324.138,-694.104"/>
</g>
<!-- 6&#45;&gt;3 -->
<g id="edge8" class="edge"><title>6&#45;&gt;3</title>
<path fill="none" stroke="grey" stroke-width="2" d="M241.621,-721.48C221.704,-713.626 202.604,-701.8 190.638,-684 181.712,-670.721 182.567,-661.815 190.638,-648 198.39,-634.73 210.826,-624.522 224.147,-616.777"/>
<polygon fill="grey" stroke="grey" stroke-width="2" points="225.831,-619.846 232.989,-612.035 222.522,-613.677 225.831,-619.846"/>
</g>
<!-- 7 -->
<g id="node8" class="node"><title>7</title>
<path fill="none" stroke="#56d0d8" stroke-width="2" d="M945.638,-180C945.638,-180 905.638,-180 905.638,-180 899.638,-180 893.638,-174 893.638,-168 893.638,-168 893.638,-156 893.638,-156 893.638,-150 899.638,-144 905.638,-144 905.638,-144 945.638,-144 945.638,-144 951.638,-144 957.638,-150 957.638,-156 957.638,-156 957.638,-168 957.638,-168 957.638,-174 951.638,-180 945.638,-180"/>
<text text-anchor="middle" x="925.638" y="-159.5" font-family="sans" font-size="10.00">index_vcf</text>
</g>
<!-- 7&#45;&gt;1 -->
<g id="edge3" class="edge"><title>7&#45;&gt;1</title>
<path fill="none" stroke="grey" stroke-width="2" d="M918.222,-143.697C914.843,-135.813 910.768,-126.304 907.015,-117.546"/>
<polygon fill="grey" stroke="grey" stroke-width="2" points="910.125,-115.917 902.968,-108.104 903.691,-118.675 910.125,-115.917"/>
</g>
<!-- 16 -->
<g id="node17" class="node"><title>16</title>
<path fill="none" stroke="#80d856" stroke-width="2" d="M513.638,-324C513.638,-324 267.638,-324 267.638,-324 261.638,-324 255.638,-318 255.638,-312 255.638,-312 255.638,-300 255.638,-300 255.638,-294 261.638,-288 267.638,-288 267.638,-288 513.638,-288 513.638,-288 519.638,-288 525.638,-294 525.638,-300 525.638,-300 525.638,-312 525.638,-312 525.638,-318 519.638,-324 513.638,-324"/>
<text text-anchor="middle" x="390.638" y="-309" font-family="sans" font-size="10.00">call_snps_with_HaplotypeCaller_gatk_bp_resolution</text>
<text text-anchor="middle" x="390.638" y="-298" font-family="sans" font-size="10.00">mapping_method: bwa</text>
</g>
<!-- 8&#45;&gt;16 -->
<g id="edge38" class="edge"><title>8&#45;&gt;16</title>
<path fill="none" stroke="grey" stroke-width="2" d="M322.62,-431.983C340.663,-423.786 359.298,-412.133 371.638,-396 385.1,-378.399 389.515,-353.37 390.754,-334.335"/>
<polygon fill="grey" stroke="grey" stroke-width="2" points="394.257,-334.324 391.158,-324.192 387.263,-334.045 394.257,-334.324"/>
</g>
<!-- 25 -->
<g id="node26" class="node"><title>25</title>
<path fill="none" stroke="#bed856" stroke-width="2" d="M350.638,-396C350.638,-396 42.6379,-396 42.6379,-396 36.6379,-396 30.6379,-390 30.6379,-384 30.6379,-384 30.6379,-372 30.6379,-372 30.6379,-366 36.6379,-360 42.6379,-360 42.6379,-360 350.638,-360 350.638,-360 356.638,-360 362.638,-366 362.638,-372 362.638,-372 362.638,-384 362.638,-384 362.638,-390 356.638,-396 350.638,-396"/>
<text text-anchor="middle" x="196.638" y="-381" font-family="sans" font-size="10.00">index_bam_file</text>
<text text-anchor="middle" x="196.638" y="-370" font-family="sans" font-size="10.00">any_bam: samples/S2/mapping/bwa/34528/deduplicated_filtered</text>
</g>
<!-- 8&#45;&gt;25 -->
<g id="edge46" class="edge"><title>8&#45;&gt;25</title>
<path fill="none" stroke="grey" stroke-width="2" d="M250.84,-431.697C242.034,-423.135 231.256,-412.656 221.637,-403.304"/>
<polygon fill="grey" stroke="grey" stroke-width="2" points="223.841,-400.566 214.231,-396.104 218.961,-405.585 223.841,-400.566"/>
</g>
<!-- 15 -->
<g id="node16" class="node"><title>15</title>
<path fill="none" stroke="#d86656" stroke-width="2" d="M873.638,-468C873.638,-468 711.638,-468 711.638,-468 705.638,-468 699.638,-462 699.638,-456 699.638,-456 699.638,-444 699.638,-444 699.638,-438 705.638,-432 711.638,-432 711.638,-432 873.638,-432 873.638,-432 879.638,-432 885.638,-438 885.638,-444 885.638,-444 885.638,-456 885.638,-456 885.638,-462 879.638,-468 873.638,-468"/>
<text text-anchor="middle" x="792.638" y="-447.5" font-family="sans" font-size="10.00">remove_duplicates_from_mapping</text>
</g>
<!-- 9&#45;&gt;15 -->
<g id="edge35" class="edge"><title>9&#45;&gt;15</title>
<path fill="none" stroke="grey" stroke-width="2" d="M684.084,-575.836C679.024,-556.785 674.191,-525.85 687.638,-504 695.934,-490.519 708.834,-480.343 722.789,-472.706"/>
<polygon fill="grey" stroke="grey" stroke-width="2" points="724.707,-475.659 732.073,-468.044 721.566,-469.403 724.707,-475.659"/>
</g>
<!-- 18 -->
<g id="node19" class="node"><title>18</title>
<path fill="none" stroke="#bed856" stroke-width="2" d="M948.638,-540C948.638,-540 708.638,-540 708.638,-540 702.638,-540 696.638,-534 696.638,-528 696.638,-528 696.638,-516 696.638,-516 696.638,-510 702.638,-504 708.638,-504 708.638,-504 948.638,-504 948.638,-504 954.638,-504 960.638,-510 960.638,-516 960.638,-516 960.638,-528 960.638,-528 960.638,-534 954.638,-540 948.638,-540"/>
<text text-anchor="middle" x="828.638" y="-525" font-family="sans" font-size="10.00">index_bam_file</text>
<text text-anchor="middle" x="828.638" y="-514" font-family="sans" font-size="10.00">any_bam: samples/S1/mapping/bwa/34528/filtered</text>
</g>
<!-- 9&#45;&gt;18 -->
<g id="edge40" class="edge"><title>9&#45;&gt;18</title>
<path fill="none" stroke="grey" stroke-width="2" d="M723.641,-575.876C742.236,-566.512 765.465,-554.814 785.343,-544.803"/>
<polygon fill="grey" stroke="grey" stroke-width="2" points="787.147,-547.814 794.504,-540.19 783.998,-541.562 787.147,-547.814"/>
</g>
<!-- 10 -->
<g id="node11" class="node"><title>10</title>
<path fill="none" stroke="#5692d8" stroke-width="2" d="M1260.64,-828C1260.64,-828 1084.64,-828 1084.64,-828 1078.64,-828 1072.64,-822 1072.64,-816 1072.64,-816 1072.64,-804 1072.64,-804 1072.64,-798 1078.64,-792 1084.64,-792 1084.64,-792 1260.64,-792 1260.64,-792 1266.64,-792 1272.64,-798 1272.64,-804 1272.64,-804 1272.64,-816 1272.64,-816 1272.64,-822 1266.64,-828 1260.64,-828"/>
<text text-anchor="middle" x="1172.64" y="-807.5" font-family="sans" font-size="10.00">trim_paired_reads_with_trimmomatic</text>
</g>
<!-- 12 -->
<g id="node13" class="node"><title>12</title>
<path fill="none" stroke="#56d882" stroke-width="2" d="M844.638,-756C844.638,-756 710.638,-756 710.638,-756 704.638,-756 698.638,-750 698.638,-744 698.638,-744 698.638,-732 698.638,-732 698.638,-726 704.638,-720 710.638,-720 710.638,-720 844.638,-720 844.638,-720 850.638,-720 856.638,-726 856.638,-732 856.638,-732 856.638,-744 856.638,-744 856.638,-750 850.638,-756 844.638,-756"/>
<text text-anchor="middle" x="777.638" y="-735.5" font-family="sans" font-size="10.00">map_paired_reads_with_bwa</text>
</g>
<!-- 10&#45;&gt;12 -->
<g id="edge26" class="edge"><title>10&#45;&gt;12</title>
<path fill="none" stroke="grey" stroke-width="2" d="M1076.52,-791.966C1012.7,-780.657 929.514,-765.915 867.11,-754.856"/>
<polygon fill="grey" stroke="grey" stroke-width="2" points="867.346,-751.343 856.888,-753.044 866.124,-758.236 867.346,-751.343"/>
</g>
<!-- 11 -->
<g id="node12" class="node"><title>11</title>
<path fill="none" stroke="#d6d856" stroke-width="2" d="M1001.64,-252C1001.64,-252 767.638,-252 767.638,-252 761.638,-252 755.638,-246 755.638,-240 755.638,-240 755.638,-228 755.638,-228 755.638,-222 761.638,-216 767.638,-216 767.638,-216 1001.64,-216 1001.64,-216 1007.64,-216 1013.64,-222 1013.64,-228 1013.64,-228 1013.64,-240 1013.64,-240 1013.64,-246 1007.64,-252 1001.64,-252"/>
<text text-anchor="middle" x="884.638" y="-237" font-family="sans" font-size="10.00">compress_vcf</text>
<text text-anchor="middle" x="884.638" y="-226" font-family="sans" font-size="10.00">any_vcf: samples/S1/snps/gatk/34528/bwa/snps.g</text>
</g>
<!-- 11&#45;&gt;1 -->
<g id="edge4" class="edge"><title>11&#45;&gt;1</title>
<path fill="none" stroke="grey" stroke-width="2" d="M883.604,-215.885C882.76,-197.926 882.081,-168.9 884.638,-144 885.515,-135.455 887.168,-126.255 888.932,-117.958"/>
<polygon fill="grey" stroke="grey" stroke-width="2" points="892.381,-118.573 891.174,-108.047 885.553,-117.028 892.381,-118.573"/>
</g>
<!-- 11&#45;&gt;7 -->
<g id="edge17" class="edge"><title>11&#45;&gt;7</title>
<path fill="none" stroke="grey" stroke-width="2" d="M894.773,-215.697C899.489,-207.644 905.2,-197.894 910.42,-188.982"/>
<polygon fill="grey" stroke="grey" stroke-width="2" points="913.586,-190.502 915.62,-180.104 907.545,-186.964 913.586,-190.502"/>
</g>
<!-- 12&#45;&gt;5 -->
<g id="edge13" class="edge"><title>12&#45;&gt;5</title>
<path fill="none" stroke="grey" stroke-width="2" d="M797.413,-719.697C807.392,-710.965 819.649,-700.24 830.495,-690.75"/>
<polygon fill="grey" stroke="grey" stroke-width="2" points="832.869,-693.323 838.09,-684.104 828.259,-688.055 832.869,-693.323"/>
</g>
<!-- 12&#45;&gt;9 -->
<g id="edge20" class="edge"><title>12&#45;&gt;9</title>
<path fill="none" stroke="grey" stroke-width="2" d="M758.322,-719.724C748.232,-709.966 736.233,-697.121 727.638,-684 714.899,-664.553 704.829,-640.126 698.265,-621.785"/>
<polygon fill="grey" stroke="grey" stroke-width="2" points="701.558,-620.599 694.984,-612.291 694.942,-622.886 701.558,-620.599"/>
</g>
<!-- 13&#45;&gt;11 -->
<g id="edge25" class="edge"><title>13&#45;&gt;11</title>
<path fill="none" stroke="grey" stroke-width="2" d="M882.379,-287.697C882.71,-279.983 883.107,-270.712 883.476,-262.112"/>
<polygon fill="grey" stroke="grey" stroke-width="2" points="886.973,-262.245 883.905,-252.104 879.98,-261.945 886.973,-262.245"/>
</g>
<!-- 14 -->
<g id="node15" class="node"><title>14</title>
<path fill="none" stroke="#d6d856" stroke-width="2" d="M725.638,-252C725.638,-252 491.638,-252 491.638,-252 485.638,-252 479.638,-246 479.638,-240 479.638,-240 479.638,-228 479.638,-228 479.638,-222 485.638,-216 491.638,-216 491.638,-216 725.638,-216 725.638,-216 731.638,-216 737.638,-222 737.638,-228 737.638,-228 737.638,-240 737.638,-240 737.638,-246 731.638,-252 725.638,-252"/>
<text text-anchor="middle" x="608.638" y="-237" font-family="sans" font-size="10.00">compress_vcf</text>
<text text-anchor="middle" x="608.638" y="-226" font-family="sans" font-size="10.00">any_vcf: samples/S2/snps/gatk/34528/bwa/snps.g</text>
</g>
<!-- 14&#45;&gt;1 -->
<g id="edge5" class="edge"><title>14&#45;&gt;1</title>
<path fill="none" stroke="grey" stroke-width="2" d="M627.101,-215.649C649.053,-195.843 687.533,-163.657 725.638,-144 752.427,-130.181 783.47,-119.2 811.641,-110.9"/>
<polygon fill="grey" stroke="grey" stroke-width="2" points="812.829,-114.2 821.474,-108.075 810.897,-107.472 812.829,-114.2"/>
</g>
<!-- 23 -->
<g id="node24" class="node"><title>23</title>
<path fill="none" stroke="#56d0d8" stroke-width="2" d="M786.638,-180C786.638,-180 746.638,-180 746.638,-180 740.638,-180 734.638,-174 734.638,-168 734.638,-168 734.638,-156 734.638,-156 734.638,-150 740.638,-144 746.638,-144 746.638,-144 786.638,-144 786.638,-144 792.638,-144 798.638,-150 798.638,-156 798.638,-156 798.638,-168 798.638,-168 798.638,-174 792.638,-180 786.638,-180"/>
<text text-anchor="middle" x="766.638" y="-159.5" font-family="sans" font-size="10.00">index_vcf</text>
</g>
<!-- 14&#45;&gt;23 -->
<g id="edge43" class="edge"><title>14&#45;&gt;23</title>
<path fill="none" stroke="grey" stroke-width="2" d="M647.289,-215.876C670.92,-205.407 701.136,-192.02 725.251,-181.336"/>
<polygon fill="grey" stroke="grey" stroke-width="2" points="726.778,-184.488 734.503,-177.237 723.942,-178.088 726.778,-184.488"/>
</g>
<!-- 15&#45;&gt;0 -->
<g id="edge1" class="edge"><title>15&#45;&gt;0</title>
<path fill="none" stroke="grey" stroke-width="2" d="M788.188,-431.697C786.183,-423.898 783.769,-414.509 781.537,-405.829"/>
<polygon fill="grey" stroke="grey" stroke-width="2" points="784.916,-404.918 779.036,-396.104 778.137,-406.661 784.916,-404.918"/>
</g>
<!-- 15&#45;&gt;13 -->
<g id="edge31" class="edge"><title>15&#45;&gt;13</title>
<path fill="none" stroke="grey" stroke-width="2" d="M886.022,-437.577C910.652,-429.828 934.539,-417.033 949.638,-396 958.968,-383.002 956.66,-374.377 949.638,-360 943.832,-348.114 933.931,-338.119 923.454,-330.125"/>
<polygon fill="grey" stroke="grey" stroke-width="2" points="925.182,-327.059 914.996,-324.145 921.141,-332.775 925.182,-327.059"/>
</g>
<!-- 16&#45;&gt;14 -->
<g id="edge33" class="edge"><title>16&#45;&gt;14</title>
<path fill="none" stroke="grey" stroke-width="2" d="M443.688,-287.966C474.412,-278.1 513.274,-265.622 545.558,-255.255"/>
<polygon fill="grey" stroke="grey" stroke-width="2" points="546.899,-258.501 555.35,-252.111 544.759,-251.836 546.899,-258.501"/>
</g>
<!-- 17 -->
<g id="node18" class="node"><title>17</title>
<path fill="none" stroke="#d89c56" stroke-width="2" d="M1239.64,-902.5C1239.64,-902.5 1105.64,-902.5 1105.64,-902.5 1099.64,-902.5 1093.64,-896.5 1093.64,-890.5 1093.64,-890.5 1093.64,-878.5 1093.64,-878.5 1093.64,-872.5 1099.64,-866.5 1105.64,-866.5 1105.64,-866.5 1239.64,-866.5 1239.64,-866.5 1245.64,-866.5 1251.64,-872.5 1251.64,-878.5 1251.64,-878.5 1251.64,-890.5 1251.64,-890.5 1251.64,-896.5 1245.64,-902.5 1239.64,-902.5"/>
<text text-anchor="middle" x="1172.64" y="-887.5" font-family="sans" font-size="10.00">copy_fastq_paired_from_link</text>
<text text-anchor="middle" x="1172.64" y="-876.5" font-family="sans" font-size="10.00">sample: S1</text>
</g>
<!-- 17&#45;&gt;10 -->
<g id="edge24" class="edge"><title>17&#45;&gt;10</title>
<path fill="none" stroke="grey" stroke-width="2" d="M1172.64,-866.319C1172.64,-857.922 1172.64,-847.616 1172.64,-838.186"/>
<polygon fill="grey" stroke="grey" stroke-width="2" points="1176.14,-838.058 1172.64,-828.058 1169.14,-838.058 1176.14,-838.058"/>
</g>
<!-- 18&#45;&gt;15 -->
<g id="edge34" class="edge"><title>18&#45;&gt;15</title>
<path fill="none" stroke="grey" stroke-width="2" d="M819.739,-503.697C815.641,-495.728 810.689,-486.1 806.145,-477.264"/>
<polygon fill="grey" stroke="grey" stroke-width="2" points="809.12,-475.396 801.434,-468.104 802.895,-478.598 809.12,-475.396"/>
</g>
<!-- 19 -->
<g id="node20" class="node"><title>19</title>
<path fill="none" stroke="#566bd8" stroke-width="2" d="M578.638,-396C578.638,-396 430.638,-396 430.638,-396 424.638,-396 418.638,-390 418.638,-384 418.638,-384 418.638,-372 418.638,-372 418.638,-366 424.638,-360 430.638,-360 430.638,-360 578.638,-360 578.638,-360 584.638,-360 590.638,-366 590.638,-372 590.638,-372 590.638,-384 590.638,-384 590.638,-390 584.638,-396 578.638,-396"/>
<text text-anchor="middle" x="504.638" y="-375.5" font-family="sans" font-size="10.00">create_dictionary_for_reference</text>
</g>
<!-- 19&#45;&gt;13 -->
<g id="edge29" class="edge"><title>19&#45;&gt;13</title>
<path fill="none" stroke="grey" stroke-width="2" d="M590.657,-361.028C646.946,-350.577 720.752,-336.873 779.946,-325.882"/>
<polygon fill="grey" stroke="grey" stroke-width="2" points="780.874,-329.269 790.067,-324.003 779.596,-322.387 780.874,-329.269"/>
</g>
<!-- 19&#45;&gt;16 -->
<g id="edge36" class="edge"><title>19&#45;&gt;16</title>
<path fill="none" stroke="grey" stroke-width="2" d="M476.75,-359.876C461.845,-350.724 443.309,-339.342 427.256,-329.485"/>
<polygon fill="grey" stroke="grey" stroke-width="2" points="428.986,-326.44 418.633,-324.19 425.323,-332.405 428.986,-326.44"/>
</g>
<!-- 20 -->
<g id="node21" class="node"><title>20</title>
<path fill="none" stroke="#d89c56" stroke-width="2" d="M332.638,-902.5C332.638,-902.5 198.638,-902.5 198.638,-902.5 192.638,-902.5 186.638,-896.5 186.638,-890.5 186.638,-890.5 186.638,-878.5 186.638,-878.5 186.638,-872.5 192.638,-866.5 198.638,-866.5 198.638,-866.5 332.638,-866.5 332.638,-866.5 338.638,-866.5 344.638,-872.5 344.638,-878.5 344.638,-878.5 344.638,-890.5 344.638,-890.5 344.638,-896.5 338.638,-902.5 332.638,-902.5"/>
<text text-anchor="middle" x="265.638" y="-887.5" font-family="sans" font-size="10.00">copy_fastq_paired_from_link</text>
<text text-anchor="middle" x="265.638" y="-876.5" font-family="sans" font-size="10.00">sample: S2</text>
</g>
<!-- 20&#45;&gt;4 -->
<g id="edge12" class="edge"><title>20&#45;&gt;4</title>
<path fill="none" stroke="grey" stroke-width="2" d="M265.638,-866.319C265.638,-857.922 265.638,-847.616 265.638,-838.186"/>
<polygon fill="grey" stroke="grey" stroke-width="2" points="269.138,-838.058 265.638,-828.058 262.138,-838.058 269.138,-838.058"/>
</g>
<!-- 21 -->
<g id="node22" class="node"><title>21</title>
<path fill="none" stroke="#5673d8" stroke-width="2" d="M691.138,-828C691.138,-828 472.138,-828 472.138,-828 466.138,-828 460.138,-822 460.138,-816 460.138,-816 460.138,-804 460.138,-804 460.138,-798 466.138,-792 472.138,-792 472.138,-792 691.138,-792 691.138,-792 697.138,-792 703.138,-798 703.138,-804 703.138,-804 703.138,-816 703.138,-816 703.138,-822 697.138,-828 691.138,-828"/>
<text text-anchor="middle" x="581.638" y="-813" font-family="sans" font-size="10.00">index_reference_fasta</text>
<text text-anchor="middle" x="581.638" y="-802" font-family="sans" font-size="10.00">any_genome: references/34528/genome_fasta</text>
</g>
<!-- 21&#45;&gt;3 -->
<g id="edge10" class="edge"><title>21&#45;&gt;3</title>
<path fill="none" stroke="grey" stroke-width="2" d="M572.216,-791.932C553.288,-759.193 507.464,-687.343 449.638,-648 428.446,-633.582 403.086,-622.89 378.679,-615.042"/>
<polygon fill="grey" stroke="grey" stroke-width="2" points="379.609,-611.666 369.022,-612.065 377.547,-618.356 379.609,-611.666"/>
</g>
<!-- 21&#45;&gt;6 -->
<g id="edge15" class="edge"><title>21&#45;&gt;6</title>
<path fill="none" stroke="grey" stroke-width="2" d="M518.124,-791.966C480.705,-781.93 433.205,-769.19 394.168,-758.721"/>
<polygon fill="grey" stroke="grey" stroke-width="2" points="395.002,-755.321 384.437,-756.111 393.189,-762.082 395.002,-755.321"/>
</g>
<!-- 21&#45;&gt;9 -->
<g id="edge21" class="edge"><title>21&#45;&gt;9</title>
<path fill="none" stroke="grey" stroke-width="2" d="M588.858,-791.745C601.522,-761.908 629.027,-698.973 656.638,-648 661.491,-639.041 667.229,-629.515 672.548,-621.047"/>
<polygon fill="grey" stroke="grey" stroke-width="2" points="675.668,-622.664 678.094,-612.35 669.766,-618.9 675.668,-622.664"/>
</g>
<!-- 21&#45;&gt;12 -->
<g id="edge27" class="edge"><title>21&#45;&gt;12</title>
<path fill="none" stroke="grey" stroke-width="2" d="M629.334,-791.966C656.72,-782.185 691.296,-769.836 720.172,-759.524"/>
<polygon fill="grey" stroke="grey" stroke-width="2" points="721.487,-762.77 729.728,-756.111 719.133,-756.178 721.487,-762.77"/>
</g>
<!-- 22 -->
<g id="node23" class="node"><title>22</title>
<path fill="none" stroke="#56d8b1" stroke-width="2" d="M725.638,-905C725.638,-905 587.638,-905 587.638,-905 581.638,-905 575.638,-899 575.638,-893 575.638,-893 575.638,-876 575.638,-876 575.638,-870 581.638,-864 587.638,-864 587.638,-864 725.638,-864 725.638,-864 731.638,-864 737.638,-870 737.638,-876 737.638,-876 737.638,-893 737.638,-893 737.638,-899 731.638,-905 725.638,-905"/>
<text text-anchor="middle" x="656.638" y="-893" font-family="sans" font-size="10.00">download_reference_from_url</text>
<text text-anchor="middle" x="656.638" y="-882" font-family="sans" font-size="10.00">format: fasta</text>
<text text-anchor="middle" x="656.638" y="-871" font-family="sans" font-size="10.00">ref: 34528</text>
</g>
<!-- 22&#45;&gt;1 -->
<g id="edge6" class="edge"><title>22&#45;&gt;1</title>
<path fill="none" stroke="grey" stroke-width="2" d="M737.7,-877.498C794.685,-870.873 871.531,-856.996 933.638,-828 990.934,-801.25 1044.64,-802.233 1044.64,-739 1044.64,-739 1044.64,-739 1044.64,-233 1044.64,-176.62 988.041,-135.798 944.61,-112.772"/>
<polygon fill="grey" stroke="grey" stroke-width="2" points="946.062,-109.583 935.567,-108.129 942.865,-115.81 946.062,-109.583"/>
</g>
<!-- 22&#45;&gt;3 -->
<g id="edge11" class="edge"><title>22&#45;&gt;3</title>
<path fill="none" stroke="grey" stroke-width="2" d="M575.469,-877.309C437.427,-866.389 170.427,-843.405 156.638,-828 127.105,-795.008 95.5093,-764.19 180.638,-648 190.457,-634.598 204.653,-624.344 219.416,-616.597"/>
<polygon fill="grey" stroke="grey" stroke-width="2" points="221.196,-619.623 228.647,-612.091 218.125,-613.332 221.196,-619.623"/>
</g>
<!-- 22&#45;&gt;6 -->
<g id="edge16" class="edge"><title>22&#45;&gt;6</title>
<path fill="none" stroke="grey" stroke-width="2" d="M575.536,-875.173C527.487,-867.74 466.62,-853.831 417.638,-828 409.312,-823.609 371.534,-788.014 345.656,-763.194"/>
<polygon fill="grey" stroke="grey" stroke-width="2" points="348.015,-760.606 338.381,-756.199 343.164,-765.652 348.015,-760.606"/>
</g>
<!-- 22&#45;&gt;9 -->
<g id="edge23" class="edge"><title>22&#45;&gt;9</title>
<path fill="none" stroke="grey" stroke-width="2" d="M683.778,-863.91C694.605,-854.429 705.855,-842.05 711.638,-828 717.727,-813.204 715.971,-807.402 711.638,-792 706.559,-773.95 694.717,-774.05 689.638,-756 676.851,-710.553 680.937,-654.99 685.198,-622.444"/>
<polygon fill="grey" stroke="grey" stroke-width="2" points="688.692,-622.728 686.625,-612.337 681.761,-621.749 688.692,-622.728"/>
</g>
<!-- 22&#45;&gt;12 -->
<g id="edge28" class="edge"><title>22&#45;&gt;12</title>
<path fill="none" stroke="grey" stroke-width="2" d="M700.467,-863.879C716.497,-854.887 733.627,-842.877 745.638,-828 760.171,-809.998 768.4,-784.85 772.862,-765.876"/>
<polygon fill="grey" stroke="grey" stroke-width="2" points="776.294,-766.567 774.97,-756.055 769.449,-765.098 776.294,-766.567"/>
</g>
<!-- 22&#45;&gt;13 -->
<g id="edge32" class="edge"><title>22&#45;&gt;13</title>
<path fill="none" stroke="grey" stroke-width="2" d="M737.815,-866.934C841.208,-843.455 1006.64,-796.85 1006.64,-739 1006.64,-739 1006.64,-739 1006.64,-449 1006.64,-405.813 995.976,-392.589 967.638,-360 956.97,-347.732 942.753,-337.4 928.954,-329.21"/>
<polygon fill="grey" stroke="grey" stroke-width="2" points="930.416,-326.015 919.989,-324.138 926.969,-332.108 930.416,-326.015"/>
</g>
<!-- 22&#45;&gt;16 -->
<g id="edge39" class="edge"><title>22&#45;&gt;16</title>
<path fill="none" stroke="grey" stroke-width="2" d="M575.56,-877.279C437.692,-866.362 168.475,-843.448 127.638,-828 63.8502,-803.871 2.63785,-807.199 2.63785,-739 2.63785,-739 2.63785,-739 2.63785,-449 2.63785,-408.553 -7.91355,-387.616 21.6379,-360 53.8511,-329.896 156.298,-316.823 245.095,-311.18"/>
<polygon fill="grey" stroke="grey" stroke-width="2" points="245.526,-314.661 255.296,-310.56 245.102,-307.673 245.526,-314.661"/>
</g>
<!-- 22&#45;&gt;19 -->
<g id="edge41" class="edge"><title>22&#45;&gt;19</title>
<path fill="none" stroke="grey" stroke-width="2" d="M575.591,-871.926C524.829,-862.829 466.182,-848.286 450.638,-828 440.906,-815.3 448.392,-807.842 450.638,-792 463.431,-701.755 507.638,-686.147 507.638,-595 507.638,-595 507.638,-595 507.638,-521 507.638,-480.987 506.432,-434.646 505.55,-406.076"/>
<polygon fill="grey" stroke="grey" stroke-width="2" points="509.047,-405.93 505.231,-396.047 502.051,-406.153 509.047,-405.93"/>
</g>
<!-- 22&#45;&gt;21 -->
<g id="edge42" class="edge"><title>22&#45;&gt;21</title>
<path fill="none" stroke="grey" stroke-width="2" d="M636.144,-863.689C627.109,-854.955 616.403,-844.607 606.882,-835.403"/>
<polygon fill="grey" stroke="grey" stroke-width="2" points="609.177,-832.753 599.555,-828.319 604.312,-837.786 609.177,-832.753"/>
</g>
<!-- 22&#45;&gt;24 -->
<g id="edge45" class="edge"><title>22&#45;&gt;24</title>
<path fill="none" stroke="grey" stroke-width="2" d="M737.873,-881.587C897.858,-877.064 1241.74,-863.31 1281.64,-828 1311.93,-801.193 1300.64,-779.447 1300.64,-739 1300.64,-739 1300.64,-739 1300.64,-161 1300.64,-96.0611 1231.37,-59.0513 1171.66,-39.2105"/>
<polygon fill="grey" stroke="grey" stroke-width="2" points="1172.38,-35.7661 1161.79,-36.0546 1170.24,-42.4337 1172.38,-35.7661"/>
</g>
<!-- 23&#45;&gt;1 -->
<g id="edge2" class="edge"><title>23&#45;&gt;1</title>
<path fill="none" stroke="grey" stroke-width="2" d="M798.195,-143.876C815.296,-134.596 836.62,-123.025 854.956,-113.075"/>
<polygon fill="grey" stroke="grey" stroke-width="2" points="856.84,-116.035 863.96,-108.19 853.501,-109.883 856.84,-116.035"/>
</g>
<!-- 25&#45;&gt;16 -->
<g id="edge37" class="edge"><title>25&#45;&gt;16</title>
<path fill="none" stroke="grey" stroke-width="2" d="M244.096,-359.876C271.206,-350.094 305.374,-337.765 333.896,-327.474"/>
<polygon fill="grey" stroke="grey" stroke-width="2" points="335.116,-330.755 343.334,-324.068 332.74,-324.17 335.116,-330.755"/>
</g>
<!-- 26&#45;&gt;8 -->
<g id="edge18" class="edge"><title>26&#45;&gt;8</title>
<path fill="none" stroke="grey" stroke-width="2" d="M290.469,-503.697C287.203,-495.813 283.264,-486.304 279.636,-477.546"/>
<polygon fill="grey" stroke="grey" stroke-width="2" points="282.785,-476.003 275.724,-468.104 276.318,-478.683 282.785,-476.003"/>
</g>
</g>
</svg>
