<?xml version="1.0" encoding="UTF-8" standalone="no"?>
<!-- Generated by graphviz version 2.38.0 (20140413.2041)
 -->

<!-- Title: snakemake_dag Pages: 1 -->

<svg
   xmlns:dc="http://purl.org/dc/elements/1.1/"
   xmlns:cc="http://creativecommons.org/ns#"
   xmlns:rdf="http://www.w3.org/1999/02/22-rdf-syntax-ns#"
   xmlns:svg="http://www.w3.org/2000/svg"
   xmlns="http://www.w3.org/2000/svg"
   xmlns:sodipodi="http://sodipodi.sourceforge.net/DTD/sodipodi-0.dtd"
   xmlns:inkscape="http://www.inkscape.org/namespaces/inkscape"
   width="1091.5pt"
   height="972pt"
   viewBox="0 0 1091.2422 972"
   version="1.1"
   id="svg1450"
   sodipodi:docname="phylogeny.svg"
   inkscape:version="0.92.3 (unknown)">
  <metadata
     id="metadata1456">
    <rdf:RDF>
      <cc:Work
         rdf:about="">
        <dc:format>image/svg+xml</dc:format>
        <dc:type
           rdf:resource="http://purl.org/dc/dcmitype/StillImage" />
        <dc:title></dc:title>
      </cc:Work>
    </rdf:RDF>
  </metadata>
  <defs
     id="defs1454" />
  <sodipodi:namedview
     pagecolor="#ffffff"
     bordercolor="#666666"
     borderopacity="1"
     objecttolerance="10"
     gridtolerance="10"
     guidetolerance="10"
     inkscape:pageopacity="0"
     inkscape:pageshadow="2"
     inkscape:window-width="1920"
     inkscape:window-height="1056"
     id="namedview1452"
     showgrid="false"
     fit-margin-top="0"
     fit-margin-left="0"
     fit-margin-right="0"
     fit-margin-bottom="0"
     inkscape:zoom="0.50660642"
     inkscape:cx="1002.5375"
     inkscape:cy="683.80299"
     inkscape:window-x="0"
     inkscape:window-y="353"
     inkscape:window-maximized="1"
     inkscape:current-layer="node56" />
  <g
     id="graph0"
     class="graph"
     transform="translate(0.74996948,971)">
    <title
       id="title2">snakemake_dag</title>
    <!-- 0 -->
    <!-- 20 -->
    <!-- 0&#45;&gt;20 -->
    <!-- 1 -->
    <!-- 22 -->
    <!-- 1&#45;&gt;22 -->
    <!-- 2 -->
    <g
       id="node3"
       class="node">
      <title
         id="title50">2</title>
      <path
         d="m 358,-252 c 0,0 -190,0 -190,0 -6,0 -12,6 -12,12 0,0 0,12 0,12 0,6 6,12 12,12 0,0 190,0 190,0 6,0 12,-6 12,-12 0,0 0,-12 0,-12 0,-6 -6,-12 -12,-12"
         id="path52"
         inkscape:connector-curvature="0"
         style="fill:none;stroke:#d87d56;stroke-width:2" />
      <text
         x="263"
         y="-231.5"
         font-size="10.00"
         id="text54"
         style="font-size:10px;font-family:sans;text-anchor:middle">create_consensus_sequence_by_sample</text>
    </g>
    <!-- 26 -->
    <g
       id="node27"
       class="node">
      <title
         id="title57">26</title>
      <path
         d="m 377.5,-180 c 0,0 -229,0 -229,0 -6,0 -12,6 -12,12 0,0 0,12 0,12 0,6 6,12 12,12 0,0 229,0 229,0 6,0 12,-6 12,-12 0,0 0,-12 0,-12 0,-6 -6,-12 -12,-12"
         id="path59"
         inkscape:connector-curvature="0"
         style="fill:none;stroke:#566bd8;stroke-width:2" />
      <text
         x="263"
         y="-159.5"
         font-size="10.00"
         id="text61"
         style="font-size:10px;font-family:sans;text-anchor:middle">concatenate_consensus_fasta_files_all_samples</text>
    </g>
    <!-- 2&#45;&gt;26 -->
    <g
       id="edge41"
       class="edge">
      <title
         id="title64">2-&gt;26</title>
      <path
         d="m 263,-215.697 c 0,7.714 0,16.985 0,25.585"
         id="path66"
         inkscape:connector-curvature="0"
         style="fill:none;stroke:#808080;stroke-width:2" />
      <polygon
         points="259.5,-190.104 266.5,-190.104 263,-180.104 "
         id="polygon68"
         style="fill:#808080;stroke:#808080;stroke-width:2" />
    </g>
    <!-- 3 -->
    <g
       id="node4"
       class="node">
      <title
         id="title71">3</title>
      <path
         d="m 463.5,-495 c 0,0 -257,0 -257,0 -6,0 -12,6 -12,12 0,0 0,39 0,39 0,6 6,12 12,12 0,0 257,0 257,0 6,0 12,-6 12,-12 0,0 0,-39 0,-39 0,-6 -6,-12 -12,-12"
         id="path73"
         inkscape:connector-curvature="0"
         style="fill:none;stroke:#56d873;stroke-width:2" />
      <text
         x="335"
         y="-483"
         font-size="10.00"
         id="text75"
         style="font-size:10px;font-family:sans;text-anchor:middle">extract_alternative_positions_and_unknown_positions</text>
      <text
         x="335"
         y="-472"
         font-size="10.00"
         id="text77"
         style="font-size:10px;font-family:sans;text-anchor:middle">core_genome_or_full_genome: cgMLST</text>
      <text
         x="335"
         y="-461"
         font-size="10.00"
         id="text79"
         style="font-size:10px;font-family:sans;text-anchor:middle">mapping_method: bwa</text>
      <text
         x="335"
         y="-450"
         font-size="10.00"
         id="text81"
         style="font-size:10px;font-family:sans;text-anchor:middle">sample: S2</text>
      <text
         x="335"
         y="-439"
         font-size="10.00"
         id="text83"
         style="font-size:10px;font-family:sans;text-anchor:middle">snp_caller: freebayes_joint_genotyping</text>
    </g>
    <!-- 3&#45;&gt;2 -->
    <g
       id="edge5"
       class="edge">
      <title
         id="title86">3-&gt;2</title>
      <path
         d="m 217.119,-431.852 c -15.848,9.037 -30.076,20.729 -40.119,35.852 -8.851,13.329 -4.748,20.721 0,36 0.881,2.833 43.145,63.631 68.088,99.374"
         id="path88"
         inkscape:connector-curvature="0"
         style="fill:none;stroke:#808080;stroke-width:2" />
      <polygon
         points="242.426,-258.325 248.166,-262.332 251.021,-252.129 "
         id="polygon90"
         style="fill:#808080;stroke:#808080;stroke-width:2" />
    </g>
    <!-- 62 -->
    <g
       id="node63"
       class="node">
      <title
         id="title93">62</title>
      <path
         d="m 597.5,-396 c 0,0 -399,0 -399,0 -6,0 -12,6 -12,12 0,0 0,12 0,12 0,6 6,12 12,12 0,0 399,0 399,0 6,0 12,-6 12,-12 0,0 0,-12 0,-12 0,-6 -6,-12 -12,-12"
         id="path95"
         inkscape:connector-curvature="0"
         style="fill:none;stroke:#d86656;stroke-width:2" />
      <text
         x="398"
         y="-381"
         font-size="10.00"
         id="text97"
         style="font-size:10px;font-family:sans;text-anchor:middle">compress_vcf</text>
      <text
         x="398"
         y="-370"
         font-size="10.00"
         id="text99"
         style="font-size:10px;font-family:sans;text-anchor:middle">any_vcf: samples/S2/snps/freebayes_joint_genotyping/cgMLST/bwa/alternative_snp</text>
    </g>
    <!-- 3&#45;&gt;62 -->
    <g
       id="edge100"
       class="edge">
      <title
         id="title102">3-&gt;62</title>
      <path
         d="m 358.101,-431.882 c 6.848,9.076 14.267,18.91 20.829,27.607"
         id="path104"
         inkscape:connector-curvature="0"
         style="fill:none;stroke:#808080;stroke-width:2" />
      <polygon
         points="376.337,-401.901 381.925,-406.117 385.154,-396.026 "
         id="polygon106"
         style="fill:#808080;stroke:#808080;stroke-width:2" />
    </g>
    <!-- 4 -->
    <!-- 40 -->
    <!-- 4&#45;&gt;40 -->
    <!-- 5 -->
    <!-- 56 -->
    <!-- 5&#45;&gt;56 -->
    <!-- 67 -->
    <!-- 5&#45;&gt;67 -->
    <!-- 70 -->
    <!-- 5&#45;&gt;70 -->
    <!-- 6 -->
    <!-- 44 -->
    <!-- 6&#45;&gt;44 -->
    <!-- 7 -->
    <g
       id="node8"
       class="node">
      <title
         id="title204">7</title>
      <path
         d="m 572.5,-882 c 0,0 -353,0 -353,0 -6,0 -12,6 -12,12 0,0 0,12 0,12 0,6 6,12 12,12 0,0 353,0 353,0 6,0 12,-6 12,-12 0,0 0,-12 0,-12 0,-6 -6,-12 -12,-12"
         id="path206"
         inkscape:connector-curvature="0"
         style="fill:none;stroke:#d86656;stroke-width:2" />
      <text
         x="396"
         y="-867"
         font-size="10.00"
         id="text208"
         style="font-size:10px;font-family:sans;text-anchor:middle">compress_vcf</text>
      <text
         x="396"
         y="-856"
         font-size="10.00"
         id="text210"
         style="font-size:10px;font-family:sans;text-anchor:middle">any_vcf: typing/freebayes_joint_genotyping/cgMLST/bwa/all_samples_snp</text>
    </g>
    <!-- 17 -->
    <g
       id="node18"
       class="node">
      <title
         id="title213">17</title>
      <path
         d="m 416,-810 c 0,0 -40,0 -40,0 -6,0 -12,6 -12,12 0,0 0,12 0,12 0,6 6,12 12,12 0,0 40,0 40,0 6,0 12,-6 12,-12 0,0 0,-12 0,-12 0,-6 -6,-12 -12,-12"
         id="path215"
         inkscape:connector-curvature="0"
         style="fill:none;stroke:#56d0d8;stroke-width:2" />
      <text
         x="396"
         y="-789.5"
         font-size="10.00"
         id="text217"
         style="font-size:10px;font-family:sans;text-anchor:middle">index_vcf</text>
    </g>
    <!-- 7&#45;&gt;17 -->
    <g
       id="edge25"
       class="edge">
      <title
         id="title220">7-&gt;17</title>
      <path
         d="m 396,-845.697 c 0,7.714 0,16.985 0,25.585"
         id="path222"
         inkscape:connector-curvature="0"
         style="fill:none;stroke:#808080;stroke-width:2" />
      <polygon
         points="392.5,-820.104 399.5,-820.104 396,-810.104 "
         id="polygon224"
         style="fill:#808080;stroke:#808080;stroke-width:2" />
    </g>
    <!-- 25 -->
    <g
       id="node26"
       class="node">
      <title
         id="title227">25</title>
      <path
         d="m 407,-738 c 0,0 -184,0 -184,0 -6,0 -12,6 -12,12 0,0 0,39 0,39 0,6 6,12 12,12 0,0 184,0 184,0 6,0 12,-6 12,-12 0,0 0,-39 0,-39 0,-6 -6,-12 -12,-12"
         id="path229"
         inkscape:connector-curvature="0"
         style="fill:none;stroke:#d8bc56;stroke-width:2" />
      <text
         x="315"
         y="-726"
         font-size="10.00"
         id="text231"
         style="font-size:10px;font-family:sans;text-anchor:middle">merge_multiallelic_by_sample</text>
      <text
         x="315"
         y="-715"
         font-size="10.00"
         id="text233"
         style="font-size:10px;font-family:sans;text-anchor:middle">core_genome_or_full_genome: cgMLST</text>
      <text
         x="315"
         y="-704"
         font-size="10.00"
         id="text235"
         style="font-size:10px;font-family:sans;text-anchor:middle">mapping_method: bwa</text>
      <text
         x="315"
         y="-693"
         font-size="10.00"
         id="text237"
         style="font-size:10px;font-family:sans;text-anchor:middle">sample: S2</text>
      <text
         x="315"
         y="-682"
         font-size="10.00"
         id="text239"
         style="font-size:10px;font-family:sans;text-anchor:middle">snp_caller: freebayes_joint_genotyping</text>
    </g>
    <!-- 7&#45;&gt;25 -->
    <g
       id="edge38"
       class="edge">
      <title
         id="title242">7-&gt;25</title>
      <path
         d="m 380.607,-845.746 c -8.339,9.953 -18.384,22.991 -25.607,35.746 -11.112,19.623 -20.482,42.946 -27.353,62.382"
         id="path244"
         inkscape:connector-curvature="0"
         style="fill:none;stroke:#808080;stroke-width:2" />
      <polygon
         points="324.328,-748.73 330.947,-746.451 324.382,-738.136 "
         id="polygon246"
         style="fill:#808080;stroke:#808080;stroke-width:2" />
    </g>
    <!-- 71 -->
    <g
       id="node72"
       class="node">
      <title
         id="title249">71</title>
      <path
         d="m 633,-738 c 0,0 -184,0 -184,0 -6,0 -12,6 -12,12 0,0 0,39 0,39 0,6 6,12 12,12 0,0 184,0 184,0 6,0 12,-6 12,-12 0,0 0,-39 0,-39 0,-6 -6,-12 -12,-12"
         id="path251"
         inkscape:connector-curvature="0"
         style="fill:none;stroke:#d8bc56;stroke-width:2" />
      <text
         x="541"
         y="-726"
         font-size="10.00"
         id="text253"
         style="font-size:10px;font-family:sans;text-anchor:middle">merge_multiallelic_by_sample</text>
      <text
         x="541"
         y="-715"
         font-size="10.00"
         id="text255"
         style="font-size:10px;font-family:sans;text-anchor:middle">core_genome_or_full_genome: cgMLST</text>
      <text
         x="541"
         y="-704"
         font-size="10.00"
         id="text257"
         style="font-size:10px;font-family:sans;text-anchor:middle">mapping_method: bwa</text>
      <text
         x="541"
         y="-693"
         font-size="10.00"
         id="text259"
         style="font-size:10px;font-family:sans;text-anchor:middle">sample: S1</text>
      <text
         x="541"
         y="-682"
         font-size="10.00"
         id="text261"
         style="font-size:10px;font-family:sans;text-anchor:middle">snp_caller: freebayes_joint_genotyping</text>
    </g>
    <!-- 7&#45;&gt;71 -->
    <g
       id="edge114"
       class="edge">
      <title
         id="title264">7-&gt;71</title>
      <path
         d="m 412.072,-845.765 c 22.39,24.012 63.571,68.176 93.379,100.142"
         id="path266"
         inkscape:connector-curvature="0"
         style="fill:none;stroke:#808080;stroke-width:2" />
      <polygon
         points="503.005,-743.114 508.125,-747.888 512.385,-738.187 "
         id="polygon268"
         style="fill:#808080;stroke:#808080;stroke-width:2" />
    </g>
    <!-- 8 -->
    <!-- 35 -->
    <!-- 8&#45;&gt;35 -->
    <!-- 9 -->
    <!-- 9&#45;&gt;20 -->
    <!-- 10 -->
    <!-- 58 -->
    <!-- 10&#45;&gt;58 -->
    <!-- 11 -->
    <!-- 59 -->
    <!-- 11&#45;&gt;59 -->
    <!-- 12 -->
    <g
       id="node13"
       class="node">
      <title
         id="title358">12</title>
      <path
         d="m 256.5,-108 c 0,0 -209,0 -209,0 -6,0 -12,6 -12,12 0,0 0,12 0,12 0,6 6,12 12,12 0,0 209,0 209,0 6,0 12,-6 12,-12 0,0 0,-12 0,-12 0,-6 -6,-12 -12,-12"
         id="path360"
         inkscape:connector-curvature="0"
         style="fill:none;stroke:#d89556;stroke-width:2" />
      <text
         x="152"
         y="-87.5"
         font-size="10.00"
         id="text362"
         style="font-size:10px;font-family:sans;text-anchor:middle">compute_phylogeny_bootstraps_with_raxml</text>
    </g>
    <!-- 27 -->
    <g
       id="node28"
       class="node">
      <title
         id="title365">27</title>
      <path
         d="m 347,-36 c 0,0 -168,0 -168,0 -6,0 -12,6 -12,12 0,0 0,12 0,12 0,6 6,12 12,12 0,0 168,0 168,0 6,0 12,-6 12,-12 0,0 0,-12 0,-12 0,-6 -6,-12 -12,-12"
         id="path367"
         inkscape:connector-curvature="0"
         style="fill:none;stroke:#78d856;stroke-width:2" />
      <text
         x="263"
         y="-15.5"
         font-size="10.00"
         id="text369"
         style="font-size:10px;font-family:sans;text-anchor:middle">convert_phylogeny_to_image_no_st</text>
    </g>
    <!-- 12&#45;&gt;27 -->
    <g
       id="edge43"
       class="edge">
      <title
         id="title372">12-&gt;27</title>
      <path
         d="m 179.154,-71.8761 c 14.379,9.0678 32.227,20.3238 47.756,30.1169"
         id="path374"
         inkscape:connector-curvature="0"
         style="fill:none;stroke:#808080;stroke-width:2" />
      <polygon
         points="225.416,-38.5635 229.15,-44.4845 235.742,-36.1898 "
         id="polygon376"
         style="fill:#808080;stroke:#808080;stroke-width:2" />
    </g>
    <!-- 13 -->
    <!-- 13&#45;&gt;4 -->
    <!-- 18 -->
    <!-- 13&#45;&gt;18 -->
    <!-- 28 -->
    <!-- 13&#45;&gt;28 -->
    <!-- 13&#45;&gt;35 -->
    <!-- 41 -->
    <!-- 13&#45;&gt;41 -->
    <!-- 55 -->
    <g
       id="node56"
       class="node">
      <title
         id="title448">55</title>
      <path
         d="m 180,-324 c 0,0 -168,0 -168,0 -6,0 -12,6 -12,12 0,0 0,12 0,12 0,6 6,12 12,12 0,0 168,0 168,0 6,0 12,-6 12,-12 0,0 0,-12 0,-12 0,-6 -6,-12 -12,-12"
         id="path450"
         inkscape:connector-curvature="0"
         style="fill:none;stroke:#56d87b;stroke-width:2.00000006;stroke-dasharray:none;stroke-miterlimit:4" />
      <text
         x="96"
         y="-303.5"
         font-size="10.00"
         id="text452"
         style="font-size:10px;font-family:sans;text-anchor:middle">link_reference_genome_for_cgMLST</text>
    </g>
    <!-- 13&#45;&gt;55 -->
    <!-- 13&#45;&gt;56 -->
    <!-- 68 -->
    <!-- 13&#45;&gt;68 -->
    <!-- 14 -->
    <!-- 14&#45;&gt;1 -->
    <!-- 15 -->
    <!-- 32 -->
    <!-- 15&#45;&gt;32 -->
    <!-- 16 -->
    <!-- 16&#45;&gt;9 -->
    <!-- 16&#45;&gt;18 -->
    <!-- 17&#45;&gt;25 -->
    <g
       id="edge39"
       class="edge">
      <title
         id="title545">17-&gt;25</title>
      <path
         d="m 379.217,-773.699 c -7.902,8.146 -17.665,18.21 -27.171,28.01"
         id="path547"
         inkscape:connector-curvature="0"
         style="fill:none;stroke:#808080;stroke-width:2" />
      <polygon
         points="349.312,-747.898 354.336,-743.024 344.861,-738.283 "
         id="polygon549"
         style="fill:#808080;stroke:#808080;stroke-width:2" />
    </g>
    <!-- 17&#45;&gt;71 -->
    <g
       id="edge115"
       class="edge">
      <title
         id="title552">17-&gt;71</title>
      <path
         d="m 425.693,-773.901 c 15.45,8.897 34.94,20.121 53.479,30.797"
         id="path554"
         inkscape:connector-curvature="0"
         style="fill:none;stroke:#808080;stroke-width:2" />
      <polygon
         points="477.476,-740.042 480.969,-746.108 487.889,-738.085 "
         id="polygon556"
         style="fill:#808080;stroke:#808080;stroke-width:2" />
    </g>
    <!-- 18&#45;&gt;15 -->
    <!-- 18&#45;&gt;32 -->
    <!-- 19 -->
    <!-- 48 -->
    <g
       id="node49"
       class="node">
      <title
         id="title580">48</title>
      <path
         d="m 488,-970 c 0,0 -184,0 -184,0 -6,0 -12,6 -12,12 0,0 0,28 0,28 0,6 6,12 12,12 0,0 184,0 184,0 6,0 12,-6 12,-12 0,0 0,-28 0,-28 0,-6 -6,-12 -12,-12"
         id="path582"
         inkscape:connector-curvature="0"
         style="fill:none;stroke:#bed856;stroke-width:2" />
      <text
         x="396"
         y="-958"
         font-size="10.00"
         id="text584"
         style="font-size:10px;font-family:sans;text-anchor:middle">extract_cgMLST_regions_from_vcf</text>
      <text
         x="396"
         y="-947"
         font-size="10.00"
         id="text586"
         style="font-size:10px;font-family:sans;text-anchor:middle">mapping_method: bwa</text>
      <text
         x="396"
         y="-936"
         font-size="10.00"
         id="text588"
         style="font-size:10px;font-family:sans;text-anchor:middle">snp_caller: freebayes_joint_genotyping</text>
      <text
         x="396"
         y="-925"
         font-size="10.00"
         id="text590"
         style="font-size:10px;font-family:sans;text-anchor:middle">type: snp</text>
    </g>
    <!-- 19&#45;&gt;48 -->
    <!-- 20&#45;&gt;8 -->
    <!-- 21 -->
    <g
       id="node22"
       class="node">
      <title
         id="title607">21</title>
      <path
         d="m 299,-567 c 0,0 -40,0 -40,0 -6,0 -12,6 -12,12 0,0 0,12 0,12 0,6 6,12 12,12 0,0 40,0 40,0 6,0 12,-6 12,-12 0,0 0,-12 0,-12 0,-6 -6,-12 -12,-12"
         id="path609"
         inkscape:connector-curvature="0"
         style="fill:none;stroke:#56d0d8;stroke-width:2" />
      <text
         x="279"
         y="-546.5"
         font-size="10.00"
         id="text611"
         style="font-size:10px;font-family:sans;text-anchor:middle">index_vcf</text>
    </g>
    <!-- 21&#45;&gt;3 -->
    <g
       id="edge7"
       class="edge">
      <title
         id="title614">21-&gt;3</title>
      <path
         d="m 290.603,-530.699 c 5.249,7.827 11.685,17.423 18.011,26.856"
         id="path616"
         inkscape:connector-curvature="0"
         style="fill:none;stroke:#808080;stroke-width:2" />
      <polygon
         points="305.878,-501.639 311.692,-505.538 314.355,-495.283 "
         id="polygon618"
         style="fill:#808080;stroke:#808080;stroke-width:2" />
    </g>
    <!-- 22&#45;&gt;11 -->
    <!-- 22&#45;&gt;59 -->
    <!-- 23 -->
    <!-- 53 -->
    <!-- 23&#45;&gt;53 -->
    <!-- 24 -->
    <g
       id="node25"
       class="node">
      <title
         id="title662">24</title>
      <path
         d="m 727,-567 c 0,0 -40,0 -40,0 -6,0 -12,6 -12,12 0,0 0,12 0,12 0,6 6,12 12,12 0,0 40,0 40,0 6,0 12,-6 12,-12 0,0 0,-12 0,-12 0,-6 -6,-12 -12,-12"
         id="path664"
         inkscape:connector-curvature="0"
         style="fill:none;stroke:#56d0d8;stroke-width:2" />
      <text
         x="707"
         y="-546.5"
         font-size="10.00"
         id="text666"
         style="font-size:10px;font-family:sans;text-anchor:middle">index_vcf</text>
    </g>
    <!-- 52 -->
    <g
       id="node53"
       class="node">
      <title
         id="title669">52</title>
      <path
         d="m 790.5,-495 c 0,0 -257,0 -257,0 -6,0 -12,6 -12,12 0,0 0,39 0,39 0,6 6,12 12,12 0,0 257,0 257,0 6,0 12,-6 12,-12 0,0 0,-39 0,-39 0,-6 -6,-12 -12,-12"
         id="path671"
         inkscape:connector-curvature="0"
         style="fill:none;stroke:#56d873;stroke-width:2" />
      <text
         x="662"
         y="-483"
         font-size="10.00"
         id="text673"
         style="font-size:10px;font-family:sans;text-anchor:middle">extract_alternative_positions_and_unknown_positions</text>
      <text
         x="662"
         y="-472"
         font-size="10.00"
         id="text675"
         style="font-size:10px;font-family:sans;text-anchor:middle">core_genome_or_full_genome: cgMLST</text>
      <text
         x="662"
         y="-461"
         font-size="10.00"
         id="text677"
         style="font-size:10px;font-family:sans;text-anchor:middle">mapping_method: bwa</text>
      <text
         x="662"
         y="-450"
         font-size="10.00"
         id="text679"
         style="font-size:10px;font-family:sans;text-anchor:middle">sample: S1</text>
      <text
         x="662"
         y="-439"
         font-size="10.00"
         id="text681"
         style="font-size:10px;font-family:sans;text-anchor:middle">snp_caller: freebayes_joint_genotyping</text>
    </g>
    <!-- 24&#45;&gt;52 -->
    <g
       id="edge81"
       class="edge">
      <title
         id="title684">24-&gt;52</title>
      <path
         d="m 697.676,-530.699 c -4.175,7.747 -9.284,17.228 -14.317,26.567"
         id="path686"
         inkscape:connector-curvature="0"
         style="fill:none;stroke:#808080;stroke-width:2" />
      <polygon
         points="680.253,-505.746 686.415,-502.425 678.59,-495.283 "
         id="polygon688"
         style="fill:#808080;stroke:#808080;stroke-width:2" />
    </g>
    <!-- 33 -->
    <g
       id="node34"
       class="node">
      <title
         id="title691">33</title>
      <path
         d="m 484,-639 c 0,0 -346,0 -346,0 -6,0 -12,6 -12,12 0,0 0,12 0,12 0,6 6,12 12,12 0,0 346,0 346,0 6,0 12,-6 12,-12 0,0 0,-12 0,-12 0,-6 -6,-12 -12,-12"
         id="path693"
         inkscape:connector-curvature="0"
         style="fill:none;stroke:#d86656;stroke-width:2" />
      <text
         x="311"
         y="-624"
         font-size="10.00"
         id="text695"
         style="font-size:10px;font-family:sans;text-anchor:middle">compress_vcf</text>
      <text
         x="311"
         y="-613"
         font-size="10.00"
         id="text697"
         style="font-size:10px;font-family:sans;text-anchor:middle">any_vcf: samples/S2/snps/freebayes_joint_genotyping/cgMLST/bwa/snps</text>
    </g>
    <!-- 25&#45;&gt;33 -->
    <g
       id="edge50"
       class="edge">
      <title
         id="title700">25-&gt;33</title>
      <path
         d="m 313.533,-674.882 c -0.403,8.415 -0.837,17.48 -1.23,25.687"
         id="path702"
         inkscape:connector-curvature="0"
         style="fill:none;stroke:#808080;stroke-width:2" />
      <polygon
         points="308.798,-649.183 315.79,-648.847 311.816,-639.026 "
         id="polygon704"
         style="fill:#808080;stroke:#808080;stroke-width:2" />
    </g>
    <!-- 26&#45;&gt;12 -->
    <g
       id="edge21"
       class="edge">
      <title
         id="title707">26-&gt;12</title>
      <path
         d="m 235.846,-143.876 c -14.379,9.068 -32.227,20.324 -47.756,30.117"
         id="path709"
         inkscape:connector-curvature="0"
         style="fill:none;stroke:#808080;stroke-width:2" />
      <polygon
         points="185.85,-116.484 189.584,-110.564 179.258,-108.19 "
         id="polygon711"
         style="fill:#808080;stroke:#808080;stroke-width:2" />
    </g>
    <!-- 60 -->
    <g
       id="node61"
       class="node">
      <title
         id="title714">60</title>
      <path
         d="m 450,-108 c 0,0 -152,0 -152,0 -6,0 -12,6 -12,12 0,0 0,12 0,12 0,6 6,12 12,12 0,0 152,0 152,0 6,0 12,-6 12,-12 0,0 0,-12 0,-12 0,-6 -6,-12 -12,-12"
         id="path716"
         inkscape:connector-curvature="0"
         style="fill:none;stroke:#56d88a;stroke-width:2" />
      <text
         x="374"
         y="-87.5"
         font-size="10.00"
         id="text718"
         style="font-size:10px;font-family:sans;text-anchor:middle">compute_phylogeny_with_raxml</text>
    </g>
    <!-- 26&#45;&gt;60 -->
    <g
       id="edge99"
       class="edge">
      <title
         id="title721">26-&gt;60</title>
      <path
         d="m 290.154,-143.876 c 14.379,9.068 32.227,20.324 47.756,30.117"
         id="path723"
         inkscape:connector-curvature="0"
         style="fill:none;stroke:#808080;stroke-width:2" />
      <polygon
         points="336.416,-110.564 340.15,-116.484 346.742,-108.19 "
         id="polygon725"
         style="fill:#808080;stroke:#808080;stroke-width:2" />
    </g>
    <!-- 28&#45;&gt;18 -->
    <!-- 28&#45;&gt;35 -->
    <!-- 28&#45;&gt;41 -->
    <!-- 28&#45;&gt;56 -->
    <!-- 28&#45;&gt;68 -->
    <!-- 29 -->
    <!-- 64 -->
    <!-- 29&#45;&gt;64 -->
    <!-- 66 -->
    <!-- 29&#45;&gt;66 -->
    <!-- 30 -->
    <!-- 30&#45;&gt;35 -->
    <!-- 31 -->
    <!-- 46 -->
    <!-- 31&#45;&gt;46 -->
    <!-- 31&#45;&gt;59 -->
    <!-- 32&#45;&gt;35 -->
    <!-- 69 -->
    <!-- 32&#45;&gt;69 -->
    <!-- 33&#45;&gt;3 -->
    <g
       id="edge8"
       class="edge">
      <title
         id="title869">33-&gt;3</title>
      <path
         d="m 314.018,-602.831 c 1.797,10.367 4.088,23.847 5.982,35.831 3.222,20.384 6.569,43.089 9.282,61.938"
         id="path871"
         inkscape:connector-curvature="0"
         style="fill:none;stroke:#808080;stroke-width:2" />
      <polygon
         points="325.837,-504.429 332.766,-505.421 330.719,-495.026 "
         id="polygon873"
         style="fill:#808080;stroke:#808080;stroke-width:2" />
    </g>
    <!-- 33&#45;&gt;21 -->
    <g
       id="edge34"
       class="edge">
      <title
         id="title876">33-&gt;21</title>
      <path
         d="m 303.09,-602.697 c -3.643,7.969 -8.044,17.597 -12.084,26.433"
         id="path878"
         inkscape:connector-curvature="0"
         style="fill:none;stroke:#808080;stroke-width:2" />
      <polygon
         points="287.794,-577.654 294.16,-574.744 286.819,-567.104 "
         id="polygon880"
         style="fill:#808080;stroke:#808080;stroke-width:2" />
    </g>
    <!-- 34 -->
    <!-- 34&#45;&gt;4 -->
    <!-- 35&#45;&gt;34 -->
    <!-- 36 -->
    <!-- 54 -->
    <!-- 36&#45;&gt;54 -->
    <!-- 36&#45;&gt;68 -->
    <!-- 37 -->
    <!-- 37&#45;&gt;23 -->
    <!-- 37&#45;&gt;53 -->
    <!-- 38 -->
    <g
       id="node39"
       class="node">
      <title
         id="title959">38</title>
      <path
         d="m 872,-639 c 0,0 -346,0 -346,0 -6,0 -12,6 -12,12 0,0 0,12 0,12 0,6 6,12 12,12 0,0 346,0 346,0 6,0 12,-6 12,-12 0,0 0,-12 0,-12 0,-6 -6,-12 -12,-12"
         id="path961"
         inkscape:connector-curvature="0"
         style="fill:none;stroke:#d86656;stroke-width:2" />
      <text
         x="699"
         y="-624"
         font-size="10.00"
         id="text963"
         style="font-size:10px;font-family:sans;text-anchor:middle">compress_vcf</text>
      <text
         x="699"
         y="-613"
         font-size="10.00"
         id="text965"
         style="font-size:10px;font-family:sans;text-anchor:middle">any_vcf: samples/S1/snps/freebayes_joint_genotyping/cgMLST/bwa/snps</text>
    </g>
    <!-- 38&#45;&gt;24 -->
    <g
       id="edge37"
       class="edge">
      <title
         id="title968">38-&gt;24</title>
      <path
         d="m 700.978,-602.697 c 0.881,7.714 1.941,16.985 2.923,25.585"
         id="path970"
         inkscape:connector-curvature="0"
         style="fill:none;stroke:#808080;stroke-width:2" />
      <polygon
         points="700.432,-576.642 707.387,-577.437 705.045,-567.104 "
         id="polygon972"
         style="fill:#808080;stroke:#808080;stroke-width:2" />
    </g>
    <!-- 38&#45;&gt;52 -->
    <g
       id="edge82"
       class="edge">
      <title
         id="title975">38-&gt;52</title>
      <path
         d="m 685.215,-602.979 c -7.149,9.88 -15.206,22.923 -19.215,35.979 -6.043,19.679 -7.445,42.484 -7.164,61.581"
         id="path977"
         inkscape:connector-curvature="0"
         style="fill:none;stroke:#808080;stroke-width:2" />
      <polygon
         points="655.344,-505.124 662.34,-505.337 659.146,-495.235 "
         id="polygon979"
         style="fill:#808080;stroke:#808080;stroke-width:2" />
    </g>
    <!-- 39 -->
    <!-- 39&#45;&gt;19 -->
    <!-- 39&#45;&gt;48 -->
    <!-- 40&#45;&gt;14 -->
    <!-- 47 -->
    <!-- 40&#45;&gt;47 -->
    <!-- 41&#45;&gt;9 -->
    <!-- 41&#45;&gt;16 -->
    <!-- 41&#45;&gt;18 -->
    <!-- 42 -->
    <!-- 57 -->
    <!-- 42&#45;&gt;57 -->
    <!-- 43 -->
    <!-- 43&#45;&gt;0 -->
    <!-- 45 -->
    <!-- 44&#45;&gt;45 -->
    <!-- 45&#45;&gt;58 -->
    <!-- 46&#45;&gt;59 -->
    <!-- 50 -->
    <!-- 47&#45;&gt;50 -->
    <!-- 48&#45;&gt;7 -->
    <g
       id="edge13"
       class="edge">
      <title
         id="title1130">48-&gt;7</title>
      <path
         d="m 396,-917.891 c 0,8.051 0,17.011 0,25.233"
         id="path1132"
         inkscape:connector-curvature="0"
         style="fill:none;stroke:#808080;stroke-width:2" />
      <polygon
         points="392.5,-892.411 399.5,-892.411 396,-882.411 "
         id="polygon1134"
         style="fill:#808080;stroke:#808080;stroke-width:2" />
    </g>
    <!-- 49 -->
    <!-- 49&#45;&gt;10 -->
    <!-- 50&#45;&gt;31 -->
    <!-- 51 -->
    <g
       id="node52"
       class="node">
      <title
         id="title1158">51</title>
      <path
         d="m 733,-252 c 0,0 -190,0 -190,0 -6,0 -12,6 -12,12 0,0 0,12 0,12 0,6 6,12 12,12 0,0 190,0 190,0 6,0 12,-6 12,-12 0,0 0,-12 0,-12 0,-6 -6,-12 -12,-12"
         id="path1160"
         inkscape:connector-curvature="0"
         style="fill:none;stroke:#d87d56;stroke-width:2" />
      <text
         x="638"
         y="-231.5"
         font-size="10.00"
         id="text1162"
         style="font-size:10px;font-family:sans;text-anchor:middle">create_consensus_sequence_by_sample</text>
    </g>
    <!-- 51&#45;&gt;26 -->
    <g
       id="edge40"
       class="edge">
      <title
         id="title1165">51-&gt;26</title>
      <path
         d="m 546.744,-215.966 c -55.118,10.289 -125.459,23.419 -182.315,34.033"
         id="path1167"
         inkscape:connector-curvature="0"
         style="fill:none;stroke:#808080;stroke-width:2" />
      <polygon
         points="363.528,-185.326 364.812,-178.445 354.34,-180.05 "
         id="polygon1169"
         style="fill:#808080;stroke:#808080;stroke-width:2" />
    </g>
    <!-- 52&#45;&gt;51 -->
    <g
       id="edge78"
       class="edge">
      <title
         id="title1172">52-&gt;51</title>
      <path
         d="m 658.763,-431.818 c -4.708,44.629 -13.373,126.768 -17.876,169.45"
         id="path1174"
         inkscape:connector-curvature="0"
         style="fill:none;stroke:#808080;stroke-width:2" />
      <polygon
         points="637.38,-262.481 644.341,-261.747 639.811,-252.169 "
         id="polygon1176"
         style="fill:#808080;stroke:#808080;stroke-width:2" />
    </g>
    <!-- 65 -->
    <g
       id="node66"
       class="node">
      <title
         id="title1179">65</title>
      <path
         d="m 1077.5,-396 c 0,0 -399,0 -399,0 -6,0 -12,6 -12,12 0,0 0,12 0,12 0,6 6,12 12,12 0,0 399,0 399,0 6,0 12,-6 12,-12 0,0 0,-12 0,-12 0,-6 -6,-12 -12,-12"
         id="path1181"
         inkscape:connector-curvature="0"
         style="fill:none;stroke:#d86656;stroke-width:2" />
      <text
         x="878"
         y="-381"
         font-size="10.00"
         id="text1183"
         style="font-size:10px;font-family:sans;text-anchor:middle">compress_vcf</text>
      <text
         x="878"
         y="-370"
         font-size="10.00"
         id="text1185"
         style="font-size:10px;font-family:sans;text-anchor:middle">any_vcf: samples/S1/snps/freebayes_joint_genotyping/cgMLST/bwa/alternative_snp</text>
    </g>
    <!-- 52&#45;&gt;65 -->
    <g
       id="edge103"
       class="edge">
      <title
         id="title1188">52-&gt;65</title>
      <path
         d="m 741.204,-431.882 c 27.758,10.731 58.255,22.52 83.395,32.239"
         id="path1190"
         inkscape:connector-curvature="0"
         style="fill:none;stroke:#808080;stroke-width:2" />
      <polygon
         points="823.366,-396.368 825.89,-402.897 833.956,-396.026 "
         id="polygon1192"
         style="fill:#808080;stroke:#808080;stroke-width:2" />
    </g>
    <!-- 53&#45;&gt;39 -->
    <!-- 54&#45;&gt;70 -->
    <!-- 55&#45;&gt;2 -->
    <g
       id="edge6"
       class="edge">
      <title
         id="title1209">55-&gt;2</title>
      <path
         d="m 136.853,-287.876 c 22.931,9.612 51.729,21.683 76.017,31.863"
         id="path1211"
         inkscape:connector-curvature="0"
         style="fill:none;stroke:#808080;stroke-width:2" />
      <polygon
         points="211.704,-252.706 214.41,-259.162 222.28,-252.068 "
         id="polygon1213"
         style="fill:#808080;stroke:#808080;stroke-width:2" />
    </g>
    <!-- 55&#45;&gt;26 -->
    <g
       id="edge42"
       class="edge">
      <title
         id="title1216">55-&gt;26</title>
      <path
         d="m 102.1,-287.828 c 7.74,19.637 22.796,51.665 44.9,71.828 14.696,13.406 33.364,23.929 51.405,31.943"
         id="path1218"
         inkscape:connector-curvature="0"
         style="fill:none;stroke:#808080;stroke-width:2" />
      <polygon
         points="197.185,-180.773 199.917,-187.218 207.758,-180.093 "
         id="polygon1220"
         style="fill:#808080;stroke:#808080;stroke-width:2" />
    </g>
    <!-- 55&#45;&gt;51 -->
    <g
       id="edge80"
       class="edge">
      <title
         id="title1223">55-&gt;51</title>
      <path
         d="m 192.274,-292.566 c 91.759,11.851 230.106,29.718 328.299,42.4"
         id="path1225"
         inkscape:connector-curvature="0"
         style="fill:none;stroke:#808080;stroke-width:2" />
      <polygon
         points="520.178,-246.688 521.074,-253.63 530.544,-248.878 "
         id="polygon1227"
         style="fill:#808080;stroke:#808080;stroke-width:2" />
    </g>
    <!-- 56&#45;&gt;36 -->
    <!-- 56&#45;&gt;54 -->
    <!-- 56&#45;&gt;68 -->
    <!-- 57&#45;&gt;30 -->
    <!-- 57&#45;&gt;35 -->
    <!-- 58&#45;&gt;8 -->
    <!-- 59&#45;&gt;37 -->
    <!-- 60&#45;&gt;27 -->
    <g
       id="edge44"
       class="edge">
      <title
         id="title1279">60-&gt;27</title>
      <path
         d="m 346.846,-71.8761 c -14.379,9.0678 -32.227,20.3238 -47.756,30.1169"
         id="path1281"
         inkscape:connector-curvature="0"
         style="fill:none;stroke:#808080;stroke-width:2" />
      <polygon
         points="296.85,-44.4845 300.584,-38.5635 290.258,-36.1898 "
         id="polygon1283"
         style="fill:#808080;stroke:#808080;stroke-width:2" />
    </g>
    <!-- 61 -->
    <!-- 61&#45;&gt;5 -->
    <!-- 61&#45;&gt;6 -->
    <!-- 62&#45;&gt;2 -->
    <g
       id="edge3"
       class="edge">
      <title
         id="title1309">62-&gt;2</title>
      <path
         d="m 388.314,-359.667 c -11.091,18.923 -30.559,49.483 -52.314,71.667 -10.87,11.084 -24.267,21.531 -36.604,30.172"
         id="path1311"
         inkscape:connector-curvature="0"
         style="fill:none;stroke:#808080;stroke-width:2" />
      <polygon
         points="297.358,-260.675 301.302,-254.891 291.068,-252.149 "
         id="polygon1313"
         style="fill:#808080;stroke:#808080;stroke-width:2" />
    </g>
    <!-- 73 -->
    <g
       id="node74"
       class="node">
      <title
         id="title1316">73</title>
      <path
         d="m 315,-324 c 0,0 -40,0 -40,0 -6,0 -12,6 -12,12 0,0 0,12 0,12 0,6 6,12 12,12 0,0 40,0 40,0 6,0 12,-6 12,-12 0,0 0,-12 0,-12 0,-6 -6,-12 -12,-12"
         id="path1318"
         inkscape:connector-curvature="0"
         style="fill:none;stroke:#56d0d8;stroke-width:2" />
      <text
         x="295"
         y="-303.5"
         font-size="10.00"
         id="text1320"
         style="font-size:10px;font-family:sans;text-anchor:middle">index_vcf</text>
    </g>
    <!-- 62&#45;&gt;73 -->
    <g
       id="edge117"
       class="edge">
      <title
         id="title1323">62-&gt;73</title>
      <path
         d="m 372.803,-359.876 c -13.217,8.983 -29.595,20.113 -43.91,29.842"
         id="path1325"
         inkscape:connector-curvature="0"
         style="fill:none;stroke:#808080;stroke-width:2" />
      <polygon
         points="326.597,-332.705 330.532,-326.916 320.293,-324.19 "
         id="polygon1327"
         style="fill:#808080;stroke:#808080;stroke-width:2" />
    </g>
    <!-- 63 -->
    <!-- 63&#45;&gt;70 -->
    <!-- 64&#45;&gt;20 -->
    <!-- 64&#45;&gt;41 -->
    <!-- 64&#45;&gt;43 -->
    <!-- 65&#45;&gt;51 -->
    <g
       id="edge79"
       class="edge">
      <title
         id="title1365">65-&gt;51</title>
      <path
         d="m 849.05,-359.871 c -43.336,25.64 -125.105,74.02 -173.148,102.446"
         id="path1367"
         inkscape:connector-curvature="0"
         style="fill:none;stroke:#808080;stroke-width:2" />
      <polygon
         points="673.876,-260.294 677.441,-254.269 667.052,-252.189 "
         id="polygon1369"
         style="fill:#808080;stroke:#808080;stroke-width:2" />
    </g>
    <!-- 72 -->
    <g
       id="node73"
       class="node">
      <title
         id="title1372">72</title>
      <path
         d="m 862,-324 c 0,0 -40,0 -40,0 -6,0 -12,6 -12,12 0,0 0,12 0,12 0,6 6,12 12,12 0,0 40,0 40,0 6,0 12,-6 12,-12 0,0 0,-12 0,-12 0,-6 -6,-12 -12,-12"
         id="path1374"
         inkscape:connector-curvature="0"
         style="fill:none;stroke:#56d0d8;stroke-width:2" />
      <text
         x="842"
         y="-303.5"
         font-size="10.00"
         id="text1376"
         style="font-size:10px;font-family:sans;text-anchor:middle">index_vcf</text>
    </g>
    <!-- 65&#45;&gt;72 -->
    <g
       id="edge116"
       class="edge">
      <title
         id="title1379">65-&gt;72</title>
      <path
         d="m 869.101,-359.697 c -4.098,7.969 -9.05,17.597 -13.594,26.433"
         id="path1381"
         inkscape:connector-curvature="0"
         style="fill:none;stroke:#808080;stroke-width:2" />
      <polygon
         points="852.258,-334.598 858.483,-331.396 850.797,-324.104 "
         id="polygon1383"
         style="fill:#808080;stroke:#808080;stroke-width:2" />
    </g>
    <!-- 66&#45;&gt;49 -->
    <!-- 67&#45;&gt;63 -->
    <!-- 68&#45;&gt;42 -->
    <!-- 68&#45;&gt;57 -->
    <!-- 69&#45;&gt;35 -->
    <!-- 70&#45;&gt;8 -->
    <!-- 71&#45;&gt;38 -->
    <g
       id="edge61"
       class="edge">
      <title
         id="title1428">71-&gt;38</title>
      <path
         d="m 598.936,-674.882 c 19.5,10.305 40.847,21.587 58.797,31.073"
         id="path1430"
         inkscape:connector-curvature="0"
         style="fill:none;stroke:#808080;stroke-width:2" />
      <polygon
         points="656.306,-640.605 659.576,-646.793 666.782,-639.026 "
         id="polygon1432"
         style="fill:#808080;stroke:#808080;stroke-width:2" />
    </g>
    <!-- 72&#45;&gt;51 -->
    <g
       id="edge77"
       class="edge">
      <title
         id="title1435">72-&gt;51</title>
      <path
         d="m 809.676,-293.908 c -30.115,10.333 -75.751,25.993 -112.403,38.569"
         id="path1437"
         inkscape:connector-curvature="0"
         style="fill:none;stroke:#808080;stroke-width:2" />
      <polygon
         points="696.002,-258.603 698.274,-251.982 687.68,-252.047 "
         id="polygon1439"
         style="fill:#808080;stroke:#808080;stroke-width:2" />
    </g>
    <!-- 73&#45;&gt;2 -->
    <g
       id="edge4"
       class="edge">
      <title
         id="title1442">73-&gt;2</title>
      <path
         d="m 287.09,-287.697 c -3.643,7.969 -8.044,17.597 -12.084,26.433"
         id="path1444"
         inkscape:connector-curvature="0"
         style="fill:none;stroke:#808080;stroke-width:2" />
      <polygon
         points="271.794,-262.654 278.16,-259.744 270.819,-252.104 "
         id="polygon1446"
         style="fill:#808080;stroke:#808080;stroke-width:2" />
    </g>
  </g>
</svg>
