<?xml version="1.0" encoding="UTF-8" standalone="no"?>
<!-- Generated by graphviz version 2.38.0 (20140413.2041)
 -->

<!-- Title: snakemake_dag Pages: 1 -->

<svg
   xmlns:dc="http://purl.org/dc/elements/1.1/"
   xmlns:cc="http://creativecommons.org/ns#"
   xmlns:rdf="http://www.w3.org/1999/02/22-rdf-syntax-ns#"
   xmlns:svg="http://www.w3.org/2000/svg"
   xmlns="http://www.w3.org/2000/svg"
   xmlns:sodipodi="http://sodipodi.sourceforge.net/DTD/sodipodi-0.dtd"
   xmlns:inkscape="http://www.inkscape.org/namespaces/inkscape"
   width="793.5pt"
   height="398pt"
   viewBox="0 0 793.06496 398"
   version="1.1"
   id="svg372"
   sodipodi:docname="virulence.svg"
   inkscape:version="0.92.3 (unknown)">
  <metadata
     id="metadata378">
    <rdf:RDF>
      <cc:Work
         rdf:about="">
        <dc:format>image/svg+xml</dc:format>
        <dc:type
           rdf:resource="http://purl.org/dc/dcmitype/StillImage" />
        <dc:title></dc:title>
      </cc:Work>
    </rdf:RDF>
  </metadata>
  <defs
     id="defs376" />
  <sodipodi:namedview
     pagecolor="#ffffff"
     bordercolor="#666666"
     borderopacity="1"
     objecttolerance="10"
     gridtolerance="10"
     guidetolerance="10"
     inkscape:pageopacity="0"
     inkscape:pageshadow="2"
     inkscape:window-width="1920"
     inkscape:window-height="1056"
     id="namedview374"
     showgrid="false"
     fit-margin-top="0"
     fit-margin-left="0"
     fit-margin-right="0"
     fit-margin-bottom="0"
     inkscape:zoom="0.69613244"
     inkscape:cx="1150.3476"
     inkscape:cy="520.98491"
     inkscape:window-x="0"
     inkscape:window-y="353"
     inkscape:window-maximized="1"
     inkscape:current-layer="graph0" />
  <g
     id="graph0"
     class="graph"
     transform="translate(0.75010936,397)">
    <title
       id="title2">snakemake_dag</title>
    <!-- 0 -->
    <g
       id="node1"
       class="node">
      <title
         id="title6">0</title>
      <path
         d="m 616.5,-36 c 0,0 -122,0 -122,0 -6,0 -12,6 -12,12 0,0 0,12 0,12 0,6 6,12 12,12 0,0 122,0 122,0 6,0 12,-6 12,-12 0,0 0,-12 0,-12 0,-6 -6,-12 -12,-12"
         id="path8"
         inkscape:connector-curvature="0"
         style="fill:none;stroke:#56d89a;stroke-width:2" />
      <text
         x="555.5"
         y="-15.5"
         font-size="10.00"
         id="text10"
         style="font-size:10px;font-family:sans;text-anchor:middle">merge_samples_summary</text>
    </g>
    <!-- 1 -->
    <!-- 16 -->
    <!-- 1&#45;&gt;16 -->
    <!-- 2 -->
    <!-- 20 -->
    <!-- 2&#45;&gt;20 -->
    <!-- 3 -->
    <g
       id="node4"
       class="node">
      <title
         id="title59">3</title>
      <path
         d="m 151,-324 c 0,0 -139,0 -139,0 -6,0 -12,6 -12,12 0,0 0,12 0,12 0,6 6,12 12,12 0,0 139,0 139,0 6,0 12,-6 12,-12 0,0 0,-12 0,-12 0,-6 -6,-12 -12,-12"
         id="path61"
         inkscape:connector-curvature="0"
         style="fill:none;stroke:#d89556;stroke-width:2" />
      <text
         x="81.5"
         y="-303.5"
         font-size="10.00"
         id="text63"
         style="font-size:10px;font-family:sans;text-anchor:middle">fetch_from_uniprot_accession</text>
    </g>
    <!-- 10 -->
    <g
       id="node11"
       class="node">
      <title
         id="title66">10</title>
      <path
         d="m 432.5,-252 c 0,0 -174,0 -174,0 -6,0 -12,6 -12,12 0,0 0,12 0,12 0,6 6,12 12,12 0,0 174,0 174,0 6,0 12,-6 12,-12 0,0 0,-12 0,-12 0,-6 -6,-12 -12,-12"
         id="path68"
         inkscape:connector-curvature="0"
         style="fill:none;stroke:#70d856;stroke-width:2" />
      <text
         x="345.5"
         y="-231.5"
         font-size="10.00"
         id="text70"
         style="font-size:10px;font-family:sans;text-anchor:middle">blast_virulence_protein_to_proteome</text>
    </g>
    <!-- 3&#45;&gt;10 -->
    <g
       id="edge11"
       class="edge">
      <title
         id="title73">3-&gt;10</title>
      <path
         d="m 145.744,-287.966 c 37.849,10.036 85.895,22.776 125.381,33.245"
         id="path75"
         inkscape:connector-curvature="0"
         style="fill:none;stroke:#808080;stroke-width:2" />
      <polygon
         points="280.968,-252.111 270.405,-251.291 272.199,-258.057 "
         id="polygon77"
         style="fill:#808080;stroke:#808080;stroke-width:2" />
    </g>
    <!-- 4 -->
    <g
       id="node5"
       class="node">
      <title
         id="title80">4</title>
      <path
         d="m 725.5,-324 c 0,0 -224,0 -224,0 -6,0 -12,6 -12,12 0,0 0,12 0,12 0,6 6,12 12,12 0,0 224,0 224,0 6,0 12,-6 12,-12 0,0 0,-12 0,-12 0,-6 -6,-12 -12,-12"
         id="path82"
         inkscape:connector-curvature="0"
         style="fill:none;stroke:#56d85b;stroke-width:2" />
      <text
         x="613.5"
         y="-303.5"
         font-size="10.00"
         id="text84"
         style="font-size:10px;font-family:sans;text-anchor:middle">create_blast_database_from_contig_sequences</text>
    </g>
    <!-- 4&#45;&gt;10 -->
    <g
       id="edge14"
       class="edge">
      <title
         id="title87">4-&gt;10</title>
      <path
         d="m 548.283,-287.966 c -38.504,10.057 -87.403,22.83 -127.536,33.312"
         id="path89"
         inkscape:connector-curvature="0"
         style="fill:none;stroke:#808080;stroke-width:2" />
      <polygon
         points="411.01,-252.111 419.801,-258.024 421.57,-251.252 "
         id="polygon91"
         style="fill:#808080;stroke:#808080;stroke-width:2" />
    </g>
    <!-- 5 -->
    <!-- 17 -->
    <!-- 5&#45;&gt;17 -->
    <!-- 6 -->
    <!-- 6&#45;&gt;1 -->
    <!-- 6&#45;&gt;16 -->
    <!-- 7 -->
    <!-- 18 -->
    <!-- 7&#45;&gt;18 -->
    <!-- 8 -->
    <g
       id="node9"
       class="node">
      <title
         id="title159">8</title>
      <path
         d="m 535.5,-180 c 0,0 -188,0 -188,0 -6,0 -12,6 -12,12 0,0 0,12 0,12 0,6 6,12 12,12 0,0 188,0 188,0 6,0 12,-6 12,-12 0,0 0,-12 0,-12 0,-6 -6,-12 -12,-12"
         id="path161"
         inkscape:connector-curvature="0"
         style="fill:none;stroke:#56d863;stroke-width:2" />
      <text
         x="441.5"
         y="-159.5"
         font-size="10.00"
         id="text163"
         style="font-size:10px;font-family:sans;text-anchor:middle">remove_redundancy_from_blast_results</text>
    </g>
    <!-- 11 -->
    <g
       id="node12"
       class="node">
      <title
         id="title166">11</title>
      <path
         d="m 517.5,-108 c 0,0 -152,0 -152,0 -6,0 -12,6 -12,12 0,0 0,12 0,12 0,6 6,12 12,12 0,0 152,0 152,0 6,0 12,-6 12,-12 0,0 0,-12 0,-12 0,-6 -6,-12 -12,-12"
         id="path168"
         inkscape:connector-curvature="0"
         style="fill:none;stroke:#56d8a9;stroke-width:2" />
      <text
         x="441.5"
         y="-87.5"
         font-size="10.00"
         id="text170"
         style="font-size:10px;font-family:sans;text-anchor:middle">add_description_to_blast_results</text>
    </g>
    <!-- 8&#45;&gt;11 -->
    <g
       id="edge15"
       class="edge">
      <title
         id="title173">8-&gt;11</title>
      <path
         d="m 441.5,-143.697 c 0,7.714 0,16.985 0,25.585"
         id="path175"
         inkscape:connector-curvature="0"
         style="fill:none;stroke:#808080;stroke-width:2" />
      <polygon
         points="441.5,-108.104 438,-118.104 445,-118.104 "
         id="polygon177"
         style="fill:#808080;stroke:#808080;stroke-width:2" />
    </g>
    <!-- 12 -->
    <g
       id="node13"
       class="node">
      <title
         id="title180">12</title>
      <path
         d="m 779.5,-108 c 0,0 -220,0 -220,0 -6,0 -12,6 -12,12 0,0 0,12 0,12 0,6 6,12 12,12 0,0 220,0 220,0 6,0 12,-6 12,-12 0,0 0,-12 0,-12 0,-6 -6,-12 -12,-12"
         id="path182"
         inkscape:connector-curvature="0"
         style="fill:none;stroke:#d8a456;stroke-width:2" />
      <text
         x="669.5"
         y="-87.5"
         font-size="10.00"
         id="text184"
         style="font-size:10px;font-family:sans;text-anchor:middle">extract_protein_sequences_from_blast_results</text>
    </g>
    <!-- 8&#45;&gt;12 -->
    <g
       id="edge16"
       class="edge">
      <title
         id="title187">8-&gt;12</title>
      <path
         d="m 496.984,-143.966 c 32.272,9.909 73.128,22.452 106.979,32.845"
         id="path189"
         inkscape:connector-curvature="0"
         style="fill:none;stroke:#808080;stroke-width:2" />
      <polygon
         points="613.768,-108.111 603.181,-107.7 605.235,-114.392 "
         id="polygon191"
         style="fill:#808080;stroke:#808080;stroke-width:2" />
    </g>
    <!-- 9 -->
    <!-- 15 -->
    <!-- 9&#45;&gt;15 -->
    <!-- 10&#45;&gt;8 -->
    <g
       id="edge9"
       class="edge">
      <title
         id="title215">10-&gt;8</title>
      <path
         d="m 369.23,-215.697 c 12.207,8.901 27.255,19.874 40.454,29.498"
         id="path217"
         inkscape:connector-curvature="0"
         style="fill:none;stroke:#808080;stroke-width:2" />
      <polygon
         points="418.043,-180.104 407.9,-183.168 412.025,-188.824 "
         id="polygon219"
         style="fill:#808080;stroke:#808080;stroke-width:2" />
    </g>
    <!-- 11&#45;&gt;0 -->
    <g
       id="edge1"
       class="edge">
      <title
         id="title222">11-&gt;0</title>
      <path
         d="m 469.388,-71.8761 c 14.905,9.1525 33.441,20.5344 49.494,30.3911"
         id="path224"
         inkscape:connector-curvature="0"
         style="fill:none;stroke:#808080;stroke-width:2" />
      <polygon
         points="527.505,-36.1898 517.152,-38.4398 520.815,-44.405 "
         id="polygon226"
         style="fill:#808080;stroke:#808080;stroke-width:2" />
    </g>
    <!-- 12&#45;&gt;0 -->
    <g
       id="edge2"
       class="edge">
      <title
         id="title229">12-&gt;0</title>
      <path
         d="m 641.612,-71.8761 c -14.905,9.1525 -33.441,20.5344 -49.494,30.3911"
         id="path231"
         inkscape:connector-curvature="0"
         style="fill:none;stroke:#808080;stroke-width:2" />
      <polygon
         points="583.495,-36.1898 590.185,-44.405 593.848,-38.4398 "
         id="polygon233"
         style="fill:#808080;stroke:#808080;stroke-width:2" />
    </g>
    <!-- 13 -->
    <!-- 19 -->
    <g
       id="node20"
       class="node">
      <title
         id="title243">19</title>
      <path
         d="m 530,-396 c 0,0 -101,0 -101,0 -6,0 -12,6 -12,12 0,0 0,12 0,12 0,6 6,12 12,12 0,0 101,0 101,0 6,0 12,-6 12,-12 0,0 0,-12 0,-12 0,-6 -6,-12 -12,-12"
         id="path245"
         inkscape:connector-curvature="0"
         style="fill:none;stroke:#c6d856;stroke-width:2" />
      <text
         x="479.5"
         y="-375.5"
         font-size="10.00"
         id="text247"
         style="font-size:10px;font-family:sans;text-anchor:middle">annotate_with_prokka</text>
    </g>
    <!-- 13&#45;&gt;19 -->
    <!-- 14 -->
    <!-- 14&#45;&gt;2 -->
    <!-- 15&#45;&gt;5 -->
    <!-- 16&#45;&gt;2 -->
    <!-- 16&#45;&gt;14 -->
    <!-- 17&#45;&gt;6 -->
    <!-- 17&#45;&gt;13 -->
    <!-- 18&#45;&gt;9 -->
    <!-- 18&#45;&gt;16 -->
    <!-- 19&#45;&gt;4 -->
    <g
       id="edge6"
       class="edge">
      <title
         id="title322">19-&gt;4</title>
      <path
         d="m 512.28,-359.876 c 17.845,9.322 40.117,20.957 59.223,30.937"
         id="path324"
         inkscape:connector-curvature="0"
         style="fill:none;stroke:#808080;stroke-width:2" />
      <polygon
         points="580.594,-324.19 570.11,-325.718 573.351,-331.922 "
         id="polygon326"
         style="fill:#808080;stroke:#808080;stroke-width:2" />
    </g>
    <!-- 19&#45;&gt;10 -->
    <g
       id="edge13"
       class="edge">
      <title
         id="title329">19-&gt;10</title>
      <path
         d="M 416.894,-373.609 C 345.74,-368.292 236.12,-355.16 210.5,-324 c -10.162,12.359 -9.012,22.78 0,36 9.396,13.783 22.97,23.982 37.93,31.528"
         id="path331"
         inkscape:connector-curvature="0"
         style="fill:none;stroke:#808080;stroke-width:2" />
      <polygon
         points="257.9,-252.107 247.353,-253.115 250.283,-259.472 "
         id="polygon333"
         style="fill:#808080;stroke:#808080;stroke-width:2" />
    </g>
    <!-- 19&#45;&gt;12 -->
    <g
       id="edge17"
       class="edge">
      <title
         id="title336">19-&gt;12</title>
      <path
         d="m 542.271,-373.491 c 70.646,5.415 178.889,18.627 204.229,49.491 51.77,63.056 -17.002,162.157 -54.941,208.09"
         id="path338"
         inkscape:connector-curvature="0"
         style="fill:none;stroke:#808080;stroke-width:2" />
      <polygon
         points="685.091,-108.23 688.856,-118.134 694.21,-113.624 "
         id="polygon340"
         style="fill:#808080;stroke:#808080;stroke-width:2" />
    </g>
    <!-- 21 -->
    <g
       id="node22"
       class="node">
      <title
         id="title343">21</title>
      <path
         d="m 459.5,-324 c 0,0 -228,0 -228,0 -6,0 -12,6 -12,12 0,0 0,12 0,12 0,6 6,12 12,12 0,0 228,0 228,0 6,0 12,-6 12,-12 0,0 0,-12 0,-12 0,-6 -6,-12 -12,-12"
         id="path345"
         inkscape:connector-curvature="0"
         style="fill:none;stroke:#d8c356;stroke-width:2" />
      <text
         x="345.5"
         y="-303.5"
         font-size="10.00"
         id="text347"
         style="font-size:10px;font-family:sans;text-anchor:middle">create_blast_database_from_protein_sequences</text>
    </g>
    <!-- 19&#45;&gt;21 -->
    <g
       id="edge29"
       class="edge">
      <title
         id="title350">19-&gt;21</title>
      <path
         d="m 446.72,-359.876 c -17.845,9.322 -40.117,20.957 -59.223,30.937"
         id="path352"
         inkscape:connector-curvature="0"
         style="fill:none;stroke:#808080;stroke-width:2" />
      <polygon
         points="378.406,-324.19 385.649,-331.922 388.89,-325.718 "
         id="polygon354"
         style="fill:#808080;stroke:#808080;stroke-width:2" />
    </g>
    <!-- 20&#45;&gt;13 -->
    <!-- 21&#45;&gt;10 -->
    <g
       id="edge12"
       class="edge">
      <title
         id="title364">21-&gt;10</title>
      <path
         d="m 345.5,-287.697 c 0,7.714 0,16.985 0,25.585"
         id="path366"
         inkscape:connector-curvature="0"
         style="fill:none;stroke:#808080;stroke-width:2" />
      <polygon
         points="345.5,-252.104 342,-262.104 349,-262.104 "
         id="polygon368"
         style="fill:#808080;stroke:#808080;stroke-width:2" />
    </g>
  </g>
</svg>
